<?xml version="1.0" encoding="UTF-8"?>
<svg xmlns="http://www.w3.org/2000/svg" viewBox="0 0 2436 2436">
  <g isolation="isolate">
    <g id="Layer_1" data-name="Layer 1">
      <path d="m2006.909,1812.661s178.098-258.24,61.158-539.343c-83.166-199.916-267.05-268.834-280.873-372.909-13.822-104.074,91.025-263.682,19.728-426.247-71.296-162.565-271.811-163.067-339.786-77.251-67.975,85.816-206.869,45.921-348.353,77.251-141.484,31.33-133.955,169.894-168.602,372.065-34.646,202.172-269.82,97.564-356.031,287.486-50.003,110.157,57.419,198.218-121.135,281.37-178.554,83.152-351.927,342.646-61.076,517.315,290.852,174.669,1289.246,328.898,1594.968-119.738Z" fill="#f9cf00" stroke-width="0"/>
      <path d="m918.682,666.195s13.343,145.053-26.635,206.434c-39.977,61.381-92.271,97.725-186.091,83.398-93.821-14.327-78.44-83.539-7.69-125.066,70.75-41.527,62.451-115.742,101.976-164.765,39.524-49.023,117.119-88.087,118.441,0Z" fill="#f9cf00" stroke-width="0"/>
      <path d="m388.26,1553.345c-27.453,20.079-86.039,65.23-79.482,113.263,12.768,93.534,264.059,131.538,387.357,145.826-23.239,74.537-15.02,143.897,21.342,167.177,35.492,22.723,89.925-3.497,156.506-35.569,47.818-23.034,84.033-49.032,108.411-68.791,75.059-32.727,184.438-65.553,306.009-41.729,80.308,15.738,85.793,40.491,164.927,57.625,186.624,40.407,405.617-43.243,417.284-135.121,1.457-11.469.145-26.711-9.935-45.703,20.693,3.867,133.091,23.296,180.823-37.754,37.474-47.93,15.673-120.627,11.922-133.134-85.991-286.747-1324.766-235.06-1665.164,13.91Z" fill="#a0a0a0" mix-blend-mode="multiply" opacity=".3" stroke-width="0"/>
      <path d="m1570.719,944.878c5.722,84.986,19.759,249.465,26.015,373.741,6.256,124.275,4.73,208.345,4.654,253.432-.075,45.087,1.296,51.19,0,56.073-1.297,4.883-5.263,8.545-11.596,12.893-6.332,4.349-15.029,9.384-26.549,10.757-11.52,1.373-25.862-.916-43.713,1.907-17.85,2.823-39.213,10.757-59.429,14.266-20.217,3.509-39.29,2.594-60.269,2.441-20.979-.153-43.867.458-60.269-1.373-16.403-1.831-26.32-6.103-41.044-8.621-14.724-2.517-34.254-3.28-46.002-5.34-11.748-2.06-15.715-5.417-16.478-36.696-.762-31.279,1.679-90.479,9.978-190.941,8.299-100.462,22.456-242.186,29.87-336.077,7.413-93.891,8.082-139.95,9.014-172.231.932-32.281,2.126-50.785,10.657-65.528,8.531-14.744,24.4-25.73,62.01-28.629,37.61-2.899,96.963,2.288,136.023,7.629,39.06,5.34,57.827,10.833,65.915,16.326,8.087,5.493,5.493,10.986,11.215,95.971Z" fill="#a7afc8" stroke-width="0"/>
      <path d="m1870.855,1148.124c5.474,6.937,11.83,14.733,18.333,24.025,6.504,9.292,13.153,20.078,14.91,29.74,1.757,9.662-1.38,18.197-5.235,24.465-3.855,6.268-8.426,10.267-14.562,11.205-6.135.939-13.831-1.184-21.768-6.897-7.937-5.714-16.116-15.02-23.407-24.697-7.292-9.677-13.699-19.726-17.051-27.253-3.352-7.527-3.65-12.534,2.545-20.393,6.195-7.858,18.889-18.575,27.529-20.893,8.641-2.318,13.232,3.76,18.705,10.697Z" fill="#f9d6d1" stroke-width="0"/>
      <path d="m1394.54,1065.609c.139,1.301.225,2.765.253,4.418.216,12.623-2.589,35.71-1.457,48.765,1.132,13.055,6.203,16.076,15.322,9.817,8.138-5.586,19.469-18.538,27.492-29.009,6.507,8.61,12.928,18.39,14.987,27.388,2.19,9.573-.559,18.241-4.128,24.676-3.569,6.435-7.955,10.637-14.042,11.851-6.087,1.214-13.871-.56-22.057-5.91-8.186-5.351-16.776-14.281-24.496-23.62-7.72-9.338-14.572-19.088-18.26-26.457-3.687-7.369-4.212-12.357,1.623-20.487,5.436-7.574,16.393-17.871,24.761-21.432Z" fill="#f29898" stroke-width="0"/>
      <path d="m1459.612,1091.112c-5.26-1.807-12.758-4.882-17.748-5.88-4.989-.998-7.471.082-13.053,6.311-5.582,6.229-14.269,17.614-18.962,23.575-4.693,5.961-5.394,6.501-5.206,7.74.188,1.24,1.267,3.182,2.805,4.585,1.538,1.403,3.532,2.266,6.339,1.132,2.807-1.133,6.419-4.26,8.549-5.825,2.131-1.564,2.778-1.564,3.318-1.376.54.189.971.566-1.868,7.188-2.838,6.623-8.92,19.433-10.755,26.715-1.835,7.282.593,9.009,5.557,11.302,4.964,2.293,12.459,5.151,18.88,5.421,6.42.27,11.76-2.049,19.286-9.063,7.526-7.013,17.235-18.718,23.682-29.588,6.446-10.87,9.629-20.904,7.498-27.323-2.131-6.419-9.576-9.225-14.808-10.897-5.232-1.672-8.254-2.212-13.513-4.019Z" fill="#f9d6d1" stroke-width="0"/>
      <path d="m1380.739,824.122c35.982-.118,81.114,4.12,112.85,8.459,39.06,5.34,57.828,10.832,65.915,16.325,8.087,5.493,5.493,10.985,11.215,95.971.054.81.121,1.743.177,2.567-20.748,26.959-46.742,56.111-67.395,76.18-29.677,28.837-48.29,38.908-76.898,35.78-28.608-3.128-67.213-19.455-104.06-54.624-13.689-13.065-27.13-28.733-38.84-45.067.562-16.133.87-29.305,1.197-40.603.932-32.281,2.127-50.784,10.658-65.528,8.531-14.744,24.4-25.73,62.01-28.629,7.052-.544,14.868-.803,23.172-.83Z" fill="#7885ab" stroke-width="0"/>
      <path d="m1584.953,879.838c-5.071,25.677-15.212,77.033-29.346,121.807-14.134,44.774-32.259,82.967-42.509,102.279-10.25,19.312-12.623,19.744-21.468,17.856-8.845-1.888-24.17-6.097-36.552-13.635-12.382-7.538-21.826-18.407-24.933-26.457-3.107-8.05.12-13.283,3.537-19.188,3.416-5.905,7.021-12.481,15.442-30.759,8.421-18.278,21.659-48.257,30.546-74.196,8.888-25.938,13.426-47.836,21.759-61.835,8.334-14,20.464-20.103,31.182-23.269,10.719-3.166,20.025-3.395,28.647-8.545,8.622-5.15,16.555-15.219,21.235-17.663,4.679-2.443,6.105,2.741,6.818,5.334q.713,2.593-4.359,28.27Z" fill="#a7afc8" stroke-width="0"/>
      <path d="m1582.173,846.425c2.445,1.447,4.748,2.925,6.935,4.429.071.246.144.499.203.715q.713,2.593-4.36,28.27c-3.958,20.04-12.388,56.41-22.01,92.397-16.964,2.555-33.177,4.138-48.068,7.273-21.658,4.56-37.602,10.951-50.043,16.536,5.272-12.604,10.561-26.011,14.84-38.499,8.888-25.938,13.426-47.835,21.759-61.835,8.334-14,20.463-20.103,31.181-23.269,10.719-3.166,20.027-3.394,28.648-8.544,8.433-5.037,16.198-14.762,20.913-17.472Z" fill="#8995b6" stroke-width="0"/>
      <path d="m1376.834,943.33c6.581,22.494,19.744,67.483,27.673,91.867,7.929,24.383,10.626,28.158,11.922,31.612s1.189,6.58-7.661,14.945c-8.849,8.364-26.43,21.955-37.489,28.104-11.059,6.15-15.59,4.855-19.798,2.913-4.207-1.942-8.092-4.532-17.206-21.197-9.115-16.665-23.468-47.422-33.825-82.754-10.357-35.333-16.723-75.253-17.856-103.088-1.133-27.835,2.967-43.587,11.759-51.679,8.792-8.091,22.279-8.523,32.906-2.05,10.628,6.473,18.395,19.851,25.084,32.474,6.69,12.624,12.299,24.49,15.105,30.425q2.805,5.934,9.385,28.429Z" fill="#a7afc8" stroke-width="0"/>
      <path d="m1312.303,847.535c5.112.126,10.307,1.636,14.957,4.468,10.628,6.473,18.396,19.852,25.085,32.475,6.689,12.624,12.299,24.489,15.104,30.424q2.805,5.934,9.385,28.429c3.852,13.166,9.956,34.017,15.948,53.953-6.211-2.737-13.509-5.532-22.588-7.85-20.282-5.178-49.415-7.983-69.374-8.199-2.654-.027-3.922-.175-6.266-.174-6.146-27.275-11.115-54.579-11.96-75.329-1.133-27.835,2.968-43.587,11.76-51.679,4.946-4.551,11.376-6.679,17.948-6.517Z" fill="#8995b6" stroke-width="0"/>
      <path d="m1288.073,957.204c.49-.161,3.878,8.907,8.976,23.689,4.438,12.867,12.521,37.171,20.402,57.417,0,0,.184.474.184.474,9.22,23.594,16.992,40.044,25.639,54.709,7.826,13.271,13.813,20.783,13.435,21.092-.302.247-7.073-6.665-15.561-19.779-9.174-14.174-17.698-31.315-26.823-54.73,0,0-.186-.48-.186-.48-8.311-21.361-15.279-43.903-19.481-57.934-4.485-14.976-7.026-24.314-6.584-24.459Zm277.402.726c.411.086-.836,9.547-4.698,24.482-4.001,15.473-10.277,34.694-19.982,56.759l-.158.359c-9.733,22.087-19.529,39.414-28.381,52.776-8.481,12.803-14.744,19.938-15.076,19.69-.391-.293,5.093-7.996,12.959-21.03,8.334-13.809,17.494-30.742,27.246-52.87l.158-.356c9.708-22.081,16.144-40.631,20.816-56.008,4.45-14.647,6.635-23.902,7.116-23.802Zm-184.491,1.62c.935-.294,8.654,21.579,17.23,48.825,8.576,27.246,14.777,49.598,13.842,49.893-.935.294-8.654-21.579-17.23-48.825-8.576-27.246-14.777-49.598-13.842-49.893Zm96.776,10.033c.891.411-8.681,23.074-21.366,50.588-12.685,27.514-23.703,49.512-24.593,49.101-.891-.411,8.681-23.074,21.366-50.588,12.685-27.514,23.703-49.512,24.593-49.101Z" fill="#4f5b7f" stroke-width="0"/>
      <path d="m1487.531,636.369c20.032.671,42.269,6.613,58.373,21.278,16.103,14.665,26.071,38.051,33.604,72.912,7.533,34.861,12.63,81.189,18.246,110.012,5.616,28.823,11.75,40.131,11.079,49.622-.671,9.49-8.146,17.158-38.492,36.549-30.345,19.391-83.559,50.505-116.588,66.157-33.029,15.653-45.873,15.844-73.028-2.955-27.155-18.799-68.627-56.593-92.046-79.611-23.418-23.018-28.786-31.261-29.073-38.832-.287-7.572,4.505-14.473,13.396-49.646,8.891-35.173,21.879-98.617,34.275-134.068,12.396-35.45,24.199-42.907,39.397-45.389,15.199-2.482,33.793.009,43.091,1.256,9.298,1.246,42.078,1.246,50.993-1.054,8.914-2.3,26.741-6.901,46.773-6.23Z" fill="#dc9b7d" stroke-width="0"/>
      <path d="m1483.8,636.303c1.234.002,2.478.024,3.73.066,7.868.264,16.072,1.356,24.115,3.455-15.38,26.171-37.773,58.826-56.593,76.675-24.155,22.908-42.366,21.375-59.044,9.106-16.677-12.269-31.822-35.274-42.174-56.361-4.121-8.395-7.477-16.485-9.341-24.121.891-.327,1.794-.624,2.715-.895,14.664-4.313,33.259-1.822,48.02-.576,14.761,1.246,25.688,1.247,40.066-1.054,13.479-2.157,29.989-6.335,48.506-6.296Z" fill="#c07958" stroke-width="0"/>
      <path d="m1513.39,583.442c2.372,6.71,7.116,17.96,5.557,31.246-1.559,13.285-9.42,28.601-20.197,39.649-10.777,11.048-24.467,17.825-41.479,21.959-17.012,4.134-37.345,5.625-56.593,1.965-19.248-3.66-37.413-12.471-48.324-23.383-10.911-10.912-14.572-23.925-15.249-33.752-.678-9.827,1.627-16.469,2.508-21.349.881-4.88.339-7.998-2.846-19.652-3.185-11.654-9.015-31.858-8.541-55.375.474-23.517,7.252-50.358,20.265-68.792,13.013-18.435,32.261-28.466,54.288-32.329,22.027-3.863,46.833-1.559,68.25,11.725,21.418,13.284,39.445,37.547,45.545,62.218,6.1,24.671.272,49.747-2.643,63.37-2.914,13.623-2.914,15.792-.542,22.501Z" fill="#dc9b7d" stroke-width="0"/>
      <path d="m1502.301,530.688c-1.403-.073-2.286,25.739-10.551,55.618l-.065.235c-4.291,15.42-9.717,27.2-14.967,36.428-4.993,8.778-8.869,13.818-8.34,14.277.453.393,5.401-3.774,11.37-12.365,6.169-8.879,12.465-21.177,16.84-36.979l.067-.242c8.565-31.096,6.219-56.942,5.646-56.972Zm-158.042,57.869c-.643.179-.54,3.465,1.161,8.399,1.786,5.182,4.916,11.031,9.827,17.628,9.499,12.76,19.164,21.102,19.743,20.667.563-.422-.811-3.344-3.704-7.67-3.449-5.156-6.728-9.125-11.954-16.057-5.024-6.663-7.955-11.155-10.674-16.01-2.383-4.254-3.685-7.156-4.398-6.958Z" fill="#8b563e" stroke-width="0"/>
      <path d="m1482.585,611.297c1.898,7.523-5.08,24-16.5,36.577-11.419,12.577-27.278,21.252-42.731,22.607-15.453,1.355-30.5-4.609-41.682-16.808-11.182-12.199-18.503-30.635-15.521-40.056s16.266-9.827,33.482-9.488c17.216.339,38.36,1.423,54.321,1.25,15.96-.173,26.734-1.605,28.632,5.918Z" fill="#c07958" stroke-width="0"/>
      <path d="m1491.461,602.342c1.246-12.269.288-30.001-9.154-53.052-9.441-23.051-27.366-51.424-44.283-64.698-16.917-13.275-32.829-11.453-44.905-2.396-12.076,9.057-20.32,25.352-27.652,45.577-7.333,20.224-13.754,44.378-15.048,62.062-1.294,17.684,2.54,28.898,10.879,39.586,8.339,10.688,21.182,20.847,31.63,26.934,10.448,6.087,18.499,8.099,27.941,7.141,9.442-.959,20.271-4.888,30.911-11.262,10.64-6.374,21.087-15.192,28.036-23.004,6.949-7.812,10.4-14.617,11.646-26.886Z" fill="#f9d6d1" stroke-width="0"/>
      <path d="m1413.757,475.019c7.602.072,15.809,2.936,24.267,9.574,13.103,10.282,26.792,29.618,36.694,48.527-9.987-5.512-23.705-12.404-36.491-15.961-16.808-4.676-31.99-3.591-45.545,2.305-13.339,5.803-25.08,16.251-32.362,23.687,1.621-5.259,3.357-10.436,5.148-15.378,7.333-20.224,15.575-36.519,27.652-45.577,6.038-4.529,13.036-7.249,20.638-7.177Z" fill="#a7afc8" stroke-width="0"/>
      <path d="m1413.757,475.019c7.602.072,15.809,2.936,24.267,9.574,7.831,6.145,15.866,15.535,23.182,26.124-9.72-3.724-20.764-8.27-30.191-10.895-19.477-5.422-31.949-2.575-46.995,7.523-4.93,3.308-10.109,7.377-15.034,11.258,6.487-15.959,13.943-28.765,24.132-36.407,6.038-4.529,13.036-7.249,20.638-7.177Z" fill="#8b95b7" stroke-width="0"/>
      <path d="m1494.766,658.688c-.516-.693-10.684,6.381-28.489,12.086-10.249,3.27-22.54,6.045-36.434,6.941-2.064.132-4.154.221-6.266.261-12.052.231-22.952-1.152-32.675-3.743-23.33-6.209-36.151-18.53-36.838-17.783-.242.263,10.399,14.625,35.568,22.244,10.08,3.049,21.512,4.713,34.046,4.469,2.198-.043,4.371-.143,6.513-.295,14.409-1.013,27.098-4.24,37.464-8.126,18.296-6.836,27.661-15.318,27.111-16.056Z" fill="#8b563e" stroke-width="0"/>
      <path d="m1504.624,896.434c.977.082,4.67-34.653,8.244-77.533,3.573-42.88,5.68-77.746,4.703-77.828-.977-.082-4.67,34.653-8.244,77.533-3.573,42.88-5.68,77.746-4.703,77.828Zm-139.177-13.594c.972-.13-2.734-33.876-8.273-75.326-5.539-41.45-10.823-74.985-11.795-74.856-.972.13,2.734,33.876,8.273,75.326,5.539,41.45,10.823,74.985,11.795,74.856Z" fill="#8b563e" stroke-width="0"/>
      <path d="m1428.586,1091.826c-.468-.196-1.7,1.926-4.126,4.821-2.448,2.922-6.407,6.597-10.593,11.132-.644.697-1.264,1.393-1.86,2.096h0c-2.854,3.278-4.961,6.19-6.087,9.588-2.437,7.326,3.032,7.656,2.395,8.231.418-.377-1.61-3.411.197-7.22,1.311-2.833,3.244-4.97,6.149-8.278h0c.589-.652,1.195-1.306,1.826-1.981,4.575-4.886,7.598-8.03,10.011-12.138,2.083-3.545,2.519-6.07,2.087-6.251Z" fill="#f29898" stroke-width="0"/>
      <path d="m1305.345,1379.359c3.874-.358,2.126,119.151,3.51,190.796.925,47.895,3.225,76.162,8.036,94.418-5.839-1.493-11.599-3.021-18.373-4.179-14.724-2.517-34.254-3.28-46.002-5.34-5.481-.961-9.267-2.208-11.826-6.436,2.116.102,6.149,1.574,10.523,1.797,9.002.458,19.378-4.424,29.583-71.208,10.205-66.784,20.24-195.468,24.36-199.74.064-.067.128-.102.189-.108Zm217.982,49.232c2.802-.315,7.243,62.994,14.276,109.832,7.629,50.807,18.309,82.238,32.804,87.427,10.003,3.581,21.82-5.338,31.344-14.92.238,10.899.384,14.375-.365,17.194-1.297,4.883-5.264,8.545-11.596,12.893-6.332,4.349-15.029,9.384-26.549,10.757-11.52,1.373-25.863-.916-43.713,1.906-6.121.968-12.674,2.555-19.434,4.34,5.538-12.747,10.12-32.021,13.247-63.297,5.645-56.454,6.561-151.97,9.307-164.633.214-.989.44-1.473.678-1.499Zm-118.109,94.427c.082-.021.165.026.251.145,2.746,3.815,7.325,81.029,14.191,122.068,1.797,10.743,3.752,18.988,5.866,25.351-8.381.052-16.867-.131-25.696-.195-3.024-.022-6.091-.027-9.169-.027,2.733-9.667,4.896-22.061,6.569-37.952,4.434-42.126,5.433-108.737,7.988-109.391Z" fill="#8995b6" stroke-width="0"/>
      <path d="m1068.14,911.98c-13.867,3.161-29.721,14.504-48.152,28.631-18.431,14.127-39.438,31.037-52.466,48.709-13.028,17.672-18.079,36.108-23.383,95.331-5.304,59.223-10.859,159.223,7.072,208.468,17.931,49.245,59.347,47.73,120.965,45.331,61.619-2.399,143.442-5.682,188.142-10.607,44.699-4.925,52.275-11.491,57.36-22.224,5.085-10.733,7.679-25.635,3.41-80.423-4.269-54.788-15.401-149.463-27.512-202.047-12.111-52.585-25.203-63.08-49.218-75.972-24.015-12.892-58.955-28.182-83.874-33.301-24.92-5.12-39.819-.069-53.209-.054-13.39.014-25.267-5.004-39.134-1.843Z" fill="#3796c0" stroke-width="0"/>
      <path d="m1245.515,1294.326c-.992.097-7.318-56.465-14.119-126.253-6.801-69.789-11.516-126.507-10.523-126.604.992-.097,7.318,56.465,14.119,126.253,6.801,69.789,11.516,126.507,10.523,126.604Z" fill="#2c4771" stroke-width="0"/>
      <path d="m923.889,1305.078c-97.533-3.193-235.705-20.029-329.174-.871-93.469,19.158-142.235,74.31-163.716,123.948-21.481,49.638-15.675,93.759-10.741,122.206,4.935,28.447,8.998,41.219,4.064,54.862-4.935,13.643-18.867,28.156-22.318,38.874-3.451,10.718,3.581,17.637,4.634,22.79,1.053,5.153-3.873,8.54-3.205,12.8.667,4.26,6.926,9.39,3.438,14.47-3.489,5.08-16.728,10.109-21.809,15.702-5.081,5.594-2.002,11.751,28.158,18.354,30.16,6.603,87.394,13.65,221.526,13.836,134.133.185,345.167-6.491,545.022-14.909,199.855-8.418,388.536-18.578,529.9-29.463,141.365-10.885,235.415-22.497,276.343-35.269,40.929-12.772,28.737-26.705,13.933-38.897-14.804-12.191-32.221-22.642-33.381-39.478-1.161-16.837,13.933-40.059,14.804-65.022.871-24.963-12.483-51.669-15.676-85.342-3.193-33.672,3.774-74.311-33.38-106.241-37.154-31.93-118.434-55.152-195.938-60.958-77.504-5.806-151.234,5.805-250.8,12.192-99.566,6.386-224.964,7.547-316.111,13.353-91.147,5.805-148.041,16.255-245.574,13.062Z" fill="#b591c6" stroke-width="0"/>
      <path d="m1545.811,1212.307c-22.854-8.334-53.411,5.556-90.156,11.869-36.745,6.314-79.675,5.051-100.889,17.552-21.214,12.5-20.709,38.764-17.299,54.169,3.409,15.405,9.723,19.951,33.714,26.517,23.991,6.566,65.661,15.152,101.395,18.183,35.734,3.03,65.534.505,85.61-10.228,20.077-10.733,30.431-29.674,28.032-54.422-2.399-24.748-17.552-55.306-40.406-63.64Z" fill="#573535" stroke-width="0"/>
      <path d="m1964.471,1410.42c-42.82,21.758-104.297,42.583-190.838,60.164-100.351,20.386-234.382,36.411-403.194,52.066-168.812,15.655-372.405,30.942-547.825,30.001-175.42-.941-322.668-18.109-385.182-59.524-7.964-5.276-14.545-10.948-19.947-16.901-4.133,29.613-.493,55.309,2.773,74.136,4.935,28.447,8.998,41.218,4.063,54.861-4.934,13.643-18.866,28.156-22.317,38.874-3.451,10.718,3.58,17.637,4.633,22.79,1.053,5.153-3.872,8.54-3.205,12.8.667,4.26,6.927,9.391,3.438,14.471s-16.728,10.108-21.809,15.702c-5.081,5.594-2.003,11.752,28.157,18.355,30.16,6.603,87.394,13.65,221.527,13.835,134.133.185,345.166-6.491,545.021-14.909,199.855-8.418,388.535-18.579,529.9-29.464,141.365-10.885,235.416-22.496,276.344-35.268,40.929-12.772,28.736-26.706,13.932-38.897-14.804-12.191-32.22-22.642-33.381-39.479-1.161-16.837,13.933-40.059,14.804-65.021.871-24.963-12.482-51.67-15.675-85.342-.707-7.455-.92-15.282-1.22-23.25Z" fill="#a67bba" stroke-width="0"/>
      <path d="m493.372,1597.541c.275-2.445,72.636,4.486,189.632,14.926,111.908,9.986,283.557,24.907,457.16,27.787h.043c186.884,3.08,332.986-8.015,456.525-26.164,115.762-17.007,186.081-35.79,186.641-33.691.384,1.439-68.78,24.712-184.891,44.666-122.735,21.092-271.847,34.061-458.536,30.926h-.043c-175.684-2.936-345.016-19.598-458.021-32.45-116.814-13.285-188.719-24.13-188.508-25.999Zm177.857,75c-.036-2.162,66.565-5.58,174.319-5.716,107.727-.136,256.481,4.213,420.468,5.328-.002,0,2.221.015,2.219.015,174.638,1.12,300.583-3.659,417.982-14.552,106.449-9.877,171.756-21.49,172.155-19.361.323,1.724-64.266,17.622-170.982,30.396-115.272,13.798-246.568,20.389-419.257,19.254-.001,0-2.223-.014-2.224-.014-124.92-.849-352.373-8.223-420.494-9.941-107.531-2.711-174.149-3.228-174.186-5.409Z" fill="#613c73" stroke-width="0"/>
      <path d="m1162.527,942.4c.057-6.717.814-14.105-4.678-19.412-5.492-5.306-17.153-8.509-33.259-10.008-16.105-1.499-36.207-1.253-47.319,1.299-11.112,2.552-13.091,7.409-14.859,14.606-1.768,7.197-3.321,16.725-4.458,23.242-1.137,6.517-1.855,10.018,4.942,15.213,6.797,5.195,21.111,12.085,33.47,15.128,12.359,3.042,22.762,2.238,33.472-.334,10.711-2.572,21.73-6.911,27.433-10.694,5.703-3.783,6.095-7.012,5.969-11.648-.126-4.636-.77-10.676-.714-17.393Z" fill="#3079a8" stroke-width="0"/>
      <path d="m1119.779,946.132c.278-.014.838,3.808.639,10.663-.198,6.839-1.786,16.666-1.048,28.301,1.184,19.126,2.547,37.015,4.65,62.452,2.533,30.635,4.254,50.716,5.526,71.773,1.112,18.408,1.333,29.821.84,29.852-.502.031-1.625-11.32-3.387-29.653-1.34-13.945-4.627-48.052-6.58-71.674-2.015-24.376-3.275-44.507-3.892-62.613-.308-9.264,1.895-24.671,2.286-28.542.681-6.735.677-10.545.966-10.559Z" fill="#2c4771" stroke-width="0"/>
      <path d="m779.079,1066.466c-19.192-2.652-39.14,15.023-49.392,26.386-10.252,11.364-10.801,16.409-18.882,64.645-8.081,48.236-23.694,139.657-29.607,190.041-5.913,50.384-2.125,59.728,8.609,68.567,10.733,8.839,28.41,17.173,40.027,20.329,11.617,3.157,17.173,1.136,25.758-2.399,8.585-3.535,20.204-8.587,32.577-45.707,12.373-37.121,25.506-106.322,33.461-157.208,7.955-50.886,10.733-83.464,2.904-111.243-7.829-27.779-26.264-50.76-45.457-53.412Z" fill="#c4c08b" stroke-width="0"/>
      <path d="m970.069,1455.754c-2.41,4.107-3.303,4.643-31.746-5.576-28.443-10.219-84.951-31.387-126.647-46.923-41.697-15.536-68.839-25.536-86.428-30.893-17.589-5.357-25.625-6.071-40.358-2.589-14.733,3.482-36.16,11.16-47.857,22.589-11.697,11.429-13.661,26.607-8.393,53.304,5.268,26.698,17.767,64.91,26.785,87.142,9.018,22.232,14.554,28.482,22.143,31.875,7.59,3.393,17.232,3.929,111.422,4.196,94.19.268,272.953.268,367.417-.893,94.464-1.161,104.643-3.482,111.339-12.946,6.696-9.464,9.91-26.072,5.357-42.59-4.553-16.517-16.875-32.946-45.089-48.75-28.214-15.803-72.321-30.982-108.482-40.446-36.161-9.464-64.375-13.214-86.25-10.09-21.875,3.125-37.41,13.125-47.143,21.964-9.732,8.839-13.661,16.517-16.071,20.625Z" fill="#533333" stroke-width="0"/>
      <path d="m822.777,1017.092c-14.761,8.127-36.011,20.805-55.702,36.832-19.691,16.027-37.988,35.58-45.399,48.973-7.411,13.393-4.018,20.714,10.536,53.216,14.554,32.501,40.267,90.177,55.714,128.927,15.446,38.75,20.625,58.571,21.072,73.125.447,14.553-3.839,23.839-6.786,30.804-2.947,6.965-4.554,11.607,1.162,16.876,5.716,5.269,18.749,11.161,37.945,21.964,19.196,10.803,44.554,26.518,77.054,34.554,32.5,8.036,72.143,8.393,104.286,3.036,32.143-5.357,56.786-16.429,72.143-25.715,15.357-9.286,21.429-16.786,8.037-84.279-13.391-67.493-46.252-195.007-64.109-261.078-17.857-66.071-20.714-70.714-40.149-76.083-19.434-5.369-55.45-11.466-82.296-14.324s-44.523-2.48-57.499-.503c-12.975,1.977-21.247,5.551-36.009,13.677Z" fill="#c4c08b" stroke-width="0"/>
      <path d="m1085.17,1276.327c-14.737,7.073-29.944,14.363-45.344,20.455-51.391,20.329-104.173,26.895-167.055,17.678-25.951-3.804-53.597-10.287-79.688-16.175,11.465,30.212,15.521,47.087,15.914,59.88.447,14.554-3.839,23.84-6.785,30.804-2.947,6.965-4.554,11.606,1.162,16.875,5.716,5.269,18.749,11.162,37.945,21.965,19.196,10.803,44.554,26.517,77.054,34.553,32.5,8.036,72.144,8.394,104.287,3.037,32.143-5.357,56.785-16.43,72.142-25.715,15.357-9.286,21.429-16.785,8.038-84.278-4.276-21.55-10.545-49.243-17.669-79.078Z" fill="#a19e6b" stroke-width="0"/>
      <path d="m797.422,1055.666c-2.284-5.782-5.976-15.5-7.385-21.476-1.409-5.977-.534-8.212,10.005-14.186,10.54-5.974,30.761-15.696,45.969-20.652,15.208-4.956,25.412-5.15,31.291-3.498,5.879,1.652,7.434,5.15,8.989,12.439,1.555,7.289,3.11,18.366,3.644,24.876.535,6.511.049,8.454-4.715,12.148-4.764,3.694-13.796,9.133-26.528,13.798-12.731,4.665-29.151,8.551-39.307,9.426-10.156.875-14.042-1.263-16.424-3.255-2.381-1.993-3.256-3.839-5.539-9.621Z" fill="#a19e6b" stroke-width="0"/>
      <path d="m835.961,1024.594c.186-.447,8.706,1.576,14.751,15.084,2.772,6.049,4.592,12.649,6.289,21.084,0,0,0,0,0,0,6.629,15.032,12.124,31.557,17.591,51.811,1.943,7.198,3.756,14.385,5.425,21.13,0,0,0,0,0,0,6.387,25.74,8.417,34.876,13.399,52.452,3.676,12.969,6.285,20.647,5.759,20.85-.46.177-3.981-7.17-8.418-20.014-5.084-14.715-9.002-29.279-14.94-52.223h0c-1.738-6.701-3.631-14.023-5.559-21.166-5.521-20.448-10.6-36.567-16.764-51.783h0c-1.498-8.603-2.952-15.005-5.323-21.061-4.814-11.985-12.409-15.683-12.209-16.164Z" fill="#4e4b28" stroke-width="0"/>
      <path d="m875.56,1002.25c-1.562-1.317-4.375-2.745-13.282-1.16-8.907,1.585-23.905,6.183-35.78,11.026-11.875,4.844-20.625,9.933-24.933,13.705-4.308,3.772-4.175,6.227.023,7.232,4.198,1.005,12.455.558,24.039-2.254,11.584-2.812,26.496-7.991,35.737-12.523,9.241-4.531,12.813-8.416,14.442-10.96s1.316-3.75-.245-5.067Z" fill="#585638" stroke-width="0"/>
      <path d="m806.392,1703.287c-2.818-39.328-8.455-114.591-12.97-157.222-4.515-42.631-7.908-52.631-12.193-67.274-4.286-14.642-9.464-33.929-21.25-52.5-11.785-18.571-30.179-36.429-42.143-46.696-11.964-10.268-17.5-12.946-32.679-10.268-15.179,2.679-39.999,10.714-53.66,23.125-13.661,12.411-16.161,29.196-4.221,85.111,11.941,55.915,38.319,150.95,52.67,202.309,14.351,51.359,16.672,59.037,19.976,64.038,3.304,5.001,7.589,7.322,19.807,8.684,12.218,1.362,32.367,1.764,48.603,1.072,16.236-.692,28.557-2.478,34.717-5.067,6.16-2.59,6.16-5.982,3.342-45.31Z" fill="#835050" stroke-width="0"/>
      <path d="m957.055,1683.733c-4.988-11.68-9.281-26.706-7.702-35.734,1.579-9.028,9.029-12.059,37.5-34.09,28.471-22.032,77.974-63.074,109.857-90.032,31.883-26.958,46.151-39.838,62.818-45.835,16.667-5.997,35.735-5.113,52.844-3.346,17.109,1.768,32.262,4.42,42.553,11.427,10.291,7.008,15.72,18.372,18.435,27.968,2.715,9.597,2.715,17.425,2.297,26.65-.418,9.225-1.253,19.842-5.293,28.997-4.041,9.155-11.286,16.844-55.383,43.294-44.097,26.45-125.025,71.649-168.209,95.387-43.184,23.739-48.613,26.011-54.549,23.044-5.936-2.968-12.374-11.174-18.435-19.445-6.061-8.271-11.743-16.604-16.731-28.285Z" fill="#835050" stroke-width="0"/>
      <g>
        <path d="m817.37,769.998c-13.21,2.254-25.168,5.696-31.443,10.648-7.504-2.58-19.8-1.904-32.905.297-.976.166-1.958.333-2.942.516-15.741,2.884-32.204,7.749-42.813,12.996s-15.36,10.874-17.735,16.58c-2.374,5.706-2.37,11.488.819,33.116,2.039,13.829,5.383,34.135,11.009,54.291-1.522-.652-3.044-1.128-4.542-1.371-9.549-1.548-18.122,6.37-20.571,17.745-2.449,11.375,1.227,26.205,13.057,33.364,10.196,6.17,26.442,6.635,35.704,3.07,12.141,17.01,27.005,29.007,41.629,36.427,19.818,10.056,39.188,11.718,49.574,12.361,3.082.191,5.367.285,6.938-.527,1.751.247,3.878-.597,6.724-1.797,9.59-4.041,27.321-12.013,42.7-28.055,11.274-11.759,21.277-27.859,27.129-47.742,9.825-.608,23.226-6.201,30.201-14.658,8.799-10.667,7.365-25.879,1.293-35.805-6.072-9.926-16.781-14.564-25.281-9.947-.453.246-.899.524-1.339.821-1.424-20.338-4.872-39.956-7.455-53.345-4.14-21.466-6.048-26.925-10.175-31.525-4.127-4.6-10.472-8.34-22.219-9.785-11.747-1.445-28.894-.593-44.703,1.889-.891.14-1.777.284-2.657.435Z" fill="#f9d6d1" stroke-width="0"/>
        <path d="m721.656,806.403c.394,9.272,1.183,27.816-.477,39.395-1.66,11.579-5.769,16.193-8.826,19.323-3.057,3.13-5.06,4.776-5.681,10.96-.621,6.184.141,16.899.998,24.094.857,7.195,1.807,10.867,1.439,11.582-.368.715-2.054-1.526-3.565-4.238-1.511-2.712-2.847-5.895-5.078-8.941s-5.357-5.957-8.093-10.23c-2.736-4.274-5.081-9.911-6.282-13.377-1.201-3.466-1.258-4.762-1.986-7.124-.728-2.363-2.128-5.797-2.612-10.323-.484-4.526-.053-10.146-.418-16.609-.365-6.463-1.526-13.77-.138-19.756,1.388-5.986,5.326-10.653,11.452-14.672,6.127-4.019,14.445-7.391,19.622-8.843,5.177-1.451,7.214-.982,8.233-.748q1.019.235,1.413,9.506Z" fill="#b3b3b3" stroke-width="0"/>
        <path d="m904.073,856.081c-3.913,13.921-7.219,32.284-11.752,48.254-7.215,25.42-17.542,44.763-29.882,59.663-12.34,14.9-26.691,25.355-37.186,32.131-1.129.729-2.192,1.395-3.232,2.042-1.196-.266-2.419-.544-3.726-.858-12.145-2.926-29.145-8.049-45.717-18.031-16.572-9.983-32.714-24.824-47.927-46.429-8.433-11.976-16.577-26.019-24.075-37.297.258.962.517,1.925.785,2.887-1.522-.652-3.044-1.128-4.542-1.371-9.549-1.548-18.122,6.37-20.571,17.745-2.449,11.375,1.227,26.205,13.057,33.364,10.196,6.17,26.442,6.635,35.704,3.07,12.141,17.01,27.005,29.007,41.629,36.427,19.818,10.056,39.188,11.718,49.574,12.361,3.082.191,5.367.285,6.938-.527,1.751.247,3.878-.597,6.724-1.797,9.59-4.041,27.321-12.013,42.7-28.055,11.274-11.759,21.277-27.859,27.129-47.742,9.825-.608,23.226-6.201,30.201-14.658,8.799-10.667,7.365-25.879,1.293-35.805-6.072-9.926-16.781-14.564-25.281-9.947-.453.246-.899.524-1.339.821-.147-2.093-.32-4.175-.506-6.248Z" fill="#f29898" stroke-width="0"/>
        <path d="m854.614,783.79c2.693,8.881,8.079,26.643,13.474,37.023,5.395,10.379,10.798,13.375,14.718,15.319,3.92,1.944,6.355,2.834,8.985,8.465,2.63,5.631,5.453,15.995,7.023,23.069,1.57,7.074,1.887,10.853,2.47,11.407.584.553,1.434-2.119,1.963-5.179.53-3.059.738-6.505,1.837-10.117,1.098-3.612,3.087-7.393,4.256-12.33,1.169-4.938,1.519-11.033,1.507-14.702-.012-3.668-.387-4.91-.481-7.38s.092-6.175-.947-10.606c-1.039-4.431-3.304-9.594-5.096-15.813-1.792-6.22-3.112-13.5-6.401-18.691-3.289-5.191-8.548-8.293-15.659-10.061-7.111-1.767-16.076-2.2-21.442-1.859-5.366.342-7.133,1.458-8.017,2.016q-.884.558,1.809,9.439Z" fill="#b3b3b3" stroke-width="0"/>
        <path d="m688.413,845.213c7.702-5.552,23.106-16.654,45.654-25.546,22.549-8.892,52.245-15.574,81.059-16.886,28.814-1.312,56.747,2.747,72.608,5.84,15.86,3.094,19.648,5.223,21.352,4.688,1.703-.535,1.323-3.733-2.804-20.323-4.127-16.59-11.999-46.572-26.766-66.735-14.767-20.163-36.428-30.508-67.409-32.825-30.981-2.317-71.28,3.396-97.712,21.594-26.432,18.198-38.994,48.882-42.297,73.588-3.302,24.705,2.655,43.429,5.634,52.793q2.979,9.363,10.681,3.812Z" fill="#eee8da" stroke-width="0"/>
        <path d="m772.148,984.14c-1.546.275-1.622,1.389-.454,3.761,1.558,3.163,5.326,8.553,11.048,13.657,5.721,5.104,13.392,9.916,19.735,13.161,6.343,3.244,11.358,4.919,15.603,5.421,4.245.501,14.868-1.305,18.709-3.182,3.841-1.877,8.02-5.116,12.934-10.274,4.914-5.159,10.561-12.236,14.273-18.945,3.712-6.708,5.488-13.041,5.913-16.542.425-3.501-.503-4.159-3.604-2.734-3.102,1.425-8.378,4.933-12.649,8.351-4.272,3.418-7.538,6.747-9.897,7.025-2.359.279-3.81-2.492-5.741-2.816-1.931-.324-4.342,1.798-6.727,2.162-2.386.365-4.742-1.027-6.43-1.596-1.688-.57-2.701-.316-3.225-.268q-.524.048-1.034.176c-.51.128-1.55.223-2.955,1.319-1.405,1.096-3.168,3.188-5.541,3.632-2.372.445-5.35-.761-7.065.183-1.715.944-2.167,4.038-4.486,4.555s-6.503-1.544-11.665-3.358c-5.162-1.814-11.301-3.38-14.699-3.7-.85-.08-1.528-.081-2.043.01Z" fill="#b3b3b3" stroke-width="0"/>
      </g>
      <path d="m745.54,1731.014c-5.893.009-12.102.511-18.056,2.06-10.585,2.752-20.361,8.81-25.206,12.129-.343.235-.605.428-.898.637,3.195,3.692,7.831,5.581,18.35,6.753,12.218,1.362,32.367,1.764,48.602,1.072,16.236-.692,28.557-2.479,34.717-5.068,1-.42,1.834-.864,2.524-1.477-.507-.362-1.029-.722-1.576-1.068-3.08-1.949-6.652-3.512-10.63-5.407-3.979-1.895-8.364-4.122-13.852-5.714-5.488-1.592-12.075-2.547-21.066-3.302-3.934-.33-8.326-.622-12.91-.615Z" fill="#533333" stroke-width="0"/>
      <path d="m746.765,1815.353c-3.84-18.438-14.107-45.938-20.313-60.669-6.205-14.731-8.348-16.696-5.58-18.928,2.768-2.232,10.447-4.732,23.125-4.821,12.679-.089,30.357,2.232,39.419,5.223,9.062,2.991,9.508,6.651,12.143,25.001,2.634,18.35,7.455,51.382,11.786,69.91,4.331,18.527,8.169,22.545,10.089,29.063,1.919,6.518,1.919,15.535-.714,23.571-2.634,8.036-7.901,15.089-11.696,25.492-3.795,10.403-6.116,24.151-8.259,33.481-2.143,9.331-4.107,14.241-6.919,16.964-2.813,2.724-6.473,3.259-10.134,2.367-3.662-.893-7.321-3.214-8.661-6.384s-.357-7.188-.178-9.107c.179-1.919-.446-1.741-2.458.315-2.012,2.056-5.399,5.979-11.383,6.604-5.983.625-14.553-2.053-21.473-5.625-6.92-3.572-12.188-8.036-13.036-14.465s2.723-14.822,7.276-28.615c4.553-13.794,10.09-32.992,14.152-47.278,4.062-14.286,6.652-23.661,2.812-42.098Z" fill="#f9d6d1" stroke-width="0"/>
      <path d="m957.834,1646.652c-3.326,0-6.362,1.379-8.78,4.452-.341,9.113,3.547,22.199,8.001,32.629,4.988,11.68,10.671,20.014,16.731,28.285,6.061,8.271,12.499,16.476,18.435,19.444,1.966.983,3.885,1.383,7.129.627,2.59-4.452,3.869-12.136,1.969-22.629-1.964-10.848-7.323-24.688-13.796-36.072-6.473-11.384-14.063-20.313-21.517-24.375-2.795-1.523-5.572-2.362-8.172-2.361Z" fill="#533333" stroke-width="0"/>
      <path d="m884.799,1715.28c17.331-9.932,47.196-29.922,63.643-41.054,16.447-11.132,19.478-13.404,23.455-13.341,3.977.064,8.902,2.463,14.425,10.879,5.523,8.416,11.645,22.851,14.075,31.52,2.43,8.669,1.167,11.573-10.958,19.972-12.125,8.399-35.099,22.285-51.199,35.606-16.1,13.322-25.317,26.074-29.863,44.384-4.546,18.31-4.42,42.173-3.346,57.136,1.073,14.963,3.093,21.024,1.957,24.496-1.136,3.473-5.429,4.356-10.291,3.851-4.862-.505-10.291-2.399-14.71-6.819-4.42-4.42-7.829-11.364-10.922-22.476-3.094-11.111-5.872-26.391-10.101-43.563-4.23-17.172-9.912-36.24-13.511-49.877-3.599-13.637-5.114-21.845-3.03-27.779,2.084-5.935,7.766-9.597,13.006-11.364,5.24-1.767,10.039-1.641,27.37-11.573Z" fill="#f9d6d1" stroke-width="0"/>
      <path d="m1128.718,1207.004c19.319,17.678,49.623,68.186,65.281,100.763,15.657,32.577,16.668,47.224,12.753,60.483-3.914,13.258-12.753,25.127-23.486,34.219-10.733,9.092-23.359,15.405-34.85,17.299-11.491,1.894-21.844-.631-32.957-19.951s-22.981-55.431-26.895-88.261c-3.914-32.83.126-62.377,6.314-84.727,6.187-22.349,14.521-37.502,33.84-19.824Z" fill="#a19e6b" stroke-width="0"/>
      <path d="m949.163,1232.258c-3.41,25.506-2.652,78.034-11.869,117.556-9.217,39.522-28.41,66.038-39.396,87.126-10.986,21.087-13.764,36.744-14.9,48.235-1.137,11.491-.631,18.814,9.724,26.517,10.355,7.703,30.556,15.784,56.063,21.971,25.506,6.187,56.316,10.48,81.444,10.354,25.128-.126,44.573-4.672,67.175-12.248,22.602-7.576,48.361-18.183,67.68-35.608,19.319-17.425,32.199-41.669,28.032-60.483-4.167-18.814-25.38-32.198-37.25-43.942-11.87-11.744-14.395-21.845-17.551-35.481-3.157-13.637-6.945-30.81-6.819-51.265.126-20.455,4.167-44.195,5.177-59.347,1.01-15.152-1.01-21.718-19.57-22.602-18.56-.884-53.665,3.915-81.318,2.652-27.653-1.263-47.856-8.586-61.746-13.006-13.89-4.419-21.466-5.935-24.875,19.571Z" fill="#fd6e6e" stroke-width="0"/>
      <path d="m941.84,1167.608c-7.955-6.187-14.142-15.531-19.319-25.254-5.177-9.723-9.344-19.824-13.258-24.686-3.914-4.861-7.576-4.482-16.29,2.59-8.714,7.072-22.474,20.833-27.841,33.018-5.367,12.185-2.336,22.791,6.629,34.914,8.966,12.122,23.865,25.759,38.386,34.661,14.521,8.902,28.663,13.069,38.639,14.773,9.975,1.705,15.784.947,19.95-4.735,4.166-5.682,6.692-16.29,6.503-25.949-.189-9.659-3.094-18.372-9.407-24.243-6.313-5.871-16.036-8.902-23.991-15.089Z" fill="#fd6e6e" stroke-width="0"/>
      <path d="m1156.408,1192.004c8.839-6.428,23.125-14.732,34.464-21.964,11.339-7.232,19.732-13.393,27.589-12.634,7.856.759,15.179,8.438,19.732,20.268,4.554,11.83,6.339,27.812,6.116,36.607-.223,8.795-2.455,10.402-21.033,18.708-18.578,8.307-53.475,23.301-74.993,31.471-21.518,8.17-29.643,9.509-32.902,4.24-3.259-5.269-1.652-17.143,3.392-28.437,5.045-11.294,13.527-22.009,19.465-29.643,5.937-7.634,9.33-12.188,18.17-18.616Z" fill="#fd6e6e" stroke-width="0"/>
      <path d="m946.742,1263.229c-1.237,21.792-2.562,48.03-6.533,71.823,5.749,10.963,12.698,21.727,21.289,30.971,23.483,25.268,59.196,39.196,93.303,27.142,32.025-11.318,62.633-45.542,77.411-71.852-.475-5.186-.752-10.622-.716-16.324.068-10.904,1.243-22.661,2.483-33.633-1.599-1.136-3.383-2.084-5.338-2.834-14.196-5.446-37.053-.803-71.429-.535-34.376.268-80.267-3.84-105.803-4.644-1.64-.052-3.19-.088-4.667-.114Z" fill="#e25555" stroke-width="0"/>
      <path d="m988.18,1173.48c-4.924-4.482-12.879-7.765-19.129-8.586-6.25-.821-10.796.82-15.09-.821-4.294-1.642-8.334-6.565-13.637-6.061-5.303.505-11.869,6.439-15.847,20.204-3.978,13.765-5.367,35.354-3.662,62.566,1.705,27.212,6.503,60.04,17.93,81.885,11.428,21.845,29.484,32.704,56.19,38.512,26.706,5.808,62.062,6.566,94.134-15.468,32.072-22.034,60.862-66.86,75.572-97.039,14.71-30.178,15.341-45.709,14.016-55.874-1.326-10.164-4.609-14.963-8.902-16.099-4.293-1.137-9.596,1.389-12.879,3.283-3.283,1.894-4.546,3.156-7.767,2.209-3.222-.948-8.396-4.102-17.676-3.282-9.281.821-22.665,5.619-39.27,9.533-16.605,3.915-36.428,6.945-52.843,6.945-16.415,0-29.421-3.03-36.871-7.387-7.45-4.357-9.344-10.039-14.268-14.521Z" fill="#fcb571" stroke-width="0"/>
      <path d="m1128.998,1178.879c-2.232-10.446-28.303-1.875-55.747.395-27.443,2.27-56.256-1.762-75.453-7.387-19.197-5.625-28.776-12.843-32.404-5.559-3.629,7.284-1.307,29.069,9.05,47.284,10.358,18.215,28.75,32.857,49.018,38.036,20.268,5.178,42.411.893,64.286-15.982,21.874-16.875,43.482-46.34,41.25-56.786Z" fill="#fc6e65" stroke-width="0"/>
      <path d="m843.536,1451.781c-4.257,35.579-11.173,88.101-14.955,121.552-3.782,33.451-4.43,47.831-12.671,54.033-8.242,6.201-24.079,4.224-38.73,1.162-14.651-3.062-28.114-7.207-37.444-10.534-9.33-3.327-14.525-5.836-18.821-8.684-4.296-2.848-7.691-6.034-8.364-10.742-.673-4.708,1.377-10.934,5.836-42.587,4.46-31.653,11.328-88.724,18.497-124.424,7.17-35.7,14.64-50.026,24.752-58.418,10.111-8.393,22.861-10.852,38.194-8.897,15.332,1.955,33.247,8.324,41.405,20.825,8.158,12.501,6.56,31.137,2.303,66.716Z" fill="#c4c08b" stroke-width="0"/>
      <path d="m1138.883,1150.941c-.441-3.03.19-3.157,3.784-11.984,3.594-8.827,10.169-26.403,11.495-46.1,1.326-19.697-2.589-41.543-15.709-60.925-13.12-19.382-35.446-36.304-61.71-41.419-26.264-5.114-56.466,1.58-78.133,16.417-21.667,14.837-34.799,37.818-39.408,59.41-4.609,21.593-.695,41.795,2.336,53.727,3.03,11.933,5.177,15.594,5.809,18.309.632,2.715-.252,4.482-1.894,10.735-1.642,6.253-4.04,16.981-.252,28.219,3.788,11.239,13.763,22.981,33.524,30.368,19.762,7.387,49.308,10.417,74.12,5.935,24.812-4.483,44.889-16.479,55.685-25.696,10.796-9.218,12.311-15.658,12.311-21.844,0-6.187-1.515-12.122-1.957-15.152Z" fill="#fcb571" stroke-width="0"/>
      <path d="m958.704,1068.871c-3.8,20.631-.079,39.731,2.833,51.196,3.031,11.933,5.178,15.595,5.81,18.309.632,2.715-.253,4.483-1.895,10.736-1.642,6.253-4.039,16.98-.251,28.219,3.788,11.239,13.761,22.981,33.523,30.368,19.762,7.387,49.309,10.417,74.121,5.934,24.812-4.483,44.889-16.479,55.685-25.696,10.796-9.218,12.311-15.657,12.311-21.844,0-6.187-1.516-12.122-1.957-15.152-.441-3.03.19-3.157,3.784-11.984,3.169-7.785,8.654-22.377,10.815-39.226-8.008,7.904-19.712,23.44-35.153,34.194-21.473,14.955-50.135,20.581-74.287,18.259-24.152-2.321-43.793-12.59-58.66-31.608-12.153-15.547-21.056-36.828-26.678-51.705Z" fill="#fc9371" stroke-width="0"/>
      <path d="m967.535,1114.702c.655-.03,1.16,2.635,2.524,6.592,1.445,4.194,3.6,9.046,7.31,14.578l.017.023c3.742,5.499,7.434,9.316,10.769,12.234,3.15,2.755,5.417,4.238,5.14,4.831-.236.507-3.028.036-6.966-2.286-4.036-2.38-8.656-6.385-12.626-12.29l-.017-.025c-4.007-5.896-5.991-11.689-6.674-16.335-.666-4.531-.034-7.297.522-7.323Zm170.033,16.232c1.349.425-.659,9.789-7.893,19.272-7.214,9.456-15.286,14.4-15.946,13.674-.959-1.055,5.627-7.567,12.417-16.379,6.742-8.751,10.253-16.936,11.423-16.567Zm-165.109,58.772c.308-.272,3.161,2.808,9.097,6.686,6.342,4.144,14.783,8.085,27.227,11.196,11.986,2.958,25.4,4.492,40.716,4.31,2.062-.024,4.106-.079,6.129-.16,17.278-.711,31.55-3.216,43.886-7.018,6.81-2.103,11.933-4.261,16.335-6.712,7.444-4.182,10.405-8.358,10.786-8.113.396.254-1.82,5.123-9.508,10.204-4.341,2.891-9.644,5.512-16.514,7.94-12.448,4.407-27.221,7.352-44.796,8.127-2.065.093-4.154.155-6.264.181-15.641.192-29.517-1.626-41.749-5.038-12.651-3.49-21.478-8.282-27.557-13.105-5.814-4.613-8.007-8.305-7.788-8.498Z" fill="#9c4a30" stroke-width="0"/>
      <path d="m1127.306,1137.768c-1.401-16.017-7.389-38.633-19.725-59.74-12.335-21.106-31.018-40.704-48.756-45.704-17.738-5.001-34.532,4.596-49.105,23.208-14.574,18.612-26.925,46.235-30.714,68.649-3.788,22.414.988,39.613,17.393,51.18,16.405,11.568,44.436,17.502,67.363,16.106,22.927-1.395,40.749-10.121,51.253-19.193,10.504-9.072,13.692-18.49,12.291-34.507Z" fill="#f9d6d1" stroke-width="0"/>
      <path d="m1177.134,1433.687c-1.183.032-2.448.273-3.779.727-8.523,2.904-19.762,14.522-34.978,27.527-15.215,13.006-34.407,27.4-57.388,36.618-22.981,9.218-49.75,13.258-76.519,7.071-26.769-6.187-53.54-22.602-73.553-25.191-20.013-2.588-33.285,8.661-36.41,17.871-2.609,7.689,1.841,13.974,5.42,17.939,11.288,6.242,28.352,12.44,48.857,17.414,25.506,6.187,56.318,10.48,81.445,10.353,25.128-.126,44.573-4.673,67.175-12.249,22.602-7.576,48.361-18.182,67.68-35.607,2.628-2.37,5.131-4.87,7.494-7.462,8.197-13.977,12.921-27.985,13.844-37.869,1.065-11.399-2.903-17.315-9.289-17.142Z" fill="#bf4545" stroke-width="0"/>
      <path d="m976.924,1496.215c-6.575-2.625-19.725-7.874-27.31-10.183-7.585-2.309-9.605-1.678-12.479,4.67-2.874,6.347-6.597,18.401-11.806,27.713-5.209,9.313-11.9,15.878-17.962,20.835-6.061,4.956-11.49,8.302-18.057,10.007-6.567,1.705-14.268,1.768-16.573,5.114-2.305,3.346.789,9.975,9.849,13.542,9.061,3.567,24.086,4.072,33.619,5.114,9.533,1.042,13.574,2.62,17.962,2.841,4.388.221,9.123-.916,13.867-3.594,4.744-2.679,9.497-6.9,12.884-14.22,3.386-7.319,5.407-17.736,8.942-28.122,3.536-10.386,8.586-20.74,11.112-25.916q2.525-5.177-4.05-7.801Z" fill="#fff" stroke-width="0"/>
      <path d="m1147.449,1454.059c1.432-4.472,8.154-10.2,13.204-14.079,5.049-3.879,9.812-6.741,12.968-7.092,3.156-.351,5.399,1.394,10.437,7.117,5.038,5.723,12.871,15.427,21.113,21.009,8.242,5.582,16.893,7.044,24.17,7.16,7.277.117,13.181-1.111,16.805-2.718,3.624-1.608,4.968-3.595,6.604-1.667,1.636,1.928,3.566,7.775,1.695,13.825-1.87,6.05-7.54,12.304-15.694,16.688-8.155,4.384-18.792,6.897-27.618,9.937-8.827,3.04-15.84,6.605-22.241,7.277-6.401.672-12.187-1.549-15.665-5.056-3.478-3.508-4.647-8.3-7.511-15.431-2.864-7.131-7.424-16.601-11.632-22.943-4.208-6.342-8.066-9.557-6.634-14.029Z" fill="#fff" stroke-width="0"/>
      <path d="m889.544,1104.323c-.13-.312-.39-.935-1.453-5.165-1.064-4.23-2.935-12.076-3.298-16.854-.363-4.778.779-6.491-.57-7.737-1.349-1.246-5.194-2.025-7.479-1.194-2.285.831-3.012,3.271-3.402,6.647-.39,3.376-.442,7.685-3.627,6.745-3.185-.94-9.502-7.129-14.109-11.347-4.608-4.218-7.505-6.463-12.317-5.835-4.812.628-11.539,4.13-15.578,8.79-4.039,4.659-5.389,10.475-4.87,15.513.519,5.038,2.908,9.295,8.257,15.527,5.349,6.232,13.657,14.436,21.239,19.006,7.582,4.57,14.437,5.505,21.265,3.116,6.828-2.389,13.632-8.102,16.306-13.139,2.674-5.037,1.22-9.399.493-11.58q-.727-2.181-.857-2.493Z" fill="#f9d6d1" stroke-width="0"/>
      <path d="m1235.415,1157.727c-3.851-6.535-2.714-8.871-.032-15.372,2.682-6.501,6.914-17.175,10.071-22.383,3.157-5.208,5.24-4.956,7.134-4.103,1.893.852,3.599,2.305,4.104,5.019s-.189,6.692-.505,9.06c-.316,2.368-.253,3.125,2.212,2.114,2.465-1.011,7.322-3.787,11.52-6.659,4.198-2.872,7.734-5.84,11.332-6.314,3.598-.473,7.261,1.547,10.038,5.272,2.778,3.724,4.672,9.154,5.461,14.521.789,5.366.474,10.669-4.956,17.457-5.43,6.788-15.972,15.057-22.633,20.203-6.661,5.146-9.439,7.166-15.247,2.81-5.809-4.356-14.648-15.089-18.499-21.624Z" fill="#f9d6d1" stroke-width="0"/>
      <path d="m964.984,1353.552c-18.041-3.868-24.112-10.654-29.201-23.779-5.089-13.125-9.196-32.59-8.839-44.375.358-11.786,5.179-15.893,15.178-22.365,9.999-6.472,25.18-15.313,33.706-19.331,8.526-4.018,10.402-3.214,12.901-.848,2.499,2.366,5.625,6.295,4.866,10.491-.759,4.196-5.401,8.66-8.616,12.5-3.215,3.839-5,7.053,6.968,10.358,11.968,3.305,37.675,6.696,51.961,9.464,14.285,2.768,17.143,4.911,16.875,14.642-.268,9.731-3.661,27.053-7.138,38.154-3.478,11.1-7.039,15.979-23.827,17.943-16.788,1.965-46.793,1.015-64.834-2.853Z" fill="#f9d6d1" stroke-width="0"/>
      <path d="m1184.969,1347.832c-4.094-7.871-11.647-15.201-19.199-20.199-7.552-4.998-15.105-7.663-21.991-8.996-6.886-1.333-13.105-1.333-21.103,1.055-7.997,2.388-17.77,7.163-26.545,9.607-8.775,2.444-16.549,2.555-19.381,5.109-2.833,2.555-.723,7.552,1.554,11.384,2.277,3.832,4.72,6.497,10.33,6.942,5.609.444,14.384-1.333,16.716-.556s-1.777,4.109-7.443,10.275c-5.665,6.165-12.883,15.159-17.159,21.657-4.276,6.498-5.609,10.496-2.11,18.772,3.5,8.277,11.827,20.824,19.602,28.099,7.775,7.275,14.994,9.274,28.211,2.666,13.216-6.608,32.436-21.829,44.08-33.447,11.644-11.618,15.723-19.644,17.444-27.864,1.722-8.22,1.086-16.632-3.008-24.503Z" fill="#f9d6d1" stroke-width="0"/>
      <path d="m794.443,1568.88c-1.193.167-2.738-11.508-4.01-29.169-.655-9.049-1.508-23.208-2.674-34.995-.041-.416-.083-.831-.125-1.245-1.392-13.593-3.002-24.162-5.852-34.318-4.598-16.039-12.472-23.978-11.981-24.559.904-1.068,9.942,6.433,15.486,23.486,3.379,10.206,5.376,21.344,6.768,34.938.043.419.086.84.127,1.261,1.245,12.614,1.707,25.513,1.972,35.247.486,17.61.63,29.306.29,29.354Zm-3.869-141.467c.511-.141,2.178,3.358,3.428,9.597,1.375,6.859,1.818,14.442,1.783,24.919h0c-.002,1.645-.023,3.319-.062,5.019-.514,22.138-4.152,39.668-5.299,39.521-1.277-.164.35-17.871.855-39.624.039-1.679.071-3.328.096-4.953h0c.15-11.335.253-16.836-.291-24.485-.433-6.099-1.088-9.836-.511-9.995Z" fill="#2a1919" stroke-width="0"/>
      <path d="m1048.956,1031.014c-14.088.225-27.395,9.395-39.236,24.517-3.231,4.126-6.342,8.712-9.286,13.569,7.971-2.792,17.832-6.158,28.531-7.999,19.445-3.346,41.417-1.578,58.778,3.031,5.036,1.337,9.672,2.916,13.897,4.595-11.968-17.323-27.726-32.149-42.814-36.403-3.326-.938-6.619-1.361-9.87-1.31Z" fill="#f29898" stroke-width="0"/>
      <path d="m915.515,1267.541c.175,1.215-50.476,9.524-113.02,18.542-19.42,2.8-37.724,5.343-53.741,7.482-4.776,1.162-8.934,3.735-11.97,6.958-3.434,3.582-5.784,8.082-7.513,12.097-7.221,16.827-9.55,28.509-10.096,28.314,1.219.436.633-11.73,7.308-29.435,1.609-4.282,3.967-9.175,7.702-13.371,3.447-3.812,8.199-6.904,13.804-8.396,15.97-2.474,34.265-5.21,53.712-8.016,62.668-9.041,113.637-15.389,113.812-14.174Zm-143.036,19.286c-.806,1.036-8.528-4.381-18.796-9.961h0c-.499-.268-1.006-.539-1.516-.809-6.034-3.197-10.166-5.018-14.479-6.5-3.794-1.304-6.342-1.854-6.307-2.497.031-.575,2.691-1.144,7.022-.547,4.546.627,9.865,2.382,15.865,5.611.53.285,1.051.574,1.562.865h0c10.713,6.034,17.271,13.041,16.65,13.838Zm0,0c-1.215.171-6.521-30.411-11.844-68.262-5.323-37.851-8.657-68.71-7.442-68.881,1.215-.171,6.521,30.411,11.844,68.262,5.323,37.851,8.657,68.71,7.442,68.881Zm-14.196-91.071c-.59.205-1.801-1.809-3.757-4.879-2.576-4.042-5.352-8.054-7.928-12.095-.204-.319-.404-.637-.603-.955h0c-3.157-4.973-5.323-8.347-6.875-12.247-1.361-3.422-1.521-5.701-.973-5.896.566-.202,1.726,1.662,3.669,4.461,1.96,2.824,4.928,6.62,7.922,11.297h0c.202.31.405.624.609.941,3.272,5.086,5.547,9.172,6.993,13.112,1.337,3.643,1.509,6.065.943,6.261Z" fill="#4e4b28" stroke-width="0"/>
      <path d="m870.182,1090.647c.995.717-3.259,7.873-4.269,17.46-1.009,9.587,1.957,17.221.859,17.769-1.008.504-6.479-6.688-5.297-18.23,1.183-11.551,7.869-17.602,8.706-16.999Zm386.952,48.677c1.023-.607,5.985,4.992,6.635,14.498.649,9.499-3.341,15.792-4.362,15.428-1.155-.413.444-7.114-.075-15.132-.518-8.018-3.253-14.167-2.198-14.794Z" fill="#f29898" stroke-width="0"/>
      <path d="m743.997,1730.934c-12.678.089-20.357,2.588-23.125,4.821s-.624,4.197,5.581,18.929c2.029,4.817,4.5,11.064,7.031,17.848,14.862-1.58,29.561-3.592,41.049-4.513,9.288-.745,16.364-.778,21.895-.91-.279-1.928-.625-4.25-.869-5.95-2.634-18.35-3.081-22.01-12.144-25.001-9.062-2.991-26.74-5.313-39.419-5.224Z" fill="#f29898" stroke-width="0"/>
      <path d="m971.898,1660.886c-3.977-.064-7.008,2.209-23.455,13.34-2.788,1.887-6.363,4.282-9.795,6.586,8.657,15.157,18.778,32.278,24.784,48.061,1.227,3.226,2.282,6.395,3.19,9.488,8.784-5.837,17.043-11.104,22.819-15.105,12.125-8.399,13.387-11.303,10.957-19.972-2.43-8.669-8.553-23.104-14.076-31.521s-10.447-10.814-14.424-10.878Z" fill="#f29898" stroke-width="0"/>
      <path d="m1155.248,927.585c.179-4.151-5.536-4.598-18.036-5.491-12.5-.893-31.786-2.232-44.33-2.054-12.545.179-18.348,1.875-19.955,5.268-1.607,3.393.981,8.482,7.053,13.214,6.072,4.732,15.625,9.107,26.697,10.536,11.072,1.428,23.661-.089,32.991-4.777,9.33-4.688,15.402-12.545,15.58-16.696Z" fill="#354e7f" stroke-width="0"/>
      <g>
        <path d="m1088.688,694.503c-5.264.017-11.388.569-18.459,2.052-14.142,2.967-32.074,9.66-43.248,17.109-11.174,7.449-15.594,15.657-16.257,30.967-.663,15.31,2.431,37.723,7.324,63.324,1.363,7.133,2.872,14.503,4.43,21.803-1.15-.844-2.349-1.55-3.601-2.064-8.861-3.638-20.234,2.101-24.738,9.413-4.504,7.312-2.139,16.195,1.411,22.736,3.549,6.541,8.281,10.737,16.249,14.331,6.94,3.13,16.332,5.8,22.652,5.789,4.418,16.017,6.949,20.776,14.974,27.778,8.176,7.134,22.065,16.666,32.641,22.128,10.576,5.462,17.835,6.851,23.076,7.545.573.076,11.923.076,12.495,0,5.241-.695,12.5-2.084,23.076-7.545,10.576-5.462,24.464-14.994,32.64-22.128,8.054-7.028,10.573-11.785,15.022-27.948,6.051-.632,13.722-2.958,19.623-5.619,7.969-3.594,12.7-7.79,16.25-14.331,3.549-6.541,5.915-15.424,1.411-22.736-4.504-7.312-15.877-13.052-24.738-9.413-.065.026-.128.058-.192.085,1.407-6.648,2.764-13.338,4.003-19.824,4.893-25.601,7.986-48.014,7.323-63.324-.663-15.31-5.083-23.518-16.257-30.967-11.174-7.449-29.106-14.142-43.248-17.109-14.142-2.967-24.496-2.209-31.756-.883-4.044.739-7.125,1.654-9.403,2.789-2.277-1.135-5.36-2.05-9.404-2.789-3.63-.663-8.034-1.185-13.298-1.169Z" fill="#f9d6d1" stroke-width="0"/>
        <path d="m1091.32,718.973c-28.661.312-48.571,6.474-63.214,19.286-6.607,5.781-12.136,12.921-17.102,20.619,0,.029.007.058.007.086.228,3.402.558,6.994.981,10.759.213,1.898.45,3.838.709,5.82.259,1.982.54,4.004.841,6.065.29,1.982.601,4.002.927,6.051.022.139.043.276.066.415.171,1.069.36,2.17.541,3.256.314,1.886.638,3.79.979,5.725.148.841.294,1.68.447,2.53.495,2.753,1.006,5.535,1.548,8.372,1.363,7.133,2.872,14.503,4.43,21.803-1.15-.844-2.349-1.55-3.601-2.064-8.861-3.638-20.234,2.101-24.738,9.413-.282.457-.535.92-.765,1.389-.458.937-.815,1.893-1.081,2.864-1.729,6.308.373,13.169,3.256,18.483,3.549,6.541,8.281,10.737,16.25,14.331,3.47,1.565,7.553,3.015,11.559,4.072,1.001.264,1.997.504,2.978.715,2.943.633,5.745,1.006,8.115,1.002,4.418,16.017,6.949,20.776,14.974,27.778.784.685,1.636,1.395,2.518,2.118-24.928-24.406-27.23-92.159-30.387-100.342-.707-.989-1.462-1.766-2.254-2.377,19.346-42.896,145.338-77.063,170.991,1.119,1.613.667,3.156,1.351,4.638,2.032-2.471,8.579.519,87.318-25.189,100.455.094-.076.203-.155.296-.23,1.183-.954,2.293-1.883,3.315-2.774,8.054-7.028,10.573-11.785,15.022-27.948,6.051-.632,13.722-2.958,19.623-5.619,7.969-3.594,12.7-7.79,16.249-14.331,3.549-6.541,5.915-15.424,1.411-22.736-.282-.457-.59-.908-.923-1.351-4.993-6.642-15.508-11.474-23.815-8.062-.065.026-.128.058-.192.085,1.407-6.648,2.764-13.338,4.003-19.824.448-2.342.863-4.627,1.279-6.913.311-1.725.617-3.441.913-5.139-2.732-6.799-5.685-14.312-7.746-21.486-4.732-16.473-4.553-30.58-23.168-40.4-18.615-9.821-56.028-15.358-84.69-15.045Z" fill="#f29898" stroke-width="0"/>
        <path d="m1031.496,753.881c2.178,9.154,4.451,25.759,3.189,36.649-1.262,10.891-6.06,16.068-7.292,23.802-1.231,7.735,1.104,18.024,2.272,23.17q1.168,5.146-.443,4.64c-1.611-.505-4.828-1.515-6.776-3.709-1.948-2.194-2.738-6.148-7.095-10.535-4.356-4.388-12.336-9.498-17.399-17.199-5.063-7.701-7.21-17.992-6.776-29.125.434-11.134,3.448-23.111,7.867-31.571,4.419-8.46,10.245-13.403,14.83-14.265,4.585-.862,7.931,2.359,10.646,4.821,2.715,2.462,4.798,4.167,6.976,13.321Z" fill="#3e2626" stroke-width="0"/>
        <path d="m1185.593,753.881c-2.178,9.154-4.451,25.759-3.189,36.649,1.262,10.891,6.06,16.068,7.292,23.802,1.231,7.735-1.104,18.024-2.272,23.17q-1.168,5.146.443,4.64c1.611-.505,4.828-1.515,6.776-3.709,1.948-2.194,2.738-6.148,7.095-10.535,4.356-4.388,12.336-9.498,17.399-17.199,5.063-7.701,7.21-17.992,6.776-29.125-.434-11.134-3.448-23.111-7.867-31.571-4.419-8.46-10.245-13.403-14.83-14.265-4.585-.862-7.931,2.359-10.646,4.821-2.715,2.462-4.798,4.167-6.976,13.321Z" fill="#3e2626" stroke-width="0"/>
        <path d="m1088.806,627.086c-4.187.056-7.372.97-9.076,3.021-3.367,4.053-.939,12.552,4.746,22.739-4.313-.524-8.765-.912-13.301-1.084-22.476-.852-46.845,3.441-62.66,8.681-15.815,5.24-23.076,11.427-7.069,20.645,2.082,1.199,4.574,2.45,7.367,3.728-4.821,2.741-9.541,5.824-13.43,9.088-9.628,8.081-14.174,17.234-12.69,22.759,1.143,4.254,5.873,6.347,13.402,6.483-4.372,4.229-8.481,8.75-11.256,13.088-6.724,10.512-5.651,19.92.601,22.192,3.042,1.106,7.315.511,12.198-1.333-.623,5.181-.359,10.064.145,14.559.852,7.608,2.367,14.111,4.261,18.215,1.894,4.104,4.167,5.807,10.228-1.106,4.777-5.449,11.904-16.255,17.925-27.513-.051,2.855.169,5.333.71,7.077,1.942,6.251,7.88,3.26,15.135-2.41,4.856-3.795,10.273-8.768,14.694-13.061-1.033,3.256-1.478,6.278-1.323,8.238.357,4.511,3.883,3.395,8.571-.422.184-.15.381-.328.568-.486-4.218,12.75-5.873,26.093-4.408,32.024,1.875,7.591,8.839,3.037,20.536-6.16,9.9-7.784,22.895-18.648,31.89-26.21-.331,9.523,2.271,19.155,4.85,26.123,3.437,9.286,6.831,13.838,9.42,10.4,2.59-3.438,4.375-14.866,9.331-26.518,4.16-9.781,10.531-19.679,15.249-26.659,2.279,5.089,4.781,10.33,7.269,14.861,5.651,10.291,11.144,16.857,15.595,24.464,4.451,7.608,7.859,16.258,12.185,14.679,2.852-1.041,6.097-6.542,8.369-13.781,1.21,3.086,2.346,6.168,3.28,9.015,3.157,9.628,4.104,16.573,7.671,14.142,3.568-2.431,9.754-14.236,12.406-25.821,2.651-11.585,1.767-22.95-2.968-31.504-.48-.867-1.007-1.697-1.56-2.505,4.163.651,7.958.735,10.557-.305,7.102-2.841,5.335-14.016-2.651-24.243-6.361-8.146-16.671-15.682-27.366-20.155,2.871-3.83,4.327-9.795,5.452-16.037,1.363-7.561,2.247-15.517-1.162-17.348-3.408-1.831-11.112,2.463-16.289,8.461-2.009,2.327-3.632,4.911-4.948,7.507-2.757-7.15-6.558-14.58-11.908-20.985-11.679-13.984-30.684-23.076-48.93-29.452-11.974-4.185-23.621-7.2-31.614-7.093Z" fill="#593737" stroke-width="0"/>
      </g>
      <g>
        <path d="m1386.512,752.416c-10.709.149-22.619,1.966-35.873,5.789-21.206,6.116-45.848,17.366-58.304,27.366-12.456,10-12.723,18.749-8.527,38.66,2.531,12.01,6.69,28.075,11.323,43.239-.912-.405-1.833-.725-2.755-.93-7.102-1.579-14.3,3.409-16.131,10.323-1.831,6.914,1.704,15.751,7.418,21.781,5.714,6.03,13.606,9.25,19.509,8.082,2.097-.415,3.937-1.39,5.514-2.64,6.465,13.066,13.201,19.372,23.917,23.717,12.991,5.268,31.83,7.679,52.232,4.107,20.402-3.572,42.367-13.126,54.732-21.475,12.366-8.348,15.134-15.491,16.384-27.856.351-3.474.577-7.374.677-11.604.115-.009.223-.009.34-.017,4.262-.316,9.565-1.578,14.269-6.125,4.704-4.546,8.807-12.375,9.438-19.888.631-7.513-2.211-14.711-8.019-17.804-5.361-2.855-13.249-2.21-18.305,3.69-2.382-19.122-6.727-39.871-14.65-53.521-8.214-14.151-20.269-20.67-35.18-23.438-5.591-1.038-11.585-1.549-18.01-1.458Z" fill="#f9d6d1" stroke-width="0"/>
        <path d="m1388.901,752.41c-.79-.007-1.586-.007-2.389.004v.002c-10.709.149-22.619,1.966-35.873,5.789-21.206,6.116-45.848,17.366-58.304,27.366-12.456,10-12.723,18.749-8.527,38.66,2.531,12.01,6.69,28.075,11.323,43.239-.912-.405-1.833-.725-2.755-.93-7.102-1.579-14.3,3.409-16.131,10.323-.566,2.136-.617,4.455-.252,6.819,1.242,3.514,2.493,6.788,3.727,9.79,1.132,1.857,2.463,3.61,3.943,5.172,5.714,6.03,13.606,9.25,19.509,8.082,1.813-.359,3.433-1.138,4.857-2.149-2.751-9.452-8.186-27.396-11.364-42.712-3.214-15.491-4.108-28.259-3.17-35.082.938-6.823,3.707-7.7,22.496-12.878,18.789-5.177,53.622-14.659,76.255-19.532,22.634-4.873,33.08-5.142,40.579.839s12.054,18.216,15.536,32.993c3.482,14.777,5.892,32.097,6.785,44.419.325,4.482.45,8.279.655,11.281.05-.439.104-.871.149-1.324.351-3.474.577-7.374.677-11.604.115-.008.223-.009.34-.017,4.262-.316,9.565-1.579,14.269-6.125,3.273-3.163,6.251-7.915,7.975-13.044.643-3.741,1.11-7.66,1.374-11.687-.675-5.619-3.392-10.545-7.929-12.961-5.361-2.855-13.249-2.21-18.305,3.69-2.382-19.122-6.727-39.871-14.65-53.521-8.214-14.151-20.269-20.67-35.18-23.438-4.893-.908-10.093-1.412-15.621-1.464Z" fill="#f29898" stroke-width="0"/>
        <path d="m1422.648,784.633c0,.491,0,1.473,1.876,6.499,1.876,5.026,5.623,14.082,10.177,22.497,4.554,8.415,9.911,16.183,12.946,21.741,3.036,5.558,3.75,8.906,4.13,10.982.38,2.076.424,2.879,1.028,3.036.604.156,1.763-.334,2.114-3.533.351-3.198-.108-9.112,1.053-14.179,1.161-5.067,3.941-9.292,5.867-16.581,1.925-7.29,2.997-17.649,2.09-25.314-.907-7.665-3.792-12.64-7.721-15.988-3.928-3.348-8.9-5.07-13.976-5.418-5.075-.348-10.253.679-13.87,3.357-3.616,2.679-5.67,7.008-6.362,9.353-.692,2.344-.023,2.701.312,2.88q.335.179.335.669Z" fill="#3e2626" stroke-width="0"/>
        <path d="m1299.969,818.205c1.92,2.277,5.447,5.536,6.674,12.611,1.228,7.075.156,17.968-.982,26.875-1.138,8.906-2.344,15.826-2.344,20.893s1.205,8.281,1.317,9.375c.112,1.094-.87.067-3.415-4.33-2.545-4.397-6.652-12.165-10.446-19.777-3.795-7.612-7.277-15.067-9.554-22.076-2.277-7.009-3.348-13.572-2.076-19.13s4.889-10.112,8.326-11.496c3.437-1.384,6.697.402,8.482,1.942,1.785,1.54,2.098,2.835,4.018,5.112Z" fill="#3e2626" stroke-width="0"/>
        <path d="m1381.146,679.277c-6.156-.038-10.936,6.735-9.256,16.072.609,3.385,2.071,7.107,4.072,10.822-5.247-3.08-11.668-5.615-19.386-6.313-16.785-1.518-39.642,5.624-50,10.267-10.358,4.643-8.215,6.786,3.437,11.117,4.491,1.669,10.409,3.662,16.934,5.654-4.237.477-8.71,1.237-13.317,2.426-16.607,4.286-34.821,14.018-44.464,25.223-9.643,11.205-10.715,23.883-4.687,29.374,1.201,1.094,2.69,1.898,4.444,2.437-.449.707-.894,1.44-1.333,2.212-4.152,7.3-7.717,17.575-6.955,26.753.762,9.178,5.852,17.259,12.593,15.986,4.016-.758,8.613-4.848,12.555-10.352.668,6.849,3.955,11.706,9.007,13.277,8.036,2.5,20.537-3.304,30.536-15.447,7.09-8.609,12.91-20.4,16.261-31.261-.11,1.623-.169,3.226-.145,4.789.223,14.42,6.561,25.758,15.267,24.062,6.318-1.231,13.872-9.336,19.491-18.992,2.986,7.669,8.378,11.909,13.456,9.751,6.831-2.902,13.08-17.367,15.669-29.42.372-1.732.66-3.409.882-5.038,1.127,3.922,2.56,7.79,4.207,11.109,5.804,11.697,14.107,16.607,20.045,16.249,5.938-.358,9.51-5.983,9.688-12.277.023-.794-.011-1.599-.098-2.417,5.212,4.109,10.348,7.457,14.473,8.801,7.947,2.589,12.142-2.233,10.134-9.598-1.02-3.742-3.648-8.139-7.406-12.378,5.794.92,11.611,1.025,13.433-1.907,2.857-4.598-4.108-16.653-11.25-23.751-2.565-2.549-5.153-4.449-7.731-5.815,2.446-3.373,2.298-7.722-.393-11.216-2.568-3.335-7.447-5.883-13.296-6.918,3.829-3.2,8.038-7.467,9.658-10.894,2.12-4.486-.202-7.522-5.67-6.451-4.389.86-10.802,4.368-15.369,8.328.308-2.636.399-5.335.079-7.857-.893-7.031-4.955-12.701-9.062-14.799-4.107-2.098-8.259-.626-10,4.419-.785,2.274-1.076,5.276-1.012,8.484-.716-.918-1.524-1.966-2.517-3.308-4.689-6.341-12.901-18.39-20.266-20.757-.921-.296-1.828-.441-2.707-.447Z" fill="#593737" stroke-width="0"/>
      </g>
      <path d="m1364.435,1417.56c1.067,16.433,4.603,47.053,4.73,64.194.127,17.141-3.155,20.802-10.292,24.261-7.137,3.459-18.119,6.712-24.308,10.153-6.189,3.441-7.576,7.069-7.386,9.325.19,2.256,1.958,3.14,13.7,3.582,11.741.442,33.463.442,45.02-.766,11.556-1.208,12.951-3.624,14.529-23.125,1.578-19.502,3.341-56.117.939-75.238-2.402-19.121-8.968-20.763-15.529-23.401-6.561-2.638-13.115-6.272-17.093-6.967-3.977-.695-5.377,1.55-4.31,17.983Z" fill="#f9d6d1" stroke-width="0"/>
      <path d="m1386.89,1454.476c-6.082-.007-12.885.283-19.188,1.466.786,9.589,1.41,18.827,1.462,25.812.05,6.767-.44,11.411-1.479,14.793,6.119-1.854,12.751-5.337,18.885-9.419,5.944-3.955,11.399-8.46,15.608-12.749.223-6.324.358-12.767.36-18.961-3.479-.616-7.938-.855-13.112-.924-.829-.011-1.675-.018-2.536-.019Z" fill="#f29898" stroke-width="0"/>
      <path d="m1518.309,1417.56c-1.067,16.433-4.603,47.053-4.73,64.194-.127,17.141,3.155,20.802,10.292,24.261,7.137,3.459,18.119,6.712,24.308,10.153,6.189,3.441,7.576,7.069,7.386,9.325-.19,2.256-1.958,3.14-13.7,3.582-11.741.442-33.463.442-45.02-.766-11.556-1.208-12.951-3.624-14.529-23.125-1.578-19.502-3.341-56.117-.939-75.238,2.402-19.121,8.968-20.763,15.529-23.401,6.561-2.638,13.115-6.272,17.093-6.967,3.977-.695,5.377,1.55,4.31,17.983Z" fill="#f9d6d1" stroke-width="0"/>
      <path d="m1495.854,1454.476c6.082-.008,12.885.283,19.188,1.466-.786,9.589-1.41,18.827-1.462,25.812-.05,6.767.44,11.411,1.479,14.793-6.119-1.854-12.751-5.337-18.885-9.419-5.944-3.955-11.399-8.46-15.608-12.748-.223-6.324-.358-12.767-.36-18.961,3.479-.616,7.938-.855,13.112-.924.829-.011,1.675-.018,2.536-.019Z" fill="#f29898" stroke-width="0"/>
      <path d="m1333.766,1225.934c3.034,50.081,8.312,142.257,11.33,190.239,3.018,47.982,3.775,51.77,6.807,54.359,3.031,2.589,8.334,3.978,17.74,4.672,9.406.694,22.919.694,30.81-.316,7.892-1.01,10.165-3.031,14.835-27.582,4.67-24.551,11.744-71.666,15.848-95.91,4.104-24.244,5.24-25.633,6.03-26.453.789-.821,1.231-1.073,7.261,23.458,6.03,24.531,17.645,73.833,23.801,98.645,6.156,24.812,6.85,25.128,13.066,24.939,6.216-.189,17.965-.884,26.867-2.021,8.902-1.136,14.963-2.715,18.309-4.42,3.346-1.705,3.977-3.536,4.829-47.488.852-43.952,1.926-130.11-4.724-194.266-6.65-64.156-21.022-106.353-48.07-121.916-27.048-15.563-66.771-4.492-93.777,9.616-27.006,14.107-41.29,31.249-48.039,43.813-6.748,12.565-5.958,20.549-2.924,70.63Z" fill="#5a6b9b" stroke-width="0"/>
      <path d="m1526.474,1222.865c-17.743,3.48-40.941,7.165-70.625,8.53-37.592,1.728-85.503-.261-121.576,3.043,1.212,20.182,2.675,45.034,4.219,71.319,4.771.084,9.844.088,15.268.012,44.7-.631,112.25-6.441,152.09-16.859,9.753-2.55,17.836-5.377,24.614-8.379-.826-19.684-2.056-39.054-3.889-56.739-.032-.312-.068-.615-.101-.926Z" fill="#4d5584" stroke-width="0"/>
      <path d="m1485.045,929.438c-30,7.411-90,22.232-130.085,33.448-40.086,11.216-60.256,18.826-70.469,22.536-10.212,3.711-10.465,3.521-12.107-3.664-1.642-7.185-4.671-21.352-6.534-29.354-1.862-8.002-2.557-9.833-10.052-8.618-7.495,1.215-21.798,5.477-29.075,8.366-7.277,2.888-7.529,4.403-8.54,19.185-1.011,14.781-2.778,42.797-2.399,62.685.379,19.888,2.904,31.63,5.682,37.502,2.778,5.872,5.809,5.872,23.404,2.58,17.596-3.292,49.58-9.84,65.489-12.618,15.91-2.778,15.657-1.768,15.025,27.046-.632,28.814-1.641,85.333-1.578,119.615.063,34.282,1.2,46.278,1.768,52.907.568,6.629.568,8.144,5.306,9.597,4.738,1.453,14.203,2.967,36.993,3.409,22.79.442,58.906-.189,90.788-5.051,31.883-4.861,59.536-13.953,72.983-20.898,13.447-6.945,12.69-11.743,5.114-48.231-7.575-36.487-21.972-104.681-28.825-139.486-6.854-34.805-6.167-36.229,9.569-49.299,15.736-13.07,46.559-37.818,61.737-53.13,15.178-15.312,14.732-21.205,8.891-37.348-5.841-16.143-17.106-42.607-23.043-55.865-5.937-13.259-6.562-13.348-15.499-8.879-8.937,4.469-26.152,13.477-34.724,18.165-8.572,4.688-8.483,5.045-5.834,11.918,2.649,6.874,7.842,20.225,10.186,27.066,2.344,6.841,1.831,7.154.657,7.567-1.173.414-3.001.926-3.916,1.183s-.916.257-30.915,7.667Z" fill="#bf4b4b" stroke-width="0"/>
      <path d="m1370.492,968.991c-1.443-4.265-3.763-11.427-4.566-15.801-.803-4.374-.09-5.959,7.75-9.9,7.839-3.94,22.818-10.242,33.997-13.277,11.179-3.035,18.567-2.807,22.76-1.4,4.193,1.407,5.191,3.994,6.052,9.322.861,5.328,1.586,13.397,1.737,18.126.151,4.729-.27,6.117-3.849,8.617-3.579,2.5-10.309,6.108-19.687,9.022-9.377,2.914-21.395,5.132-28.773,5.398-7.378.266-10.112-1.421-11.762-2.948s-2.216-2.894-3.659-7.159Z" fill="#a53b3b" stroke-width="0"/>
      <g>
        <path d="m1553.239,838.682c-.064,2.273.82,6.377-4.452,11.301-5.272,4.925-16.698,10.669-25,13.826-8.302,3.157-13.479,3.725-19.257-1.99-5.778-5.715-12.153-17.708-15.057-24.496-2.904-6.787-2.336-8.366-.506-10.669,1.83-2.303,4.926-5.336,6.346-7.387,1.42-2.052,1.168-3.125-2.335-10.256-3.502-7.131-10.261-20.333-12.912-27.246-2.651-6.913-1.199-7.545.947-8.302,2.146-.757,4.988-1.642,7.576-.727,2.588.915,4.924,3.631,7.797,8.397,2.873,4.767,6.282,11.585,8.144,14.047,1.863,2.462,2.178.568,1.8-5.427-.379-5.995-1.452-16.101-1.547-21.436-.094-5.335.79-5.903,2.966-5.998,2.176-.095,5.652.285,7.546,1.578,1.894,1.294,2.209,3.504,3.504,9.535s3.567,15.877,5.082,20.802c1.516,4.925,2.273,4.925,5.869,4.546,3.596-.378,10.042-1.137,13.987-.695,3.945.442,5.398,2.084,7.071,7.987,1.673,5.903,3.567,16.067,4.356,21.686.789,5.619.474,6.692-.189,7.45-.663.758-1.672,1.2-1.736,3.472Z" fill="#f9d6d1" stroke-width="0"/>
        <path d="m1525.934,809.276c-.197.01-.22.47-.063,1.292.313,1.644,1.338,4.718,1.595,6.671s-.257,2.778-2.591,4.32c-2.335,1.542-6.482,3.794-8.372,5.492-1.89,1.698-1.503,2.879-.331,6.161s3.136,8.681,4.064,12.561.818,6.24-.057,8.793c-.875,2.553-2.516,5.298-4.979,7.698-1.322,1.288-2.861,2.465-4.252,3.523,3.664.962,7.639,0,12.839-1.976,8.302-3.157,19.728-8.902,25.001-13.827,5.272-4.925,4.388-9.029,4.452-11.301.064-2.273,1.073-2.715,1.736-3.473.234-.268.42-.586.535-1.118-5.221,2.572-11.041,5.275-15.697,7.144-7.934,3.185-12.438,3.937-15.564,1.89-3.126-2.047-4.871-6.891-5.877-9.835-1.006-2.944-1.272-3.986-.451-5.128.821-1.142,2.729-2.381,5.197-3.601s5.499-2.42,6.133-5.089c.634-2.669-1.128-6.811-2.209-8.78-.541-.985-.911-1.426-1.108-1.417Z" fill="#f29898" stroke-width="0"/>
        <path d="m1522.322,788.525c-.923,1.181-2.158,2.526-3.965,3.976-5.952,4.773-17.802,10.541-26.209,14.837.26.524.598,1.2.831,1.674,3.356,6.833,3.71,8.111,2.486,10.011.377-.205.565-.316.992-.546,6.952-3.759,20.86-11.077,29.919-15.543,4.056-2,7.143-3.432,9.207-4.715-2.178.178-4.283.401-5.832.564-3.595.379-4.352.379-5.868-4.545-.464-1.507-1.004-3.534-1.56-5.711Z" fill="#f29898" stroke-width="0"/>
      </g>
      <g>
        <path d="m1211.537,922.989c1.428,1.769,3.211,5.57,10.389,6.294,7.178.724,19.748-1.629,28.266-4.148,8.518-2.519,12.98-5.203,14.114-13.25,1.134-8.047-1.061-21.451-2.863-28.611-1.802-7.159-3.21-8.071-6.062-8.794-2.852-.724-7.151-1.26-9.524-2.032-2.373-.772-2.822-1.779-4.356-9.574-1.534-7.795-4.156-22.393-6.235-29.499-2.08-7.106-3.617-6.729-5.783-6.031-2.166.698-4.963,1.716-6.467,4.012-1.504,2.296-1.718,5.872-1.115,11.405.603,5.533,2.022,13.023,2.031,16.11s-1.389,1.772-4.72-3.227c-3.331-4.999-8.6-13.69-11.757-17.991-3.157-4.301-4.205-4.218-5.993-2.974-1.789,1.243-4.324,3.651-5.047,5.827-.723,2.177.365,4.126,2.989,9.708,2.624,5.582,6.782,14.792,8.56,19.628,1.778,4.836,1.175,5.295-1.914,7.173-3.09,1.877-8.678,5.18-11.549,7.922s-3.032,4.928-.786,10.638c2.245,5.71,6.897,14.944,9.674,19.892,2.776,4.948,3.678,5.611,4.665,5.812.987.201,2.057-.059,3.485,1.711Z" fill="#f9d6d1" stroke-width="0"/>
        <path d="m1215.443,883.051c.162-.111.459.241.833.99.747,1.498,1.794,4.564,2.773,6.274.979,1.709,1.888,2.055,4.679,1.867,2.791-.188,7.455-.909,9.987-.703,2.532.206,2.94,1.379,3.996,4.701,1.056,3.321,2.765,8.806,4.378,12.455,1.613,3.649,3.13,5.46,5.373,6.961,2.243,1.501,5.212,2.69,8.625,3.107,1.832.224,3.77.227,5.518.226-2.332,2.985-6.077,4.628-11.412,6.207-8.518,2.519-21.088,4.871-28.267,4.148-7.178-.724-8.961-4.524-10.389-6.294-1.428-1.769-2.498-1.51-3.485-1.711-.348-.071-.689-.211-1.103-.565,5.712-1.117,11.98-2.493,16.816-3.827,8.242-2.273,12.281-4.404,13.527-7.927,1.246-3.522-.3-8.433-1.283-11.385-.983-2.952-1.403-3.942-2.748-4.353-1.345-.411-3.613-.241-6.316.284-2.703.525-5.841,1.407-7.963-.332-2.122-1.739-3.229-6.102-3.562-8.324-.167-1.111-.139-1.686.023-1.798Z" fill="#f29898" stroke-width="0"/>
        <path d="m1205.744,864.353c1.45.381,3.247.702,5.563.76,7.627.191,20.549-2.4,29.84-4.076.111.575.252,1.317.354,1.835,1.47,7.47,1.962,8.701,4.088,9.47-.424.065-.641.091-1.12.166-7.808,1.221-23.306,3.826-33.22,5.762-4.438.867-7.762,1.598-10.181,1.827,1.84-1.178,3.651-2.276,4.981-3.085,3.09-1.877,3.692-2.335,1.914-7.172-.544-1.48-1.342-3.42-2.219-5.489Z" fill="#f29898" stroke-width="0"/>
      </g>
      <path d="m1428.942,933.177c-1.082-1.009-3.065-2.144-9.565-1.319-6.5.825-17.515,3.608-26.28,6.683-8.765,3.075-15.277,6.44-18.53,9.013-3.253,2.573-3.245,4.354-.245,5.232,3,.878,8.989.854,17.469-.762,8.481-1.616,19.454-4.823,26.302-7.767,6.848-2.944,9.572-5.624,10.842-7.406,1.27-1.782,1.088-2.665.006-3.674Z" fill="#611f1f" stroke-width="0"/>
      <path d="m1398.143,949.184c.51-.117.467,11.981,8.817,26.852-1.725,16.4-2.734,35.569-2.171,59.547.558,23.756,2.574,46.941,3.924,62.354,1.399,15.974,2.276,25.812,1.741,25.878-.455.056-2.229-9.66-4.261-25.47-1.993-15.5-4.365-38.05-4.893-62.038-.523-23.775.867-43.452,3.179-59.804-8.177-15.827-4.444-27.75-6.336-27.318Z" fill="#611f1f" stroke-width="0"/>
      <path d="m1275.599,988.579c1.101-.496,7.852,12.14,7.626,30.07-.001.108-.003.217-.006.324-.292,17.345-5.303,30.3-5.727,30.215-.972-.194,1.882-13.702,2.114-30.271.001-.103.003-.207.003-.311.094-8.65-.91-15.584-2.153-21.204-1.182-5.344-2.357-8.599-1.857-8.823Zm245.088-65.534c.997.017,1.456,8.632,5.82,18.147,4.363,9.515,10.071,16.412,9.333,17.082-.583.53-7.844-5.067-12.611-15.589-4.757-10.5-3.653-19.66-2.541-19.641Z" fill="#611f1f" stroke-width="0"/>
      <path d="m1836.16,1224.566c32.129,20.087,57.496,58.746,71.764,89.493,14.268,30.746,17.438,53.579,9.679,68.595-7.759,15.016-26.446,22.213-61.676,33.262-35.23,11.049-86.998,25.948-132.582,27.337-45.584,1.389-84.979-10.733-111.622-34.093-26.643-23.36-40.533-57.958-19.319-94.449,21.213-36.492,77.53-74.878,125.133-93.313,47.603-18.435,86.495-16.92,118.623,3.167Z" fill="#433a34" stroke-width="0"/>
      <path d="m1540.455,1275.754c-2.679,17.143-5.179,45.714-8.75,61.786-3.571,16.072-8.214,19.643-11.25,25.536-3.036,5.894-4.465,14.106-14.287,19.107-9.822,5-28.034,6.786-45.713,16.965-17.679,10.179-34.821,28.749-54.822,86.251-20.001,57.502-42.857,153.926-56.964,206.605-14.107,52.679-19.464,61.607-18.75,68.572.714,6.965,7.499,11.965,9.643,17.5,2.143,5.535-.357,11.607,33.22,23.216,33.577,11.609,103.209,28.749,169.102,33.392,65.893,4.643,128.036-3.214,169.822-19.107,41.785-15.893,63.214-39.822,70.714-58.393,7.5-18.571,1.071-31.786.357-51.25-.714-19.464,4.286-45.179,1.786-81.607-2.5-36.428-12.5-83.572-16.071-109.822-3.571-26.25-.714-31.607,11.784-42.677,12.498-11.07,34.645-27.858,51.073-50.894,16.428-23.035,27.143-52.322,24.821-87.321-2.321-34.999-17.679-75.715-33.75-100-16.071-24.285-32.857-32.143-59.643-34.107-26.786-1.964-63.571,1.964-100.893,10.893-37.322,8.929-75.178,22.857-95.535,32.678-20.357,9.821-23.215,15.535-25.893,32.678Z" fill="#835050" stroke-width="0"/>
      <path d="m1746.717,1199.015c-1.743.012-3.52.048-5.316.098-.544.015-1.097.038-1.645.057-1.26.043-2.529.094-3.813.155-.657.032-1.318.065-1.981.101-1.273.069-2.557.149-3.851.236-.608.041-1.213.079-1.825.123-1.591.116-3.199.244-4.819.385-.316.028-.626.05-.943.079-1.958.176-3.937.373-5.933.586-.461.05-.928.106-1.39.157-1.55.171-3.107.352-4.677.545-.635.078-1.275.161-1.913.243-1.413.181-2.833.37-4.26.568-.68.095-1.36.189-2.043.287-1.54.222-3.088.456-4.642.697-.53.082-1.056.16-1.588.245-2.08.332-4.172.679-6.274,1.046-.381.067-.766.139-1.148.207-1.708.302-3.422.615-5.142.94-.744.141-1.49.287-2.235.432-1.386.269-2.773.545-4.165.829-.799.163-1.599.327-2.399.495-1.417.297-2.837.604-4.258.916-.735.161-1.47.318-2.206.483-2.12.476-4.241.964-6.366,1.472-2.333.558-4.667,1.135-6.999,1.73-6.997,1.785-13.974,3.725-20.811,5.761-23.493,6.997-45.298,15.116-60.668,21.938-2.521,1.119-4.906,2.211-7.058,3.249-5.354,2.583-9.487,4.882-12.735,7.179-.612.433-1.2.865-1.75,1.299-3.819,3.015-6.211,6.118-7.878,9.94,0,0,0,0,0,0-.757,1.737-1.366,3.624-1.89,5.717-.419,1.675-.785,3.485-1.131,5.457-.173.986-.341,2.012-.508,3.084-.308,1.974-.614,4.112-.92,6.352-.018.132-.036.254-.054.387-.105.776-.211,1.63-.316,2.432-.228,1.738-.456,3.469-.686,5.304-.251,2.004-.512,4.159-.766,6.24-.646,5.296-1.299,10.637-1.991,15.979-.058.448-.114.9-.173,1.346-.253,1.93-.514,3.796-.776,5.666-.132.939-.261,1.893-.396,2.811-.142.968-.284,1.935-.429,2.876,0,0,0,0,0,.007,0,0,0,0,0,.007-.375,2.433-.76,4.759-1.16,6.949,0,.01-.007.021-.007.031,0,.018-.008.036-.011.054-.198,1.081-.399,2.126-.604,3.133,2.337,6.021,4.779,11.782,7.33,17.145,17.299,36.366,39.522,54.801,63.135,62.377,23.613,7.576,218.866-14.204,241.44-15.64,8.838-18.87,13.741-40.795,12.097-65.591-2.321-34.999-17.679-75.715-33.75-100.001-.502-.759-1.005-1.501-1.509-2.228,0,0,0,0,0,0-.504-.727-1.009-1.438-1.515-2.134-1.012-1.392-2.029-2.722-3.054-3.993-1.537-1.907-3.091-3.682-4.668-5.332-1.052-1.1-2.114-2.146-3.189-3.138,0,0,0,0,0,0-.253-.234-.51-.456-.765-.684-1.131-1.012-2.276-1.967-3.44-2.868-.243-.188-.485-.383-.729-.567,0,0,0,0,0,0-.559-.42-1.122-.829-1.69-1.225,0,0,0,0,0,0-.568-.396-1.14-.78-1.717-1.153,0,0,0,0,0,0-.577-.372-1.158-.734-1.745-1.084,0,0,0,0,0,0-.587-.35-1.178-.689-1.775-1.017-5.234-2.874-10.873-4.905-17.102-6.321-.167-.038-.329-.08-.497-.117,0,0,0,0,0,0-1.428-.315-2.887-.599-4.38-.853-2.92-.497-5.969-.878-9.161-1.169-.073-.007-.143-.016-.215-.022,0,0,0,0,0,0-.818-.074-1.644-.141-2.481-.202-1.087-.08-2.198-.145-3.316-.205-.342-.019-.685-.036-1.03-.052-.527-.025-1.067-.045-1.601-.066-1.241-.05-2.5-.087-3.776-.114-.42-.009-.837-.02-1.261-.026-1.666-.025-3.353-.038-5.084-.031Z" fill="#6b4141" stroke-width="0"/>
      <path d="m1919.023,1321.972c-6.246-31.251-20.759-79.864-35.154-138.579-14.395-58.715-28.671-127.532-50.835-163.456-22.164-35.924-52.216-38.954-81.511-35.797-29.295,3.157-57.831,12.5-82.454,18.056-24.623,5.556-45.33,7.324-60.862,8.839-15.531,1.515-25.885,2.778-35.103,16.542-9.218,13.764-17.299,40.026-28.537,67.3-11.238,27.275-25.632,55.558-35.986,71.721-10.354,16.163-16.667,20.203-18.814,24.118-2.147,3.915-.127,7.702,14.648,40.156,14.774,32.453,42.299,93.563,71.468,119.575,29.169,26.011,59.978,16.92,101.268.632,41.289-16.288,93.061-39.775,129.931-47.099,36.87-7.323,58.841,1.516,75.13,13.258,16.288,11.743,26.895,26.39,32.451,37.502,5.556,11.111,6.061,18.687,7.324,15.53,1.263-3.157,3.283-17.046-2.963-48.297Z" fill="#6c5d53" stroke-width="0"/>
      <path d="m1768.024,983.192c-5.489-.02-11.009.356-16.501.948-29.295,3.157-57.83,12.5-82.453,18.056-24.623,5.556-45.33,7.324-60.861,8.839-.802.078-1.535.162-2.31.24-14.271,21.742,6.095,50.478,27.732,64.409,22.161,14.268,45.646,13.006,75.508-6.565,29.862-19.571,66.104-57.454,70.712-78.73.506-2.334.63-4.466.398-6.41-4.043-.527-8.125-.772-12.226-.787Z" fill="#50453e" stroke-width="0"/>
      <path d="m1775.686,964.972c-1.297-.169.169-1.636,3.439-6.936,3.27-5.3,8.349-14.441,7.672-21.66-.677-7.219-7.107-12.521-7.615-32.319-.508-19.798,4.907-54.09-8.291-82.573-13.198-28.483-45.01-51.157-78.456-58.377-33.447-7.22-68.529,1.015-91.824,17.654-23.295,16.639-34.801,41.681-35.76,64.299-.959,22.618,8.629,42.81,16.582,58.546,7.953,15.736,14.27,27.017,14.27,39.933,0,12.916-6.317,27.468-5.414,36.606.903,9.138,9.024,12.86,13.536,17.428,4.512,4.568,5.414,9.983,27.583,13.424,22.169,3.441,65.595,4.907,94.642,1.297,29.047-3.61,43.712-12.296,51.157-21.377,7.445-9.081,7.67-18.557,5.753-22.731-1.917-4.174-5.978-3.045-7.276-3.215Z" fill="#6c5d53" stroke-width="0"/>
      <path d="m1605.163,821.519c-13.563.183-27.437,3.9-34.351,14.506-3.268,5.014-4.977,11.572-5.755,18.56,1.545,18.762,9.559,35.53,16.377,49.021,7.953,15.737,14.27,27.017,14.271,39.933,0,12.916-6.317,27.469-5.414,36.606.903,9.138,9.023,12.859,13.535,17.427,4.512,4.568,5.416,9.984,27.584,13.425,15.731,2.442,42.154,3.878,66.56,3.223,41.976-6.74,73.485-37.668,77.484-49.308-.844-.341.634-1.954,3.671-6.876,3.27-5.3,8.35-14.442,7.673-21.661-.321-3.42-1.934-6.426-3.596-10.731-16.491,8.881-38.43,24.741-47.417,30.967-11.303,7.83-2.085.381,6.375-11.994,8.46-12.375,16.162-29.673,19.066-45.52,2.904-15.847-2.4-71.722-7.577-70.775.88,9.713-13.89,98.328-39.206,69.196-12.69-10.859-34.157-35.103-50.824-50.571-16.667-15.468-28.536-22.159-45.267-24.558-4.183-.6-8.668-.931-13.189-.87Z" fill="#5d4f48" stroke-width="0"/>
      <path d="m1755.417,866.204c.676.081.822,8.455-1.916,21.737-2.803,13.597-8.394,30.871-18.732,49.273,0,0-.179.317-.179.317-7.085,12.581-14.961,22.754-23.332,30.793-16.119,15.507-30.531,18.78-30.846,17.961-.376-.976,13.053-6.402,27.341-21.447,7.675-8.095,14.899-17.93,21.795-30.15,0,0,.173-.308.173-.308,10.081-17.972,16-34.275,19.807-47.421,3.676-12.694,5.095-20.851,5.888-20.756Z" fill="#342c28" stroke-width="0"/>
      <path d="m1725.012,942.585c6.622-15.12,4.93-27.191-3.565-43.736-8.495-16.545-23.794-37.566-44.81-52.645-21.016-15.079-47.751-24.216-63.713-24.611-15.962-.395-21.151,7.951-24.272,27.544-3.122,19.593-4.174,50.424-3.068,72.328,1.106,21.904,4.372,34.877,12.379,46.27,8.007,11.394,20.753,21.208,29.044,28.314,8.291,7.107,12.127,11.506,21.635,10.721,9.509-.785,24.69-6.753,39.75-18.824,15.059-12.07,29.998-30.243,36.62-45.363Z" fill="#f9d6d1" stroke-width="0"/>
      <path d="m1611.46,821.582c-14.819.149-19.783,8.576-22.807,27.556-.36,2.258-.689,4.681-.993,7.207,2.879-1.466,6.148-2.818,9.82-3.847,11.527-3.231,26.982-3.293,41.092-2.168,14.11,1.125,26.872,3.439,40.791,8.504,6.922,2.519,14.13,5.718,21.046,9.201-6.819-7.821-14.768-15.371-23.77-21.83-21.016-15.079-47.75-24.215-63.712-24.611-.499-.011-.988-.017-1.466-.012Z" fill="#835050" stroke-width="0"/>
      <path d="m1844.979,1300.065c-9.028-5.808-23.044-14.521-38.891-16.036-15.847-1.515-33.524,4.167-48.992,10.922-15.468,6.755-28.726,14.584-43.689,22.855-14.963,8.271-31.63,16.983-44.573,22.602-12.943,5.619-22.16,8.144-27.842,10.291-5.682,2.146-7.829,3.914-8.46,11.619-.632,7.705.252,21.337,3.535,34.911,3.283,13.574,8.965,27.085,17.741,30.494,8.776,3.409,20.645-3.283,49.496-14.141s74.69-25.886,103.605-38.702c28.915-12.816,40.911-23.423,47.287-33.588,6.376-10.164,7.134-19.888,5.493-26.201-1.641-6.313-5.682-9.217-14.71-15.026Z" fill="#835050" stroke-width="0"/>
      <path d="m1599.427,1386.684c11.305-5.751,17.823-4.054,22.912.052,5.089,4.107,8.75,10.625,10.268,16.786s.893,11.964-2.455,19.241c-3.348,7.277-9.419,16.026-16.16,25.67s-14.151,20.178-18.722,28.003c-4.571,7.825-6.301,12.937-11.391,15.617-5.09,2.679-13.536,2.923-18.877-2.268s-7.573-15.816-6.903-27.244c.67-11.428,4.241-23.659,6.027-29.776,1.786-6.116-4.793.462-5.816,1.328-1.024.866-3.071,2.597-4.983,2.501-1.913-.096-3.692-2.022-4.698-3.895-1.005-1.873-1.236-3.695.11-5.995,1.346-2.3,4.271-5.083,13.786-13.079,9.515-7.996,25.599-21.188,36.904-26.938Z" fill="#f9d6d1" stroke-width="0"/>
      <path d="m1747.479,1269.684c-1.375-.132,1.589-42.6,6.616-94.794,5.027-52.194,10.223-94.446,11.599-94.314,1.375.132-1.589,42.6-6.616,94.794-5.027,52.194-10.223,94.446-11.599,94.314Z" fill="#342c28" stroke-width="0"/>
      <path d="m1589.443,1101.469c1.356.264-4.263,35.038-12.543,77.621-8.28,42.583-16.101,76.929-17.457,76.665-1.356-.264,4.263-35.038,12.543-77.621,8.28-42.583,16.101-76.929,17.457-76.665Z" fill="#342c28" stroke-width="0"/>
      <path d="m1740.644,1292.741c-.499-.122-.009-7.276,4.299-18.123,4.299-10.828,12.44-24.927,26.545-36.226.239-.191.478-.381.719-.569,14.355-11.203,30.249-14.587,41.81-14.562,11.581.025,18.029,3.134,17.921,3.568-.166.664-6.984-.929-17.79-.072-10.933.867-25.566,4.604-38.858,15.01-.226.177-.452.355-.677.534-13.265,10.575-21.454,23.661-26.424,33.754-4.944,10.04-6.872,16.849-7.543,16.686Z" fill="#342c28" stroke-width="0"/>
      <path d="m1773.69,1546.554c-22.682,27.822-42.35,118.251-66.76,168.683-24.875,51.392-54.674,61.241-82.707,65.282-28.032,4.041-54.294,2.273-68.69-20.583-14.395-22.856-16.921-66.797-25.002-68.439-8.081-1.642-21.719,39.018-42.806,62.126-21.087,23.108-49.623,28.664-77.15,20.077-27.527-8.587-54.043-31.315-70.583-42.426-.727-.488-1.411-.925-2.099-1.368-6.026,19.888-8.462,25.915-7.975,30.671.714,6.965,7.5,11.965,9.643,17.501,2.143,5.535-.357,11.606,33.22,23.215,33.577,11.609,103.209,28.75,169.102,33.393,65.893,4.643,128.037-3.214,169.822-19.107,41.786-15.893,63.214-39.822,70.714-58.393,7.5-18.571,1.07-31.786.356-51.251-.714-19.464,4.287-45.179,1.787-81.606-1.669-24.321-6.662-53.305-10.872-77.773Z" fill="#6b4141" stroke-width="0"/>
      <path d="m1338.492,1305.756c-7.241.301-13.767,1.787-18.912-2.837-5.145-4.624-8.908-15.356-10.347-26.531-1.439-11.175-.555-22.792,2.286-32.83,2.841-10.038,7.64-18.499,10.986-24.686,3.346-6.187,5.24-10.102,7.449-10.291,2.209-.189,4.735,3.347,4.609,9.534-.126,6.187-2.904,15.025-.378,17.046,2.526,2.02,10.354-2.777,16.73-4.608,6.376-1.831,11.301-.694,15.215,7.386,3.914,8.08,6.818,23.108,5.902,35.812-.916,12.705-5.653,23.087-11.999,27.837-6.346,4.75-14.301,3.867-21.541,4.168Z" fill="#f9d6d1" stroke-width="0"/>
    </g>
  </g>
</svg>