<?xml version="1.0" encoding="UTF-8"?>
<svg id="Layer_1" data-name="Layer 1" xmlns="http://www.w3.org/2000/svg" xmlns:xlink="http://www.w3.org/1999/xlink" viewBox="0 0 2436 2436">
  <defs>
    <filter id="luminosity-noclip" x="1441.494" y="1206.178" width="65.536" height="74.538" color-interpolation-filters="sRGB" filterUnits="userSpaceOnUse">
      <feFlood flood-color="#fff" result="bg"/>
      <feBlend in="SourceGraphic" in2="bg"/>
    </filter>
    <filter id="luminosity-noclip-2" x="1447.096" y="-6954" width="59.935" height="32766" color-interpolation-filters="sRGB" filterUnits="userSpaceOnUse">
      <feFlood flood-color="#fff" result="bg"/>
      <feBlend in="SourceGraphic" in2="bg"/>
    </filter>
    <mask id="mask-1" x="1447.096" y="-6954" width="59.935" height="32766" maskUnits="userSpaceOnUse"/>
    <linearGradient id="linear-gradient" x1="1446.981" y1="1267.17" x2="1501.413" y2="1212.738" gradientUnits="userSpaceOnUse">
      <stop offset=".134" stop-color="#fff"/>
      <stop offset=".213" stop-color="#f1f1f1"/>
      <stop offset=".361" stop-color="#cdcdcd"/>
      <stop offset=".561" stop-color="#939393"/>
      <stop offset=".804" stop-color="#444"/>
      <stop offset="1" stop-color="#000"/>
    </linearGradient>
    <mask id="mask" x="1441.494" y="1206.178" width="65.536" height="74.538" maskUnits="userSpaceOnUse">
      <g filter="url(#luminosity-noclip)">
        <g mask="url(#mask-1)">
          <path d="m1474.658,1226.783s-16.096,11.72-19.758,21.051c-3.662,9.307-13.406,14.622-3.461,23.764,9.945,9.119,15.756,2.486,15.756,2.486,0,0,9.979-9.141,16.617-16.603,6.623-7.462,23.218-21.565,23.218-29.873s-12.178-21.43-12.178-21.43l-22.588,8.201,2.392,12.404Z" fill="url(#linear-gradient)" mix-blend-mode="multiply" stroke-width="0"/>
        </g>
      </g>
    </mask>
    <clipPath id="clippath">
      <path d="m1474.658,1226.783s-16.096,11.72-19.758,21.051c-3.662,9.307-13.406,14.622-3.461,23.764,9.945,9.119,15.756,2.486,15.756,2.486,0,0,9.979-9.141,16.617-16.603,6.623-7.462,23.218-21.565,23.218-29.873s-12.178-21.43-12.178-21.43l-22.588,8.201,2.392,12.404Z" fill="none" stroke-width="0"/>
    </clipPath>
    <filter id="luminosity-noclip-3" x="1931.582" y="1702.183" width=".88" height=".568" color-interpolation-filters="sRGB" filterUnits="userSpaceOnUse">
      <feFlood flood-color="#fff" result="bg"/>
      <feBlend in="SourceGraphic" in2="bg"/>
    </filter>
    <filter id="luminosity-noclip-4" x="1931.582" y="-6954" width=".88" height="32766" color-interpolation-filters="sRGB" filterUnits="userSpaceOnUse">
      <feFlood flood-color="#fff" result="bg"/>
      <feBlend in="SourceGraphic" in2="bg"/>
    </filter>
    <mask id="mask-3" x="1931.582" y="-6954" width=".88" height="32766" maskUnits="userSpaceOnUse"/>
    <linearGradient id="linear-gradient-2" x1="-4360.472" y1="1694.495" x2="-4359.917" y2="1694.815" gradientTransform="translate(-326.402 -2394.479) rotate(-97.625)" gradientUnits="userSpaceOnUse">
      <stop offset="0" stop-color="#fff"/>
      <stop offset=".139" stop-color="#bebebe"/>
      <stop offset=".278" stop-color="#838383"/>
      <stop offset=".381" stop-color="#5f5f5f"/>
      <stop offset=".435" stop-color="#525252"/>
      <stop offset=".499" stop-color="#404040"/>
      <stop offset=".625" stop-color="#242424"/>
      <stop offset=".751" stop-color="#101010"/>
      <stop offset=".876" stop-color="#040404"/>
      <stop offset="1" stop-color="#000"/>
    </linearGradient>
    <mask id="mask-2" x="1931.582" y="1702.183" width=".88" height=".568" maskUnits="userSpaceOnUse">
      <g filter="url(#luminosity-noclip-3)">
        <g mask="url(#mask-3)">
          <path d="m1931.582,1702.183l.208.568c.208-.124.444-.284.673-.416-.263.028-.575-.028-.88-.152Z" fill="url(#linear-gradient-2)" mix-blend-mode="multiply" stroke-width="0"/>
        </g>
      </g>
    </mask>
    <clipPath id="clippath-1">
      <path d="m1931.582,1702.183l.208.568c.208-.124.444-.284.673-.416-.263.028-.575-.028-.88-.152Z" fill="none" stroke-width="0"/>
    </clipPath>
    <filter id="luminosity-noclip-5" x="1882.198" y="1404.21" width="535.791" height="297.508" color-interpolation-filters="sRGB" filterUnits="userSpaceOnUse">
      <feFlood flood-color="#fff" result="bg"/>
      <feBlend in="SourceGraphic" in2="bg"/>
    </filter>
    <filter id="luminosity-noclip-6" x="1882.198" y="-6954" width="535.791" height="32766" color-interpolation-filters="sRGB" filterUnits="userSpaceOnUse">
      <feFlood flood-color="#fff" result="bg"/>
      <feBlend in="SourceGraphic" in2="bg"/>
    </filter>
    <mask id="mask-5" x="1882.198" y="-6954" width="535.791" height="32766" maskUnits="userSpaceOnUse"/>
    <linearGradient id="linear-gradient-3" x1="-4426.847" y1="1812.633" x2="-4042.747" y2="2034.393" xlink:href="#linear-gradient-2"/>
    <mask id="mask-4" x="1882.198" y="1404.21" width="535.791" height="297.508" maskUnits="userSpaceOnUse">
      <g filter="url(#luminosity-noclip-5)">
        <g mask="url(#mask-5)">
          <path d="m2168.992,1510.289l-286.794,56.444.014.035c4.82-.75,19.633,27.817,33.44,64.684,13.219,35.23,20.764,65.405,17.796,70.266,84.712-53.372,196.395-134.388,253.747-144.714,162.642-29.287,230.794-66.764,230.794-66.764,0,0-9.682-38.829-14.009-48.552-4.334-9.695-28.066-37.477-28.066-37.477l-206.922,106.079Z" fill="url(#linear-gradient-3)" mix-blend-mode="multiply" stroke-width="0"/>
        </g>
      </g>
    </mask>
    <clipPath id="clippath-2">
      <path d="m2168.992,1510.289l-286.794,56.444.014.035c4.82-.75,19.633,27.817,33.44,64.684,13.219,35.23,20.764,65.405,17.796,70.266,84.712-53.372,196.395-134.388,253.747-144.714,162.642-29.287,230.794-66.764,230.794-66.764,0,0-9.682-38.829-14.009-48.552-4.334-9.695-28.066-37.477-28.066-37.477l-206.922,106.079Z" fill="none" stroke-width="0"/>
    </clipPath>
    <clipPath id="clippath-3">
      <path d="m500.716,2269.441c-.98-18.286.788-36.199,3.8-43.52,3.07-7.46,39.41-7.46,48.18,0,5.566,4.734,13.995,13.899,22.769,24.726,10.961,10.732,25.278,30.01,32.866,49.593,2.093,4.658,3.432,8.777,3.744,12.06,2.017,8.891,2.177,17.485-.493,24.988-5.404,15.178-78.819,14.921-96.36,0-12.538-10.665-15.826-43.809-14.505-67.847h0Z" clip-rule="evenodd" fill="none" stroke-width="0"/>
    </clipPath>
    <clipPath id="clippath-4">
      <path d="m219.903,2286.154c-1.087-20.271.873-40.13,4.212-48.245,3.404-8.271,43.69-8.271,53.412,0,6.17,5.249,15.516,15.407,25.241,27.41,12.151,11.897,28.022,33.269,36.435,54.978,2.32,5.163,3.804,9.73,4.149,13.369,2.237,9.857,2.414,19.384-.546,27.701-5.99,16.828-87.378,16.542-106.823,0-13.899-11.822-17.543-48.566-16.079-75.213h0Z" clip-rule="evenodd" fill="none" stroke-width="0"/>
    </clipPath>
    <clipPath id="clippath-5">
      <path d="m600.221,1265.822c-32.747-126.61-198.61-61.671-198.61-61.671,0,0-193.367-119.947-237.932,22.708-56.259,180.088-92.888,573.272-99.618,1057.824-.508,36.578,238.33,33.932,307.017,33.932,69.069,0,312.106,3.226,311.5-28.201-10.568-547.744-35.528-843.547-82.357-1024.591h0Z" clip-rule="evenodd" fill="none" stroke-width="0"/>
    </clipPath>
    <clipPath id="clippath-6">
      <path d="m671.449,902.057s98.035-21.205,104.468-67.234c9.485-67.865,18.818-110.981,22.582-133.176h-.001c17.107-16.15,13.75-11.158,21.527-31.769,15.81-41.903,9.593-53.192-15.74-59.735-25.553-6.599-27.891-4.899-32.051-7.123-3.939-2.105,8.67-64.661-4.872-64.687-10.32-.02-27.206,82.311-28.612,97.086-1.075,11.309-1.933,21.85-1.967,31.369-.042,11.858,1.192,22.128,4.872,30.317h0s-54.835,124.692-70.206,204.951h0Z" clip-rule="evenodd" fill="none" stroke-width="0"/>
    </clipPath>
    <clipPath id="clippath-7">
      <path d="m240.481,1175.836s-90.384,31.014-84.072,62.212c14.368,71.024,40.21,155.678,40.21,155.678h.001c-9.542,19.862-11.735,48.754-8.698,77.817,2.785,26.663,23.48,28.064,55.904,28.237,25.172.135,7.852-38.607,13.283-38.805,4.181-.152,5.139,30.522,16.99,26.001,9.033-3.446,2.235-42.112.099-55.378-3.799-23.588-22.285-31.184-26.345-52.975h0s6.116-127.442-7.372-202.788h0Z" clip-rule="evenodd" fill="none" stroke-width="0"/>
    </clipPath>
    <clipPath id="clippath-8">
      <path d="m374.229,587.339c74.42,0,283.2,246.267,278.925,287.888-57.715,561.846-109.795,676.428-109.795,676.428l-87.712-86.446-13.098-295.273s-182.87,13.844-186.97,9.846c-48.042-46.84-139.773-93.165-196.816-116.276-8.565-3.47,37.615-200.441,69.468-261.758,68.056-131.009,187.967-214.409,245.998-214.409h0Z" clip-rule="evenodd" fill="none" stroke-width="0"/>
    </clipPath>
  </defs>
  <rect x="0" y="0" width="2436" height="2436" rx="1217.999" ry="1217.999" fill="#cfdbff" stroke-width="0"/>
  <path d="m355.753,843.994c6.266,0,12.448.363,18.533,1.023v-1.023h491.591c-57.088-10.344-100.427-60.202-100.427-120.274,0-42.368,21.55-79.694,54.272-101.651h-454.15v-.9c-5.373.583-10.83.9-16.371.9-83.292,0-150.816-67.523-150.816-150.809,0-59.438,34.4-110.823,84.367-135.396-73.213-19.252-127.214-85.875-127.214-165.122C155.539,76.443,231.983,0,326.287,0c6.266,0,12.448.363,18.533,1.01V0h1803.873c94.304,0,170.741,76.443,170.741,170.741s-76.437,170.741-170.741,170.741h-113.011c44.29,26.282,73.99,74.547,73.99,129.777s-29.965,103.923-74.586,130.115h158.558c67.575,0,122.346,54.777,122.346,122.346,0,64.837-50.473,117.75-114.248,121.938,83.131,11.49,147.158,82.787,147.158,169.09,0,94.291-76.437,170.741-170.741,170.741h-147.081c68.061,14.565,119.103,75.039,119.103,147.449,0,64.32-40.271,119.187-96.964,140.873h140.426c67.575,0,122.346,54.778,122.346,122.346s-54.771,122.346-122.346,122.346h-272.534c29.532,22.333,48.699,57.652,48.699,97.541,0,67.569-54.771,122.346-122.346,122.346H554.905v-.738c-4.356.479-8.784.738-13.283.738-67.569,0-122.352-54.777-122.352-122.346s54.784-122.346,122.352-122.346c4.499,0,8.927.259,13.283.725v-.725h259.251c-29.532-22.333-48.706-57.652-48.706-97.541,0-50.415,30.515-93.669,74.062-112.403h-433.429v-.906c-5.373.583-10.829.906-16.371.906-83.292,0-150.815-67.53-150.815-150.816,0-72.514,51.204-133.066,119.433-147.514-.867.013-1.709.065-2.576.065-94.304,0-170.747-76.45-170.747-170.741s76.443-170.754,170.747-170.754Z" fill="#a3b9ef" stroke-width="0"/>
  <g>
    <polygon points="1108.639 2058.032 1073.892 1458.149 1143.37 1465.2 1108.639 2058.032" fill="#2c2c2d" stroke-width="0"/>
    <path d="m1516.229,1431.692h-815.184V369.519h815.184v1062.173Zm-755.16-60.022h695.132V429.544h-695.132v942.127Z" fill="#d1d3d4" stroke-width="0"/>
    <rect x="731.059" y="399.53" width="755.15" height="1002.148" fill="#fff" stroke-width="0"/>
    <rect x="639.32" y="1408.741" width="938.635" height="77.623" fill="#414042" stroke-width="0"/>
    <rect x="639.32" y="355.43" width="938.635" height="38.821" fill="#414042" stroke-width="0"/>
    <g>
      <polygon points="753.816 2237.129 726.655 2236.574 965.216 1434.323 1021.993 1453.749 753.816 2237.129" fill="#414042" stroke-width="0"/>
      <polygon points="1463.458 2237.129 1490.615 2236.574 1252.055 1434.323 1195.278 1453.749 1463.458 2237.129" fill="#414042" stroke-width="0"/>
    </g>
    <path d="m1163.203,397.992c0,14.68-24.43,26.578-54.58,26.578s-54.565-11.898-54.565-26.578,24.431-26.59,54.565-26.59,54.58,11.897,54.58,26.59Z" fill="#414042" stroke-width="0"/>
    <g opacity=".6">
      <path d="m837.737,570.809l2.419,109.055,1.436,109.045c1.119,72.708.82,145.404,1.304,218.115l-5.158-5.162c41.754-.332,83.512.167,125.257.238l125.263.656,125.26,1.55c41.754.853,83.5,1.463,125.254,2.717-41.754,1.252-83.5,1.858-125.254,2.721l-125.26,1.55-125.263.647c-41.745.074-83.502.57-125.257.241l-5.189-.041.031-5.118c.486-72.711.188-145.406,1.303-218.115l1.436-109.045,2.419-109.055Z" fill="#6dcfdf" stroke-width="0"/>
    </g>
    <g opacity=".6">
      <path d="m1388.134,502.338c2.335,1.396-14.792,35.027-44.864,89.228-15.044,27.095-33.323,59.329-54.009,95.243-10.404,17.925-21.355,36.805-32.75,56.456-12.64,21.484-25.783,43.803-39.293,66.776-15.694-1.935-32.299-3.993-49.128-6.067-21.383-2.739-42.303-5.411-62.505-7.997-21.781,55.211-41.754,105.847-58.669,148.689-13.552-7.088-26.504-13.861-38.784-20.28-9.595-5.134-18.671-10.003-27.182-14.566-16.985-9.176-31.632-17.266-43.582-24.045-23.9-13.575-36.972-21.947-36.196-23.509.774-1.559,15.321,3.88,40.513,14.847,12.603,5.488,27.863,12.362,45.4,20.449,8.752,4.071,18.086,8.403,27.959,12.994,8.739,4.062,24.273,11.547,22.674,10.471-.879,1.658,4.847-14.017,8.776-24.874,4.259-11.657,8.671-23.755,13.235-36.245,10.159-27.324,20.963-56.339,32.236-86.612,25.45,3.125,51.809,6.36,78.751,9.663,12.151,1.544,24.131,3.066,35.458,4.499,23.935-39.419,46.525-76.628,66.943-110.253,21.699-35.317,41.329-66.755,57.969-92.886,33.314-52.283,54.712-83.379,57.049-81.984Z" fill="#6dcfdf" stroke-width="0"/>
      <polygon points="1363.664 492.939 1406.041 515.376 1416.006 455.558 1363.664 492.939" fill="#6dcfdf" stroke-width="0"/>
      <polygon points="908.045 865.278 837.737 1007.023 894.295 859.262 908.045 865.278" fill="#6dcfdf" stroke-width="0"/>
    </g>
  </g>
  <g>
    <path d="m1436.653,1127.944l-26.769,5.506s-129.956-664.797-123.451-666.586c6.505-1.783,150.221,661.08,150.221,661.08Z" fill="#3c3c42" stroke-width="0"/>
    <path d="m1554.855,1249.769c-7.969-46.232-29.225-81.386-48.546-81.556-3.253-1.213-6.79-1.592-10.749-1.036-20.126,2.982-29.294,47.9-20.847,95.641,8.447,47.762,38.462,85.551,58.525,82.008,2.587-.444,4.751-1.526,6.63-3.107,15.764-10.32,22.497-48.615,14.987-91.95Z" fill="#a5b7b6" stroke-width="0"/>
    <path d="m1422.687,1316.134l14.938-15.819,30.882,4.834s22.754-24.179,26.263-31.208c3.502-7.022,9.661-26.36,9.661-26.36l43.136-28.954s-9.446-23.932-19.515-37.165c-12.643-16.554-30.265-13.874-30.265-13.874,0,0-47.457,23.482-55.363,29.63-7.92,6.162-25.459,8.621-28.073,9.488-2.649.888-10.119,15.389-10.119,15.389l7.913,56.232,10.542,37.807Z" fill="#bc7657" stroke-width="0"/>
    <polygon points="1491.281 1366.594 1451.051 1374.472 1401.666 1122.376 1441.89 1114.483 1491.281 1366.594" fill="#95462d" stroke-width="0"/>
    <path d="m1491.094,1170.103s109.013-53.994,106.044-103.52c-4.487-74.59,7.039-196.349,7.178-224.267.173-47.199,46.992-89.882,48.261-88.644,37.006,36.971,97.826,445.385,97.826,445.385l-210.535,142.662-48.774-171.616Z" fill="#cbd3d3" stroke-width="0"/>
    <path d="m2008.014,504.876s-20.896,92.143-24.467,100.794c-3.585,8.645-26.416,25.459-26.416,25.459l-3.925-59.725,27.601-21.439,27.207-45.089Z" fill="#12121f" stroke-width="0"/>
    <g>
      <g>
        <path d="m2293.219,2358.816c9.237.646,29.142,12.837,42.928,22.574,3.925,7.296-9.189,9.578-9.189,9.578,0,0-29.62,1.512-55.876,1.512s-49.239-.825-58.275-1.651c-9.03-.825-19.702-3.287-19.702-9.848,0-2.566-.132-9.015-.285-15.916,7.309,4.646,17.421,9.869,31.457,15.105,12.407,4.625,54.683-22.324,68.942-21.354Z" fill="#12121f" stroke-width="0"/>
        <path d="m2186.53,2326.825c3.724,5.124,10.354,14.141,9.689,18.052l-35.8-15.541-3.474-10.743c13.101,0,23.025-.825,29.585,8.232Z" fill="#12121f" stroke-width="0"/>
        <path d="m2168.873,2259.894c4.106-4.133,81.001-1.567,81.001-1.567l20.382,28.261s65.162,65.904,67.305,75.509c2.511,11.166-.729,13.281-1.415,19.293-13.787-9.736-33.691-21.928-42.928-22.574-14.259-.971-56.535,25.979-68.942,21.354-14.036-5.236-24.148-10.458-31.457-15.105-.236-10.778-.534-22.644-.534-22.644,0,0-2.032-10.472-5.756-15.597-6.56-9.057-16.484-8.232-29.585-8.232,0,0-.576-15.424,0-20.5,1.117-9.952,7.816-34.121,11.929-38.199Z" fill="#4d1d15" stroke-width="0"/>
      </g>
      <path d="m1591.708,2364.885c39.163-4.466,148.57-4.827,168.987-6.47,4.862-.424,10.168-1.221,15.431-2.261.187-12.864,1.901-37.304-.389-54.1-3.745-27.235-15.416-42.408-16.547-40.73-1.158,1.692-27.879,26.583-41.465,27.137-13.593.513-27.221,2.254-31.181-4.57-3.883-6.658-.506-29.426-4.175-41.229-2.781-9.043-18.135-7.379-18.135-7.379-1.664,2.83-13.828,71.772-111.349,80.981-46.715,4.383-65.71,37.533-65.086,39.378,20.583,3.89,72.943,12.795,103.908,9.244Z" fill="#4d1d15" stroke-width="0"/>
      <path d="m1760.702,2358.192c-20.465,1.735-111.994,3.336-151.406,4.335-62.492,1.581-100.913-3.19-121.482-7.247,2.579,8.849,6.997,11.907,6.997,11.907,0,0,33.052,9.377,127.419,11.575,63.365,1.477,150.546-9.091,150.546-9.091,0,0,3.301-7.22,3.35-13.836-5.263,1.088-10.569,1.921-15.424,2.357Z" fill="#12121f" stroke-width="0"/>
    </g>
    <path d="m1976.827,658.782l158.265,83.454s-36.263,143.136-36.263,275.097,104.581,425.797,109.553,520.397c5,94.609,89.643,692.496,89.643,692.496,0,0-12.442,19.904-47.311,29.87-34.87,9.973-62.27,2.49-84.671,14.951-22.393,12.449-9.945,19.911-74.69,29.863-64.753,9.952-189.245-7.455-211.645-12.448-22.407-4.965-29.876,2.496-67.229,9.973-37.359,7.448-134.458-17.435-151.891-27.387-17.422-9.958-130.477,3.725-130.477,3.725,0,0-22.845-278.125-10.216-427.146,32.38-382.143,122.051-715.936,129.173-772.353,5.326-42.363-23.482-52.453-23.697-94.775-.673-133.48,27.206-230.827,27.206-230.827,0,0,189.779-129.762,234.6-119.786,44.807,9.952,89.65,24.897,89.65,24.897Z" fill="#d3e0e0" stroke-width="0"/>
    <path d="m1762.554,377.724s-25.147,32.588-27.532,41.045c-2.434,8.451-.999,32.29-.999,32.29,0,0,5.194,33.16,1.956,39.152-11.742,21.523-14.501,48.119,0,98.808,14.466,50.695,38.302,86.5,38.302,86.5,0,0-7.066,45.509-3.613,51.899,14.432,26.631,64.226,42.471,107.57,25.588,107.306-41.836,91.154-60.241,91.154-60.241l3.78-9.255-10.361-107.966s32.088-6.772,46.291-66.854c7.615-32.165-.673-99.886-22.428-122.848-21.707-22.92-82.034-66.369-117.057-59.122-35.014,7.237-107.063,51.004-107.063,51.004Z" fill="#d99467" stroke-width="0"/>
    <path d="m1835.497,749.337s-26.118,136.815-21.741,210.584c4.369,73.779-6.893,135.338-6.893,135.338h-27.296s-1.748-66.823-.777-130.265c.777-51.621,9.862-103.131,25.035-218.33l31.673,2.674Z" fill="#fef5e6" stroke-width="0"/>
    <path d="m1776.722,670.138c-.624-.263-2.885,3.052-5.562,9.733-1.332,3.361-2.788,7.556-3.786,12.691-.444,2.567-.895,5.323-.868,8.444-.083,3.065.382,6.526,1.921,10.066.874,1.925,1.851,3.276,2.83,4.705.992,1.415,2.046,2.871,3.239,4.279,2.38,2.799,5.049,5.621,8.197,8.128,6.186,5.146,13.967,9.262,22.588,11.856,8.627,2.695,18.01,3.853,27.567,4.078,4.827.243,9.66-.184,14.577-.34,4.855-.582,9.89-.846,14.779-1.776,19.73-3.304,38.289-7.995,54.232-15.132,15.951-7.008,29.211-16.02,38.372-25.539,9.182-9.563,14.196-19.251,16.374-26.194,2.212-6.966,1.831-11.158,1.165-11.183-.7-.063-1.629,3.676-4.778,9.81-3.107,6.054-8.614,14.463-17.699,22.674-9.113,8.212-21.804,16.017-37.075,22.21-15.236,6.29-33.212,10.558-52.103,13.749-4.723.877-9.425,1.131-14.065,1.713-4.57.2-9.175.655-13.586.443-8.911-.066-17.421-.932-25.112-3.1-7.719-2.098-14.536-5.396-20.084-9.573-2.802-2.04-5.277-4.328-7.497-6.707-1.144-1.175-2.142-2.42-3.155-3.627-.999-1.279-1.942-2.525-2.427-3.475-2.324-4.365-2.199-10.142-1.88-14.792.416-4.775,1.256-8.94,1.963-12.31,1.505-6.793,2.517-10.569,1.872-10.833Z" fill="#af745a" stroke-width="0"/>
    <g opacity=".4">
      <path d="m2159.566,2271.934s-51.055-304.54-71.494-593.955c-4.438-62.811,1.699-125.99,1.699-125.99,0,0,67.173,321.954,88.519,435.842,15.32,81.723,45.986,275.614,45.986,275.614,0,0-59.586,6.79-64.711,8.489Z" fill="#adbcbb" stroke-width="0"/>
    </g>
    <g opacity=".4">
      <path d="m1866.76,2275.353s.007-364.133,3.391-420.314c3.398-56.188,0-28.933,0-28.933,0,0-18.732,236.784-30.639,274.226-11.921,37.457-32.352,198.857-32.352,198.857,0,0,42.568-6.804,49.371-8.523,6.804-1.692,10.23-15.313,10.23-15.313Z" fill="#adbcbb" stroke-width="0"/>
    </g>
    <g opacity=".4">
      <path d="m1634.782,1431.874s27.643,268.623,27.643,453.499c0,170.7-24.557,377.906-24.557,377.906l-65.161,6.685s13.232-289.636,22.886-387.692c17.587-179.049,39.19-450.398,39.19-450.398Z" fill="#adbcbb" stroke-width="0"/>
    </g>
    <g opacity=".4">
      <path d="m2090.84,1027.888l-51.764-25.362,19.162,45.553-62.221-5.61,27.691,27.663s50.737-18.7,82.749,234.871c44.253,350.686,144.638,545.721,144.638,545.721,0,0-55.217-383.038-73.665-447.583-18.419-64.552-86.591-375.253-86.591-375.253Z" fill="#adbcbb" stroke-width="0"/>
    </g>
    <path d="m1971.48,657.101s-14.113,51.68-59.517,67.509c-99.768,34.796-135.38,1.651-143.369-16.314-5.846-13.157,5.812-31.212,5.812-31.212l-14.876,9.793s-23.967,33.496,7.67,54.606c31.652,21.093,70.877,24.436,102.431,18.367,49.912-9.539,78.18-20.572,104.033-60.99,9.556-14.932,12.705-35.22,12.705-35.22l-14.89-6.54Z" fill="#fef5e6" stroke-width="0"/>
    <path d="m1958.338,444.624s-15.965,78.935-37.29,93.041c-37.262,24.685-83.672,22.116-112.639,22.973-28.968.867-49.628-1.661-64.746-8.982-18.919-9.161-17.297-13.79-17.297-13.79,0,0-2.385,61.012,36.229,126.163,15.368,25.965,10.992,68.199,61.632,69.85,31.742,1.044,125.941-13.652,144.625-197.133,1.497-14.623,12.656-77.16,12.656-77.16l-23.17-14.962Z" fill="#12121f" stroke-width="0"/>
    <path d="m1841.579,547.377s-4.771.683-5.257,14.169c-.478,13.485-18.017,26.228-32.685,26.689-10.951.406-24.231-15.731-23.184-50.261.61-20.851,17.268-57.398,17.199-74.466-.007-17.067-6.533-28.329-6.533-28.329l50.46,112.199Z" fill="#d99467" stroke-width="0"/>
    <path d="m1881.733,595.434s-35.945,12.119-54.156,18.922c-18.988,7.101-39.759,1.131-48.081-2.843-8.322-3.995-20.188-14.612-20.188-14.612,0,0,19.072,40.411,28.35,49.579,17.275,17.067,39.933,9.785,51.619,2.538,23.065-14.255,42.456-53.584,42.456-53.584Z" fill="#d99467" stroke-width="0"/>
    <path d="m1792.23,436.381s.395.697,1.019,2.084c.582,1.404-1.089-7.684-.298-4.935.715,2.778,3.988,17.4,4.363,21.436.215,2.032.423,4.158.339,6.467-.007,1.13.042,2.316-.007,3.533-.146,1.172-.222,2.385-.409,3.589-.804,4.976-2.4,10.354-4.189,16.082-1.866,5.739-3.995,11.829-6.172,18.295-2.129,6.484-4.377,13.343-6.193,20.697-.922,3.659-1.65,7.505-2.108,11.499-.423,4.13-.416,8.017-.306,12.088.306,8.083,1.506,16.072,4.078,23.468,2.635,7.278,6.63,14.38,13.301,18.652.84.482,1.665,1.023,2.615,1.342l1.394.527c.472.156.971.253,1.449.347.984.263,1.977.309,2.968.329,1.068.063,1.824-.159,2.746-.201,3.454-.49,6.665-1.45,9.578-2.695,5.818-2.591,10.645-6.11,14.251-10.063,3.655-3.873,6.068-8.295,6.928-12.466.749-4.247.229-7.691.936-10.514.146-1.439.646-2.6.978-3.643.472-1.009.874-1.862,1.394-2.411.957-1.171,1.824-1.335,1.824-1.335,0,0-.84.163-1.859,1.293-.596.517-1.012,1.349-1.581,2.345-.347,1.047-.985,2.206-1.241,3.655-.93,2.75-.729,6.54-1.796,10.271-1.13,3.793-3.697,7.66-7.414,10.957-3.676,3.35-8.447,6.182-13.877,8.103-2.746.909-5.645,1.544-8.607,1.748-1.581.094-2.774.094-4.05-.326-.313-.101-.639-.173-.951-.277l-.922-.465c-.645-.225-1.214-.666-1.818-1.078-4.764-3.392-8.107-9.521-10.214-16.135-2.081-6.689-3.107-14.078-3.385-21.662-.125-3.782-.125-7.673.173-11.179.375-3.616.978-7.209,1.748-10.791,1.505-7.078,3.385-13.936,5.167-20.497,1.768-6.564,3.481-12.84,4.875-18.79,1.395-5.95,2.511-11.571,2.871-16.866.146-1.321.076-2.638.111-3.886-.09-1.266-.215-2.459-.298-3.645-.146-2.354-.569-4.542-.985-6.575-.748-4.053-.707-7.015-1.636-9.75-1.005-2.726-3.058-5.198-3.71-6.574-.687-1.352-1.082-2.05-1.082-2.05Z" fill="#af745a" stroke-width="0"/>
    <path d="m1418.899,1327.966l18.468,3.308,33.421,5.818,1.748-5.818s6.159,1.664,9.674-.833c3.516-2.476,3.516-12.441,3.516-12.441l-43.962-24.952s4.417-.833,7.047-4.155c2.628-3.346,1.74-9.137,1.74-9.137,0,0-20.188-27.435-21.083-29.925-.881-2.493-.881-8.315-.881-10.801s-1.747-11.634-1.747-11.634l-9.335-21.089s-9.147-.531-14.411,6.12c-5.278,6.654-10.556,13.298-10.556,13.298l12.303,28.257s-6.158,18.292-6.158,20.763c0,2.507,7.052,14.148,7.052,14.148l4.398,19.12,8.765,19.952Z" fill="#d99467" stroke-width="0"/>
    <path d="m1474.297,1227.438s-15.874,11.571-19.494,20.767c-3.62,9.189-13.225,14.442-3.419,23.454,9.813,8.992,15.548,2.452,15.548,2.452,0,0,9.848-9.013,16.395-16.378,6.54-7.365,22.907-21.29,22.907-29.482s-11.998-21.141-11.998-21.141l-22.303,8.08,2.365,12.247Z" fill="#bc7657" stroke-width="0"/>
    <g mask="url(#mask)">
      <g clip-path="url(#clippath)">
        <polygon points="1441.494 1247.051 1470.109 1275.666 1465.058 1280.717 1441.494 1280.717 1441.494 1247.051" fill="#d99467" fill-rule="evenodd" stroke-width="0"/>
        <polygon points="1441.494 1245.686 1470.792 1274.983 1470.109 1275.666 1441.494 1247.051 1441.494 1245.686" fill="#d99467" fill-rule="evenodd" stroke-width="0"/>
        <polygon points="1441.494 1244.32 1471.475 1274.3 1470.792 1274.983 1441.494 1245.686 1441.494 1244.32" fill="#d99467" fill-rule="evenodd" stroke-width="0"/>
        <polygon points="1441.494 1242.954 1472.157 1273.617 1471.475 1274.3 1441.494 1244.32 1441.494 1242.954" fill="#d89468" fill-rule="evenodd" stroke-width="0"/>
        <polygon points="1441.494 1242.322 1441.861 1241.955 1472.84 1272.935 1472.157 1273.617 1441.494 1242.954 1441.494 1242.322" fill="#d89469" fill-rule="evenodd" stroke-width="0"/>
        <rect x="1457.209" y="1235.198" width=".966" height="43.811" transform="translate(-461.958 1398.941) rotate(-45)" fill="#d79569" stroke-width="0"/>
        <rect x="1457.892" y="1234.515" width=".966" height="43.811" transform="translate(-461.276 1399.224) rotate(-45)" fill="#d7956a" stroke-width="0"/>
        <rect x="1458.575" y="1233.832" width=".966" height="43.811" transform="translate(-460.593 1399.507) rotate(-45)" fill="#d6956b" stroke-width="0"/>
        <rect x="1459.258" y="1233.149" width=".966" height="43.811" transform="translate(-459.91 1399.79) rotate(-45)" fill="#d6956b" stroke-width="0"/>
        <rect x="1459.941" y="1232.467" width=".966" height="43.811" transform="translate(-459.227 1400.072) rotate(-45)" fill="#d5966c" stroke-width="0"/>
        <rect x="1460.623" y="1231.784" width=".966" height="43.811" transform="translate(-458.544 1400.355) rotate(-45)" fill="#d5966d" stroke-width="0"/>
        <rect x="1461.306" y="1231.101" width=".966" height="43.811" transform="translate(-457.861 1400.638) rotate(-45)" fill="#d4966e" stroke-width="0"/>
        <rect x="1461.989" y="1230.418" width=".966" height="43.811" transform="translate(-457.178 1400.921) rotate(-45)" fill="#d4966e" stroke-width="0"/>
        <rect x="1462.672" y="1229.735" width=".966" height="43.811" transform="translate(-456.496 1401.204) rotate(-45)" fill="#d3976f" stroke-width="0"/>
        <rect x="1463.355" y="1229.052" width=".966" height="43.811" transform="translate(-455.813 1401.486) rotate(-45)" fill="#d29770" stroke-width="0"/>
        <rect x="1464.038" y="1228.369" width=".966" height="43.811" transform="translate(-455.13 1401.769) rotate(-45)" fill="#d29771" stroke-width="0"/>
        <rect x="1464.72" y="1227.687" width=".966" height="43.811" transform="translate(-454.447 1402.052) rotate(-45)" fill="#d19772" stroke-width="0"/>
        <rect x="1465.403" y="1227.004" width=".966" height="43.811" transform="translate(-453.764 1402.335) rotate(-45)" fill="#d09873" stroke-width="0"/>
        <rect x="1466.086" y="1226.321" width=".966" height="43.811" transform="translate(-453.081 1402.619) rotate(-45)" fill="#d09874" stroke-width="0"/>
        <rect x="1466.769" y="1225.638" width=".966" height="43.811" transform="translate(-452.399 1402.9) rotate(-45)" fill="#cf9875" stroke-width="0"/>
        <rect x="1467.452" y="1224.955" width=".966" height="43.811" transform="translate(-451.716 1403.184) rotate(-45)" fill="#ce9875" stroke-width="0"/>
        <rect x="1468.135" y="1224.272" width=".966" height="43.811" transform="translate(-451.033 1403.466) rotate(-45)" fill="#ce9976" stroke-width="0"/>
        <rect x="1468.817" y="1223.59" width=".966" height="43.811" transform="translate(-450.35 1403.749) rotate(-45)" fill="#cd9977" stroke-width="0"/>
        <rect x="1469.5" y="1222.907" width=".966" height="43.811" transform="translate(-449.667 1404.033) rotate(-45)" fill="#cc9978" stroke-width="0"/>
        <rect x="1470.183" y="1222.224" width=".966" height="43.811" transform="translate(-448.984 1404.314) rotate(-45)" fill="#cc9a79" stroke-width="0"/>
        <rect x="1470.866" y="1221.541" width=".966" height="43.811" transform="translate(-448.302 1404.598) rotate(-45)" fill="#cb9a7a" stroke-width="0"/>
        <rect x="1471.549" y="1220.858" width=".966" height="43.811" transform="translate(-447.619 1404.881) rotate(-45)" fill="#ca9a7b" stroke-width="0"/>
        <rect x="1472.232" y="1220.175" width=".966" height="43.811" transform="translate(-446.936 1405.164) rotate(-45)" fill="#ca9a7c" stroke-width="0"/>
        <rect x="1472.914" y="1219.493" width=".966" height="43.811" transform="translate(-446.253 1405.447) rotate(-45)" fill="#c99b7d" stroke-width="0"/>
        <rect x="1473.597" y="1218.81" width=".966" height="43.811" transform="translate(-445.57 1405.729) rotate(-45)" fill="#c89b7e" stroke-width="0"/>
        <rect x="1474.28" y="1218.127" width=".966" height="43.811" transform="translate(-444.887 1406.012) rotate(-45)" fill="#c79b7f" stroke-width="0"/>
        <rect x="1474.963" y="1217.444" width=".966" height="43.811" transform="translate(-444.205 1406.295) rotate(-45)" fill="#c79c80" stroke-width="0"/>
        <rect x="1475.646" y="1216.761" width=".966" height="43.811" transform="translate(-443.522 1406.578) rotate(-45)" fill="#c69c81" stroke-width="0"/>
        <rect x="1476.329" y="1216.078" width=".966" height="43.811" transform="translate(-442.839 1406.861) rotate(-45)" fill="#c59c82" stroke-width="0"/>
        <rect x="1477.012" y="1215.396" width=".966" height="43.811" transform="translate(-442.156 1407.143) rotate(-45)" fill="#c49d83" stroke-width="0"/>
        <rect x="1477.694" y="1214.713" width=".966" height="43.811" transform="translate(-441.473 1407.426) rotate(-45)" fill="#c49d85" stroke-width="0"/>
        <rect x="1478.377" y="1214.03" width=".966" height="43.811" transform="translate(-440.79 1407.709) rotate(-45)" fill="#c39d86" stroke-width="0"/>
        <rect x="1479.06" y="1213.347" width=".966" height="43.811" transform="translate(-440.108 1407.992) rotate(-45)" fill="#c29e87" stroke-width="0"/>
        <rect x="1479.743" y="1212.664" width=".966" height="43.811" transform="translate(-439.425 1408.275) rotate(-45)" fill="#c19e88" stroke-width="0"/>
        <rect x="1480.426" y="1211.981" width=".966" height="43.811" transform="translate(-438.742 1408.558) rotate(-45)" fill="#c09e89" stroke-width="0"/>
        <rect x="1481.109" y="1211.299" width=".966" height="43.811" transform="translate(-438.059 1408.841) rotate(-45)" fill="#c09f8a" stroke-width="0"/>
        <rect x="1481.791" y="1210.616" width=".966" height="43.811" transform="translate(-437.376 1409.123) rotate(-45)" fill="#bf9f8b" stroke-width="0"/>
        <rect x="1482.474" y="1209.933" width=".966" height="43.811" transform="translate(-436.693 1409.406) rotate(-45)" fill="#be9f8c" stroke-width="0"/>
        <rect x="1483.157" y="1209.25" width=".966" height="43.811" transform="translate(-436.01 1409.689) rotate(-45)" fill="#bda08d" stroke-width="0"/>
        <rect x="1483.84" y="1208.567" width=".966" height="43.811" transform="translate(-435.328 1409.972) rotate(-45)" fill="#bca08e" stroke-width="0"/>
        <rect x="1484.523" y="1207.884" width=".966" height="43.811" transform="translate(-434.645 1410.255) rotate(-45)" fill="#bca090" stroke-width="0"/>
        <rect x="1485.206" y="1207.201" width=".966" height="43.811" transform="translate(-433.962 1410.537) rotate(-45)" fill="#bba191" stroke-width="0"/>
        <rect x="1485.888" y="1206.519" width=".966" height="43.811" transform="translate(-433.279 1410.82) rotate(-45)" fill="#baa192" stroke-width="0"/>
        <rect x="1486.571" y="1205.836" width=".966" height="43.811" transform="translate(-432.596 1411.103) rotate(-45)" fill="#b9a193" stroke-width="0"/>
        <rect x="1487.254" y="1205.153" width=".966" height="43.811" transform="translate(-431.913 1411.386) rotate(-45)" fill="#b8a294" stroke-width="0"/>
        <rect x="1487.937" y="1204.47" width=".966" height="43.811" transform="translate(-431.231 1411.67) rotate(-45)" fill="#b8a295" stroke-width="0"/>
        <rect x="1488.62" y="1203.787" width=".966" height="43.811" transform="translate(-430.548 1411.951) rotate(-45)" fill="#b7a296" stroke-width="0"/>
        <rect x="1489.303" y="1203.104" width=".966" height="43.811" transform="translate(-429.865 1412.235) rotate(-45)" fill="#b6a398" stroke-width="0"/>
        <rect x="1489.985" y="1202.422" width=".966" height="43.811" transform="translate(-429.182 1412.517) rotate(-45)" fill="#b5a399" stroke-width="0"/>
        <rect x="1490.668" y="1201.739" width=".966" height="43.811" transform="translate(-428.499 1412.8) rotate(-45)" fill="#b4a39a" stroke-width="0"/>
        <polygon points="1476.003 1207.813 1476.686 1207.131 1507.031 1237.476 1507.031 1238.744 1506.982 1238.793 1476.003 1207.813" fill="#b3a49b" fill-rule="evenodd" stroke-width="0"/>
        <polygon points="1476.686 1207.131 1477.369 1206.448 1507.031 1236.11 1507.031 1237.476 1476.686 1207.131" fill="#b2a49c" fill-rule="evenodd" stroke-width="0"/>
        <polygon points="1477.369 1206.448 1477.638 1206.178 1478.465 1206.178 1507.031 1234.744 1507.031 1236.11 1477.369 1206.448" fill="#b2a59d" fill-rule="evenodd" stroke-width="0"/>
        <polygon points="1479.831 1206.178 1507.031 1233.379 1507.031 1234.744 1478.465 1206.178 1479.831 1206.178" fill="#b1a59f" fill-rule="evenodd" stroke-width="0"/>
        <polygon points="1481.196 1206.178 1507.031 1232.013 1507.031 1233.379 1479.831 1206.178 1481.196 1206.178" fill="#b0a5a0" fill-rule="evenodd" stroke-width="0"/>
        <polygon points="1482.562 1206.178 1507.031 1230.647 1507.031 1232.013 1481.196 1206.178 1482.562 1206.178" fill="#afa6a1" fill-rule="evenodd" stroke-width="0"/>
        <polygon points="1483.928 1206.178 1507.031 1229.282 1507.031 1230.647 1482.562 1206.178 1483.928 1206.178" fill="#aea6a2" fill-rule="evenodd" stroke-width="0"/>
        <polygon points="1485.293 1206.178 1507.031 1227.916 1507.031 1229.282 1483.928 1206.178 1485.293 1206.178" fill="#ada6a3" fill-rule="evenodd" stroke-width="0"/>
        <polygon points="1486.659 1206.178 1507.031 1226.55 1507.031 1227.916 1485.293 1206.178 1486.659 1206.178" fill="#aca7a5" fill-rule="evenodd" stroke-width="0"/>
        <polygon points="1488.025 1206.178 1507.031 1225.185 1507.031 1226.55 1486.659 1206.178 1488.025 1206.178" fill="#aba7a6" fill-rule="evenodd" stroke-width="0"/>
        <polygon points="1489.39 1206.178 1507.031 1223.819 1507.031 1225.185 1488.025 1206.178 1489.39 1206.178" fill="#aba7a7" fill-rule="evenodd" stroke-width="0"/>
        <polygon points="1490.756 1206.178 1507.031 1222.453 1507.031 1223.819 1489.39 1206.178 1490.756 1206.178" fill="#aaa8a8" fill-rule="evenodd" stroke-width="0"/>
        <polygon points="1492.122 1206.178 1507.031 1221.087 1507.031 1222.453 1490.756 1206.178 1492.122 1206.178" fill="#a9a8aa" fill-rule="evenodd" stroke-width="0"/>
        <polygon points="1493.487 1206.178 1507.031 1219.722 1507.031 1221.087 1492.122 1206.178 1493.487 1206.178" fill="#a8a9ab" fill-rule="evenodd" stroke-width="0"/>
        <polygon points="1494.853 1206.178 1507.031 1218.356 1507.031 1219.722 1493.487 1206.178 1494.853 1206.178" fill="#a7a9ac" fill-rule="evenodd" stroke-width="0"/>
        <polygon points="1507.031 1218.356 1494.853 1206.178 1507.031 1206.178 1507.031 1218.356" fill="#a7a9ac" fill-rule="evenodd" stroke-width="0"/>
      </g>
    </g>
    <g>
      <path d="m2052.641,1050.046c-2.129,1.606,5.958,14.477,19.494,26.312,13.468,11.876,26.263,19.051,28.011,16.852,1.762-2.229-8.058-12.879-21.207-24.491-13.205-11.544-23.926-20.535-26.298-18.673Z" fill="#adbcbb" stroke-width="0"/>
      <path d="m2024.575,1060.823c-.755,1.206,2.504,4.809,8.322,9.772,5.847,4.982,14.308,11.456,24.78,17.334,10.589,5.715,21.408,9.106,29.529,9.657,3.973.492,7.323-.225,9.508-.51,2.254-.434,3.433-1.002,3.433-1.699-.014-1.543-4.681-2.823-11.574-4.882-6.963-2.24-16.062-6.19-25.986-11.551-9.827-5.492-18.809-10.936-25.695-14.355-6.914-3.461-11.589-4.962-12.317-3.766Z" fill="#adbcbb" stroke-width="0"/>
    </g>
    <g>
      <path d="m1666.836,1016.799c.867,1.619-2.524,14.491-8.218,26.311-5.666,11.891-11.041,19.075-11.755,16.88-.756-2.233,3.384-12.892,8.898-24.485,5.562-11.55,10.063-20.562,11.075-18.707Z" fill="#adbcbb" stroke-width="0"/>
      <path d="m1678.633,1027.579c.298,1.204-1.082,4.827-3.51,9.786-2.483,4.975-6.026,11.446-10.423,17.31-4.46,5.749-9.009,9.126-12.407,9.698-1.658.479-3.087-.232-3.995-.517-.943-.426-1.436-1.002-1.436-1.72,0-1.542,1.949-2.795,4.854-4.861,2.913-2.268,6.755-6.207,10.909-11.544,4.147-5.514,7.906-10.968,10.805-14.38,2.899-3.454,4.889-4.934,5.202-3.773Z" fill="#adbcbb" stroke-width="0"/>
    </g>
    <path d="m2122.228,1566.775s-5.722-3.53-2.351-28.261c1.713-12.629,1.984-24.501,2.669-30.119,1.436-12.227,6.339-15.889,6.339-15.889,0,0,8.516-5.729,16.076-8.759,14.945-5.992,20.618,40.002,18.509,44.572-2.129,4.543-19.993,34.495-25.986,37.831-5.964,3.301-15.256.624-15.256.624Z" fill="#d99467" stroke-width="0"/>
    <path d="m2135.252,1520.706s5.999,4.189,9.148,13.065c3.142,8.864-1.248,21.146-2.116,23.787-.887,2.622,17.546-19.307,5.258-37.748-2.497-3.71-14.044-17.538-17.567-14.022-3.509,3.496-2.614,16.665-2.614,16.665l7.892-1.748Z" fill="#bc7657" stroke-width="0"/>
    <path d="m2181.758,1447.866s53.497,5.555,61.716,9.994c8.19,4.424,17.275,10.181,17.275,10.181,0,0,5.978-13.523,5.978-17.247,0-3.773-83.29-20.41-83.29-20.41l-1.679,17.483Z" fill="#bc7657" stroke-width="0"/>
    <g>
      <path d="m1891.235,1570.7l2.961-45.89s112.203,2.254,155.463-.804c43.261-3.052,89.858-8.391,89.858-8.391l-248.283,55.085Z" fill="#d8d5d4" stroke-width="0"/>
      <path d="m1891.567,1564.473s106.045-21.499,126.164-24.842c20.147-3.378,105.378-21.436,105.378-21.436l-230.786,39.058-.756,7.219Z" fill="#ccc1bc" stroke-width="0"/>
      <path d="m1929.925,1702.106c84.92-53.33,197.692-135.351,255.392-145.754,162.69-29.273,230.785-66.771,230.785-66.771,0,0-9.647-38.823-13.981-48.532-4.328-9.716-28.088-37.484-28.088-37.484l-206.907,106.079-286.801,56.444,49.599,136.018Z" fill="#eae4e1" stroke-width="0"/>
      <path d="m1880.131,1566.131c4.564-1.707,19.64,27.24,33.663,64.684,14.022,37.428,21.693,69.156,17.116,70.869-4.584,1.727-19.661-27.242-33.67-64.67-14.022-37.436-21.7-69.163-17.109-70.883Z" fill="#d8d5d4" stroke-width="0"/>
      <path d="m1893.495,1592.775c2.392-.874,10.479,15.208,18.059,35.979,7.588,20.715,11.818,38.24,9.424,39.135-2.399.866-10.478-15.243-18.073-35.979-7.58-20.75-11.824-38.275-9.411-39.135Z" fill="#ccc1bc" stroke-width="0"/>
      <g>
        <g mask="url(#mask-2)">
          <g clip-path="url(#clippath-1)">
            <polygon points="1931.582 1702.665 1931.79 1702.751 1931.582 1702.751 1931.582 1702.665" fill="#fff" fill-rule="evenodd" stroke-width="0"/>
            <polygon points="1931.582 1702.653 1931.82 1702.751 1931.79 1702.751 1931.582 1702.665 1931.582 1702.653" fill="#fff" fill-rule="evenodd" stroke-width="0"/>
            <polygon points="1931.582 1702.641 1931.849 1702.751 1931.82 1702.751 1931.582 1702.653 1931.582 1702.641" fill="#fefefe" fill-rule="evenodd" stroke-width="0"/>
            <polygon points="1931.582 1702.629 1931.878 1702.751 1931.849 1702.751 1931.582 1702.641 1931.582 1702.629" fill="#fcfdfd" fill-rule="evenodd" stroke-width="0"/>
            <polygon points="1931.582 1702.617 1931.907 1702.751 1931.878 1702.751 1931.582 1702.629 1931.582 1702.617" fill="#fbfbfc" fill-rule="evenodd" stroke-width="0"/>
            <polygon points="1931.582 1702.605 1931.937 1702.751 1931.907 1702.751 1931.582 1702.617 1931.582 1702.605" fill="#fafafa" fill-rule="evenodd" stroke-width="0"/>
            <polygon points="1931.582 1702.593 1931.966 1702.751 1931.937 1702.751 1931.582 1702.605 1931.582 1702.593" fill="#f9f9f9" fill-rule="evenodd" stroke-width="0"/>
            <polygon points="1931.582 1702.581 1931.995 1702.751 1931.966 1702.751 1931.582 1702.593 1931.582 1702.581" fill="#f8f8f8" fill-rule="evenodd" stroke-width="0"/>
            <polygon points="1931.582 1702.569 1932.025 1702.751 1931.995 1702.751 1931.582 1702.581 1931.582 1702.569" fill="#f6f7f7" fill-rule="evenodd" stroke-width="0"/>
            <polygon points="1931.582 1702.557 1932.054 1702.751 1932.025 1702.751 1931.582 1702.569 1931.582 1702.557" fill="#f5f6f6" fill-rule="evenodd" stroke-width="0"/>
            <polygon points="1931.582 1702.545 1932.083 1702.751 1932.054 1702.751 1931.582 1702.557 1931.582 1702.545" fill="#f4f5f5" fill-rule="evenodd" stroke-width="0"/>
            <polygon points="1931.582 1702.533 1932.113 1702.751 1932.083 1702.751 1931.582 1702.545 1931.582 1702.533" fill="#f3f3f4" fill-rule="evenodd" stroke-width="0"/>
            <polygon points="1931.582 1702.521 1932.142 1702.751 1932.113 1702.751 1931.582 1702.533 1931.582 1702.521" fill="#f2f2f3" fill-rule="evenodd" stroke-width="0"/>
            <polygon points="1931.582 1702.509 1932.171 1702.751 1932.142 1702.751 1931.582 1702.521 1931.582 1702.509" fill="#f1f1f2" fill-rule="evenodd" stroke-width="0"/>
            <polygon points="1931.582 1702.497 1932.201 1702.751 1932.171 1702.751 1931.582 1702.509 1931.582 1702.497" fill="#f0f0f1" fill-rule="evenodd" stroke-width="0"/>
            <polygon points="1931.582 1702.485 1932.23 1702.751 1932.201 1702.751 1931.582 1702.497 1931.582 1702.485" fill="#efeff0" fill-rule="evenodd" stroke-width="0"/>
            <polygon points="1931.582 1702.472 1932.259 1702.751 1932.23 1702.751 1931.582 1702.485 1931.582 1702.472" fill="#eeeeef" fill-rule="evenodd" stroke-width="0"/>
            <polygon points="1931.582 1702.46 1932.288 1702.751 1932.259 1702.751 1931.582 1702.472 1931.582 1702.46" fill="#ededee" fill-rule="evenodd" stroke-width="0"/>
            <polygon points="1931.582 1702.448 1932.318 1702.751 1932.288 1702.751 1931.582 1702.46 1931.582 1702.448" fill="#ececed" fill-rule="evenodd" stroke-width="0"/>
            <polygon points="1931.582 1702.436 1932.347 1702.751 1932.318 1702.751 1931.582 1702.448 1931.582 1702.436" fill="#ebebec" fill-rule="evenodd" stroke-width="0"/>
            <polygon points="1931.582 1702.424 1932.376 1702.751 1932.347 1702.751 1931.582 1702.436 1931.582 1702.424" fill="#eaebeb" fill-rule="evenodd" stroke-width="0"/>
            <polygon points="1931.582 1702.412 1932.406 1702.751 1932.376 1702.751 1931.582 1702.424 1931.582 1702.412" fill="#e9eaeb" fill-rule="evenodd" stroke-width="0"/>
            <polygon points="1931.582 1702.4 1932.435 1702.751 1932.406 1702.751 1931.582 1702.412 1931.582 1702.4" fill="#e8e9ea" fill-rule="evenodd" stroke-width="0"/>
            <polygon points="1931.582 1702.388 1932.463 1702.75 1932.463 1702.751 1932.435 1702.751 1931.582 1702.4 1931.582 1702.388" fill="#e7e8e9" fill-rule="evenodd" stroke-width="0"/>
            <polygon points="1931.582 1702.376 1932.463 1702.738 1932.463 1702.75 1931.582 1702.388 1931.582 1702.376" fill="#e7e7e8" fill-rule="evenodd" stroke-width="0"/>
            <polygon points="1931.582 1702.364 1932.463 1702.726 1932.463 1702.738 1931.582 1702.376 1931.582 1702.364" fill="#e6e7e8" fill-rule="evenodd" stroke-width="0"/>
            <rect x="1932.02" y="1702.066" width=".006" height=".952" transform="translate(-377.79 2841.017) rotate(-67.625)" fill="#e6e7e8" stroke-width="0"/>
            <rect x="1932.02" y="1702.06" width=".006" height=".952" transform="translate(-377.784 2841.013) rotate(-67.625)" fill="#e4e5e6" stroke-width="0"/>
            <rect x="1932.02" y="1702.053" width=".006" height=".952" transform="translate(-377.778 2841.011) rotate(-67.625)" fill="#e2e3e4" stroke-width="0"/>
            <rect x="1932.02" y="1702.047" width=".006" height=".952" transform="translate(-377.772 2841.007) rotate(-67.625)" fill="#e0e1e2" stroke-width="0"/>
            <rect x="1932.02" y="1702.041" width=".006" height=".952" transform="translate(-377.767 2841.003) rotate(-67.625)" fill="#dedfe1" stroke-width="0"/>
            <rect x="1932.02" y="1702.035" width=".006" height=".952" transform="translate(-377.761 2840.999) rotate(-67.625)" fill="#dcdedf" stroke-width="0"/>
            <rect x="1932.02" y="1702.029" width=".006" height=".952" transform="translate(-377.755 2840.995) rotate(-67.625)" fill="#dbdcdd" stroke-width="0"/>
            <rect x="1932.02" y="1702.022" width=".006" height=".952" transform="translate(-377.749 2840.991) rotate(-67.625)" fill="#d9dadb" stroke-width="0"/>
            <rect x="1932.02" y="1702.016" width=".006" height=".952" transform="translate(-377.744 2840.988) rotate(-67.625)" fill="#d7d8da" stroke-width="0"/>
            <rect x="1932.02" y="1702.01" width=".006" height=".952" transform="translate(-377.738 2840.983) rotate(-67.625)" fill="#d5d6d8" stroke-width="0"/>
            <rect x="1932.02" y="1702.004" width=".006" height=".952" transform="translate(-377.733 2840.979) rotate(-67.625)" fill="#d3d5d6" stroke-width="0"/>
            <rect x="1932.02" y="1701.998" width=".006" height=".952" transform="translate(-377.726 2840.976) rotate(-67.625)" fill="#d2d3d5" stroke-width="0"/>
            <rect x="1932.02" y="1701.991" width=".006" height=".952" transform="translate(-377.721 2840.972) rotate(-67.625)" fill="#d0d2d3" stroke-width="0"/>
            <rect x="1932.02" y="1701.985" width=".006" height=".952" transform="translate(-377.715 2840.968) rotate(-67.625)" fill="#cfd0d2" stroke-width="0"/>
            <rect x="1932.02" y="1701.979" width=".006" height=".952" transform="translate(-377.709 2840.964) rotate(-67.625)" fill="#cdced0" stroke-width="0"/>
            <rect x="1932.02" y="1701.973" width=".006" height=".952" transform="translate(-377.703 2840.961) rotate(-67.625)" fill="#cbcdcf" stroke-width="0"/>
            <rect x="1932.02" y="1701.967" width=".006" height=".952" transform="translate(-377.698 2840.957) rotate(-67.625)" fill="#cacbcd" stroke-width="0"/>
            <rect x="1932.02" y="1701.96" width=".006" height=".952" transform="translate(-377.692 2840.953) rotate(-67.625)" fill="#c8cacc" stroke-width="0"/>
            <rect x="1932.02" y="1701.954" width=".006" height=".952" transform="translate(-377.687 2840.948) rotate(-67.625)" fill="#c7c8ca" stroke-width="0"/>
            <rect x="1932.02" y="1701.948" width=".006" height=".952" transform="translate(-377.681 2840.944) rotate(-67.625)" fill="#c6c7c9" stroke-width="0"/>
            <rect x="1932.02" y="1701.942" width=".006" height=".952" transform="translate(-377.675 2840.941) rotate(-67.625)" fill="#c4c6c8" stroke-width="0"/>
            <rect x="1932.02" y="1701.936" width=".006" height=".952" transform="translate(-377.669 2840.938) rotate(-67.625)" fill="#c3c4c6" stroke-width="0"/>
            <rect x="1932.02" y="1701.929" width=".006" height=".952" transform="translate(-377.663 2840.934) rotate(-67.625)" fill="#c1c3c5" stroke-width="0"/>
            <rect x="1932.02" y="1701.923" width=".006" height=".952" transform="translate(-377.658 2840.93) rotate(-67.625)" fill="#c0c2c4" stroke-width="0"/>
            <rect x="1932.02" y="1701.917" width=".006" height=".952" transform="translate(-377.652 2840.926) rotate(-67.625)" fill="#bfc1c3" stroke-width="0"/>
            <rect x="1932.02" y="1701.911" width=".006" height=".952" transform="translate(-377.646 2840.922) rotate(-67.625)" fill="#bebfc2" stroke-width="0"/>
            <rect x="1932.02" y="1701.905" width=".006" height=".952" transform="translate(-377.64 2840.918) rotate(-67.625)" fill="#bdbec0" stroke-width="0"/>
            <rect x="1932.02" y="1701.898" width=".006" height=".952" transform="translate(-377.635 2840.913) rotate(-67.625)" fill="#bbbdbf" stroke-width="0"/>
            <rect x="1932.02" y="1701.892" width=".006" height=".952" transform="translate(-377.629 2840.91) rotate(-67.625)" fill="#babcbe" stroke-width="0"/>
            <polygon points="1931.595 1702.183 1932.463 1702.54 1932.463 1702.546 1931.582 1702.184 1931.582 1702.183 1931.595 1702.183" fill="#b9bbbd" fill-rule="evenodd" stroke-width="0"/>
            <polygon points="1931.61 1702.183 1932.463 1702.534 1932.463 1702.54 1931.595 1702.183 1931.61 1702.183" fill="#b8babc" fill-rule="evenodd" stroke-width="0"/>
            <polygon points="1931.625 1702.183 1932.463 1702.528 1932.463 1702.534 1931.61 1702.183 1931.625 1702.183" fill="#b7b9bb" fill-rule="evenodd" stroke-width="0"/>
            <polygon points="1931.64 1702.183 1932.463 1702.522 1932.463 1702.528 1931.625 1702.183 1931.64 1702.183" fill="#b6b8ba" fill-rule="evenodd" stroke-width="0"/>
            <polygon points="1931.655 1702.183 1932.463 1702.515 1932.463 1702.522 1931.64 1702.183 1931.655 1702.183" fill="#b5b7b9" fill-rule="evenodd" stroke-width="0"/>
            <polygon points="1931.67 1702.183 1932.463 1702.509 1932.463 1702.515 1931.655 1702.183 1931.67 1702.183" fill="#b4b6b8" fill-rule="evenodd" stroke-width="0"/>
            <polygon points="1931.685 1702.183 1932.463 1702.503 1932.463 1702.509 1931.67 1702.183 1931.685 1702.183" fill="#b3b5b8" fill-rule="evenodd" stroke-width="0"/>
            <polygon points="1931.701 1702.183 1932.463 1702.497 1932.463 1702.503 1931.685 1702.183 1931.701 1702.183" fill="#b2b4b7" fill-rule="evenodd" stroke-width="0"/>
            <polygon points="1931.716 1702.183 1932.463 1702.49 1932.463 1702.497 1931.701 1702.183 1931.716 1702.183" fill="#b1b3b6" fill-rule="evenodd" stroke-width="0"/>
            <polygon points="1931.731 1702.183 1932.463 1702.484 1932.463 1702.49 1931.716 1702.183 1931.731 1702.183" fill="#b1b2b5" fill-rule="evenodd" stroke-width="0"/>
            <polygon points="1931.746 1702.183 1932.463 1702.478 1932.463 1702.484 1931.731 1702.183 1931.746 1702.183" fill="#b0b2b4" fill-rule="evenodd" stroke-width="0"/>
            <polygon points="1931.761 1702.183 1932.463 1702.472 1932.463 1702.478 1931.746 1702.183 1931.761 1702.183" fill="#afb1b4" fill-rule="evenodd" stroke-width="0"/>
            <polygon points="1931.776 1702.183 1932.463 1702.466 1932.463 1702.472 1931.761 1702.183 1931.776 1702.183" fill="#aeb0b3" fill-rule="evenodd" stroke-width="0"/>
            <polygon points="1931.791 1702.183 1932.463 1702.459 1932.463 1702.466 1931.776 1702.183 1931.791 1702.183" fill="#aeb0b2" fill-rule="evenodd" stroke-width="0"/>
            <polygon points="1931.806 1702.183 1932.463 1702.453 1932.463 1702.459 1931.791 1702.183 1931.806 1702.183" fill="#adafb2" fill-rule="evenodd" stroke-width="0"/>
            <polygon points="1931.821 1702.183 1932.463 1702.447 1932.463 1702.453 1931.806 1702.183 1931.821 1702.183" fill="#acaeb1" fill-rule="evenodd" stroke-width="0"/>
            <polygon points="1931.836 1702.183 1932.463 1702.441 1932.463 1702.447 1931.821 1702.183 1931.836 1702.183" fill="#acaeb1" fill-rule="evenodd" stroke-width="0"/>
            <polygon points="1931.851 1702.183 1932.463 1702.435 1932.463 1702.441 1931.836 1702.183 1931.851 1702.183" fill="#abadb0" fill-rule="evenodd" stroke-width="0"/>
            <polygon points="1931.866 1702.183 1932.463 1702.428 1932.463 1702.435 1931.851 1702.183 1931.866 1702.183" fill="#abadb0" fill-rule="evenodd" stroke-width="0"/>
            <polygon points="1931.881 1702.183 1932.463 1702.422 1932.463 1702.428 1931.866 1702.183 1931.881 1702.183" fill="#aaacaf" fill-rule="evenodd" stroke-width="0"/>
            <polygon points="1931.897 1702.183 1932.463 1702.416 1932.463 1702.422 1931.881 1702.183 1931.897 1702.183" fill="#aaacaf" fill-rule="evenodd" stroke-width="0"/>
            <polygon points="1931.912 1702.183 1932.463 1702.41 1932.463 1702.416 1931.897 1702.183 1931.912 1702.183" fill="#a9abae" fill-rule="evenodd" stroke-width="0"/>
            <polygon points="1931.927 1702.183 1932.463 1702.404 1932.463 1702.41 1931.912 1702.183 1931.927 1702.183" fill="#a9abae" fill-rule="evenodd" stroke-width="0"/>
            <polygon points="1931.942 1702.183 1932.463 1702.397 1932.463 1702.404 1931.927 1702.183 1931.942 1702.183" fill="#a9abae" fill-rule="evenodd" stroke-width="0"/>
            <polygon points="1931.957 1702.183 1932.463 1702.391 1932.463 1702.397 1931.942 1702.183 1931.957 1702.183" fill="#a8aaad" fill-rule="evenodd" stroke-width="0"/>
            <polygon points="1931.972 1702.183 1932.463 1702.385 1932.463 1702.391 1931.957 1702.183 1931.972 1702.183" fill="#a8aaad" fill-rule="evenodd" stroke-width="0"/>
            <polygon points="1931.987 1702.183 1932.463 1702.379 1932.463 1702.385 1931.972 1702.183 1931.987 1702.183" fill="#a8aaad" fill-rule="evenodd" stroke-width="0"/>
            <polygon points="1932.002 1702.183 1932.463 1702.373 1932.463 1702.379 1931.987 1702.183 1932.002 1702.183" fill="#a8aaad" fill-rule="evenodd" stroke-width="0"/>
            <polygon points="1932.017 1702.183 1932.463 1702.366 1932.463 1702.373 1932.002 1702.183 1932.017 1702.183" fill="#a7a9ac" fill-rule="evenodd" stroke-width="0"/>
            <polygon points="1932.032 1702.183 1932.463 1702.36 1932.463 1702.366 1932.017 1702.183 1932.032 1702.183" fill="#a7a9ac" fill-rule="evenodd" stroke-width="0"/>
            <polygon points="1932.047 1702.183 1932.463 1702.354 1932.463 1702.36 1932.032 1702.183 1932.047 1702.183" fill="#a7a9ac" fill-rule="evenodd" stroke-width="0"/>
            <polygon points="1932.062 1702.183 1932.463 1702.348 1932.463 1702.354 1932.047 1702.183 1932.062 1702.183" fill="#a7a9ac" fill-rule="evenodd" stroke-width="0"/>
            <polygon points="1932.077 1702.183 1932.463 1702.342 1932.463 1702.348 1932.062 1702.183 1932.077 1702.183" fill="#a7a9ac" fill-rule="evenodd" stroke-width="0"/>
            <polygon points="1932.093 1702.183 1932.463 1702.335 1932.463 1702.342 1932.077 1702.183 1932.093 1702.183" fill="#a7a9ac" fill-rule="evenodd" stroke-width="0"/>
            <polygon points="1932.463 1702.335 1932.093 1702.183 1932.463 1702.183 1932.463 1702.335" fill="#a7a9ac" fill-rule="evenodd" stroke-width="0"/>
          </g>
        </g>
        <g mask="url(#mask-4)">
          <g clip-path="url(#clippath-2)">
            <polygon points="1882.198 1680.62 1933.448 1701.717 1882.198 1701.717 1882.198 1680.62" fill="#fff" fill-rule="evenodd" stroke-width="0"/>
            <polygon points="1882.198 1672.265 1953.745 1701.717 1933.448 1701.717 1882.198 1680.62 1882.198 1672.265" fill="#fff" fill-rule="evenodd" stroke-width="0"/>
            <polygon points="1882.198 1663.91 1974.041 1701.717 1953.745 1701.717 1882.198 1672.265 1882.198 1663.91" fill="#fefefe" fill-rule="evenodd" stroke-width="0"/>
            <polygon points="1882.198 1655.554 1994.338 1701.717 1974.041 1701.717 1882.198 1663.91 1882.198 1655.554" fill="#fcfdfd" fill-rule="evenodd" stroke-width="0"/>
            <polygon points="1882.198 1647.199 2014.635 1701.717 1994.338 1701.717 1882.198 1655.554 1882.198 1647.199" fill="#fbfbfc" fill-rule="evenodd" stroke-width="0"/>
            <polygon points="1882.198 1638.844 2034.931 1701.717 2014.635 1701.717 1882.198 1647.199 1882.198 1638.844" fill="#fafafa" fill-rule="evenodd" stroke-width="0"/>
            <polygon points="1882.198 1630.489 2055.228 1701.717 2034.931 1701.717 1882.198 1638.844 1882.198 1630.489" fill="#f9f9f9" fill-rule="evenodd" stroke-width="0"/>
            <polygon points="1882.198 1622.134 2075.525 1701.717 2055.228 1701.717 1882.198 1630.489 1882.198 1622.134" fill="#f8f8f8" fill-rule="evenodd" stroke-width="0"/>
            <polygon points="1882.198 1613.778 2095.821 1701.717 2075.525 1701.717 1882.198 1622.134 1882.198 1613.778" fill="#f6f7f7" fill-rule="evenodd" stroke-width="0"/>
            <polygon points="1882.198 1605.423 2116.118 1701.717 2095.821 1701.717 1882.198 1613.778 1882.198 1605.423" fill="#f5f6f6" fill-rule="evenodd" stroke-width="0"/>
            <polygon points="1882.198 1597.068 2136.415 1701.717 2116.118 1701.717 1882.198 1605.423 1882.198 1597.068" fill="#f4f5f5" fill-rule="evenodd" stroke-width="0"/>
            <polygon points="1882.198 1588.713 2156.711 1701.717 2136.415 1701.717 1882.198 1597.068 1882.198 1588.713" fill="#f3f3f4" fill-rule="evenodd" stroke-width="0"/>
            <polygon points="1882.198 1580.358 2177.008 1701.717 2156.711 1701.717 1882.198 1588.713 1882.198 1580.358" fill="#f2f2f3" fill-rule="evenodd" stroke-width="0"/>
            <polygon points="1882.198 1572.002 2197.305 1701.717 2177.008 1701.717 1882.198 1580.358 1882.198 1572.002" fill="#f1f1f2" fill-rule="evenodd" stroke-width="0"/>
            <polygon points="1882.198 1563.647 2217.601 1701.717 2197.305 1701.717 1882.198 1572.002 1882.198 1563.647" fill="#f0f0f1" fill-rule="evenodd" stroke-width="0"/>
            <polygon points="1882.198 1561.479 1884.376 1556.189 2237.898 1701.717 2217.601 1701.717 1882.198 1563.647 1882.198 1561.479" fill="#efeff0" fill-rule="evenodd" stroke-width="0"/>
            <polygon points="1884.376 1556.189 1887.317 1549.044 2258.195 1701.717 2237.898 1701.717 1884.376 1556.189" fill="#eeeeef" fill-rule="evenodd" stroke-width="0"/>
            <polygon points="1887.317 1549.044 1890.258 1541.9 2278.491 1701.717 2258.195 1701.717 1887.317 1549.044" fill="#ededee" fill-rule="evenodd" stroke-width="0"/>
            <polygon points="1890.258 1541.9 1893.199 1534.755 2298.788 1701.717 2278.491 1701.717 1890.258 1541.9" fill="#ececed" fill-rule="evenodd" stroke-width="0"/>
            <polygon points="1893.199 1534.755 1896.14 1527.611 2319.085 1701.717 2298.788 1701.717 1893.199 1534.755" fill="#ebebec" fill-rule="evenodd" stroke-width="0"/>
            <polygon points="1896.14 1527.611 1899.081 1520.466 2334.007 1699.505 2333.096 1701.717 2319.085 1701.717 1896.14 1527.611" fill="#eaebeb" fill-rule="evenodd" stroke-width="0"/>
            <rect x="2114.151" y="1371.246" width="7.726" height="470.335" transform="translate(-173.706 2953.471) rotate(-67.625)" fill="#e9eaeb" stroke-width="0"/>
            <rect x="2117.092" y="1364.101" width="7.726" height="470.335" transform="translate(-165.278 2951.766) rotate(-67.625)" fill="#e8e9ea" stroke-width="0"/>
            <rect x="2120.033" y="1356.957" width="7.726" height="470.335" transform="translate(-156.85 2950.06) rotate(-67.625)" fill="#e7e8e9" stroke-width="0"/>
            <rect x="2122.974" y="1349.812" width="7.726" height="470.335" transform="translate(-148.422 2948.355) rotate(-67.625)" fill="#e7e7e8" stroke-width="0"/>
            <rect x="2125.915" y="1342.668" width="7.726" height="470.335" transform="translate(-139.994 2946.65) rotate(-67.625)" fill="#e6e7e8" stroke-width="0"/>
            <rect x="2130.018" y="1337.258" width="3.974" height="470.335" transform="translate(-133.612 2945.359) rotate(-67.625)" fill="#e6e7e8" stroke-width="0"/>
            <rect x="2131.531" y="1333.583" width="3.974" height="470.335" transform="translate(-129.277 2944.481) rotate(-67.625)" fill="#e4e5e6" stroke-width="0"/>
            <rect x="2133.044" y="1329.907" width="3.974" height="470.335" transform="translate(-124.941 2943.605) rotate(-67.625)" fill="#e2e3e4" stroke-width="0"/>
            <rect x="2134.557" y="1326.232" width="3.974" height="470.335" transform="translate(-120.606 2942.727) rotate(-67.625)" fill="#e0e1e2" stroke-width="0"/>
            <rect x="2136.07" y="1322.557" width="3.974" height="470.335" transform="translate(-116.27 2941.85) rotate(-67.625)" fill="#dedfe1" stroke-width="0"/>
            <rect x="2137.583" y="1318.882" width="3.974" height="470.335" transform="translate(-111.935 2940.973) rotate(-67.625)" fill="#dcdedf" stroke-width="0"/>
            <rect x="2139.096" y="1315.207" width="3.974" height="470.335" transform="translate(-107.599 2940.096) rotate(-67.625)" fill="#dbdcdd" stroke-width="0"/>
            <rect x="2140.608" y="1311.532" width="3.974" height="470.335" transform="translate(-103.264 2939.219) rotate(-67.625)" fill="#d9dadb" stroke-width="0"/>
            <rect x="2142.121" y="1307.857" width="3.974" height="470.335" transform="translate(-98.928 2938.342) rotate(-67.625)" fill="#d7d8da" stroke-width="0"/>
            <rect x="2143.634" y="1304.181" width="3.974" height="470.335" transform="translate(-94.593 2937.464) rotate(-67.625)" fill="#d5d6d8" stroke-width="0"/>
            <rect x="2145.147" y="1300.506" width="3.974" height="470.335" transform="translate(-90.257 2936.587) rotate(-67.625)" fill="#d3d5d6" stroke-width="0"/>
            <rect x="2146.66" y="1296.831" width="3.974" height="470.335" transform="translate(-85.922 2935.71) rotate(-67.625)" fill="#d2d3d5" stroke-width="0"/>
            <rect x="2148.173" y="1293.156" width="3.974" height="470.335" transform="translate(-81.586 2934.833) rotate(-67.625)" fill="#d0d2d3" stroke-width="0"/>
            <rect x="2149.686" y="1289.481" width="3.974" height="470.335" transform="translate(-77.251 2933.955) rotate(-67.625)" fill="#cfd0d2" stroke-width="0"/>
            <rect x="2151.199" y="1285.806" width="3.974" height="470.335" transform="translate(-72.916 2933.079) rotate(-67.625)" fill="#cdced0" stroke-width="0"/>
            <rect x="2152.712" y="1282.13" width="3.974" height="470.335" transform="translate(-68.58 2932.201) rotate(-67.625)" fill="#cbcdcf" stroke-width="0"/>
            <rect x="2154.225" y="1278.455" width="3.974" height="470.335" transform="translate(-64.245 2931.324) rotate(-67.625)" fill="#cacbcd" stroke-width="0"/>
            <rect x="2155.737" y="1274.78" width="3.974" height="470.335" transform="translate(-59.909 2930.447) rotate(-67.625)" fill="#c8cacc" stroke-width="0"/>
            <rect x="2157.25" y="1271.105" width="3.974" height="470.335" transform="translate(-55.574 2929.57) rotate(-67.625)" fill="#c7c8ca" stroke-width="0"/>
            <rect x="2158.763" y="1267.43" width="3.974" height="470.335" transform="translate(-51.238 2928.692) rotate(-67.625)" fill="#c6c7c9" stroke-width="0"/>
            <rect x="2160.276" y="1263.755" width="3.974" height="470.335" transform="translate(-46.903 2927.816) rotate(-67.625)" fill="#c4c6c8" stroke-width="0"/>
            <polygon points="1945.557 1407.565 1946.938 1404.21 1947.846 1404.21 2381.995 1582.929 2380.483 1586.604 1945.557 1407.565" fill="#c3c4c6" fill-rule="evenodd" stroke-width="0"/>
            <polygon points="1958.287 1404.21 2383.508 1579.254 2381.995 1582.929 1947.846 1404.21 1958.287 1404.21" fill="#c1c3c5" fill-rule="evenodd" stroke-width="0"/>
            <polygon points="1968.728 1404.21 2385.021 1575.579 2383.508 1579.254 1958.287 1404.21 1968.728 1404.21" fill="#c0c2c4" fill-rule="evenodd" stroke-width="0"/>
            <polygon points="1979.168 1404.21 2386.534 1571.904 2385.021 1575.579 1968.728 1404.21 1979.168 1404.21" fill="#bfc1c3" fill-rule="evenodd" stroke-width="0"/>
            <polygon points="1989.609 1404.21 2388.047 1568.228 2386.534 1571.904 1979.168 1404.21 1989.609 1404.21" fill="#bebfc2" fill-rule="evenodd" stroke-width="0"/>
            <polygon points="2000.05 1404.21 2389.56 1564.553 2388.047 1568.228 1989.609 1404.21 2000.05 1404.21" fill="#bdbec0" fill-rule="evenodd" stroke-width="0"/>
            <polygon points="2010.49 1404.21 2391.073 1560.878 2389.56 1564.553 2000.05 1404.21 2010.49 1404.21" fill="#bbbdbf" fill-rule="evenodd" stroke-width="0"/>
            <polygon points="2020.931 1404.21 2392.586 1557.203 2391.073 1560.878 2010.49 1404.21 2020.931 1404.21" fill="#babcbe" fill-rule="evenodd" stroke-width="0"/>
            <polygon points="2031.372 1404.21 2394.099 1553.528 2392.586 1557.203 2020.931 1404.21 2031.372 1404.21" fill="#b9bbbd" fill-rule="evenodd" stroke-width="0"/>
            <polygon points="2041.812 1404.21 2395.611 1549.853 2394.099 1553.528 2031.372 1404.21 2041.812 1404.21" fill="#b8babc" fill-rule="evenodd" stroke-width="0"/>
            <polygon points="2052.253 1404.21 2397.124 1546.177 2395.611 1549.853 2041.812 1404.21 2052.253 1404.21" fill="#b7b9bb" fill-rule="evenodd" stroke-width="0"/>
            <polygon points="2062.694 1404.21 2398.637 1542.502 2397.124 1546.177 2052.253 1404.21 2062.694 1404.21" fill="#b6b8ba" fill-rule="evenodd" stroke-width="0"/>
            <polygon points="2073.134 1404.21 2400.15 1538.827 2398.637 1542.502 2062.694 1404.21 2073.134 1404.21" fill="#b5b7b9" fill-rule="evenodd" stroke-width="0"/>
            <polygon points="2083.575 1404.21 2401.663 1535.152 2400.15 1538.827 2073.134 1404.21 2083.575 1404.21" fill="#b4b6b8" fill-rule="evenodd" stroke-width="0"/>
            <polygon points="2094.016 1404.21 2403.176 1531.477 2401.663 1535.152 2083.575 1404.21 2094.016 1404.21" fill="#b3b5b8" fill-rule="evenodd" stroke-width="0"/>
            <polygon points="2104.456 1404.21 2404.689 1527.802 2403.176 1531.477 2094.016 1404.21 2104.456 1404.21" fill="#b2b4b7" fill-rule="evenodd" stroke-width="0"/>
            <polygon points="2114.897 1404.21 2406.202 1524.127 2404.689 1527.802 2104.456 1404.21 2114.897 1404.21" fill="#b1b3b6" fill-rule="evenodd" stroke-width="0"/>
            <polygon points="2125.338 1404.21 2407.715 1520.451 2406.202 1524.127 2114.897 1404.21 2125.338 1404.21" fill="#b1b2b5" fill-rule="evenodd" stroke-width="0"/>
            <polygon points="2135.778 1404.21 2409.227 1516.776 2407.715 1520.451 2125.338 1404.21 2135.778 1404.21" fill="#b0b2b4" fill-rule="evenodd" stroke-width="0"/>
            <polygon points="2146.219 1404.21 2410.74 1513.101 2409.227 1516.776 2135.778 1404.21 2146.219 1404.21" fill="#afb1b4" fill-rule="evenodd" stroke-width="0"/>
            <polygon points="2156.66 1404.21 2412.253 1509.426 2410.74 1513.101 2146.219 1404.21 2156.66 1404.21" fill="#aeb0b3" fill-rule="evenodd" stroke-width="0"/>
            <polygon points="2167.1 1404.21 2413.766 1505.751 2412.253 1509.426 2156.66 1404.21 2167.1 1404.21" fill="#aeb0b2" fill-rule="evenodd" stroke-width="0"/>
            <polygon points="2177.541 1404.21 2415.279 1502.076 2413.766 1505.751 2167.1 1404.21 2177.541 1404.21" fill="#adafb2" fill-rule="evenodd" stroke-width="0"/>
            <polygon points="2187.982 1404.21 2416.792 1498.4 2415.279 1502.076 2177.541 1404.21 2187.982 1404.21" fill="#acaeb1" fill-rule="evenodd" stroke-width="0"/>
            <polygon points="2198.422 1404.21 2417.989 1494.595 2417.989 1495.493 2416.792 1498.4 2187.982 1404.21 2198.422 1404.21" fill="#acaeb1" fill-rule="evenodd" stroke-width="0"/>
            <polygon points="2208.863 1404.21 2417.989 1490.297 2417.989 1494.595 2198.422 1404.21 2208.863 1404.21" fill="#abadb0" fill-rule="evenodd" stroke-width="0"/>
            <polygon points="2219.304 1404.21 2417.989 1485.999 2417.989 1490.297 2208.863 1404.21 2219.304 1404.21" fill="#abadb0" fill-rule="evenodd" stroke-width="0"/>
            <polygon points="2229.744 1404.21 2417.989 1481.701 2417.989 1485.999 2219.304 1404.21 2229.744 1404.21" fill="#aaacaf" fill-rule="evenodd" stroke-width="0"/>
            <polygon points="2240.185 1404.21 2417.989 1477.403 2417.989 1481.701 2229.744 1404.21 2240.185 1404.21" fill="#aaacaf" fill-rule="evenodd" stroke-width="0"/>
            <polygon points="2250.626 1404.21 2417.989 1473.105 2417.989 1477.403 2240.185 1404.21 2250.626 1404.21" fill="#a9abae" fill-rule="evenodd" stroke-width="0"/>
            <polygon points="2261.066 1404.21 2417.989 1468.808 2417.989 1473.105 2250.626 1404.21 2261.066 1404.21" fill="#a9abae" fill-rule="evenodd" stroke-width="0"/>
            <polygon points="2271.507 1404.21 2417.989 1464.51 2417.989 1468.808 2261.066 1404.21 2271.507 1404.21" fill="#a9abae" fill-rule="evenodd" stroke-width="0"/>
            <polygon points="2281.948 1404.21 2417.989 1460.212 2417.989 1464.51 2271.507 1404.21 2281.948 1404.21" fill="#a8aaad" fill-rule="evenodd" stroke-width="0"/>
            <polygon points="2292.388 1404.21 2417.989 1455.914 2417.989 1460.212 2281.948 1404.21 2292.388 1404.21" fill="#a8aaad" fill-rule="evenodd" stroke-width="0"/>
            <polygon points="2302.829 1404.21 2417.989 1451.616 2417.989 1455.914 2292.388 1404.21 2302.829 1404.21" fill="#a8aaad" fill-rule="evenodd" stroke-width="0"/>
            <polygon points="2313.27 1404.21 2417.989 1447.318 2417.989 1451.616 2302.829 1404.21 2313.27 1404.21" fill="#a8aaad" fill-rule="evenodd" stroke-width="0"/>
            <polygon points="2323.71 1404.21 2417.989 1443.02 2417.989 1447.318 2313.27 1404.21 2323.71 1404.21" fill="#a7a9ac" fill-rule="evenodd" stroke-width="0"/>
            <polygon points="2334.151 1404.21 2417.989 1438.722 2417.989 1443.02 2323.71 1404.21 2334.151 1404.21" fill="#a7a9ac" fill-rule="evenodd" stroke-width="0"/>
            <polygon points="2344.592 1404.21 2417.989 1434.424 2417.989 1438.722 2334.151 1404.21 2344.592 1404.21" fill="#a7a9ac" fill-rule="evenodd" stroke-width="0"/>
            <polygon points="2355.032 1404.21 2417.989 1430.126 2417.989 1434.424 2344.592 1404.21 2355.032 1404.21" fill="#a7a9ac" fill-rule="evenodd" stroke-width="0"/>
            <polygon points="2365.473 1404.21 2417.989 1425.828 2417.989 1430.126 2355.032 1404.21 2365.473 1404.21" fill="#a7a9ac" fill-rule="evenodd" stroke-width="0"/>
            <polygon points="2375.914 1404.21 2417.989 1421.53 2417.989 1425.828 2365.473 1404.21 2375.914 1404.21" fill="#a7a9ac" fill-rule="evenodd" stroke-width="0"/>
            <polygon points="2417.989 1421.53 2375.914 1404.21 2417.989 1404.21 2417.989 1421.53" fill="#a7a9ac" fill-rule="evenodd" stroke-width="0"/>
          </g>
        </g>
      </g>
    </g>
    <path d="m2156.356,1445.633s75.897,16.305,107.153,19.529c31.243,3.232,36.659-2.171,36.659-2.171,0,0-45.272-23.69-74.379-23.69s-69.434,6.331-69.434,6.331Z" fill="#a5b7b6" stroke-width="0"/>
    <path d="m2283.767,1392.545s-14.127,50.467-18.885,63.179c-4.75,12.726-5.562,36.368-5.672,39.558-.805,23.052-33.344,62.062-39.71,68.422-6.36,6.366-20.188,4.383-20.188,4.383,0,0-6.901-5.721-10.07,1.428-3.183,7.157-10.139,14.265-16.513,13.461-6.366-.797-10.125-2.829-10.125-2.829,0,0-15.888,15.916-20.653,17.497-4.786,1.574-15.112-.992-17.49-7.164-2.303-5.915,2.371-15.902,7.934-23.045,5.568-7.164,11.144-12.74,13.53-21.464,2.372-8.752,1.789-13.509,0-17.484-4.765-10.624-11.089-38.212-11.089-38.212,0,0,9.459-9.868,19.8-16.228,10.34-6.359,13.545-11.561,21.492-20.299,7.968-8.759,23.364-82.272,23.364-82.272l84.275,21.069Z" fill="#d99467" stroke-width="0"/>
    <g>
      <path d="m2135.092,744.119s77.354,46.503,121.274,188.593c20.014,64.805,54.697,174.289,59.677,214.137,4.972,39.842-17.997,288.993-10.542,308.917,7.469,19.897-44.1-4.439-69.455-5.139-33.794-.978-79.691-4.993-79.691-4.993,0,0,36.09-229.545,26.277-270.697-12.449-52.287-82.375-134.919-82.375-134.919,0,0-5.236-243.976,12.22-271.384,17.428-27.369,22.615-24.515,22.615-24.515Z" fill="#dfeaea" stroke-width="0"/>
      <path d="m2096.803,1028.973c.451-.083.652-4.501.652-12.393.007-3.96-.055-8.773-.138-14.359,0-5.599,0-11.963-.007-18.999.042-28.056.604-66.93,4.612-109.082.381-5.294,1.207-10.409,1.734-15.514.644-5.09,1.123-10.142,1.851-15.011,1.526-9.743,3.017-19.162,4.431-28.111,3.17-17.403,7.289-32.893,11.27-45.043,1.984-6.079,4.05-11.339,6.124-15.472,2.074-4.088,4.244-7.039,6.186-7.778,1.955-.888,3.509.604,4.522,1.64,1.005,1.141,1.567,1.827,1.775,1.584.146-.18-.09-1.275-.902-3.096-.437-.846-1.04-1.91-2.004-2.777-.943-.891-2.268-1.523-3.739-1.269-3.044.433-5.888,3.7-8.453,7.861-2.601,4.226-5.042,9.553-7.393,15.701-4.696,12.375-9.293,27.705-13.024,45.956-1.554,9.098-3.176,18.638-4.868,28.545-.784,4.976-1.311,10.129-1.977,15.33-.582,5.229-1.415,10.461-1.824,15.87-4.092,43.098-3.932,82.61-2.829,110.896.36,7.08.679,13.481.964,19.095.423,5.611.853,10.427,1.221,14.339.776,7.85,1.38,12.153,1.816,12.087Z" fill="#adbcbb" stroke-width="0"/>
      <path d="m2258.225,1160.751l1.324-1.086-.041-1.658v-1.068l-.035-3.596-3.516.066c-21.02.339-39.031,2.091-51.659,5.052-6.291,1.508-11.27,3.339-14.3,5.545-3.19,2.188-3.419,4.83-3.017,4.788.472.107,1.165-1.501,4.209-2.749,2.948-1.3,7.768-2.396,13.939-3.232,10.015-1.374,23.732-2.136,39.586-2.306-5.562,2.525-11.852,4.355-18.565,5.634-14.335,2.768-28.892,3.994-41.506,9.182l1.712,6.572c8.572-1.117,17.081-.496,24.467,0,7.441.676,13.967,1.477,19.348,2.41,10.778,1.681,16.838,3.571,17.164,2.812.326-.624-5.486-3.943-16.284-6.838-5.374-1.543-11.99-2.906-19.585-4.057-.097-.022-.221-.022-.298-.022,5.292-.846,10.792-1.657,16.43-2.728,11.082-2.119,22.275-5.735,30.625-12.722Z" fill="#adbcbb" stroke-width="0"/>
    </g>
    <g>
      <path d="m1745.313,365.775c-12.608,28.562-14.57,55.095-11.186,53.469,23.565-11.37,42.061-21.263,88.006-12.913,52.873,9.615,153.314,61.33,187.691,99.525,0,0,13.822-26.689,15.43-62.319-48.004-38.548-136.143-81.577-185.937-90.631-48.718-8.835-69.371.961-94.005,12.868Z" fill="#d3e0e0" stroke-width="0"/>
      <path d="m1963.061,324.407c-55.092-38.063-125.774-30.604-154.652-21.502-32.068,10.102-51.84,37.3-63.096,62.87,24.634-11.907,45.287-21.703,94.005-12.868,49.794,9.054,137.932,52.082,185.937,90.631,1.651-36.659-9.591-82.784-62.194-119.131Z" fill="#e6eded" stroke-width="0"/>
    </g>
  </g>
  <path d="m500.716,2269.441c-.98-18.286.788-36.199,3.8-43.52,3.07-7.46,39.41-7.46,48.18,0,5.566,4.734,13.995,13.899,22.769,24.726,10.961,10.732,25.278,30.01,32.866,49.593,2.093,4.658,3.432,8.777,3.744,12.06,2.017,8.891,2.177,17.485-.493,24.988-5.404,15.178-78.819,14.921-96.36,0-12.538-10.665-15.826-43.809-14.505-67.847h0Z" fill="#0a0a0a" fill-rule="evenodd" stroke-width="0"/>
  <g clip-path="url(#clippath-3)">
    <path d="m492.602,2225.941c-.98-17.758.787-35.155,3.799-42.265,3.07-7.246,39.41-7.246,48.181,0,5.565,4.597,13.995,13.497,22.768,24.012,10.962,10.423,25.278,29.146,32.867,48.163,2.093,4.524,3.432,8.523,3.743,11.713,2.017,8.635,2.178,16.981-.494,24.267-5.403,14.741-78.818,14.491-96.36,0-12.538-10.357-15.825-42.545-14.504-65.89h0Z" fill="#f0efef" fill-rule="evenodd" stroke-width="0"/>
  </g>
  <path d="m219.903,2286.154c-1.087-20.271.873-40.13,4.212-48.245,3.404-8.271,43.69-8.271,53.412,0,6.17,5.249,15.516,15.407,25.241,27.41,12.151,11.897,28.022,33.269,36.435,54.978,2.32,5.163,3.804,9.73,4.149,13.369,2.237,9.857,2.414,19.384-.546,27.701-5.99,16.828-87.378,16.542-106.823,0-13.899-11.822-17.543-48.566-16.079-75.213h0Z" fill="#0a0a0a" fill-rule="evenodd" stroke-width="0"/>
  <g clip-path="url(#clippath-4)">
    <path d="m219.888,2243.612c-1.033-19.687.831-38.973,4.007-46.854,3.236-8.032,41.551-8.032,50.798,0,5.868,5.098,14.757,14.963,24.007,26.62,11.557,11.554,26.651,32.309,34.653,53.392,2.206,5.015,3.617,9.449,3.946,12.984,2.128,9.572,2.297,18.825-.519,26.902-5.698,16.341-83.104,16.065-101.599,0-13.219-11.481-16.686-47.165-15.294-73.043h0Z" fill="#f0efef" fill-rule="evenodd" stroke-width="0"/>
  </g>
  <path d="m600.221,1265.822c-32.747-126.61-198.61-61.671-198.61-61.671,0,0-193.367-119.947-237.932,22.708-56.259,180.088-92.888,573.272-99.618,1057.824-.508,36.578,238.33,33.932,307.017,33.932,69.069,0,312.106,3.226,311.5-28.201-10.568-547.744-35.528-843.547-82.357-1024.591h0Z" fill="#202e5b" fill-rule="evenodd" stroke-width="0"/>
  <g clip-path="url(#clippath-5)">
    <path d="m442.769,1737.845c1.086-.19,5.935,110.378,9.63,242.784.939,33.677,1.866,68.803,2.516,103.983,3.206,173.478,4.436,347.304,4.436,347.304.016,2.909-5.672,6.271-12.695,7.503-7.023,1.232-12.737-.129-12.754-3.038,0,0-.697-173.919.583-348.184.258-35.339.795-70.723,1.359-104.663,2.222-133.444,5.837-245.499,6.924-245.689h0Z" fill="#17244b" fill-rule="evenodd" stroke-width="0"/>
    <path d="m366.579,1490.923c251.97,20.929,452.182,90.337,446.819,154.901-5.363,64.563-214.283,99.988-466.252,79.059-251.97-20.929-452.182-90.337-446.819-154.901,5.363-64.563,214.283-99.988,466.252-79.059h0Z" fill="#17244b" fill-rule="evenodd" stroke-width="0"/>
    <path d="m366.701,1489.46c-135.372-11.244-258.333-6.231-344.05,10.808-42.857,8.52-76.432,20.063-97.672,34.052-15.98,10.525-25.031,22.494-26.115,35.541-1.084,13.048,5.869,26.346,19.893,39.363,18.641,17.302,49.851,34.227,90.714,49.7,81.732,30.948,202.18,56.179,337.552,67.424,135.372,11.244,258.333,6.231,344.05-10.808,42.856-8.52,76.432-20.063,97.672-34.052,15.979-10.525,25.031-22.494,26.115-35.541,1.084-13.049-5.869-26.346-19.893-39.363-18.64-17.302-49.851-34.227-90.714-49.7-81.732-30.948-202.18-56.18-337.552-67.424h0Zm-.243,2.928c135.051,11.217,255.218,36.368,336.756,67.243,40.418,15.304,71.319,31.992,89.756,49.105,13.212,12.263,19.986,24.675,18.965,36.967-1.021,12.291-9.751,23.416-24.803,33.331-21.008,13.837-54.239,25.197-96.628,33.624-85.515,16.998-208.184,21.979-343.235,10.761-135.051-11.217-255.218-36.368-336.756-67.243-40.418-15.304-71.318-31.992-89.756-49.105-13.212-12.263-19.986-24.675-18.965-36.967,1.021-12.291,9.751-23.416,24.804-33.331,21.008-13.837,54.239-25.197,96.628-33.624,85.515-16.998,208.184-21.979,343.235-10.761h0Z" fill="#17244b" fill-rule="evenodd" stroke-width="0"/>
  </g>
  <path d="m671.449,902.057s98.035-21.205,104.468-67.234c9.485-67.865,18.818-110.981,22.582-133.176h-.001c17.107-16.15,13.75-11.158,21.527-31.769,15.81-41.903,9.593-53.192-15.74-59.735-25.553-6.599-27.891-4.899-32.051-7.123-3.939-2.105,8.67-64.661-4.872-64.687-10.32-.02-27.206,82.311-28.612,97.086-1.075,11.309-1.933,21.85-1.967,31.369-.042,11.858,1.192,22.128,4.872,30.317h0s-54.835,124.692-70.206,204.951h0Z" fill="#ffc0aa" fill-rule="evenodd" stroke-width="0"/>
  <g clip-path="url(#clippath-6)">
    <path d="m812.827,702.082c55.958,19.761,96.942,48.394,91.465,63.901-5.476,15.507-55.352,12.053-111.309-7.707-55.957-19.761-96.941-48.393-91.465-63.901,5.477-15.507,55.352-12.053,111.308,7.707h0Z" fill="#e9efff" fill-rule="evenodd" stroke-width="0"/>
  </g>
  <polygon points="58.196 1060.479 260.666 1457.68 338.176 1153.726 58.196 1060.479 58.196 1060.479" fill="#bcc5de" fill-rule="evenodd" stroke-width="0"/>
  <path d="m664.967,1012.736c-30.308-11.765-38.625-68.75,2.032-173.493,22.451-57.835,62.391-145.816,62.391-145.816l84.112,34.618s-21.557,92.593-44.132,150.749c-40.657,104.743-74.097,145.707-104.404,133.942h0Z" fill="#202e5b" fill-rule="evenodd" stroke-width="0"/>
  <path d="m689.589,1012.809c-52.16,41.597-95.973-12.218-154.742-79.325-32.452-37.054-68.117-103.166-68.117-103.166,0,0,64.065-56.036,86.188-53.531,27.439,3.106,49.338,31.02,78.447,72.17,53.2,75.206,98.165,131.999,58.224,163.851h0Z" fill="#202e5b" fill-rule="evenodd" stroke-width="0"/>
  <path d="m65.596,1666.516c2.43,2.129,24.829,8.681,27.86,10.274,2.63,1.383,25.609-150.388,25.609-150.388,0,0-14.537,151.005-8.739,152.66,134.586,38.416,547.882,13.121,548.343-45.546.158-20.123-67.672-571.327-69.983-623.3-5.238-117.826,4.484-195.319-23.623-235.349-58.238-82.94-343.412-69.031-405.589,10.934-14.653,18.845-1.574,213.811-.273,294.553.505,31.337-96.388,583.725-93.607,586.162h0Z" fill="#202e5b" fill-rule="evenodd" stroke-width="0"/>
  <polygon points="70.856 1189.628 444.519 1169.936 460.065 1464.917 86.403 1484.609 70.856 1189.628 70.856 1189.628" fill="#7fb1a0" fill-rule="evenodd" stroke-width="0"/>
  <polygon points="78.782 1198.185 427.988 1179.782 439.24 1188.416 442.55 1456.104 93.345 1474.508 78.782 1198.185 78.782 1198.185" fill="#f0efef" fill-rule="evenodd" stroke-width="0"/>
  <polygon points="66.041 1205.7 445.349 1185.71 460.065 1464.917 80.755 1484.906 66.041 1205.7 66.041 1205.7" fill="#7fb1a0" fill-rule="evenodd" stroke-width="0"/>
  <path d="m240.481,1175.836s-90.384,31.014-84.072,62.212c14.368,71.024,40.21,155.678,40.21,155.678h.001c-9.542,19.862-11.735,48.754-8.698,77.817,2.785,26.663,23.48,28.064,55.904,28.237,25.172.135,7.852-38.607,13.283-38.805,4.181-.152,5.139,30.522,16.99,26.001,9.033-3.446,2.235-42.112.099-55.378-3.799-23.588-22.285-31.184-26.345-52.975h0s6.116-127.442-7.372-202.788h0Z" fill="#ffc0aa" fill-rule="evenodd" stroke-width="0"/>
  <g clip-path="url(#clippath-7)">
    <path d="m204.515,1329.437c64.429,0,116.736,14.991,116.736,33.455s-52.307,33.456-116.736,33.456-116.736-14.992-116.736-33.456,52.308-33.455,116.736-33.455h0Z" fill="#e9efff" fill-rule="evenodd" stroke-width="0"/>
  </g>
  <path d="m188.056,986.47c-28.366,2.066-44.006,105.161-34.904,230.078,5.026,68.976,11.501,174.414,11.501,174.414l92.264-7.051s4.077-105.492-.977-174.851c-9.101-124.917-39.518-224.658-67.883-222.59h0Z" fill="#202e5b" fill-rule="evenodd" stroke-width="0"/>
  <path d="m217.38,1362.826c33.824-3.517,47.105-142.746,29.641-310.72-9.644-92.75-39.958-228.993-39.958-228.993,0,0-81.644,13.846-93.104,47.38-13.767,40.29-7.956,101.458,10.496,194.356,32.861,165.453,59.102,301.493,92.925,297.977h0Z" fill="#202e5b" fill-rule="evenodd" stroke-width="0"/>
  <path d="m348.17,291.133c106.138-6.733,190.78,76.147,204.719,183.472,5.718,44.027,32.917,302.101,32.917,302.101,0,0-109.053,155.044-312.18,146.053-72.44-3.207-130.188-113.208-130.188-113.208,0,0,23.79-269.118,24.835-310.551,2.729-108.205,73.76-201.135,179.897-207.867h0Z" fill="#e9efff" fill-rule="evenodd" stroke-width="0"/>
  <path d="m374.229,587.339c74.42,0,283.2,246.267,278.925,287.888-57.715,561.846-109.795,676.428-109.795,676.428l-87.712-86.446-13.098-295.273s-182.87,13.844-186.97,9.846c-48.042-46.84-139.773-93.165-196.816-116.276-8.565-3.47,37.615-200.441,69.468-261.758,68.056-131.009,187.967-214.409,245.998-214.409h0Z" fill="#e9efff" fill-rule="evenodd" stroke-width="0"/>
  <g clip-path="url(#clippath-8)">
    <path d="m138.268,762.555c.107,7.816,4.128,27.436,10.388,50.591,4.165,15.404,9.102,32.469,14.663,48.523,3.08,8.892,6.383,17.427,9.656,25.282,6.816,16.352,13.517,29.519,18.399,36.184-2.673-5.031-5.586-13.296-8.78-23.574-2.252-7.245-4.559-15.432-6.995-24.167-1.746-6.263-3.537-12.772-5.371-19.386-2.676-9.66-5.421-19.51-7.951-29.093-7.637-28.929-13.659-55.228-13.668-64.441-.022-2.853-2.357-5.152-5.21-5.129-2.853.022-5.152,2.357-5.129,5.21h0Z" fill="#bcc5de" fill-rule="evenodd" stroke-width="0"/>
    <path d="m586.397,750.191c-.432,6.718-.783,38.197-3.153,76.933-.988,16.135-2.442,33.517-4.152,50.929-1.12,11.396-2.314,22.779-3.776,33.845-2.406,18.225-5.348,35.468-9.671,50.242,5.962-14.316,11.131-31.184,15.234-49.244,2.499-11.003,4.63-22.389,6.34-33.837,2.609-17.461,4.267-35.001,5.564-51.262,3.084-38.681,3.428-70.178,3.929-76.889.197-2.847-1.954-5.317-4.8-5.516-2.847-.197-5.317,1.954-5.515,4.8h0Z" fill="#bcc5de" fill-rule="evenodd" stroke-width="0"/>
  </g>
  <path d="m301.97,375.602c-.74,3.533-3.88,13.442-7.546,27.611-2.095,8.094-4.364,17.533-6.456,27.941-2.116,10.538-4.019,22.038-5.524,34.032-2.102,16.74-3.318,34.436-3.134,51.817.376,35.864,7.186,70.352,25.761,93.228,1.815,2.2,5.076,2.514,7.277.699,2.201-1.815,2.515-5.076.7-7.278-17.668-21.095-23.85-53.354-24.852-86.829-.51-17.019.415-34.356,1.878-50.818,1.058-11.904,2.439-23.335,3.814-33.872,1.366-10.463,2.727-20.007,3.954-28.225,2.161-14.466,3.822-24.712,4.127-28.307h0Z" fill="#bcc5de" fill-rule="evenodd" stroke-width="0"/>
  <path d="m531.034,543.089c.577,17.968-2.185,83.94-60.058,138.199-10.546,9.887-22.898,19.383-37.342,28.257-8.487,5.215-17.667,10.231-27.645,14.976-11.197,5.325-23.349,10.316-36.614,14.875-11.847,4.073-24.502,7.856-38.149,11.151,13.934-2.151,26.942-4.778,39.113-7.959,13.769-3.6,26.426-7.819,38.074-12.57,13.295-5.424,25.251-11.531,36.009-18.101,12.338-7.537,23.071-15.731,32.451-24.229,61.874-56.054,64.91-125.961,64.496-144.877-.076-2.852-2.454-5.106-5.307-5.029-2.852.077-5.105,2.455-5.028,5.308h0Z" fill="#bcc5de" fill-rule="evenodd" stroke-width="0"/>
  <path d="m416.894,379.784c21.829-.678,104.669,59.882,120.335,138.134,15.667,78.252-28.445,135.877-96.41,149.484-67.963,13.606-134.208-21.925-149.874-100.177-15.666-78.252,101.871-186.693,125.949-187.44h0Z" fill="#202e5b" fill-rule="evenodd" stroke-width="0"/>
  <path d="m299.366,313.453c-8.544,3.447-29.517,17.012-50.306,38.406-13.496,13.887-26.937,31.066-36.878,50.823-1.282,2.549-.254,5.659,2.294,6.942,2.549,1.283,5.659.255,6.942-2.294,9.444-18.769,22.235-35.071,35.056-48.264,19.389-19.952,38.792-32.809,46.761-36.023,2.646-1.068,3.927-4.082,2.861-6.729-1.068-2.646-4.084-3.927-6.729-2.86h0Z" fill="#fff" fill-rule="evenodd" stroke-width="0"/>
  <path d="m205,417.522c-.45,1.475-3.09,6.08-4.701,10.029-1.023,2.508-1.658,4.856-1.72,6.496-.11,2.85,2.115,5.255,4.966,5.365,2.851.11,5.255-2.116,5.365-4.966.041-1.076.795-2.667,1.547-4.357,1.759-3.953,3.993-8.11,4.431-9.545.834-2.729-.705-5.621-3.433-6.454-2.729-.834-5.621.705-6.456,3.433h0Z" fill="#fff" fill-rule="evenodd" stroke-width="0"/>
  <path d="m129.024,842.958c-2.687,4.178-10.705,27.722-19.044,54.969-9.337,30.508-19.253,65.689-22.852,82.544-.597,2.79,1.185,5.539,3.976,6.136,2.79.596,5.539-1.187,6.135-3.977,3.038-14.222,10.633-41.635,18.531-68.116,9.33-31.286,18.951-61.3,21.95-65.961,1.544-2.4.848-5.602-1.551-7.145-2.4-1.544-5.601-.848-7.145,1.551h0Z" fill="#fff" fill-rule="evenodd" stroke-width="0"/>
  <path d="m718.61,729.557c-2.311,5.84-18.145,44.781-29.813,75.683-5.251,13.906-9.66,26.201-11.66,33.205-.671,2.352.693,4.806,3.045,5.478,2.352.671,4.806-.693,5.477-3.045,1.957-6.857,6.288-18.892,11.428-32.507,11.648-30.849,27.456-69.723,29.763-75.552.9-2.273-.216-4.851-2.489-5.751-2.274-.9-4.851.216-5.752,2.489h0Z" fill="#b7c0dd" fill-rule="evenodd" stroke-width="0"/>
  <path d="m724.431,717.459c-1.249,1.882-.881,4.443.912,5.89,1.902,1.538,4.695,1.241,6.231-.662l3.462-6.539c1.304-2.069.684-4.807-1.385-6.112-2.069-1.304-4.807-.684-6.111,1.385-1.278,2.026-2.428,4.669-3.046,5.916l-.062.122h0Z" fill="#b7c0dd" fill-rule="evenodd" stroke-width="0"/>
  <path d="m416.28,413.419c14.483-2.482,108.084,40.238,122.755,113.515,11.703,58.461-16.394,110.959-61.565,138.415-11.447,6.957-21.256,16.256-34.997,19.006-19.012,3.806-35.553-.876-53.3-5.967-45.694-13.107-85.856-49.37-96.423-102.148-14.67-73.277,104.992-159.643,123.53-162.821h0Z" fill="#ffc0aa" fill-rule="evenodd" stroke-width="0"/>
  <path d="m432.116,497.394c-4.985-1.384-10.155-1.676-14.933-1.229-5.453.511-10.386,1.988-13.955,3.824l-.953-9.803c-.502-5.152-3.046-9.617-6.754-12.667-3.709-3.051-8.579-4.689-13.732-4.187l-72.39,7.041c-5.153.502-9.617,3.046-12.668,6.754-3.051,3.709-4.687,8.58-4.186,13.732l2.865,29.459c.5,5.153,3.045,9.617,6.754,12.668,3.708,3.051,8.58,4.687,13.731,4.187l72.391-7.041c5.152-.502,9.616-3.046,12.667-6.755,3.051-3.708,4.689-8.58,4.187-13.731l-1.111-11.422c.557-.526,1.362-1.018,2.298-1.522,2.888-1.552,6.999-2.76,11.546-3.185,4.814-.451,10.128-.026,15.024,1.912l1.371,14.091c.5,5.152,3.045,9.616,6.754,12.667,3.708,3.051,8.58,4.689,13.732,4.187l72.39-7.041c5.151-.502,9.616-3.046,12.667-6.755,3.051-3.708,4.689-8.58,4.187-13.731l-2.865-29.46c-.502-5.152-3.046-9.616-6.754-12.667-3.709-3.051-8.58-4.689-13.732-4.187l-72.39,7.04c-5.153.502-9.617,3.046-12.668,6.755-3.051,3.708-4.687,8.58-4.186,13.731l.713,7.333h0Zm-132.221,2.75c-.303-3.123.69-6.076,2.54-8.325,1.849-2.247,4.556-3.791,7.68-4.095l72.39-7.041c3.123-.304,6.076.69,8.325,2.539,2.247,1.849,3.792,4.556,4.095,7.679l2.865,29.459c.304,3.124-.69,6.077-2.539,8.325-1.85,2.248-4.556,3.792-7.68,4.096l-72.39,7.041c-3.124.304-6.077-.69-8.325-2.539-2.248-1.85-3.792-4.556-4.096-7.679l-2.865-29.461h0Zm138.858-10.797c-.303-3.124.69-6.077,2.54-8.326,1.849-2.247,4.556-3.791,7.68-4.095l72.39-7.041c3.124-.304,6.076.69,8.325,2.539,2.247,1.85,3.792,4.556,4.095,7.68l2.865,29.459c.304,3.124-.69,6.077-2.539,8.325-1.85,2.249-4.556,3.792-7.68,4.097l-72.39,7.04c-3.124.304-6.076-.69-8.325-2.539-2.249-1.85-3.792-4.555-4.097-7.679l-2.865-29.459h0Z" fill="#17244b" fill-rule="evenodd" stroke-width="0"/>
</svg>