<?xml version="1.0" encoding="UTF-8"?>
<svg xmlns="http://www.w3.org/2000/svg" viewBox="0 0 2436 2436">
  <g isolation="isolate">
    <g id="Layer_1" data-name="Layer 1">
      <circle cx="1221.31" cy="1221.392" r="1215.357" fill="#00b7bd" stroke-width="0"/>
      <path d="m2064.112,347.177c0,17.066-20.317,30.914-45.378,30.914h0c-25.074,0-45.366-13.848-45.366-30.914v-123.368c0-17.104,20.291-30.919,45.366-30.919h0c25.061,0,45.378,13.816,45.378,30.919v123.368Z" fill="#003e5b" stroke-width="0"/>
      <path d="m2064.112,544.915c0,17.078-20.317,30.939-45.378,30.939h0c-25.074,0-45.366-13.861-45.366-30.939v-123.362c0-17.11,20.291-30.971,45.366-30.971h0c25.061,0,45.378,13.861,45.378,30.971v123.362Z" fill="#003e5b" stroke-width="0"/>
      <path d="m2064.112,843.733c0,17.079-20.317,30.927-45.378,30.927h0c-25.074,0-45.366-13.848-45.366-30.927v-123.368c0-17.091,20.291-30.971,45.366-30.971h0c25.061,0,45.378,13.88,45.378,30.971v123.368Z" fill="#003e5b" stroke-width="0"/>
      <g mix-blend-mode="multiply">
        <path d="m2047.625,200.095v170.718c9.986-5.662,16.488-14.089,16.488-23.637v-123.368c0-9.573-6.501-18.026-16.488-23.713Z" fill="#659fb8" stroke-width="0"/>
      </g>
      <g mix-blend-mode="multiply">
        <path d="m2047.625,397.841v170.762c9.986-5.712,16.488-14.147,16.488-23.688v-123.362c0-9.617-6.501-18.052-16.488-23.713Z" fill="#659fb8" stroke-width="0"/>
      </g>
      <g mix-blend-mode="multiply">
        <path d="m2047.625,696.672v170.737c9.986-5.667,16.488-14.147,16.488-23.675v-123.368c0-9.573-6.501-18.014-16.488-23.694Z" fill="#659fb8" stroke-width="0"/>
      </g>
      <path d="m2020.28,2119.09c0,68.716-7.378,85.566-64.429,85.566h-1001.599c-57.044,0-64.435-16.85-64.435-85.566V119.733c0-68.754,7.391-85.54,64.435-85.54h1001.599c57.05,0,64.429,16.787,64.429,85.54v1999.357Z" fill="#003e5b" stroke-width="0"/>
      <g mix-blend-mode="multiply">
        <path d="m1955.851,34.193h-1001.599c-33.522,0-49.844,5.909-57.648,24.629,9.248-3.709,21.556-5.204,38.184-5.204h1001.618c57.018,0,64.442,16.805,64.442,85.528v1999.388c0,28.324-1.348,47.738-6.806,60.892,22.409-9.07,26.238-31.632,26.238-80.337V119.733c0-68.754-7.378-85.54-64.429-85.54Z" fill="#659fb8" stroke-width="0"/>
      </g>
      <path d="m1541.374,131.182c0,13.39-7.003,24.248-15.616,24.248h-145.402c-8.619,0-15.603-10.858-15.603-24.248h0c0-13.345,6.984-24.209,15.603-24.209h145.402c8.613,0,15.616,10.864,15.616,24.209h0Z" fill="#00233b" stroke-width="0"/>
      <path d="m1594.627,2085.371c0,40.404-9.929,73.168-22.193,73.168h-206.587c-12.226,0-22.168-32.765-22.168-73.168h0c0-40.309,9.942-72.99,22.168-72.99h206.587c12.264,0,22.193,32.681,22.193,72.99h0Z" fill="#00233b" stroke-width="0"/>
      <path d="m1604.404,131.182c0,13.415-10.839,24.248-24.222,24.248s-24.247-10.833-24.247-24.248c0-13.345,10.864-24.209,24.247-24.209s24.222,10.864,24.222,24.209Z" fill="#00233b" stroke-width="0"/>
      <rect x="934.037" y="207.754" width="1025.236" height="1765.73" fill="#56b8d5" stroke-width="0"/>
      <rect x="934.037" y="852.206" width="1023.977" height="1121.278" fill="#fff" stroke-width="0"/>
      <rect x="934.037" y="852.206" width="421.659" height="939.486" fill="#00233b" stroke-width="0"/>
      <rect x="934.037" y="574.633" width="1023.977" height="277.573" fill="#d0d2d3" stroke-width="0"/>
      <rect x="934.037" y="1791.692" width="1023.977" height="181.792" fill="#b6e4f9" stroke-width="0"/>
      <rect x="1022.415" y="621.213" width="850.861" height="68.201" fill="#a2a4a7" stroke-width="0"/>
      <path d="m1198.1,774.445c0,17.003-13.79,30.831-30.844,30.831h-114.018c-17.028,0-30.824-13.828-30.824-30.831h0c0-17.053,13.797-30.888,30.824-30.888h114.018c17.054,0,30.844,13.835,30.844,30.888h0Z" fill="#bf4235" stroke-width="0"/>
      <path d="m1434.048,774.445c0,17.003-13.816,30.831-30.825,30.831h-114.037c-17.034,0-30.85-13.828-30.85-30.831h0c0-17.053,13.816-30.888,30.85-30.888h114.037c17.009,0,30.825,13.835,30.825,30.888h0Z" fill="#8bc53f" stroke-width="0"/>
      <path d="m1654.934,774.445c0,17.003-13.829,30.831-30.863,30.831h-114.037c-17.009,0-30.824-13.828-30.824-30.831h0c0-17.053,13.815-30.888,30.824-30.888h114.037c17.034,0,30.863,13.835,30.863,30.888h0Z" fill="#f05a28" stroke-width="0"/>
      <path d="m1873.275,774.445c0,17.003-13.79,30.831-30.825,30.831h-114.011c-17.034,0-30.85-13.828-30.85-30.831h0c0-17.053,13.816-30.888,30.85-30.888h114.011c17.035,0,30.825,13.835,30.825,30.888h0Z" fill="#7762aa" stroke-width="0"/>
      <path d="m1250.589,1615.186c0,67.794-54.97,122.751-122.789,122.751s-122.751-54.957-122.751-122.751,54.983-122.789,122.751-122.789,122.789,54.976,122.789,122.789Z" fill="#fff" stroke-width="0"/>
      <g>
        <g>
          <path d="m1131.801,1536.926h0c-5.581,11.162-14.7,20.161-25.934,25.595l-21.493,10.395c-15.388,7.442-18.639,27.946-6.308,39.784l2.049,1.967h103.372l2.049-1.967c12.331-11.838,9.08-32.341-6.308-39.784l-21.493-10.395c-11.234-5.433-20.353-14.433-25.934-25.595h0Z" fill="#154f78" stroke-width="0"/>
          <path d="m1192.733,1693.201h-121.864v-68.273c0-5.893,4.778-10.671,10.671-10.671h100.522c5.893,0,10.671,4.778,10.671,10.671v68.273Z" fill="#59caf3" stroke-width="0"/>
        </g>
        <path d="m1154.628,1693.201v-44.829c0-11.996-22.827-19.34-22.827-19.34,0,0-22.828,7.343-22.828,19.34v44.829h45.655Z" fill="#404041" stroke-width="0"/>
        <g>
          <path d="m1182.843,1649.318c0-3.59-9.012-10.311-9.012-10.311,0,0-9.012,6.721-9.012,10.311v26.845h18.024v-26.845Z" fill="#404041" stroke-width="0"/>
          <path d="m1098.782,1649.318c0-3.59-9.012-10.311-9.012-10.311,0,0-9.012,6.721-9.012,10.311v26.845h18.024v-26.845Z" fill="#404041" stroke-width="0"/>
        </g>
      </g>
      <g>
        <path d="m1148.279,1534.173c-1.913.712-3.981,1.106-6.143,1.106-9.73,0-17.618-7.888-17.618-17.618,0-5.477,2.499-10.37,6.42-13.602-.146.02-.29.046-.435.069-8.965,1.425-15.821,9.181-15.821,18.548,0,10.379,8.413,18.792,18.792,18.792,6.059,0,11.444-2.87,14.88-7.321-.025.009-.05.017-.075.026Z" fill="#154f78" stroke-width="0"/>
        <polygon points="1138.941 1509.261 1141.326 1515.875 1148.354 1516.1 1142.8 1520.412 1144.758 1527.165 1138.941 1523.216 1133.124 1527.165 1135.082 1520.412 1129.529 1516.1 1136.556 1515.875 1138.941 1509.261" fill="#154f78" stroke-width="0"/>
      </g>
      <path d="m1250.589,1319.128c0,67.774-54.97,122.751-122.789,122.751s-122.751-54.977-122.751-122.751,54.983-122.834,122.751-122.834,122.789,54.976,122.789,122.834Z" fill="#fff" stroke-width="0"/>
      <path d="m1250.589,1044.506c0,67.8-54.97,122.777-122.751,122.777s-122.789-54.977-122.789-122.777,54.983-122.776,122.789-122.776,122.751,54.957,122.751,122.776Z" fill="#fff" stroke-width="0"/>
      <rect x="1404.509" y="917.799" width="468.767" height="58.38" fill="#b5b7b9" stroke-width="0"/>
      <rect x="1404.509" y="1044.163" width="468.767" height="21.971" fill="#b5b7b9" stroke-width="0"/>
      <rect x="1404.509" y="1121.758" width="468.767" height="21.964" fill="#b5b7b9" stroke-width="0"/>
      <rect x="1404.509" y="1187.16" width="387.87" height="22.015" fill="#b5b7b9" stroke-width="0"/>
      <rect x="1404.509" y="1656.289" width="468.767" height="22.008" fill="#b5b7b9" stroke-width="0"/>
      <rect x="1404.509" y="1733.878" width="468.767" height="21.971" fill="#b5b7b9" stroke-width="0"/>
      <g>
        <rect x="1417.485" y="1255.19" width="455.791" height="361.93" fill="#bbbdbf" stroke-width="0"/>
        <polygon points="1645.38 1436.148 1417.485 1617.12 1579.119 1436.148 1417.485 1255.19 1645.38 1436.148" fill="#9a9c9f" stroke-width="0"/>
        <polygon points="1645.38 1436.148 1873.275 1617.12 1711.647 1436.148 1873.275 1255.19 1645.38 1436.148" fill="#9a9c9f" stroke-width="0"/>
      </g>
      <g mix-blend-mode="multiply">
        <rect x="1033.33" y="1838.965" width="839.946" height="19.254" fill="#8fa0aa" stroke-width="0"/>
      </g>
      <g mix-blend-mode="multiply">
        <rect x="1114.239" y="1906.924" width="678.139" height="19.286" fill="#8fa0aa" stroke-width="0"/>
      </g>
      <rect x="934.037" y="207.754" width="1023.977" height="254.687" fill="#fff" stroke-width="0"/>
      <rect x="934.037" y="327.128" width="1023.977" height="247.505" fill="#00afd4" stroke-width="0"/>
      <path d="m1730.882,265.097c0,24.687-20.011,44.679-44.691,44.679s-44.723-19.992-44.723-44.679,20.03-44.704,44.723-44.704,44.691,20.011,44.691,44.704Z" fill="#cccecf" stroke-width="0"/>
      <path d="m1851.884,265.097c0,24.687-20.03,44.679-44.704,44.679s-44.71-19.992-44.71-44.679,20.011-44.704,44.71-44.704,44.704,20.011,44.704,44.704Z" fill="#cccecf" stroke-width="0"/>
      <path d="m1611.515,265.097c0,24.687-20.024,44.679-44.717,44.679s-44.704-19.992-44.704-44.679,20.011-44.704,44.704-44.704,44.717,20.011,44.717,44.704Z" fill="#cccecf" stroke-width="0"/>
      <g>
        <rect x="1000.597" y="376.646" width="890.857" height="148.474" fill="#fff" stroke-width="0"/>
        <rect x="1750.079" y="376.646" width="141.376" height="148.474" fill="#003e5b" stroke-width="0"/>
        <g>
          <path d="m1806.727,461.681c-2.394,0-4.804-.291-7.187-.88-7.716-1.907-14.224-6.708-18.326-13.519-8.493-14.026-3.964-32.372,10.099-40.891,14.061-8.438,32.394-3.895,40.876,10.122l.002.002c8.478,14.049,3.935,32.382-10.126,40.868-4.707,2.84-9.982,4.297-15.337,4.297Zm-.106-54.291c-4.303,0-8.656,1.127-12.601,3.494-11.58,7.015-15.315,22.129-8.317,33.687,3.382,5.614,8.741,9.568,15.095,11.138,6.354,1.571,12.943.571,18.556-2.815,11.584-6.991,15.327-22.094,8.346-33.666-4.61-7.615-12.749-11.837-21.078-11.837Z" fill="#fff" stroke-width="0"/>
          <rect x="1820.278" y="454.525" width="5.246" height="8.44" transform="translate(26.843 1013.353) rotate(-31.286)" fill="#fff" stroke-width="0"/>
          <path d="m1845.407,501.266c-1.776,0-3.508-.901-4.493-2.532l-18.828-31.136c-1.499-2.479-.705-5.703,1.774-7.202,2.479-1.501,5.704-.705,7.203,1.774l18.828,31.136c1.499,2.479.705,5.703-1.774,7.202-.849.514-1.785.758-2.709.758Z" fill="#fff" stroke-width="0"/>
        </g>
      </g>
      <g mix-blend-mode="multiply">
        <polygon points="974.441 1901.766 974.441 207.754 934.037 207.754 934.037 1973.484 1959.273 1973.484 1959.273 1901.766 974.441 1901.766" fill="#b1c6d2" stroke-width="0"/>
      </g>
      <g mix-blend-mode="multiply">
        <path d="m1427.885,2182.112c-213.564,0-404.414,8.619-530.74,22.148-50.289-3.543-104.712-5.489-161.584-5.489-254.216,0-460.288,38.667-460.288,86.38s206.071,86.412,460.288,86.412c226.337,0,414.375-30.672,452.922-71.089,74.574,2.456,155.217,3.797,239.402,3.797,380.383,0,688.742-27.351,688.742-61.089s-308.36-61.07-688.742-61.07Z" fill="#80a2b2" stroke-width="0"/>
      </g>
      <path d="m919.623,1620.007s.687,7.989,1.896,21.971c1.323,14.076,3.326,34.227,6.246,58.29,2.952,24.031,6.743,52.057,12.162,81.393,2.736,14.623,5.878,29.628,9.809,44.068,1.972,7.201,4.191,14.223,6.628,20.571,1.234,3.098,2.531,6.037,3.765,8.409,1.132,2.328,2.627,4.179,2.15,3.791-.191,0-1.412-1.158-4.033-1.768-2.875-.91-7.061-.623-9.375.496-1.043.35-1.978,1.062-2.265,1.221l-.318.268-.134.152c.172-.134-1.921,1.641-.961.821l.153-.128,1.144-1.011,4.631-4.033c6.17-5.368,12.467-10.724,17.556-16.029,5.407-5.305,10.762-10.572,16.067-15.775,5.445-5.623,10.839-11.176,16.131-16.64,21.207-21.881,40.709-42.878,57.368-60.879,33.311-36.059,55.154-60.421,55.154-60.421l25.266,21.321s-20.444,25.812-51.688,64.072c-15.647,19.127-33.916,41.383-54.143,64.976-5.063,5.909-10.216,11.907-15.419,17.988-5.648,6.234-11.36,12.544-17.123,18.905-5.801,6.64-11.602,12.193-17.416,17.924l-4.37,4.313-1.094,1.082-.134.134-1.26,1.062-.769.586-1.571,1.139c-1.908,1.444-4.745,2.951-7.646,4.147-6.157,2.506-14.591,3.123-21.442,1.069-6.495-1.934-11.317-5.197-14.541-7.971-6.672-5.801-9.865-10.832-12.88-15.539-2.888-4.713-5.14-9.166-7.213-13.542-3.982-8.682-7.143-17.047-9.955-25.272-5.578-16.43-9.91-32.351-13.784-47.763-7.658-30.787-13.306-59.435-17.861-84.026-4.529-24.591-7.849-45.111-10.089-59.525-2.162-14.534-3.397-22.835-3.397-22.835l64.753-7.01Z" fill="#d19679" stroke-width="0"/>
      <path d="m964.016,1797.843l-88.568,37.287s-13.377-233.067-51.605-349.489c120.512,25.023,140.173,312.202,140.173,312.202Z" fill="#ceecfb" stroke-width="0"/>
      <polygon points="899.243 2144.577 555.365 2150.117 553.063 2007.61 896.954 2002.089 899.243 2144.577" fill="#272e40" stroke-width="0"/>
      <path d="m519.808,2169.283s-75.604,14.554-126.746-47.789c-22.708-27.682-53.596-3.034-51.294,13.02,7.417,19.585,156.833,177.728,169.032,175.953,29.756-4.338,37.344-66.547,51.116-72.094,20.532-8.25-42.109-69.091-42.109-69.091Z" fill="#171d2e" stroke-width="0"/>
      <path d="m1001.691,2032.131c-248.682,55.211-488.346,115.665-488.346,115.665l40.798,106.283c36.27-2.525,295.816-51.599,494.909-78.289,85.426-11.424,133.176-183.7-47.362-143.659Z" fill="#22293a" stroke-width="0"/>
      <path d="m956.243,2178.932s74.81,18.249,128.953-41.518c24.044-26.556,53.672-.413,50.588,15.533-8.365,19.203-165.35,169.815-177.448,167.448-29.514-5.807-34.037-68.309-47.528-74.53-20.088-9.248,45.435-66.934,45.435-66.934Z" fill="#171d2e" stroke-width="0"/>
      <path d="m480.34,2018.309c245.693,67.317,482.118,139.429,482.118,139.429l-45.963,104.177c-36.091-4.306-292.928-66.057-490.476-102.46-84.758-15.603-124.017-190.004,54.322-141.146Z" fill="#323a4d" stroke-width="0"/>
      <path d="m559.385,1817.631c-4.427,70.141-5.318,147.488-6.323,189.978l343.891-5.521c2.073-60.93.083-162.716-7.519-242.245-8.524-89.16-17.359-235.821-38.629-257.848-21.27-22.06-68.614-25.768-78.041-28.827-20.317-6.596-73.9-4.79-95.19-3.009-26.925,2.239-80.305,14.865-88.383,33.33-8.053,18.434-25.431,245.248-29.807,314.142Z" fill="#fff" stroke-width="0"/>
      <path d="m754.23,1424.425c-.458-28.853-75.236-37.567-71.432-11.888,2.633,17.721-.853,38.375-3.251,49.506-1.1,5.031-19.381,10.451-19.381,10.451,0,0,19.451,38.286,59.944,37.681,40.512-.573,52.655-37.007,52.655-37.007l-18.797-11.253s.49-23.051.261-37.49Z" fill="#f9b28d" stroke-width="0"/>
      <path d="m845.775,1213.812c2.207,136.662-40.938,162.576-137.216,190.494-64.384,18.682-179.667-19.114-190.557-215.065-3.231-57.884,3.944-139.836,48.571-134.671,27.192-79.389,66.121-65.376,123.871-66.318,119.303-1.902,251.894,67.667,155.331,225.561Z" fill="#22293a" stroke-width="0"/>
      <path d="m863.356,1241.234c2.252,140.421-47.146,198.495-108.872,199.487-70.554,1.113-167.226-80.979-169.045-195.023-2.265-140.434,58.71-218.742,135.467-219.963,76.73-1.253,140.199,75.07,142.45,215.498Z" fill="#e19a7f" stroke-width="0"/>
      <path d="m856.391,1233.677c2.182,135.472-25.373,193.076-98.306,194.247-72.972,1.164-163.588-44.03-172.786-191.372-8.447-135.25,62.629-209.652,135.607-210.816,72.939-1.177,133.303,72.443,135.485,207.941Z" fill="#f9b28d" stroke-width="0"/>
      <path d="m730.987,1019.318c-61.726.973-134.754,36.473-140.778,97.053,24.744,23.115,54.843,38.451,88.288,46.656,21.283,5.235,51.383-30.169,74.829-30.538,32.453-.528,57.934,34.711,82.43,25.049,22.154-8.734,37.37-23.332,39.01-47.541-40.607-43.031-83.428-91.659-143.78-90.679Z" fill="#22293a" stroke-width="0"/>
      <path d="m550.436,1247.9c-32.154,13.447-1.8,74.861,31.213,68.9,14.146-2.557,34.902-3.619,34.552-26.022-.369-22.397-26.576-22.797-26.576-22.797,0,0-9.809-32.377-39.189-20.081Z" fill="#f9b28d" stroke-width="0"/>
      <g mix-blend-mode="multiply">
        <path d="m572.565,1257.276s-16.583-6.087-23.14,7.105c-8.206,16.608,17.581,42,17.581,42,0,0-17.181-25.004-9.541-40.836,4.885-10.095,15.1-8.269,15.1-8.269Z" fill="#ba9a9d" stroke-width="0"/>
      </g>
      <path d="m593.416,1223.658c-22.753-83.772,46.358-74.097,46.358-74.097,0,0-41.867-75.719-57.094-44.131-5.725,11.882-36.664,110.805-5.687,144.352.331,20.749,18.752,36.244,25.177,34.113,6.437-2.144-1.845-34.839-8.753-60.237Z" fill="#22293a" stroke-width="0"/>
      <path d="m602.448,1693.201s.382,7.716,1.043,21.226c.801,13.663,2.137,33.242,4.434,56.573,2.321,23.306,5.553,50.466,10.781,78.607,2.633,14.02,5.782,28.344,9.859,41.873,2.035,6.736,4.287,13.326,6.831,19.146,2.449,5.794,5.445,11.055,7.569,13.625.993,1.272,1.679,1.66.929,1.304-.108-.051-.254-.153-.394-.197l-.204-.057-.115-.025c.178.076-1.965-.706-.967-.343l.178.063,2.824.986,5.598,1.934,9.478,2.767c3.689.98,7.366,1.959,11.03,2.932,14.808,3.823,29.718,7.372,44.208,10.693,28.98,6.654,56.267,12.524,79.662,17.48,46.854,9.656,78.098,16.093,78.098,16.093l-9.084,49.309s-31.645-5.566-79.116-13.917c-23.725-4.313-51.37-9.414-81.088-15.329-14.852-2.958-30.213-6.145-46.039-9.745-3.969-.929-7.964-1.87-11.971-2.812-4.498-1.202-9.007-2.404-13.517-3.613l-5.77-1.819-2.856-.903-1.495-.535-.789-.337-1.578-.687-3.104-1.463c-7.792-4.186-13.135-9.255-17.39-14-8.32-9.605-13.002-18.593-17.168-27.269-4.09-8.689-7.194-17.072-9.968-25.335-5.496-16.5-9.427-32.421-12.804-47.795-6.641-30.71-10.833-59.13-14-83.517-3.123-24.375-5.101-44.685-6.361-58.959-1.139-14.439-1.781-22.696-1.781-22.696l65.032-3.257Z" fill="#f9b28d" stroke-width="0"/>
      <path d="m546.67,1886.131l114.233-70.14s-87.226-209.303-54.296-327.315c-140.79,71.057-59.938,397.455-59.938,397.455Z" fill="#ceecfb" stroke-width="0"/>
      <g>
        <path d="m1134.492,1711.253l32.765-14.586,38.082-7.836-15.38-59.092-24.699,1.552,4.09-19.546s6.157-23.758-2.519-25.157c-8.714-1.361-18.675,31.257-26.881,42.369-8.205,11.113-29.616,61.401-29.616,61.401l24.158,20.895Z" fill="#d19679" stroke-width="0"/>
        <path d="m1205.339,1688.831s43.203-8.167,48.723-10.966c5.509-2.818,6.908-11.08,1.196-10.419-5.705.668-61.929,7.137-61.929,7.137l12.01,14.248Z" fill="#d19679" stroke-width="0"/>
        <path d="m1200.994,1675.804s64.416-11.354,69.912-14.152c5.515-2.792,6.921-11.062,1.221-10.407-5.712.655-76.483,8.981-76.483,8.981l5.35,15.578Z" fill="#d19679" stroke-width="0"/>
        <path d="m1193.011,1659.826s64.397-11.386,69.912-14.184c5.527-2.799,6.927-11.081,1.215-10.407-5.712.649-76.495,8.969-76.495,8.969l5.368,15.622Z" fill="#d19679" stroke-width="0"/>
        <path d="m1180.366,1646.265s64.39-11.361,69.893-14.179c5.527-2.799,6.926-11.042,1.227-10.394-5.705.655-76.488,9-76.488,9l5.368,15.572Z" fill="#d19679" stroke-width="0"/>
      </g>
      <polygon points="904.905 2073.234 605.018 2078.062 604.509 2046.844 904.422 2042.035 904.905 2073.234" fill="#bbbdbf" stroke-width="0"/>
      <polygon points="1071.902 2070.557 771.989 2075.365 831.908 1890.52 1131.801 1885.705 1071.902 2070.557" fill="#d0d2d3" stroke-width="0"/>
      <g>
        <g>
          <polygon points="1131.801 995.352 1131.801 1091.423 1214.548 1071.552 1214.548 976.625 1131.801 995.352" fill="#008846" stroke-width="0"/>
          <path d="m1200.659,964.314v91.615s-49.613,7.402-68.858,29.168v-91.615c19.245-21.766,68.858-29.168,68.858-29.168Z" fill="#ffe391" stroke-width="0"/>
        </g>
        <path d="m1140.754,1003.377c15.605-10.948,38.465-16.988,50.952-19.651v-4.325c-12.486,2.663-35.346,8.703-50.952,19.651v4.325Z" fill="#404041" stroke-width="0"/>
        <path d="m1140.754,1013.586c15.605-10.948,38.465-16.988,50.952-19.651v-4.325c-12.486,2.663-35.346,8.703-50.952,19.651v4.325Z" fill="#404041" stroke-width="0"/>
        <path d="m1140.754,1023.794c15.605-10.948,38.465-16.988,50.952-19.651v-4.325c-12.486,2.663-35.346,8.703-50.952,19.651v4.325Z" fill="#404041" stroke-width="0"/>
        <path d="m1140.754,1034.002c15.605-10.948,38.465-16.988,50.952-19.651v-4.325c-12.486,2.663-35.346,8.703-50.952,19.651v4.325Z" fill="#404041" stroke-width="0"/>
        <path d="m1140.754,1044.211c15.605-10.948,38.465-16.988,50.952-19.651v-4.325c-12.486,2.663-35.346,8.703-50.952,19.651v4.325Z" fill="#404041" stroke-width="0"/>
        <path d="m1140.754,1054.419c15.605-10.948,38.465-16.988,50.952-19.651v-4.325c-12.486,2.663-35.346,8.703-50.952,19.651v4.325Z" fill="#404041" stroke-width="0"/>
        <path d="m1140.754,1064.628c15.605-10.948,38.465-16.988,50.952-19.651v-4.325c-12.486,2.663-35.346,8.703-50.952,19.651v4.325Z" fill="#404041" stroke-width="0"/>
      </g>
      <g>
        <g>
          <polygon points="1131.801 995.352 1131.801 1091.423 1049.054 1071.552 1049.054 976.625 1131.801 995.352" fill="#40a74a" stroke-width="0"/>
          <path d="m1062.943,964.314v91.615s49.613,7.402,68.858,29.168v-91.615c-19.245-21.766-68.858-29.168-68.858-29.168Z" fill="#ffe391" stroke-width="0"/>
        </g>
        <path d="m1122.848,1003.377c-15.605-10.948-38.465-16.988-50.952-19.651v-4.325c12.486,2.663,35.346,8.703,50.952,19.651v4.325Z" fill="#404041" stroke-width="0"/>
        <path d="m1122.848,1013.586c-15.605-10.948-38.465-16.988-50.952-19.651v-4.325c12.486,2.663,35.346,8.703,50.952,19.651v4.325Z" fill="#404041" stroke-width="0"/>
        <path d="m1122.848,1023.794c-15.605-10.948-38.465-16.988-50.952-19.651v-4.325c12.486,2.663,35.346,8.703,50.952,19.651v4.325Z" fill="#404041" stroke-width="0"/>
        <path d="m1122.848,1034.002c-15.605-10.948-38.465-16.988-50.952-19.651v-4.325c12.486,2.663,35.346,8.703,50.952,19.651v4.325Z" fill="#404041" stroke-width="0"/>
        <path d="m1122.848,1044.211c-15.605-10.948-38.465-16.988-50.952-19.651v-4.325c12.486,2.663,35.346,8.703,50.952,19.651v4.325Z" fill="#404041" stroke-width="0"/>
        <path d="m1122.848,1054.419c-15.605-10.948-38.465-16.988-50.952-19.651v-4.325c12.486,2.663,35.346,8.703,50.952,19.651v4.325Z" fill="#404041" stroke-width="0"/>
        <path d="m1122.848,1064.628c-15.605-10.948-38.465-16.988-50.952-19.651v-4.325c12.486,2.663,35.346,8.703,50.952,19.651v4.325Z" fill="#404041" stroke-width="0"/>
      </g>
      <polygon points="1131.801 1091.423 1075.657 1124.699 1103.199 1124.699 1136.305 1104.307 1214.548 1085.096 1214.548 1071.552 1131.801 1091.423" fill="#404041" stroke-width="0"/>
      <polygon points="1131.801 1091.423 1187.945 1124.699 1160.403 1124.699 1127.297 1104.307 1049.054 1085.096 1049.054 1071.552 1131.801 1091.423" fill="#404041" stroke-width="0"/>
      <g>
        <g>
          <polygon points="1198.479 1294.155 1182.361 1300.83 1203.304 1321.773 1203.304 1321.774 1182.361 1342.717 1198.479 1349.393 1226.098 1321.774 1198.479 1294.155" fill="#40a649" stroke-width="0"/>
          <polygon points="1131.801 1393.277 1131.801 1393.277 1110.858 1372.334 1104.182 1388.452 1131.801 1416.071 1159.42 1388.452 1152.744 1372.334 1131.801 1393.277" fill="#40a649" stroke-width="0"/>
          <polygon points="1131.801 1250.27 1152.744 1271.213 1159.42 1255.096 1131.801 1227.477 1104.182 1255.096 1110.858 1271.213 1131.801 1250.27" fill="#40a649" stroke-width="0"/>
          <polygon points="1065.123 1294.155 1037.504 1321.774 1037.504 1321.774 1065.123 1349.392 1081.24 1342.716 1060.298 1321.774 1060.298 1321.773 1081.24 1300.831 1065.123 1294.155" fill="#40a649" stroke-width="0"/>
        </g>
        <g>
          <polygon points="1081.24 1342.716 1065.123 1349.392 1065.123 1388.452 1104.182 1388.452 1110.858 1372.334 1081.24 1372.334 1081.24 1342.716" fill="#008746" stroke-width="0"/>
          <polygon points="1182.361 1372.334 1152.744 1372.334 1159.42 1388.452 1198.479 1388.452 1198.479 1349.393 1182.361 1342.717 1182.361 1372.334" fill="#008746" stroke-width="0"/>
          <polygon points="1159.42 1255.096 1152.744 1271.213 1182.361 1271.213 1182.361 1300.83 1198.479 1294.155 1198.479 1255.096 1159.42 1255.096" fill="#008746" stroke-width="0"/>
          <polygon points="1081.24 1271.213 1110.858 1271.213 1104.182 1255.096 1065.123 1255.096 1065.123 1294.155 1081.24 1300.831 1081.24 1271.213" fill="#008746" stroke-width="0"/>
        </g>
      </g>
      <path d="m1183.076,1300.535v-30.036h-30.036l-21.239-21.239-21.239,21.239h-30.036v30.036l-21.239,21.239,21.239,21.239v30.036h30.036l21.239,21.239,21.239-21.239h30.036v-30.036l21.239-21.239-21.239-21.239Zm-35.211,60.022l-16.064,16.065-16.065-16.065h-22.719v-22.719l-16.065-16.064,16.065-16.065v-22.719h22.719l16.065-16.065,16.065,16.065h22.719v22.719l16.065,16.065-16.065,16.065v22.719h-22.719Z" fill="#965200" stroke-width="0"/>
    </g>
  </g>
</svg>