<?xml version="1.0" encoding="UTF-8"?>
<svg id="Layer_1" data-name="Layer 1" xmlns="http://www.w3.org/2000/svg" xmlns:xlink="http://www.w3.org/1999/xlink" viewBox="0 0 2436 2436">
  <defs>
    <clipPath id="clippath">
      <rect y="-6.631" width="2435.338" height="2446.94" fill="none" stroke-width="0"/>
    </clipPath>
  </defs>
  <rect x=".39" y="0" width="2443.325" height="2443.324" rx="1221.661" ry="1221.661" fill="#d8eef9" stroke-width="0"/>
  <path d="m535.712,1903.682c.215-2.608.432-5.191.652-7.768.142-1.659.284-3.319.427-4.964.221-2.527.447-5.025.673-7.518.151-1.649.299-3.303.452-4.937.233-2.513.471-4.99.71-7.465.146-1.529.292-3.067.441-4.58.249-2.541.502-5.037.755-7.534.143-1.422.286-2.862.432-4.269.267-2.593.536-5.135.807-7.676.134-1.261.267-2.546.401-3.793.306-2.827.612-5.594.919-8.352.101-.905.201-1.838.302-2.735.404-3.599.81-7.136,1.215-10.607.161-1.385.324-2.714.484-4.078.242-2.044.485-4.103.726-6.097.213-1.76.424-3.455.636-5.176.19-1.544.38-3.109.569-4.621.226-1.816.45-3.567.675-5.335.168-1.324.338-2.666.505-3.963.233-1.804.461-3.545.69-5.295.159-1.204.317-2.419.473-3.597.237-1.791.469-3.521.703-5.249.137-1.008.273-2.022.407-3.008.245-1.8.485-3.541.723-5.266.121-.86.239-1.72.357-2.562.244-1.749.482-3.441.72-5.106.099-.708.201-1.411.299-2.104.25-1.741.492-3.426.731-5.068.074-.506.146-1.004.219-1.5.265-1.815.523-3.562.773-5.245.025-.171.051-.337.076-.506.278-1.862.544-3.643.802-5.336.005-.027.009-.052.012-.079,2.205-14.508,3.631-22.742,3.631-22.742-55.825,7.405-104.087,8.495-145.482,5.683,37.112,64.667,78.508,127.034,122.343,187.71.112-1.449.232-2.87.347-4.31.132-1.656.264-3.307.398-4.951Z" fill="#eaf5fb" stroke-width="0"/>
  <path d="m2044.173,786.778c-14.038,7.18-29.004,12.807-44.671,16.68.556.95,1.126,1.938,1.665,2.84,49.054,82.163,78.221,176.268,83.316,271.871,2.256,42.303-1.333,88.271-28.656,120.648-27.32,32.377-85.603,40.171-109.845,5.429-9.941-14.248-12.379-32.39-12.607-49.761-.662-50.819,14.997-100.443,18.833-151.122,5.011-66.192-11.089-133.702-44.784-190.853l-51.212,3.114c-16.54,1.004-33.137.034-49.444-2.89l-132.295-23.738c4.641,8.132,7.068,17.618,6.485,27.587l-.78,13.339-1.018,17.455c-1.473,25.205-21.552,45.328-46.751,46.86l-25.317,1.541c-3.956.241-7.929.008-11.829-.693l-32.918-5.907c-21.235-3.81-37.613-20.841-40.584-42.211l-2.096-15.087c-.903-6.492-.516-13.1,1.137-19.442l3.636-13.956c5.538-21.254,24.332-36.38,46.276-37.25l25.805-1.021c-51.717-31.964-88.176-85.769-96.904-148.566l-8.766-63.05c-3.771-27.13-2.158-54.739,4.75-81.246l15.199-58.322c10.103-38.765,30.761-72.65,58.457-98.835-186.12-108.776-401.79-178.831-601.677-171.367-155.04,5.789-303.588,99.63-423.624,224.293.186.491.32,1.033.522,1.506,8.198,19.175,22.483,24.408,42.845,15.698,12.932-5.527,27.568-17.764,43.905-36.706,6.392-2.733,17.691,14.854,33.898,52.755,1.778,4.161,2.89,7.377,3.336,9.651,2.177,10.845-6.93,23.883-27.32,39.108-14.784,11.069-29.829,19.874-45.14,26.42-26.9,11.504-52.405,13.53-76.515,6.083-19.357-5.989-34.624-17.38-45.844-34.121-77.003,96.786-137.004,203.374-171.846,298.674-39.517,108.085-59.733,222.245-62.411,337.149,8.574-10.463,17.333-20.614,26.202-30.427-7.08-38.499.332-74.363,35.151-72.623,7.887.395,16.522,5.056,25.148,11.8,19.338-17.87,38.308-34.03,56.1-48.35-8.006-23.029-8.471-49.275-5.825-73.896,2.029-18.869,14.689-75.569,33.923-127.512l-38.087,7.821-39.004-9.77-16.136-.471,1.602-2.677,10.011-3.629,34.706-26.412,60.954-12.517c.155-2.727.318-5.564.508-8.605,3.3-53.173,36.459-34.904,36.459-34.904,6.65-15.387,40.471-33.765,40.471-33.765,6.231-21.388,43.718-30.78,43.718-30.78,78.396-61.646,119.974,58.498,119.988,58.536l75.906-15.588.34,1.653c-.54-2.659,1.173-5.254,3.83-5.8,2.663-.547,5.264,1.168,5.811,3.83-.547-2.662,1.17-5.264,3.833-5.811,2.66-.544,5.261,1.17,5.808,3.833-.547-2.663,1.17-5.264,3.833-5.811,2.659-.547,5.261,1.167,5.808,3.83-.547-2.663,1.17-5.264,3.833-5.811,2.66-.547,5.264,1.168,5.808,3.83-.544-2.662,1.17-5.261,3.833-5.808,2.66-.547,5.264,1.167,5.808,3.83l.283,1.38,7.483-1.534c7.753-1.594,15.331,3.401,16.925,11.156l2.102,10.241c1.593,7.755-3.404,15.331-11.159,16.925l-7.481,1.535-3.863-18.813v.002l4.048,19.717c.548,2.66-1.167,5.264-3.83,5.808-2.662.548-5.264-1.167-5.811-3.83.547,2.663-1.167,5.264-3.83,5.811-2.663.547-5.264-1.17-5.811-3.83.547,2.66-1.168,5.264-3.83,5.811-2.663.544-5.264-1.17-5.811-3.833.548,2.663-1.167,5.264-3.83,5.811-2.662.548-5.264-1.167-5.811-3.83.547,2.663-1.167,5.264-3.83,5.811-2.66.547-5.256-1.166-5.807-3.821l.139.679-42.632,8.755c22.45,42.784-7.811,146.318-7.811,146.318,2.747,21.967-20.64,52.907-20.64,52.907,123.437,91.922-102.424,393.947-102.424,393.947,113.117-93.999,234.359-130.931,312.306-145.477,5.513-4.124,11.327-7.212,17.239-9.439v-.036s43.319-23.169,105.808-37.302c5.853-33.139,15.104-104.072-3.561-145.551,0,0-74.871-52.688-77.646-119.242,0,0-89.391-5.545-77.971-83.19,5.174-35.177,19.117-51.532,34.426-56.621-.004.001-.008.001-.013.002,0,0-25.014-2.935-41.161-27.125-2.561,1.73-5.103,3.49-7.674,5.198-3.359,2.266-6.775,4.438-10.192,6.605l18.164,7.354,5.873,2.377-5.803,2.982c-10.095,5.188-20.278,10.198-30.467,15.189,8.35,5.117,16.699,10.239,24.948,15.524l7.317,4.686-8.507.979c-10.199,1.173-20.449,1.93-30.671,2.915-10.233.912-20.497,1.571-30.785,2.04,10.062-2.197,20.151-4.2,30.272-5.957,7.286-1.209,14.565-2.49,21.853-3.695-7.828-4.561-15.617-9.19-23.4-13.83l-5.564-3.317,5.853-2.797c10.31-4.925,20.674-9.741,31.066-14.49l-15.393-7.676-3.611-1.799,3.431-1.835c4.75-2.542,9.57-4.96,14.43-7.315,2.753-1.356,5.533-2.661,8.298-3.994-7.853-12.166-13.427-29.568-12.718-54.378-1.048-1.909-2.086-3.822-3.147-5.725l-11.265-21.417c-1.607,7.921-3.312,15.821-4.937,23.738l-1.341,6.524-4.422-5.112c-11.668-13.495-23.176-27.128-34.611-40.821l-.29,16.598-.132,7.502-4.806-5.592c-14.902-17.34-29.806-34.675-44.023-52.635,14.778,14.172,28.988,28.863,43.16,43.588l-.318-18.226-.157-8.965,5.94,6.841c12.177,14.024,24.165,28.212,36.08,42.459,1.978-8.171,3.914-16.351,6.08-24.479l.837-3.146c-11.659-25.047-21.346-65.377-1.475-115.72,34.282-86.85,225.37-319.176,510.257-6.293.207.22.342.368.342.368,0,0,25.144,43.311,42.135,118.864,1.662,2.265,3.2,4.704,4.422,7.555,11.835,27.614,4.713,24.14,1.411,21.669,15.279,87.862,16.936,210.113-34.105,353.835,0,0-.898,1.574-2.589,4.246,15.048,63.494-18.118,83.934-50.032,89.65-24.812,4.444-48.855,0-48.855,0-5.466,0-10.574-1.166-15.289-3.137-1.74.278-3.479.556-5.25.753,0,0-11.532,25.614-8.744,60.632,47.95,17.052,95.008,48.539,135.476,102.106l86.794,34.148c291.172,224.617,310.583,693.264,316.127,831.917,5.548,138.656-135.877,169.158-135.877,169.158,1.665,11.098,2.637,21.529,3.086,31.368,149.79-74.762,272.421-202.601,382.389-331.76,54.197-63.653,107.466-129.601,144.815-204.082-18.69,3.063-37.468.077-56.336-8.99-25.252-12.312-44.343-15.323-57.27-9.032-3.347,1.697-6.644,3.463-9.896,5.292-3.44.979-6.485-.466-9.128-4.335-9.214-13.482-16.628-22.612-22.239-27.39-1.223-.926-2.062-1.723-2.517-2.39-3.283-4.806,1.613-11.675,14.697-20.614,11.341-7.75,29.882-10.777,55.617-9.074,25.732,1.697,44.273-1.324,55.62-9.077,17.219-11.765,19.579-26.793,7.085-45.078-7.932-11.61-22.777-23.594-44.531-35.943-3.92-5.741,11.136-20.239,45.174-43.496,3.735-2.551,6.676-4.265,8.819-5.143,10.216-4.243,24.775,2.16,43.667,19.208,9.302,8.371,17.524,17.088,24.835,26.098,7.786-47.589,10.923-96.135,11.156-144.35,1.035-214.836-56.114-429.118-160.91-616.555Z" fill="#eaf5fb" stroke-width="0"/>
  <path d="m494.347,861.635c-4.719-29.246-8.441-58.799-8.036-88.307-6.492-23.097,1.874-49.006,1.874-49.006-.009-.314.039-.608.039-.919-8.62,1.339-13.661,1.688-13.661,1.688,0,0,4.733,32.668-33.774,35.381-16.153,1.139-17.043-21.44-17.043-21.44,0,0-.295-.519-.536-3.398l-13.128,2.696c-19.234,51.943-31.894,108.644-33.923,127.512-2.646,24.62-2.181,50.867,5.825,73.896,60.858-48.983,107.839-76.362,107.839-76.362,1.494-.626,3.013-1.169,4.523-1.741Z" fill="#d8eef9" stroke-width="0"/>
  <path d="m325.885,988.088c-8.626-6.743-17.261-11.405-25.148-11.8-34.819-1.74-42.231,34.124-35.151,72.623,19.874-21.995,40.279-42.321,60.3-60.823Z" fill="#d8eef9" stroke-width="0"/>
  <path d="m1907.424,812.509c33.695,57.15,49.795,124.66,44.784,190.853-3.836,50.679-19.495,100.303-18.833,151.122.228,17.371,2.666,35.513,12.607,49.761,24.242,34.742,82.525,26.947,109.845-5.429,27.323-32.377,30.912-78.344,28.656-120.648-5.095-95.603-34.262-189.708-83.316-271.871-.539-.902-1.11-1.889-1.665-2.84-12.114,2.994-24.642,4.951-37.496,5.732l-54.582,3.319Z" fill="#d8eef9" stroke-width="0"/>
  <path d="m2124.332,1392.208c32.924-18.951,51.307-56.754,56.644-94.366,3.193-22.505,2.141-46.512-8.83-66.425-25.595-46.456-43.316-24.48-65.345,2.116-22.099,26.678-58.653,36.785-79.113,65.196-15.174,21.072-17.73,51.209-4.27,73.418,19.688,32.486,67.991,39.01,100.914,20.062Z" fill="#d8eef9" stroke-width="0"/>
  <path d="m1883.757,1284.34c-14.93,19.893-9.394,52.287,11.888,65.162,21.279,12.876,53.406,1.773,61.201-21.849,1.945-5.892,2.497-12.18,2.242-18.384-.614-14.891-6.504-30.298-18.656-38.928-12.149-8.631-31.055-8.16-40.446,3.414l-16.229,10.584Z" fill="#d8eef9" stroke-width="0"/>
  <path d="m340.79,1715.47c-.012-.002-.021-.005-.032-.007-75.856-15.956-116.949-44.561-131.239-56.3-.008-.007-.017-.013-.024-.02-1.642-1.349-2.935-2.465-3.879-3.32-.163-.147-.302-.273-.445-.404-.297-.273-.55-.505-.76-.705-.187-.176-.346-.328-.468-.447-.111-.109-.156-.151-.215-.21-.102-.102-.168-.167-.168-.167-3.042-4.198-5.968-8.383-8.843-12.564-2.985,19.759-5.247,39.593-3.512,59.444,2.684,30.694,15.397,59.288,31.346,85.938,3.91,1.512,7.264,3.959,9.993,7.465,3.632,4.666,5.174,9.897,4.802,15.647,2.953,4.36,6.005,8.65,9.049,12.947,2.13.658,4.81,3.044,8.068,7.225,1.966,2.528,3.454,5.892,4.513,10.009,11.393,15.166,23.319,29.926,35.812,44.2,4.202-4.628,8.388-11.2,12.556-19.733,2.8-2.18,10.668,5.036,23.597,21.646,1.42,1.824,2.385,3.269,2.901,4.333,2.483,5.076-.317,12.696-8.409,22.865-.584.735-1.189,1.411-1.782,2.125,10.633,10.86,21.591,21.401,32.856,31.604,38.392,34.77,85.592,67.225,137.205,62.842,10.589-.898,22.761-4.842,26.032-14.952,2.621-8.109-1.672-16.669-5.83-24.105-46.504-83.173-93.01-166.347-139.517-249.521-11.899-1.645-23.072-3.619-33.608-5.835h0Z" fill="#eaf5fb" stroke-width="0"/>
  <path d="m562.59,2294.503c-.798-2.006-1.564-4.056-2.329-6.112-.512-1.379-1.035-2.741-1.533-4.142-.779-2.192-1.522-4.435-2.266-6.68-.438-1.324-.891-2.626-1.318-3.968-.796-2.513-1.555-5.081-2.311-7.654-.331-1.128-.679-2.23-1.002-3.369-.948-3.348-1.854-6.753-2.735-10.194-.103-.4-.215-.786-.316-1.187-.99-3.922-1.937-7.901-2.843-11.935-.095-.428-.18-.871-.275-1.3-.788-3.558-1.55-7.147-2.274-10.785-.227-1.146-.433-2.318-.655-3.472-.568-2.954-1.13-5.914-1.658-8.917-.247-1.407-.473-2.838-.71-4.254-.468-2.782-.934-5.567-1.369-8.387-.241-1.568-.464-3.156-.695-4.735-.399-2.711-.793-5.424-1.162-8.167-.225-1.665-.432-3.344-.645-5.02-.344-2.695-.682-5.394-.999-8.115-.201-1.725-.389-3.461-.58-5.196-.296-2.708-.585-5.423-.857-8.155-.175-1.764-.343-3.534-.507-5.306-.255-2.739-.5-5.485-.731-8.244-.148-1.78-.293-3.563-.432-5.35-.217-2.79-.422-5.588-.616-8.397-.122-1.771-.243-3.544-.355-5.322-.181-2.842-.348-5.693-.505-8.55-.098-1.774-.196-3.547-.286-5.326-.146-2.914-.276-5.836-.4-8.763-.073-1.71-.149-3.417-.213-5.13-.115-3.051-.212-6.111-.305-9.173-.048-1.611-.102-3.22-.144-4.834-.083-3.205-.147-6.415-.206-9.627-.009-.427-.019-.852-.028-1.279-17.497-1.353-35.034-3.305-53.201-8.828-40.353-12.267-79.975-28.398-121.891-33.089-41.913-4.689-88.005,4.048-116.983,34.691-31.697,33.515-35.69,83.863-37.407,129.96-.3,8.075-.522,16.49,2.823,23.847,6.361,13.992,23.909,19.705,39.184,17.985,15.275-1.723,29.231-9.08,43.574-14.602,61.762-23.776,135.903-11.787,187.023,30.244,22.926,18.85,44.506,44.543,74.152,45.92,6.41.298,12.67-.658,18.698-2.528-.34-.79-.661-1.607-.995-2.407-.575-1.378-1.157-2.747-1.716-4.151Z" fill="#eaf5fb" stroke-width="0"/>
  <path d="m225.58,1971.945c3.092-1.925,6.212-4.147,7.828-7.41,1.79-3.62,1.428-7.904.729-11.88-21.338-121.352-160.204-20.836-104.786,19.843,22.253,16.335,52.659,17.657,78.779,7.982,6.103-2.261,11.973-5.123,17.45-8.535Z" fill="#eaf5fb" stroke-width="0"/>
  <path d="m2303.593,1705.018c-1.507-18.535-7.357-37.741-21.243-50.109-13.886-12.371-37.236-15.177-50.707-2.357-8.802,8.378-11.689,21.03-14.574,32.834-18.527,69.481-48.394,129.178-95.718,183.428-18.616,21.341-26.779,32.696-28.347,60.991-1.136,20.477-7.985,74.694,21.021,75.583,41.524,1.271,72.772-36.235,95.342-71.111,19.436-30.031,37.626-60.867,54.509-92.402,22.738-42.48,43.619-88.83,39.716-136.857Z" fill="#eaf5fb" stroke-width="0"/>
  <path d="m2228.128,2044.055c-23.123-24.702-84.565-3.12-105.331,16.156-22.811,21.176-33.594,54.501-50.48,80.079-18.816,28.504-95.053,83.37-90.959,118.215,1.622,13.796,18.202,19.669,31.936,21.757,50.772,7.721,103.148,4.733,152.713-8.712,19.461-5.281,40.862-14.428,47.334-33.527,8.37-24.702-12.994-49.531-14.562-75.569-2.085-34.59,56.83-89.04,29.349-118.398Z" fill="#eaf5fb" stroke-width="0"/>
  <path d="m2085.493,758.901c9.507,5.552,19.966,8.717,31.582,8.12,6.043-16.044,7.207-32.89,5.33-49.794-10.405,15.497-22.83,29.51-36.912,41.674Z" fill="#eaf5fb" stroke-width="0"/>
  <path d="m1844.178,247.819c9.902-.392,19.814-.056,29.663.96-23.314-29.767-57.141-51.363-93.392-45.402l-77.564,28.075c-14.518-3.067-26.625,10.503-29.265,25.427,9.985-1.889,20.186-3.103,30.569-3.514l139.989-5.547Z" fill="#eaf5fb" stroke-width="0"/>
  <path d="m2063.722,293.595c9.816-19.095,26.569-34.453,45.021-48.13,14.545-10.78,31.038-23.53,31.857-41.615.435-9.613-3.911-18.878-9.635-26.614-15.573-21.044-42.475-33.143-68.549-30.827-26.078,2.318-50.426,18.965-62.046,42.424-6.874,13.88-11.397,44.443-11.229,77.808l.199.032c27.042,4.264,52.115,13.615,74.381,26.923Z" fill="#eaf5fb" stroke-width="0"/>
  <path d="m494.12,270.912c-1.016-3.612-2.104-7.189-3.272-10.733-.291-3.566,1.718-6.271,6.027-8.114,15.014-6.42,25.407-11.919,31.184-16.498,1.148-1.019,2.093-1.687,2.834-2.006,5.353-2.287,11.142,3.849,17.371,18.42,2.754,6.44,3.92,14.499,3.539,24.132,6.708-9.617,11.359-19.617,12.413-29.993,3.66-36.054-16.547-40.352-39.866-36.521-4.609,10.456-12.258,18.027-23.032,22.635-11.445,4.894-22.876,4.989-34.293.289-5.369-2.212-9.952-5.235-13.879-8.938-37.6.86-75.943-8.201-111.937,4.416-30.836,10.808-54.419,39.966-58.547,72.379-2,15.704.236,31.647-.735,47.446-2.607,42.413-27.632,79.624-43.01,119.237-4.564,11.752-8.249,23.834-11.114,36.109,6.181,6.534,13.349,6.697,21.532.328,5.668-4.411,11.305-12.357,16.911-23.836,2.803-2.18,10.668,5.037,23.597,21.65,1.419,1.821,2.388,3.266,2.901,4.332,2.486,5.073-.317,12.696-8.409,22.865-5.862,7.387-12.147,13.692-18.858,18.914-11.79,9.178-24.121,13.493-36.998,12.949-2.662-.114-5.213-.503-7.702-1.04-.376,17.464.85,34.962,3.864,52.171,4.222,24.121,22.27,53.619,45.359,45.463,12.015-4.245,18.185-17.194,23.345-28.847,24.282-54.868,53.487-107.548,87.037-157.284,22.803-33.806,47.688-66.196,74.332-97.065,1.545-17.044,8.005-33.19,19.43-48.429,16.981-22.382,23.639-40.527,19.978-54.43Z" fill="#eaf5fb" stroke-width="0"/>
  <path d="m163.579,450.19c23.036,2.407,44.804-14.646,54.256-35.794,18.471-41.316,4.618-122.009-9.719-164.61-19.548-58.083-80.884-34.938-98.154,13.106-15.466,43.03-15.303,91.475.447,134.391,9.091,24.767,26.93,50.165,53.17,52.907Zm-12.983-29.899c.645-6.361,3.476-11.493,8.494-15.398,5.017-3.903,10.687-5.387,17.011-4.453,6.324.934,11.436,3.911,15.342,8.928,3.906,5.017,5.497,10.654,4.776,16.919-.721,6.263-3.592,11.347-8.609,15.252-5.017,3.903-10.648,5.435-16.896,4.599-6.249-.839-11.327-3.766-15.23-8.779-3.906-5.019-5.533-10.707-4.888-17.068Z" fill="#eaf5fb" stroke-width="0"/>
  <path d="m2063.722,293.595c-22.266-13.307-47.339-22.659-74.381-26.923l-.199-.032-104.253-16.441c-3.67-.579-7.354-1.038-11.046-1.419-9.849-1.017-19.762-1.352-29.663-.96l-139.989,5.547c-10.383.412-20.585,1.625-30.569,3.514-39.711,7.515-75.791,26.296-104.365,53.313-27.696,26.185-48.354,60.069-58.457,98.835l-15.199,58.322c-6.908,26.507-8.521,54.116-4.75,81.246l8.766,63.05c8.729,62.797,45.187,116.602,96.904,148.566l-25.805,1.021c-21.944.87-40.738,15.996-46.276,37.25l-3.636,13.956c-1.653,6.342-2.04,12.949-1.137,19.442l2.096,15.087c2.971,21.369,19.349,38.4,40.584,42.211l32.918,5.907c3.9.701,7.873.934,11.829.693l25.317-1.541c25.199-1.532,45.278-21.656,46.751-46.86l1.018-17.455.78-13.339c.583-9.969-1.843-19.455-6.485-27.587l132.295,23.738c16.307,2.924,32.904,3.894,49.444,2.89l51.212-3.114,54.582-3.319c12.854-.781,25.382-2.739,37.496-5.732,15.667-3.872,30.634-9.5,44.671-16.68,14.917-7.63,28.763-17.028,41.32-27.876,14.083-12.164,26.507-26.177,36.912-41.674,20.142-29.999,32.733-65.511,34.976-103.865l4.265-72.943,3.258-55.754c4.659-79.673-36.271-152.276-101.182-191.07Z" fill="#b0dff8" stroke-width="0"/>
  <path d="m1652.787,908.64l-14.186-2.239c-1.83-.286-3.682-.396-5.53-.323l-19.015.755c-12.458.494-23.125,9.08-26.271,21.145l-2.065,7.921c-.94,3.603-1.158,7.351-.645,11.038l1.192,8.563c1.684,12.13,10.982,21.802,23.036,23.962l18.687,3.352c2.214.399,4.467.53,6.714.393l14.372-.872c14.307-.87,25.704-12.295,26.541-26.602l.578-9.908.443-7.572c.85-14.537-9.467-27.346-23.85-29.613Z" fill="#b0dff8" stroke-width="0"/>
  <path d="m1553.023,992.481l-7.649-1.207c-.985-.154-1.984-.213-2.98-.174l-10.253.407c-6.717.267-12.469,4.896-14.164,11.4l-1.111,4.271c-.505,1.942-.623,3.961-.348,5.949l.64,4.618c.909,6.54,5.923,11.754,12.421,12.918l10.073,1.807c1.195.216,2.411.286,3.623.213l7.747-.472c7.71-.468,13.856-6.627,14.307-14.341l.311-5.342.238-4.082c.46-7.837-5.101-14.742-12.856-15.965Z" fill="#b0dff8" stroke-width="0"/>
  <path d="m1893.084,1259.489c9.478-16.653,11.19-33.294,5.135-49.921-5.727-15.698-17.006-28.342-33.844-37.926-9.585-5.454-20.252-9.865-32.012-13.232-16.195-4.661-26.717-4.243-31.566,1.249-1.024,1.145-2.276,3.019-3.757,5.623-13.504,23.723-18.254,36.725-14.256,39.004,16.534,1.033,28.849,3.855,36.941,8.462,12.747,7.253,15.704,16.883,8.872,28.886-4.501,7.907-14.658,15.092-30.465,21.552-15.811,6.459-25.968,13.645-30.469,21.552-5.191,9.119-6.111,14.63-2.761,16.537.465.264,1.195.494,2.191.693,4.73,1.212,11.793,4.492,21.19,9.843,2.699,1.535,4.93,1.512,6.692-.07,1.403-2.034,2.856-4.041,4.352-6.024,5.87-7.497,18.106-11.248,36.712-11.254,24.843-.146,43.858-11.804,57.045-34.972Z" fill="#b0dff8" stroke-width="0"/>
  <path d="m1776.044,1317.407c-7.166-4.08-14.68-4.997-22.542-2.761-7.865,2.239-13.835,6.939-17.913,14.102-4.08,7.166-5.112,14.768-3.098,22.812,2.009,8.041,6.597,14.102,13.762,18.181,7.163,4.077,14.717,4.927,22.663,2.551,7.94-2.377,13.95-7.147,18.03-14.31,4.077-7.166,5.067-14.7,2.979-22.604-2.093-7.903-6.72-13.894-13.883-17.971Z" fill="#b0dff8" stroke-width="0"/>
  <path d="m2169.093,1521.584c-18.892-17.048-33.451-23.451-43.667-19.208-2.143.878-5.084,2.592-8.819,5.143-34.037,23.257-49.093,37.755-45.174,43.496,21.754,12.348,36.599,24.332,44.531,35.943,12.494,18.285,10.135,33.314-7.085,45.078-11.347,7.753-29.888,10.774-55.62,9.077-25.735-1.703-44.276,1.324-55.617,9.074-13.084,8.94-17.98,15.808-14.697,20.614.454.668,1.293,1.465,2.517,2.39,5.611,4.779,13.025,13.908,22.239,27.39,2.643,3.87,5.687,5.314,9.128,4.335,3.252-1.829,6.549-3.594,9.896-5.292,12.926-6.291,32.017-3.28,57.27,9.032,18.868,9.067,37.646,12.054,56.336,8.99,14.803-2.427,29.549-8.644,44.239-18.681,23.892-16.324,37.23-37.772,40.022-64.349,2.627-25.098-4.313-49.725-20.819-73.88-3.029-4.433-6.366-8.767-9.846-13.055-7.31-9.01-15.533-17.727-24.835-26.098Z" fill="#b0dff8" stroke-width="0"/>
  <path d="m1924.972,1688.68c-10.28,7.022-16.714,16.658-19.309,28.905-2.596,12.248-.382,23.51,6.641,33.788,7.023,10.278,16.711,16.434,29.066,18.468,12.351,2.031,23.665-.46,33.945-7.483,10.277-7.023,16.61-16.591,19.009-28.701,2.393-12.113.081-23.305-6.942-33.583-7.023-10.281-16.611-16.504-28.763-18.673-12.158-2.169-23.37.256-33.648,7.279Z" fill="#b0dff8" stroke-width="0"/>
  <path d="m519.484,477.637c24.111,7.447,49.616,5.421,76.515-6.083,15.311-6.546,30.356-15.351,45.14-26.42,20.39-15.224,29.498-28.263,27.32-39.108-.446-2.275-1.557-5.491-3.336-9.651-16.206-37.901-27.506-55.488-33.898-52.755-16.338,18.942-30.973,31.178-43.905,36.706-20.362,8.709-34.646,3.477-42.845-15.698-.202-.474-.337-1.015-.522-1.506-4.764-12.604-3.998-30.838,2.416-54.818,3.268-12.213,5.065-22.929,5.433-32.19.382-9.633-.784-17.691-3.539-24.132-6.229-14.57-12.017-20.707-17.371-18.42-.741.319-1.687.987-2.834,2.006-5.777,4.579-16.17,10.079-31.184,16.498-4.31,1.843-6.319,4.548-6.027,8.114,1.168,3.544,2.256,7.121,3.272,10.733,3.662,13.903-2.997,32.048-19.978,54.43-11.425,15.239-17.885,31.385-19.43,48.429-1.499,16.524,1.623,33.893,9.413,52.112,2.751,6.434,5.938,12.293,9.515,17.633,11.22,16.741,26.487,28.132,45.844,34.121Z" fill="#b0dff8" stroke-width="0"/>
  <path d="m501.317,232.233c10.774-4.608,18.423-12.179,23.032-22.635.287-.654.605-1.281.868-1.958,4.487-11.504,4.285-22.974-.609-34.419-4.893-11.448-13.098-19.632-24.607-24.554-11.509-4.924-22.988-4.938-34.436-.045-11.445,4.894-19.363,13.205-23.756,24.927-4.391,11.723-4.144,23.308.752,34.753,2.593,6.062,6.163,11.111,10.585,15.281,3.926,3.703,8.51,6.727,13.879,8.938,11.417,4.7,22.848,4.605,34.293-.289Z" fill="#b0dff8" stroke-width="0"/>
  <path d="m265.476,547.423c6.712-5.222,12.997-11.527,18.858-18.914,8.092-10.168,10.895-17.792,8.409-22.865-.513-1.067-1.481-2.511-2.901-4.332-12.929-16.613-20.794-23.83-23.597-21.65-5.606,11.479-11.243,19.425-16.911,23.836-8.183,6.369-15.35,6.205-21.532-.328-.56-.593-1.125-1.158-1.67-1.858-4.31-5.539-6.436-14.893-6.383-28.061.053-13.171-2.076-22.525-6.386-28.061-4.97-6.386-8.625-8.664-10.971-6.838-.325.253-.707.705-1.139,1.358-2.259,3.011-6.678,7.079-13.258,12.199-1.888,1.47-2.528,3.067-1.922,4.79,1.038,1.599,2.039,3.224,3.011,4.876,3.617,6.392,2.685,16.215-2.792,29.475-7.21,17.75-4.503,34.737,8.12,50.957,7.304,9.383,16.108,15.115,26.364,17.324,2.489.537,5.04.926,7.702,1.04,12.876.544,25.208-3.771,36.998-12.949Z" fill="#b0dff8" stroke-width="0"/>
  <path d="m170.714,446.138c6.248.836,11.88-.696,16.896-4.599,5.017-3.906,7.887-8.99,8.609-15.252.721-6.265-.87-11.902-4.776-16.919-3.906-5.017-9.018-7.994-15.342-8.928-6.324-.934-11.995.55-17.011,4.453-5.017,3.906-7.848,9.037-8.494,15.398-.645,6.361.982,12.048,4.888,17.068,3.903,5.014,8.982,7.94,15.23,8.779Z" fill="#b0dff8" stroke-width="0"/>
  <path d="m333.843,1890.447c-.517-1.064-1.481-2.509-2.901-4.333-12.929-16.61-20.797-23.827-23.597-21.646-4.168,8.533-8.355,15.105-12.556,19.733-1.45,1.597-2.904,2.97-4.357,4.102-8.922,6.944-16.658,6.217-23.199-2.186-4.31-5.538-6.436-14.893-6.386-28.061.029-7.16-.61-13.151-1.87-18.055-1.059-4.117-2.547-7.481-4.513-10.009-3.258-4.182-5.938-6.567-8.068-7.225-1.121-.347-2.097-.241-2.905.388-.326.255-.704.707-1.139,1.358-2.259,3.013-6.675,7.079-13.255,12.203-1.891,1.47-2.531,3.067-1.922,4.79,1.035,1.599,2.04,3.224,3.01,4.876,3.614,6.389,2.685,16.215-2.791,29.475-7.214,17.75-4.506,34.733,8.12,50.957,9.077,11.658,20.429,17.78,34.065,18.364,12.873.544,25.207-3.774,36.998-12.949,6.041-4.705,11.721-10.334,17.076-16.792.592-.714,1.198-1.39,1.782-2.125,8.092-10.169,10.892-17.789,8.409-22.865Z" fill="#b0dff8" stroke-width="0"/>
  <path d="m232.544,1794.173c-2.729-3.506-6.083-5.953-9.993-7.465-1.687-.652-3.446-1.181-5.352-1.463-6.322-.937-11.993.548-17.012,4.453-5.014,3.906-7.845,9.038-8.493,15.398-.642,6.361.985,12.048,4.891,17.065,3.903,5.017,8.981,7.943,15.227,8.782,6.251.836,11.882-.696,16.899-4.602,5.017-3.903,7.884-8.99,8.605-15.25.051-.436.003-.844.03-1.273.372-5.749-1.171-10.981-4.802-15.647Z" fill="#b0dff8" stroke-width="0"/>
  <path d="m1758.735,595.218c-12.997-7.396-26.625-9.063-40.884-5.006-14.265,4.06-25.095,12.584-32.492,25.578-7.396,12.997-9.271,26.784-5.62,41.375,3.648,14.587,11.97,25.58,24.967,32.977,12.994,7.396,26.692,8.94,41.102,4.63,14.403-4.313,25.306-12.963,32.705-25.96,7.396-12.994,9.195-26.658,5.404-40.993-3.796-14.338-12.189-25.204-25.182-32.601Z" fill="#eaf5fb" stroke-width="0"/>
  <path d="m1743.536,535.961c-9.416,16.54-11.083,26.534-5.009,29.991.845.483,2.169.9,3.979,1.26,8.575,2.2,21.386,8.151,38.432,17.854,4.893,2.783,8.939,2.741,12.138-.129,2.545-3.687,5.177-7.329,7.895-10.923,10.643-13.6,32.837-20.404,66.582-20.415,45.062-.267,79.551-21.411,103.471-63.431,17.191-30.204,20.294-60.387,9.312-90.55-10.384-28.477-30.847-51.406-61.386-68.791-17.385-9.893-36.737-17.892-58.061-23.998-29.375-8.454-48.462-7.697-57.259,2.261-1.852,2.076-4.122,5.477-6.81,10.199-24.494,43.033-33.114,66.613-25.859,70.743,29.989,1.877,52.326,6.995,67.006,15.351,23.117,13.16,28.485,30.626,16.091,52.393-8.165,14.346-26.588,27.377-55.261,39.094-28.678,11.715-47.102,24.748-55.264,39.091Z" fill="#eaf5fb" stroke-width="0"/>
  <g clip-path="url(#clippath)">
    <g>
      <path d="m1054.697,1746.388s1.749-130.28-220.894-69.253c-220.267,60.376-455.243,773.475-455.243,773.475,0,0,96.078,73.406,133.888,84.805,37.772,11.387,273.736-423.849,305.462-406.027,22.456,12.609,43.513,284.371,43.513,284.371,0,0,264.903-563.264,193.275-667.37Z" fill="#254a63" stroke-width="0"/>
      <path d="m1121.279,1795.659s193.459-176.047,332.513-147.855c207.846,42.14,403.151,582.11,408.314,633.741,5.163,51.631-43.886,225.883-247.826,117.459-71.403-37.96-163.005-270.037-151.877-246.683,11.174,23.341-22.645,199.363-22.645,199.363,0,0-373.031-438.236-318.48-556.025Z" fill="#254a63" stroke-width="0"/>
      <path d="m1481.338,2241.625c6.268-208.529-41.743-499.737-27.199-590.53,0,0-197.667-55.706-323.249-44.329-125.718,11.417-213.457,44.293-227.149,50.096-23.304,9.924-159.921,1288.206-146.658,1347.819,16.111,72.454,764.68,68.748,703.55-33.345,0,0,18.577-658.66,20.705-729.711Z" fill="#0b8a85" stroke-width="0"/>
      <path d="m766.202,1719.379s-78.153,1397.707-78.153,1437.952,148.688,24.113,168.807,28.134c20.117,4.017,113.307-1511.156,113.307-1543.581,0-10.727-203.961,36.766-203.961,77.494Z" fill="#254a63" stroke-width="0"/>
      <path d="m1470.942,1647.805s-81.438-27.857-141.432-30.006c-12.067-.432-47.122,870.85-47.122,991.599,0,28.454-16.111,539.382-20.128,551.454-4.016,12.059,285.78-28.187,301.881-52.335,16.112-24.162-48.927-1335.941-93.199-1460.712Z" fill="#254a63" stroke-width="0"/>
      <path d="m1271.646,1611.368l-15.307-393.865-153.445,10.704-22.032,384.8c45.291,31.96,141.684,32.605,190.784-1.638Z" fill="#eeab67" stroke-width="0"/>
      <g>
        <path d="m898.065,1049.029c25.14,65.123,24.636,115.261-17.898,134.118-42.485,18.87-134.358-5.969-159.489-71.106-25.169-65.195-11.061-133.26,31.471-152.127,42.486-18.851,120.795,23.958,145.916,89.115Z" fill="#fbca8e" stroke-width="0"/>
        <path d="m793.076,1126.341c34.159,223.029,193.159,372.753,417.514,352.944,204.1-18.019,345.232-303.289,350.969-563.517,5.737-260.242-133.716-466.095-380.147-462.28-377.426,5.839-460.314,202.842-388.336,672.853Z" fill="#fbca8e" stroke-width="0"/>
        <path d="m1441.215,1028.26c-25.949,64.841-26.064,114.947,16.237,134.35,42.234,19.379,134.412-4.294,160.352-69.131,25.977-64.871,12.703-133.086-29.565-152.499-42.248-19.394-121.094,22.443-147.024,87.279Z" fill="#fbca8e" stroke-width="0"/>
      </g>
      <path d="m810.97,1281.014c48.103,108.956,115.306,187.515,192.268,217.756,139.275,54.747,259.94,37.731,363.062-20.384,232.035-130.763,185.695-793.112,185.695-793.112l-65.528,12.807s17.2,434.785-43.224,505.99c-25.722,30.339-129.848-28.771-267.634-30.104-162.884-1.598-296.686,70.942-320.47,38.441-28.527-38.88-71.888-266.269-20.629-517.657,20.404-100.19-100.171-3.224-100.171-3.224,0,0,14.453,448.623,76.631,589.488Z" fill="#231e1a" stroke-width="0"/>
      <path d="m1024.207,429.104l41.365-29.725c55.018-45.678,239.837-92.955,306.669-37.935-15.817.302-4.86,9.662-20.754,10.48,92.185,20.726,243.45,60.249,254.056,261.225,4.811,91.191-9.203,217.046-26.51,304.051-21.105,2.142-20.029-7.359-36.781,6.13-13.042,10.509-16.076,15.724-20.869,25.337,4.081-101.983-28.966-240.363-102.752-321.035-34.449-37.644-126.361-20.804-176.248-31.459-62.499-13.352-120.975-35.49-168.903-76.241-55.564-47.218-88.017-72.199-49.274-110.826Z" fill="#231e1a" stroke-width="0"/>
      <path d="m1103.458,397.635c59.655,20.357,137.153,36.261,171.007,93.812l-18.525-5.571c62.567,74.945-123.487,278.912-171.455,327.58-54.785,55.604-125.942,83.721-194.382,100.191-1.618-12.019-.214-25.246,2.561-37.79,2.795-7.129,4.87-13.966,5.502-19.79-2.084,6.164-4.012,12.875-5.502,19.79-7.665,19.284-21.418,40.917-32.385,52.166-25.566,26.248-85.922,108.206-91.669,171.942-83.244-331.34-98.827-523.18,55.867-662.368,78.452-70.632,237.966-53.948,278.979-39.962Z" fill="#231e1a" stroke-width="0"/>
    </g>
    <g>
      <path d="m1374.571,1497.09c-47.17-23.27-154.304-99.047-180.369-110.516-26.065-11.468-66.727,11.469-32.32,39.619,34.405,28.15,62.556,53.172,62.556,53.172-33.364-19.809-52.322-22.398-62.485-5.249-10.162,17.149,3.176,41.921,31.123,70.503-15.244,4.446-29.853,29.217-15.244,48.907-22.866,4.447-16.514,33.028,5.716,56.529,22.23,23.501,128.302,124.491,187.372,134.019,59.069,9.527,108.831-42.428,116.869-102.26,5.716-42.556,7.347-106.388-22.23-126.397-43.191-29.217-71.457-48.692-90.987-58.327Z" fill="#fbca8e" stroke-width="0"/>
      <path d="m1365.607,1436.679c4.629-25.541,19.168-44.536,36.08-38.335,16.913,6.201-.564,42.281,27.06,76.106,27.624,33.825,49.61,71.033,41.154,106.549-8.456,35.516-120.642-54.12-104.294-144.321Z" fill="#fbca8e" stroke-width="0"/>
      <path d="m1472.561,1660.292c74.131,166.052,333.588,432.922,372.135,554.497,38.548,121.574-57.822,223.874-177.914,189.774-120.091-34.1-180.879-299.487-210.53-407.718-29.652-108.231-66.718-209.048-94.887-235.735,7.655-54.202,69.415-96.974,111.196-100.818Z" fill="#fbca8e" stroke-width="0"/>
    </g>
  </g>
</svg>