<?xml version="1.0" encoding="UTF-8"?>
<svg xmlns="http://www.w3.org/2000/svg" viewBox="0 0 2436 2436">
  <g isolation="isolate">
    <g id="Layer_1" data-name="Layer 1">
      <path d="m2314.514,1679.836c-24.874,55.38-54.285,108.361-87.919,158.005-1.877,2.868-3.859,5.684-5.788,8.5-1.929,2.764-3.859,5.58-5.84,8.343-1.669,2.347-3.337,4.693-5.058,7.04-1.564,2.19-3.129,4.38-4.745,6.518-1.043,1.408-2.034,2.816-3.077,4.224-.052.052-.052.104,0,.104v.104c-2.503,3.337-4.902,6.414-7.457,9.647v.052c-17.782,23.414-36.503,45.837-56.266,67.321-10.064,11.003-20.389,21.745-30.975,32.175-7.248,7.196-14.601,14.236-22.058,21.119-265.896,245.611-637.963,309.439-987.45,296.193-231.114-8.708-468.799-49.696-664.245-183.296-34.313-23.414-66.748-49.748-97.149-78.481-19.19-18.147-37.598-37.285-55.119-57.309-30.558-34.834-58.561-72.275-83.748-111.855-6.362-10.012-12.567-20.129-18.512-30.402-8.187-13.923-16.009-28.055-23.466-42.447-3.859-7.301-7.561-14.705-11.212-22.162-8.552-17.469-16.583-35.251-24.092-53.242-1.617-3.807-3.181-7.613-4.745-11.472-39.319-97.358-63.775-201.808-70.972-307.457-1.199-17.73-1.929-35.512-2.138-53.242-.73-55.328,3.39-110.707,12.62-165.305,3.233-19.242,7.144-38.328,11.629-57.205,4.537-19.294,9.751-38.432,15.54-57.309,93.186-303.494,341.352-549.366,632.175-613.819,96.732-21.432,199.044-25.239,286.963-73.788,63.15-34.886,114.149-90.475,172.658-133.756,111.959-82.757,252.859-111.698,386.251-91.935,415.609,61.69,807.909,555.362,846.028,991.1,15.957,182.67-17.782,369.042-91.83,534.034Z" fill="#94babf" stroke-width="0"/>
      <g>
        <g>
          <rect x="1292.514" y="612.765" width="454.129" height="321.88" fill="#94babf" mix-blend-mode="screen" opacity=".31" stroke-width="0"/>
          <rect x="1329.29" y="647.43" width="380.578" height="252.549" fill="#94babf" mix-blend-mode="screen" opacity=".31" stroke-width="0"/>
        </g>
        <g>
          <rect x="1702.077" y="1002.962" width="454.129" height="321.88" fill="#94babf" mix-blend-mode="screen" opacity=".31" stroke-width="0"/>
          <rect x="1738.853" y="1037.627" width="380.578" height="252.549" fill="#94babf" mix-blend-mode="screen" opacity=".31" stroke-width="0"/>
        </g>
      </g>
      <g>
        <g>
          <path d="m1301.199,1067.999v969.407H336.485c-19.19-18.147-37.598-37.285-55.119-57.309-48.757-55.536-90.944-117.799-125.726-184.704-3.859-7.301-7.561-14.705-11.212-22.162-8.552-17.469-16.583-35.251-24.092-53.242-1.617-3.807-3.181-7.613-4.745-11.472-39.319-97.358-63.775-201.808-70.972-307.457-1.199-17.73-1.929-35.512-2.138-53.242-.73-55.328,3.39-110.707,12.62-165.305,3.233-19.242,7.144-38.328,11.629-57.205,4.537-19.294,9.751-38.432,15.54-57.309h1218.929Z" fill="#94babf" mix-blend-mode="screen" opacity=".31" stroke-width="0"/>
          <path d="m1258.126,1125.308v854.789H281.366c-48.757-55.536-90.944-117.799-125.726-184.704-3.859-7.301-7.561-14.705-11.212-22.162-8.552-17.469-16.583-35.251-24.092-53.242-1.617-3.807-3.181-7.613-4.745-11.472-39.319-97.358-63.775-201.808-70.972-307.457-1.199-17.73-1.929-35.512-2.138-53.242-.73-55.328,3.39-110.707,12.62-165.305,3.233-19.242,7.144-38.328,11.629-57.205h1191.396Z" fill="#94babf" stroke-width="0"/>
          <g mix-blend-mode="screen" opacity=".31">
            <path d="m155.641,1120.511v674.883c-3.859-7.301-7.561-14.705-11.212-22.162-8.552-17.469-16.583-35.251-24.092-53.242-1.617-3.807-3.181-7.613-4.745-11.472v-588.006h40.049Z" fill="#94babf" stroke-width="0"/>
            <rect x="407.028" y="1120.503" width="40.018" height="864.407" fill="#94babf" stroke-width="0"/>
            <rect x="698.442" y="1120.503" width="40.018" height="864.407" fill="#94babf" stroke-width="0"/>
            <rect x="989.855" y="1120.503" width="40.018" height="864.407" fill="#94babf" stroke-width="0"/>
          </g>
          <g mix-blend-mode="screen" opacity=".31">
            <path d="m1258.126,1347.818v53.242H44.62c-1.199-17.73-1.929-35.512-2.138-53.242h1215.644Z" fill="#94babf" stroke-width="0"/>
            <path d="m1258.126,1719.989v53.242H144.429c-8.552-17.469-16.583-35.251-24.092-53.242h1137.789Z" fill="#94babf" stroke-width="0"/>
          </g>
        </g>
        <g mix-blend-mode="screen" opacity=".31">
          <path d="m2209.908,1861.724c-2.555,3.598-5.215,7.196-7.822,10.742-.469-21.902-1.147-44.95-2.034-67.947-1.356-36.086-3.233-72.067-5.371-103.459v-.052c-1.147-16.687-2.399-32.07-3.702-45.472-.052-.574-.104-1.199-.156-1.773-3.025-31.027-7.353-63.306-21.902-89.588-.365-.73-.73-1.408-1.147-2.086l6.988-4.067c.834,1.408,1.617,2.868,2.347,4.328,9.856,18.616,14.966,39.631,18.199,60.959,1.095,6.936,1.929,13.923,2.659,20.859.417,3.546.73,7.092,1.095,10.586,3.494,36.19,6.518,86.616,8.604,138.189v.052c.469,10.951.886,21.902,1.252,32.852,0,0,.052,0,0,.052.209,5.84.365,11.577.521,17.313.156,6.258.365,12.411.469,18.512Z" fill="#94babf" stroke-width="0"/>
          <path d="m2202.061,1606.351c7.614-14.373,19.633-26.066,32.348-36.461,31.225-25.528,67.891-44.702,106.978-55.943-1.375,39.149-19.72,77.464-49.618,103.636-19.265,16.863-44.07,28.803-70.113,30.612-7.975.553-20.138,1.602-25.269-5.88-6.441-9.393,1.086-27.303,5.674-35.963Z" fill="#94babf" stroke-width="0"/>
          <path d="m2314.514,1679.836c-26.282,58.561-57.674,114.41-93.708,166.504-2.503-.052-4.954-.417-7.196-1.147-1.512-.469-2.92-1.147-4.172-1.982-1.095-.73-2.086-1.564-2.972-2.607-6.101-6.988-5.788-19.294-3.598-30.402,1.199-6.518,3.129-12.62,4.745-17,0-.052.052-.156.052-.209,7.196-19.711,20.337-36.711,34.573-52.199,21.38-23.257,45.785-43.751,72.275-60.959Z" fill="#94babf" stroke-width="0"/>
          <path d="m2214.966,1854.684c-1.669,2.347-3.337,4.693-5.058,7.04-2.555,3.598-5.215,7.196-7.822,10.742v.209c-2.503,3.337-4.902,6.414-7.457,9.647v.052c-11.577.261-25.135-4.276-33.113-7.509-19.503-8.031-36.033-21.954-50.895-36.868-36.555-36.659-65.444-80.88-84.321-129.115,50.947-2.659,102.729,16.27,139.962,51.156,13.558,12.724,25.239,27.846,33.791,44.481.991,1.877,1.877,3.755,2.816,5.684v.052c2.347,5.058,4.38,10.273,6.049,15.592v.052c2.086,6.31,3.65,12.724,4.693,19.294.052.052.052.104.052.156.469,2.816.991,5.997,1.304,9.334Z" fill="#94babf" stroke-width="0"/>
          <path d="m2149.797,1540.199c-4.877-12.622-5.767-26.184-5.486-39.388.69-32.428,8.19-64.257,21.882-92.866,23.516,23.425,37.549,55.967,37.958,88.016.264,20.651-5.449,41.586-18.09,57.362-3.87,4.831-9.647,12.316-16.993,10.889-9.219-1.791-16.333-16.41-19.271-24.013Z" fill="#94babf" stroke-width="0"/>
          <path d="m2192.487,1656.863c-8.324-16.117-21.462-29.229-35.361-40.885-34.134-28.625-74.214-50.125-116.942-62.731,1.503,43.899,21.556,86.863,54.238,116.21,21.059,18.909,48.175,32.297,76.643,34.326,8.718.621,22.014,1.797,27.623-6.594,7.041-10.532-1.187-30.616-6.202-40.326Z" fill="#94babf" stroke-width="0"/>
          <path d="m2314.514,1679.836c-26.282,58.561-57.674,114.41-93.708,166.504-2.503-.052-4.954-.417-7.196-1.147-1.512-.469-2.92-1.147-4.172-1.982-1.095-.73-2.086-1.564-2.972-2.607-6.101-6.988-5.788-19.294-3.598-30.402,1.199-6.518,3.129-12.62,4.745-17,0-.052.052-.156.052-.209,7.196-19.711,20.337-36.711,34.573-52.199,21.38-23.257,45.785-43.751,72.275-60.959Z" fill="#94babf" stroke-width="0"/>
          <path d="m2105.51,1949.695h32.852c-10.064,11.003-20.389,21.745-30.975,32.175h-1.877v-32.175Z" fill="#94babf" stroke-width="0"/>
        </g>
      </g>
      <path d="m398.86,1007.319s24.205-8.311,34.289-30.405,78.449,0,78.449,0l1.44,32.21v54.664l-46.519,12.119-60.42-35.191-7.24-33.397" fill="#fff" stroke-width="0"/>
      <path d="m1876.568,949.556s-33.864-33.375-39.385-38.797c-5.521-5.422-110.548,10.49-110.548,10.49l-23.75,16.549,10.147,18.896,2.146,38.637,92.035-13.151,69.356-32.625Z" fill="#fff" stroke-width="0"/>
      <g id="Layer18">
        <rect x="1488.942" y="1532.129" width="467.105" height="123.349" fill="#bda675" stroke-width="0"/>
        <rect x="1488.942" y="1655.475" width="467.105" height="48.483" fill="#a38a54" stroke-width="0"/>
        <rect x="1903.554" y="1655.475" width="52.488" height="523.043" fill="#a38a54" stroke-width="0"/>
        <rect x="1488.942" y="1655.475" width="52.488" height="523.043" fill="#8a723f" stroke-width="0"/>
      </g>
      <path d="m1702.885,967.812s-159.033,225.354-189.053,285.552c-42.566,85.357,69.805,146.209,117.371,46.207,47.567-100.002,71.683-331.76,71.683-331.76Z" fill="#a5743f" fill-rule="evenodd" stroke-width="0"/>
      <path d="m1504.472,1287.174c.52-10.555,3.443-21.947,9.36-33.81,30.02-60.199,189.053-285.552,189.053-285.552,0,0-4.211,40.475-12.589,94.908-19.85,39.287-39.008,83.393-45.259,117.427-14.569,79.334-32.16,73.014-32.16,73.014,0,0-8.472-33.372-30.535-23.053-17.93,8.385-55.816,16.235-77.87,57.066Z" fill="#b4824c" fill-rule="evenodd" stroke-width="0"/>
      <path d="m1701.895,976.789l-12.757,10.612c-12.81,18.305-33.299,47.719-55.949,80.758-8.569,12.502-19.464,38.472-20.607,83.905-2.454,97.471-6.396,173.036-57.653,198.753,26.203,3.797,56.72-10.126,76.278-51.247,41.987-88.272,65.702-279.202,70.688-322.782Z" fill="#8f673c" fill-rule="evenodd" stroke-width="0"/>
      <path d="m1701.895,976.789c-.272,2.359-.547,4.716-.824,7.074l-.328,2.748-.008.069-.335,2.774-.057.473-.312,2.546-.096.777-.299,2.414-.128,1.021-.292,2.335-.155,1.229-.291,2.287-.181,1.412-.29,2.257-.291,2.244-.058.451-.446,3.399-.063.475-.47,3.532-.082.612-.149,1.114-.128.949-.164,1.216-.119.875-.178,1.311-.111.805-.192,1.407-.1.729-.207,1.507-.09.645-.224,1.618-.075.54-.245,1.751-.056.399-.269,1.918-.027.193c-1.27,8.995-2.686,18.651-4.247,28.792l-.004.031c-19.85,39.287-39.008,83.393-45.259,117.427-14.569,79.334-32.16,73.014-32.16,73.014,0,0-1.516-5.971-4.935-12.079,2.838-26.566,3.818-56.578,4.636-89.017,1.143-45.434,12.038-71.404,20.607-83.905l4.132-6.023.207-.302,3.883-5.65.325-.471,3.723-5.408.37-.538,3.639-5.278.346-.503,3.64-5.272.241-.348,3.768-5.448.005-.007c12.657-18.291,23.663-34.071,31.67-45.511l12.757-10.612h-.002Z" fill="#a5743f" fill-rule="evenodd" stroke-width="0"/>
      <path d="m1433.687,1938.947l4.267,164.375s-22.578,29.289-43.214,39.728c-20.637,10.44-38.354,18.544-38.354,18.544,0,0-15.643-2.507-19.871,8.62-4.003,10.532,6.331,17.11,6.331,17.11l146.16-1.68s44.31-15.179,33.147-71.539c-9.057-45.733,26.328-175.157,26.328-175.157,0,0-114.794,0-114.794,0Z" fill="#c2915a" fill-rule="evenodd" stroke-width="0"/>
      <path d="m1647.744,1912.977l14.63,181.561s-23.171,32.351-45.336,43.882c-22.164,11.531-41.246,20.481-41.246,20.481,0,0-17.43-2.769-21.43,9.522-3.785,11.632,8.027,18.898,8.027,18.898l161.342-1.856s48.026-16.765,32.297-79.019c-12.764-50.515,18.514-193.471,18.514-193.471h-126.798Z" fill="#dda76c" fill-rule="evenodd" stroke-width="0"/>
      <path d="m1857.151,929.568s-40.243,39.221-108.202,45.164c-32.724,2.862-35.921-18.037-35.921-18.037,0,0-32.412,30.773-46.646,48.61-14.235,17.836-46.862,86.946-48.173,154.683-.951,49.208,1.964,117.973-35.546,190.292-45.741,88.187-152.093,87.149-178.605,229.093-12.504,66.943-9.786,394.767-9.786,394.767l374.904,9.992s60.452-328.026,91.252-340.613c102.909-42.058,127.074-107.48,129.083-228.8,1.844-111.374,4.352-168.553.589-214.87-7.86-96.73-28.452-149.956-55.866-188.673-27.415-38.717-61.847-62.263-77.083-81.607Z" fill="#835c31" fill-rule="evenodd" stroke-width="0"/>
      <path d="m1613.233,1253.238c5.068-35.048,4.472-66.944,4.98-93.25,1.31-67.738,33.937-136.847,48.173-154.683,14.234-17.837,46.646-48.61,46.646-48.61,0,0,2.541,16.605,26.269,18.186-18.426,30.203-81.837,137.626-94.259,205.266-13.36,72.75-29.261,73.474-31.809,73.092h0Z" fill="#926a3e" fill-rule="evenodd" stroke-width="0"/>
      <path d="m1449.458,2015.165l-89.21-3.861s31.311-364.993,43.815-431.936c26.512-141.943,132.864-140.906,178.605-229.093,37.51-72.319,34.596-141.083,35.546-190.292,1.31-67.737,33.937-136.847,48.173-154.683,14.234-17.837,46.646-48.61,46.646-48.61,0,0,.974,6.365,7.347,11.589-16.725,24.287-49.225,52.056-64.377,143.434-24.315,146.625,10.821,274.297-40.897,316.769-51.718,42.471-101.698,35.375-118.262,159.701-12.008,90.124-36.433,320.246-47.386,426.981Z" fill="#a5743f" fill-rule="evenodd" stroke-width="0"/>
      <path d="m1613.233,1253.238c5.068-35.048,4.472-66.944,4.98-93.25,1.31-67.738,33.937-136.847,48.173-154.683,14.234-17.837,46.646-48.61,46.646-48.61,0,0,.974,6.365,7.347,11.589-16.725,24.287-49.225,52.056-64.377,143.434-2.704,16.304-4.673,32.375-6.108,48.133-2.022,7.051-3.668,13.854-4.851,20.296-13.36,72.75-29.261,73.474-31.809,73.092h0Z" fill="#b4824c" fill-rule="evenodd" stroke-width="0"/>
      <path d="m1795.426,964.859c-11.911,46.584-24.317,133.35-6.924,267.034,28.017,215.34-7.362,207.987-43.622,240.641s-48.958,42.748-73.161,145.224c-19.689,83.364-51.56,323.574-64.329,402.116l215.194-6.22s7.04-357.549,37.84-370.136c102.909-42.058,127.074-107.48,129.083-228.8,1.844-111.374,4.352-168.553.588-214.87-7.86-96.73-28.452-149.956-55.866-188.673-27.415-38.717-61.847-62.263-77.082-81.607,0,0-22.295,21.728-61.721,35.291Z" fill="#a5743f" fill-rule="evenodd" stroke-width="0"/>
      <path d="m1918.335,995.332s55.55,55.677,82.457,137.955c26.907,82.279,65.959,195.836,21.705,224-44.253,28.164-102.196-32.933-126.433-143.082-24.238-110.148-44.86-204.583,22.27-218.873Z" fill="#a5743f" fill-rule="evenodd" stroke-width="0"/>
      <path d="m2184.483,1111.959s39.443-8.121,50.935-11.222c19.171-5.171,9.93-17.187,9.93-17.187l-68.675,8.826,7.81,19.582Z" fill="#c2915a" fill-rule="evenodd" stroke-width="0"/>
      <path d="m2124.312,1137.37s10.426-38.418,25.453-41.242l15.029-2.826s14.717-3.338,25.903.577c11.188,3.915,43.072,24.15,43.072,24.15,0,0,29.393-14.071,49.915-19.583,20.524-5.513,23.868,7.295,23.868,7.295,0,0-15.46,16.211-44.017,37.72-28.556,21.509-92.606-.058-92.606-.058,0,0-27.179,59.275-67.141,106.78-39.962,47.506-50.164-36.052-50.164-36.052l70.688-76.76h0Z" fill="#dda76c" fill-rule="evenodd" stroke-width="0"/>
      <path d="m1977.435,1350.948s26.06,39.192,97.9-25.835c71.841-65.028,101.446-102.677,101.446-102.677,0,0-24.847-72.715-44.849-113.718,0,0-119.611,135.744-181.244,149.908,0,0-1.57,66.806,26.747,92.323Z" fill="#a5743f" fill-rule="evenodd" stroke-width="0"/>
      <path d="m1990.328,1369.735l.067-3.416.071-3.6c-16.001-1.995-46.756-13.713-76.956-68.974-36.51-66.807-65.389-166.939-65.389-166.939-.529-1.834-2.448-2.894-4.284-2.364-1.835.53-2.895,2.449-2.366,4.283,0,0,29.147,100.968,65.966,168.339,31.978,58.513,65.139,70.767,82.89,72.67h0Z" fill="#8f673c" fill-rule="evenodd" stroke-width="0"/>
      <path d="m2023.677,1205.569c.646,2.218,1.284,4.436,1.912,6.655-10.916,3.989-31.279,14.874-38.811,41.975-.511,1.841-2.421,2.918-4.261,2.407-1.84-.511-2.918-2.42-2.407-4.261,8.439-30.361,31.379-42.409,43.567-46.776h0Z" fill="#8f673c" fill-rule="evenodd" stroke-width="0"/>
      <path d="m1512.702,1259.19s-47.84,70.981,2.443,116.255c35.427,31.898,211.84,17.213,211.84,17.213,0,0-21.461-44.452-87.924-77.171-62.593-30.815-126.359-56.297-126.359-56.297Z" fill="#a5743f" fill-rule="evenodd" stroke-width="0"/>
      <path d="m1492.177,1321.099c.915-32.817,20.523-61.909,20.523-61.909,0,0,3.528,1.41,9.739,3.968-12.924,12.67-24.239,30.83-30.261,57.936v.005s0,0,0,0Z" fill="#b4824c" fill-rule="evenodd" stroke-width="0"/>
      <path d="m1543.093,1281.246s54.894,11.833,99.46,37.623c8.498,4.919,11.124,2.911,4.639-1.887-45.798-33.881-102.215-42.395-102.215-42.395-1.839-.52-3.751.55-4.272,2.387-.519,1.837.55,3.752,2.388,4.271Z" fill="#8f673c" fill-rule="evenodd" stroke-width="0"/>
      <path d="m1741.253,1353.815l43.503-13.021s6.791,8.502-.38,17.389c-7.172,8.886-34.41,14.163-34.41,14.163,0,0-8.713-18.531-8.713-18.531Z" fill="#c2915a" fill-rule="evenodd" stroke-width="0"/>
      <path d="m1658.254,1395.245s3.717-29.041,40.168-36.698c0,0,33.327-8.46,47.74-5.665,14.411,2.795,59.598,41.474,59.598,41.474,0,0-147.506.889-147.506.889Z" fill="#dda76c" fill-rule="evenodd" stroke-width="0"/>
      <path d="m1772.15,1394.554l8.265-.049-35-23.238c-1.06-.705-2.493-.416-3.197.646-.704,1.06-.415,2.493.645,3.197l29.286,19.445h0Z" fill="#c2915a" fill-rule="evenodd" stroke-width="0"/>
      <g id="Layer11">
        <path d="m1668.856,740.136s-17.969-7.19-23.531-24.824c-5.561-17.635.224-41.855,9.882-52.055,9.658-10.199,33.195-37.194,76.149-39.219,42.953-2.025,84.139,2.64,118.164,26.937,34.025,24.297,28.707,102.035,5.378,128.891,0,0-12.639,6.466-9.826,30.864,2.2,19.082,4.81,42.173,5.804,49.934,2.06,16.074-2.142,29.549-9.171,42.339-7.029,12.792-25.734,47.738-95.326,51.01s-78.091-36.735-78.136-55.049c-.045-18.315,13.443-62.773,13.443-62.773l-12.83-96.056Z" fill-rule="evenodd" stroke-width="0"/>
        <path d="m1705.382,949.556c-32.261-10.614-37.106-36.775-37.14-50.592-.045-18.315,13.443-62.773,13.443-62.773l-12.83-96.056s-17.969-7.19-23.531-24.823c-5.561-17.635.224-41.855,9.882-52.055,9.658-10.199,33.195-37.194,76.149-39.219,7.294-.344,14.536-.495,21.702-.389-29.229,8.74-60.126,27.371-57.337,67.082,5.199,73.992-15.361,123.503,6.883,174.555,0,0-19.02,57.862,2.779,84.269Z" fill="#21201f" fill-rule="evenodd" stroke-width="0"/>
        <path d="m1662.548,719.439s3.229,22.529,5.769,48.993c1.547,16.119,1.632,32.722,4.073,49.411,6.449,44.087,35.249,52.443,48.565,52.862,18.605.587,84.32-28.351,97.378-63.844,0,0,3.466-8.72,8.619-7.632,6.91,1.459,29.059-6.96,32.007-22.048,2.956-15.133-4.235-29.593-7.845-27.69-12.429,6.554-36.14,38.772-38.662,17.793-4.131-34.378.092-68.845-25.333-80.911-21.254-10.088-31.147,3.305-57.975,3.943-21.627.515-28.626-3.603-43.553.31-22.282,5.841-23.042,28.813-23.042,28.813h0Z" fill="#dda76c" fill-rule="evenodd" stroke-width="0"/>
        <path d="m1695.621,689.002c.026.565.06,1.145.101,1.73,5.199,73.992-15.361,123.503,6.883,174.555,0,0-.07.215-.197.625-12.545-6.214-25.877-19.792-30.013-48.069-2.44-16.689-2.525-33.293-4.073-49.411-2.539-26.464-5.769-48.993-5.769-48.993,0,0,.76-22.972,23.042-28.813,3.717-.974,6.942-1.45,10.025-1.624Z" fill="#e7b57e" fill-rule="evenodd" stroke-width="0"/>
        <path d="m1685.134,867.944s-1.11-33.481,16.066-34.637c17.175-1.155,39.135-5.359,48.318,5.734,7.67,9.264,14.351,27.67,14.351,27.67l12.721-7.42s-14.912-24.995-22.408-32.912c-7.495-7.918-14.459-11.099-19.931-11.606-5.472-.507-32.768-1.036-41.386,5.315-5.459,4.022-11.648,16.993-16.184,39.77l8.454,8.086Z" fill-rule="evenodd" stroke-width="0"/>
        <path d="m1692.363,820.475c.318,5.303.87,10.546,1.729,15.754-9.739,8.377-8.965,31.716-8.965,31.716l-8.454-8.086c4.401-22.094,10.356-34.961,15.69-39.383h0Z" fill="#21201f" fill-rule="evenodd" stroke-width="0"/>
      </g>
      <g id="Layer17">
        <path d="m1142.732,1374.305v-66.813h343.796c4.902-.22,9.95-.235,15.118,0h12.396v.977c40.445,4.597,56.848,20.98,56.848,20.98v44.856h-428.159,0Z" fill="#e7d3a8" fill-rule="evenodd" stroke-width="0"/>
        <path d="m1142.732,1329.468v-21.967h343.796c4.902-.22,9.95-.235,15.118,0h12.396c40.445,4.598,56.848,21.957,56.848,21.957v.01h-428.159,0Z" fill="#f2e5ca" fill-rule="evenodd" stroke-width="0"/>
        <path d="m1063.717,1374.305v-47.744s45.198-26.201,102.893-15.463c43.762,8.144,58.625,18.485,58.625,18.485,0,0,40.607-24.531,94.224-22.091,49.521,2.255,69.246,21.957,69.246,21.957v44.856h-324.988Z" fill="#d7c399" fill-rule="evenodd" stroke-width="0"/>
        <path d="m1228.079,1328.006v46.308h-4.732v-45.86c1.297.725,1.89,1.137,1.89,1.137,0,0,.982-.593,2.842-1.585Z" fill="#c4af85" fill-rule="evenodd" stroke-width="0"/>
        <rect x="1047.509" y="1372.026" width="541.622" height="23.255" fill="#a38a54" stroke-width="0"/>
        <rect x="1403.861" y="1372.026" width="185.263" height="23.255" fill="#bda675" stroke-width="0"/>
      </g>
      <g id="Layer16">
        <rect x="894.589" y="1391.861" width="59.766" height="795.469" fill="#8a723f" stroke-width="0"/>
        <rect x="1562.179" y="1391.861" width="40.52" height="795.469" fill="#8a723f" stroke-width="0"/>
        <rect x="908.023" y="1391.861" width="1229.008" height="74.055" fill="#8a723f" stroke-width="0"/>
        <rect x="2077.275" y="1391.861" width="59.766" height="795.469" fill="#a38a54" stroke-width="0"/>
        <rect x="1602.7" y="1391.861" width="45.182" height="795.469" fill="#a38a54" stroke-width="0"/>
        <rect x="1602.7" y="1391.861" width="534.345" height="74.055" fill="#a38a54" stroke-width="0"/>
      </g>
      <g id="Layer181">
        <rect x="263.295" y="1532.129" width="467.106" height="123.349" fill="#bda675" stroke-width="0"/>
        <rect x="263.295" y="1655.475" width="467.106" height="48.483" fill="#a38a54" stroke-width="0"/>
        <rect x="263.295" y="1655.475" width="52.488" height="523.043" fill="#a38a54" stroke-width="0"/>
        <rect x="677.919" y="1655.475" width="52.488" height="523.043" fill="#8a723f" stroke-width="0"/>
      </g>
      <g id="Layer52">
        <path d="m505.855,1932.547s3.037,116.943,4.31,142.263c1.272,25.321-4.66,45.434-10.776,64.84-6.116,19.405,2.665,35.276,19.602,42.246,16.937,6.971,170.608,5.852,170.608,5.852,0,0,19.121-18.316-1.703-28.415-20.823-10.1-26.589,3.493-60.421-25.64-33.831-29.131-49.674-48.497-49.674-48.497l12.691-165.579s-68.519-36.182-84.639,12.929h0Z" fill="#dda76c" fill-rule="evenodd" stroke-width="0"/>
        <path d="m721.087,1932.547s3.037,116.943,4.31,142.263c1.272,25.321-4.66,45.434-10.776,64.84-6.116,19.405,2.665,35.276,19.602,42.246,16.937,6.971,170.608,5.852,170.608,5.852,0,0,19.121-18.316-1.703-28.415-20.823-10.1-26.589,3.493-60.421-25.64-33.831-29.131-49.673-48.497-49.673-48.497l12.691-165.579s-68.519-36.182-84.639,12.929Z" fill="#dda76c" fill-rule="evenodd" stroke-width="0"/>
      </g>
      <g id="Layer121">
        <path d="m661.964,1518.902c-22.6-16.108-82.389-134.761-113.543-219.516-63.854-173.721,18.318-239.567,46.08-187.298,20.686,38.946,42.55,125.657,49.433,138.656,0,0,82.161,313.87,18.031,268.158Z" fill="#d1c099" fill-rule="evenodd" stroke-width="0"/>
        <path d="m534.369,1126.928c25.625-25.214,50.473-33.017,60.126-14.843l.335.634.078.149.33.635.039.076.252.49.344.678.099.196.44.878.108.22.336.683.146.299.318.655.131.273.441.922.033.073.408.866.141.3.312.672.146.317.349.763.094.206.437.968.123.275.321.721.154.346.309.7.139.318.432.992.084.195.356.825.16.375.286.672.167.394.315.748.125.299.417,1.001.172.416.264.64.194.473.248.608.193.474.329.816.07.174.203.506.219.548.235.589.188.473.249.629.149.383.255.65.373.959c2.354,41.386,10.859,180.752,16.989,290.771.396,7.121,5.543,10.15,5.543,10.15l56.942,33.248.048.877.044.852v.026s.044.859.044.859c.013.287.025.574.039.861l.032.759.006.151.032.793c.01.282.021.563.031.844l.023.717.008.222.022.729c.007.275.014.55.022.825l.016.701.006.267.013.664.012.701v.119s.01.683.01.683l.002.303c.093,9.746-.506,18.063-1.982,24.414l-.002.013-.121.509c-.043.168-.085.337-.127.505l-.127.484-.008.029-.13.472c-.046.159-.092.319-.138.479l-.139.46-.008.025-.133.421-.013.038-.145.436-.154.441v.002s-.149.405-.149.405l-.02.052-.147.386-.008.02-.063.159-.044.109-.056.138-.043.102-.051.121-.063.147-.051.117-.051.115-.047.106-.055.122-.063.137-.062.132-.039.084-.054.11-.059.122-.062.127-.093.182-.009.018-.059.115-.064.122-.062.115-.106.194-.061.109-.07.124-.06.104-.112.189-.061.101-.08.129-.051.08-.027.044-.094.147-.062.095-.092.139-.036.052-.043.061-.091.132-.062.086-.125.175-.054.071-.093.124-.06.078-.132.166-.057.07-.099.12-.057.068-.137.159-.06.067-.106.117-.052.056-.144.152-.06.061-.12.121-.037.038-.022.02-.132.128-.061.056-.145.133-.009.008-.041.036-.127.11-.06.049-.158.13-.051.04-.128.099-.056.044-.164.12-.055.039-.134.092-.051.036-.17.11-.058.036-.187.114-.176.101-.06.033-.167.089-.017.009-.022.012-.167.083-.084.04-.022.01-.133.061-.144.062-.006.003-.13.053-.025.01-.121.047-.02.007-.143.052-.141.049-.024.008-.12.038-.028.009-.141.041-.148.043-.019.005-.125.032-.032.008-.123.03-.023.005-.151.034-.145.029-.032.007-.12.021-.034.006-.147.024-.154.021-.029.003-.161.02-.128.013-.024.003-.156.013h-.015s-.124.009-.124.009l-.222.01-.052.002-.194.003h-.277s-.058-.002-.058-.002l-.207-.007h-.037s-.235-.016-.235-.016l-.061-.003-.231-.021h-.014s-.243-.027-.243-.027l-.062-.008-.245-.033-.03-.004-.226-.037-.061-.01-.249-.046-.046-.009-.222-.046-.055-.012-.254-.059-.056-.014-.228-.058-.046-.013-.26-.071-.062-.018-.245-.073-.028-.008-.268-.086-.066-.022-.274-.093-.01-.003-.268-.097-.066-.024-.276-.106-.038-.015-.252-.102-.062-.025-.281-.119-.053-.023-.251-.112-.056-.025-.286-.131-.063-.03-.261-.126-.043-.021-.292-.147-.069-.035-.287-.149-.016-.009-.302-.161-.073-.039-.303-.168-.024-.014-.289-.166-.071-.04-.306-.182-.048-.029-.277-.168-.067-.041-.311-.193-.063-.04-.281-.18-.055-.037-.318-.208-.073-.048-.297-.199-.037-.025-.326-.224-.077-.054-.333-.235-.237-.172-.066-.048-.202-.152-.044-.032-.241-.188-.061-.048-.197-.158-.061-.049-.248-.203-.046-.039-.211-.178-.069-.059-.256-.222-.258-.229-.07-.065-.219-.199-.047-.043-.261-.243-.067-.063-.213-.203-.066-.063-.267-.259-.051-.049-.226-.223-.076-.076-.274-.276-.277-.284-.077-.081-.234-.243-.052-.054-.266-.282-.398-.43-.088-.097-.328-.36-.112-.125-.412-.462-.419-.479-.113-.131-.343-.398-.09-.106-.426-.504-.09-.107-.353-.426-.115-.14-.439-.535-.445-.554-.115-.144-.37-.465-.09-.113-.454-.58-.086-.112-.382-.495-.115-.15-.465-.609-.472-.626-.113-.152-.401-.538-.084-.112-.483-.657-.078-.107-.416-.571-.11-.152-.492-.683-.5-.7-.106-.15-.436-.618-.073-.102-.515-.736-.064-.093-.455-.656-.1-.145-.519-.756-.527-.775-.093-.137-.479-.712-.054-.079-.548-.819-.043-.065-.502-.756-.083-.125-.548-.832-.557-.852-.073-.112-.531-.819-.028-.041-.558-.868-.714-1.116-.263-.412-.521-.824-.266-.422-.717-1.144-.249-.4-.53-.851-.299-.485-.605-.983-.143-.231-.168-.275-.587-.96-.32-.528-.51-.84-.287-.475-.719-1.197-.334-.558-.476-.798-.342-.573-.716-1.212-.338-.574-.467-.795-.374-.641-.508-.869-.252-.433-.279-.482-.483-.835-.402-.695-.432-.751-.381-.665-.103-.18c-26.468-46.251-59.14-116.27-79.536-171.759-30.03-81.701-27.762-139.542-14.046-172.455h0Z" fill="#b9a881" fill-rule="evenodd" stroke-width="0"/>
      </g>
      <g id="Layer42">
        <path d="m513.039,1009.124s75.129,62.286,85.96,111.674c7.113,32.435,9.026,169.378,20.178,316.237,1.211,15.962,190.89,72.433,207.775,194.917,23.5,170.471,13.085,388.549,13.085,388.549l-359.973,34.049s-34.332-240.346-48.734-326.497c-9.561-57.197-119.78-95.76-154.372-141.868-47.92-63.873-26.091-148.893-18.089-241.267,11.878-137.12,37.883-252.984,44.973-269.878,16.734-39.875,105.477-71.808,105.477-71.808,0,0,50.269,30.04,103.72,5.893Z" fill="#ae9e7a" fill-rule="evenodd" stroke-width="0"/>
        <path d="m530.939,1025.221c22.936,21.748,60.623,61.697,68.054,95.577,7.113,32.435,9.026,169.378,20.178,316.237,1.211,15.962,190.89,72.433,207.776,194.917,23.5,170.471,42.819,413.258,42.819,413.258l-107.429,11.627c-7.77-80.135-14.752-279.419-30.636-389.123-21.697-149.865-112.284-175.426-144.752-197.909-32.468-22.483-21.323-140.838-29.03-272.781-5.572-95.356-19.618-149.246-26.98-171.803h0Z" fill="#d1c099" fill-rule="evenodd" stroke-width="0"/>
        <path d="m390.463,1010.871c21.094,31.385,49.616,106.988,63.21,289.108,23.029,308.52,107.798,84.417,158.223,424.026,27.468,184.985,27.891,303.485,28.856,347.032l-181.455,21.026s-13.567-277.859-27.97-364.009c-9.561-57.197-119.78-95.76-154.372-141.868-47.92-63.873-26.091-148.893-18.089-241.267,11.878-137.12,37.883-252.984,44.973-269.878,11.825-28.176,59.602-52.386,86.624-64.169h0Z" fill="#d1c099" fill-rule="evenodd" stroke-width="0"/>
      </g>
      <g id="Layer131">
        <path d="m383.246,1280.314s114.813,17.329,158.8,34.147c0,0,15.198,4.592,14.63,17.555-.567,12.963-23.789,194.477-23.789,194.477,0,0,.974,15.061-14.549,21.872-15.522,6.813-65.836-5.07-65.836-5.07l-102.881-23.461s-13.19-2.459-12.312-10.907c.878-8.447,5.013-26.154,5.013-26.154,0,0-4.388-2.59-1.821-10.403,2.566-7.812,34.614-182.984,34.614-182.984,0,0,.357-9.835,8.131-9.072Z" fill="#8e6234" fill-rule="evenodd" stroke-width="0"/>
        <path d="m404.922,1303.532s108.594,16.368,126.4,26.774c0,0,5.442,5.002,4.621,16.003-.981,13.147-19.511,144.152-19.511,144.152,0,0-2.405,7.328-12.598,7.972-7.347.465-127.991-27.457-127.991-27.457,0,0-12.927-1.968-11.802-12.173,1.125-10.205,27.251-143.048,27.251-143.048,0,0,1.622-12.636,13.63-12.222Zm4.678,8.458s98.182,14.8,114.282,24.208c0,0,4.92,4.522,4.179,14.468-.888,11.888-16.981,132.208-16.981,132.208,0,0-2.174,6.626-11.391,7.207-6.642.42-116.083-25.035-116.083-25.035,0,0-11.689-1.78-10.671-11.006,1.017-9.227,24.341-130.998,24.341-130.998,0,0,1.466-11.425,12.323-11.051h0Z" fill="#9c6c3a" fill-rule="evenodd" stroke-width="0"/>
        <path d="m341.977,1482.514c4.324.977,10.936.89,10.936.89,0,0,128.152,26.792,158.247,34.638,12.347,3.22,18.801,25.217,7.176,30.318-15.522,6.813-65.836-5.07-65.836-5.07l-102.881-23.461s-13.19-2.459-12.312-10.907c.878-8.447,5.013-26.154,5.013-26.154,0,0-.135-.08-.344-.254h0Z" fill="#705234" fill-rule="evenodd" stroke-width="0"/>
        <path d="m241.159,1271.818s-5.72,19.349-8.517,44.356c-1.975,17.663,6.548,55.497,55.644,74.48,49.096,18.983,206.004,59.991,206.004,59.991,0,0,6.392,14.252,23.869,25.765,9.993,6.584,20.38,14.318,20.38,14.318,0,0,9.075,6.438,17.397,2.087,8.324-4.351,15.61-8.681,17.182-17.641,1.573-8.962,5.14-32.133,6.747-41.308.91-5.2-3.184-11.172-10.39-16.03-7.206-4.859-19.166-10.947-19.166-10.947,0,0,14.142-6.437,17.147-9.94,6.663-7.767,2.67-13.657.069-15.15-2.601-1.492-9.728,1.538-18.543,5.277-8.814,3.738-22.596,5.709-29.1,8.816-6.505,3.107-11.452,9.573-11.452,9.573,0,0-141.739-82.272-174.815-93.642,0,0-48.116-36.861-92.457-40.004h0Z" fill="#dda76c" fill-rule="evenodd" stroke-width="0"/>
        <path d="m270.893,1153.975c-25.808,81.392-35.746,139.796-38.252,162.199-1.975,17.663,1.247,69.042,50.342,88.024,39.577,15.302,148.277,60.528,189.299,71.436,20.268-21.901,34.918-70.312,30.27-87.137-35.885-20.584-133.584-62.509-164.683-75.07l34.368-139.837s15.817-66.073-6.653-94.722c-22.469-28.65-46.209-22.765-46.209-22.765,0,0-22.674,16.479-48.483,97.871h0Z" fill="#d1c099" fill-rule="evenodd" stroke-width="0"/>
        <path d="m351.934,1483.354l156.769,34.218s15.461,4.11,13.39,14.56c-2.07,10.45-13.126,13.599-26.294,12.58-13.169-1.019-149.154-33.366-149.154-33.366,0,0,5.288-27.992,5.288-27.991Z" fill="#fff" fill-rule="evenodd" stroke-width="0"/>
        <path d="m370.123,1172.931l-33.852,138.051c-.336,1.371.503,2.757,1.874,3.093,1.371.335,2.756-.504,3.092-1.875l33.853-138.051c.336-1.371-.504-2.756-1.874-3.092-1.371-.336-2.757.503-3.093,1.874Z" fill="#b9a881" fill-rule="evenodd" stroke-width="0"/>
        <path d="m255.893,1388.384s126.153,64.169,214.839,88.488c1.243.341,2.529-.391,2.87-1.635.341-1.242-.391-2.528-1.635-2.869-88.325-24.22-213.956-88.147-213.956-88.147-1.149-.585-2.556-.127-3.14,1.022-.585,1.149-.127,2.557,1.022,3.14h0Z" fill="#b9a881" fill-rule="evenodd" stroke-width="0"/>
        <path d="m337.879,1314.284l163.289,75.327c1.17.54,2.559.028,3.099-1.142.54-1.171.028-2.559-1.143-3.099l-163.288-75.327c-1.171-.54-2.559-.028-3.099,1.143-.54,1.17-.029,2.558,1.142,3.098Z" fill="#b9a881" fill-rule="evenodd" stroke-width="0"/>
      </g>
      <g id="Layer141">
        <path d="m436.821,978.449s-59.107-53.818-67.845-76.284c-20.052-51.564-20.057-90.785,8.81-121.699,28.867-30.915,85.915-46.477,139.712-29.099,0,0,60.688,75.348,22.133,118.777-9.57,10.781-102.811,108.304-102.811,108.304Z" fill="#835c31" fill-rule="evenodd" stroke-width="0"/>
        <path d="m551.879,800.325s11.266,21.2,12.372,49.858c1.864,48.396-4.688,81.032-14.073,103.023-17.826,41.768-45.87,45.133-45.87,45.133,0,0-67.056-12.515-72.839-23.4-5.783-10.885-11.71-30.759-11.71-30.759,0,0-23.399,6.119-37.091-14.439-15.785-23.698,5.878-46.023,12.247-33.024,12.672,25.86,29.491,29.066,26.254,4.309-3.236-24.758-8.015-44.054-6.728-60.553,3.758-48.192,46.762-30.812,70.445-27.878,10.102,1.252,50.473-2.982,66.994-12.27Z" fill="#dda76c" fill-rule="evenodd" stroke-width="0"/>
        <path d="m362.79,883.906s107.182-79.7,198.28-62.281c0,0-11.571-57.72-29.618-86.47-6.578-10.479-48.037-14.632-88.542-3.055-39.876,11.399-78.769,38.332-89.855,53.107-7.336,9.779-3.614,61.734,9.735,98.699Z" fill="#d1c099" fill-rule="evenodd" stroke-width="0"/>
      </g>
    </g>
  </g>
</svg>