<?xml version="1.0" encoding="UTF-8"?>
<svg xmlns="http://www.w3.org/2000/svg" viewBox="0 0 2436 2436">
  <g isolation="isolate">
    <g id="Layer_1" data-name="Layer 1">
      <g>
        <path d="m1797.459,2116.129c-19.418-2.393-30.726-34.139-26.217-56.165,4.509-22.026,19.375-38.938,34.057-53.864,14.681-14.926,30.419-30.052,37.817-51.003,13.646-38.644-4.382-87.721,15.969-122.173,22.51-38.106,80.036-36.16,94.883-79.019,7.085-20.452.247-45.025,8.13-65.08,28.768-73.179,123.006-62.856,136.908-126.85,12.141,29.631-.293,64.74-15.548,92.369-15.255,27.629-34.137,55.195-35.613,87.955-2.106,46.761,32.212,92.433,18.659,136.543-10.736,34.941-48.043,53.061-55.616,89.098-5.213,24.806,5.432,49.869,10.101,74.82,4.669,24.951-2.77,52.003-24.216,57.808l-199.315,15.56Z" fill="#005179" stroke-width="0"/>
        <path d="m1908.147,2097.337c-1.339,0-2.491-1.011-2.636-2.373-3.88-36.355-8.709-81.603,5.652-120.093,7.324-19.632,19.191-36.458,30.668-52.729,11.204-15.886,22.789-32.312,29.889-51.134,8.273-21.933,10.262-46.501,12.186-70.262,1.172-14.479,2.384-29.452,4.993-43.87,9.422-52.078,38.622-99.448,78.108-126.716,1.207-.834,2.859-.53,3.692.676.833,1.207.53,2.86-.676,3.693-38.35,26.482-66.724,72.573-75.901,123.292-2.562,14.161-3.764,29.002-4.925,43.354-1.954,24.127-3.974,49.074-12.511,71.706-7.338,19.455-19.122,36.163-30.518,52.32-11.283,15.996-22.949,32.537-30.033,51.525-13.923,37.317-9.167,81.873-5.347,117.675.156,1.457-.9,2.765-2.357,2.921-.096.01-.191.015-.285.015Z" fill="#fff" stroke-width="0"/>
      </g>
      <g>
        <path d="m431.149,2099.376c-16.619-4.308-24.21-23.957-24.555-41.122-.345-17.165,3.89-34.649-.229-51.315-12.635-51.128-91.437-61.363-105.886-112.007-14.046-49.232,43.807-97.626,30.438-147.046-8.053-29.768-39.102-47.254-53.614-74.463-17.496-32.804-8.146-72.638-2.042-109.313,6.103-36.674,5.925-80.362-23.05-103.657,45.4,11.607,83.086,49.422,94.539,94.861,6.549,25.981,6.505,56.563,26.702,74.17,14.368,12.525,35.28,14.587,50.881,25.538,20.607,14.463,28.052,41.315,31.352,66.273,3.3,24.958,4.228,51.28,16.936,73.013,26.272,44.931,89.487,50.996,127.875,86.145,38.948,35.66,43.941,102.34,10.74,143.404l-180.087,75.522Z" fill="#005179" stroke-width="0"/>
        <path d="m495.459,2036.093c-.245,0-.493-.036-.739-.113-1.299-.407-2.022-1.791-1.615-3.09,10.831-34.536-10.457-70.179-30.223-93.998-5.349-6.445-11.098-12.87-16.658-19.083-17.903-20.006-36.416-40.693-45.612-66.324-5.67-15.806-7.456-32.693-9.183-49.024-1.372-12.971-2.79-26.384-6.156-39.047-6.982-26.27-22.366-49.752-37.243-72.461-4.448-6.79-9.048-13.811-13.36-20.809-24.617-39.948-33.091-73.68-25.907-103.121.323-1.324,1.656-2.144,2.979-1.811,1.323.322,2.133,1.656,1.811,2.979-6.855,28.096,1.425,60.599,25.315,99.367,4.276,6.939,8.856,13.931,13.286,20.692,15.092,23.036,30.697,46.857,37.884,73.897,3.463,13.031,4.902,26.637,6.293,39.794,1.696,16.042,3.45,32.63,8.921,47.877,8.871,24.727,27.058,45.049,44.645,64.702,5.591,6.247,11.371,12.707,16.779,19.223,20.547,24.761,42.628,61.97,31.134,98.621-.33,1.054-1.303,1.729-2.352,1.729Z" fill="#fff" stroke-width="0"/>
      </g>
      <g>
        <path d="m513.954,2140.85c18.319-6.762,22.568-36.082,13.539-53.396-9.03-17.314-27.019-27.813-44.408-36.695-17.39-8.883-35.846-17.674-47.449-33.381-21.401-28.972-14.302-74.433-41.319-98.255-29.882-26.349-85.24-10.618-108.698-42.819-11.194-15.366-9.761-37.592-21.645-52.431-43.365-54.145-132.545-22.408-159.556-72.516-5.504,27.756,13.976,54.068,34.608,73.433,20.632,19.366,44.768,37.789,53.126,64.823,11.931,38.589-11.681,85.196,10.786,118.761,17.798,26.588,57.798,32.595,72.761,60.875,10.299,19.467,5.28,43.036,6.03,65.046.75,22.01,13.683,42.809,35.702,42.406l196.523-35.853Z" fill="#3e95b4" stroke-width="0"/>
        <path d="m402.101,2152.519c-1.225,0-2.287-.912-2.443-2.159-3.859-30.818-8.662-69.174-29.98-96.874-10.858-14.109-25.654-25.072-39.962-35.675-14.477-10.727-29.447-21.818-40.7-36.32-13.104-16.887-20.35-37.289-27.358-57.021-4.157-11.705-8.456-23.809-13.923-34.999-19.587-40.095-56.812-71.638-99.578-84.379-1.305-.389-2.048-1.762-1.659-3.066.388-1.306,1.761-2.054,3.066-1.658,44.064,13.127,82.419,45.628,102.601,86.939,5.59,11.441,9.936,23.679,14.139,35.513,6.878,19.364,13.99,39.388,26.607,55.647,10.838,13.967,25.531,24.854,39.74,35.383,14.58,10.803,29.657,21.974,40.934,36.628,22.137,28.765,27.032,67.857,30.965,99.269.169,1.352-.789,2.584-2.14,2.753-.104.013-.208.02-.31.02Z" fill="#fff" stroke-width="0"/>
      </g>
      <g>
        <path d="m1814.731,2073.395c-1.34-12.214,10.381-22.388,22.262-27.079,11.881-4.691,25.183-6.407,35.73-13.487,32.356-21.721,18.896-76.989,50.441-99.795,30.665-22.17,79.54,3.876,110.513-17.891,18.656-13.112,22.736-38.384,37.92-55.142,18.306-20.205,48.533-24.314,75.706-29.769,27.173-5.456,57.597-16.927,66.271-42.325,3.771,33.325-12.751,68.311-41.448,87.765-16.409,11.123-37.75,19.041-44.75,37.1-4.98,12.846-.952,27.343-4.511,40.604-4.7,17.515-21.482,29.463-38.027,38.152-16.544,8.689-34.66,16.149-46.496,30.28-24.47,29.214-12.176,72.992-26.655,107.754-14.69,35.268-59.891,55.929-97.209,44.435l-99.746-100.6Z" fill="#3e95b4" stroke-width="0"/>
        <path d="m1877.396,2101.043c-.941,0-1.733-.731-1.795-1.685-.064-.992.688-1.849,1.68-1.913,26.959-1.747,46.268-25.232,57.718-44.626,3.097-5.246,6.075-10.754,8.956-16.08,9.273-17.151,18.863-34.886,34.332-47.683,9.535-7.888,20.841-13.466,31.775-18.86,8.691-4.288,17.678-8.722,25.635-14.263,16.502-11.492,28.86-27.864,40.811-43.698,3.573-4.734,7.268-9.63,11.022-14.327,21.417-26.804,42.711-41.219,65.097-44.07.985-.125,1.888.571,2.014,1.559.126.986-.572,1.888-1.559,2.014-21.412,2.728-41.934,16.71-62.738,42.746-3.723,4.658-7.402,9.534-10.961,14.249-12.121,16.059-24.653,32.664-41.627,44.483-8.179,5.696-17.289,10.19-26.099,14.537-10.749,5.304-21.863,10.787-31.073,18.406-14.929,12.351-24.35,29.771-33.459,46.62-2.896,5.355-5.891,10.894-9.022,16.197-11.892,20.143-32.057,44.541-60.586,46.39-.04.003-.08.004-.119.004Z" fill="#fff" stroke-width="0"/>
      </g>
      <path d="m1984.515,1083.693v1066.173H756.395v-1066.173c0-191.653,145.425-236.466,145.425-236.466,32.667-436.478,357.25-340.867,465.787-580.838.984-2.157,1.926-4.314,2.869-6.525.902,2.211,1.844,4.368,2.828,6.525,108.536,239.971,433.16,144.361,465.787,580.838,0,0,145.425,44.812,145.425,236.466Z" fill="#132c5a" stroke-width="0"/>
      <path d="m1463.017,843.236c22.754,47.178,70.998,79.711,126.841,79.711,77.718,0,140.698-62.98,140.698-140.698,0-48.382-24.423-91.064-61.591-116.368,8.944,18.399,13.903,39.068,13.903,60.941,0,77.718-63.027,140.745-140.744,140.745-29.289,0-56.539-8.991-79.108-24.331Z" fill="#ffb631" stroke-width="0"/>
      <g>
        <polygon points="1039.231 1022.423 1023.577 1026.863 1039.231 1031.302 1043.671 1046.956 1048.111 1031.302 1063.765 1026.863 1048.111 1022.423 1043.671 1006.769 1039.231 1022.423" fill="#ffb631" stroke-width="0"/>
        <polygon points="1782.101 1639.543 1766.447 1643.982 1782.101 1648.422 1786.541 1664.076 1790.981 1648.422 1806.635 1643.982 1790.981 1639.543 1786.541 1623.889 1782.101 1639.543" fill="#ffb631" stroke-width="0"/>
        <polygon points="1473.354 1187.881 1467.127 1189.647 1473.354 1191.413 1475.119 1197.639 1476.885 1191.413 1483.111 1189.647 1476.885 1187.881 1475.119 1181.655 1473.354 1187.881" fill="#ffb631" stroke-width="0"/>
        <polygon points="1368.689 1778.148 1362.463 1779.914 1368.689 1781.68 1370.455 1787.906 1372.221 1781.68 1378.447 1779.914 1372.221 1778.148 1370.455 1771.923 1368.689 1778.148" fill="#ffb631" stroke-width="0"/>
        <polygon points="843.251 1751.164 837.024 1752.93 843.251 1754.696 845.016 1760.922 846.782 1754.696 853.008 1752.93 846.782 1751.164 845.016 1744.938 843.251 1751.164" fill="#ffb631" stroke-width="0"/>
        <polygon points="1842.486 1066.18 1836.26 1067.946 1842.486 1069.712 1844.252 1075.938 1846.018 1069.712 1852.244 1067.946 1846.018 1066.18 1844.252 1059.954 1842.486 1066.18" fill="#ffb631" stroke-width="0"/>
        <polygon points="851.242 1160.923 845.016 1162.689 851.242 1164.455 853.008 1170.681 854.774 1164.455 861 1162.689 854.774 1160.923 853.008 1154.698 851.242 1160.923" fill="#ffb631" stroke-width="0"/>
        <polygon points="1305.221 929.172 1298.995 930.938 1305.221 932.704 1306.987 938.93 1308.753 932.704 1314.979 930.938 1308.753 929.172 1306.987 922.946 1305.221 929.172" fill="#ffb631" stroke-width="0"/>
        <polygon points="1804.868 1350.594 1798.643 1352.36 1804.868 1354.126 1806.635 1360.352 1808.401 1354.126 1814.626 1352.36 1808.401 1350.594 1806.635 1344.368 1804.868 1350.594" fill="#ffb631" stroke-width="0"/>
        <polygon points="1041.905 640.05 1035.679 641.816 1041.905 643.582 1043.671 649.808 1045.437 643.582 1051.663 641.816 1045.437 640.05 1043.671 633.824 1041.905 640.05" fill="#ffb631" stroke-width="0"/>
        <polygon points="1313.212 439.655 1306.986 441.421 1313.212 443.187 1314.978 449.413 1316.744 443.187 1322.97 441.421 1316.744 439.655 1314.978 433.429 1313.212 439.655" fill="#ffb631" stroke-width="0"/>
        <polygon points="1761.189 1962.267 1754.963 1964.033 1761.189 1965.799 1762.955 1972.025 1764.721 1965.799 1770.947 1964.033 1764.721 1962.267 1762.955 1956.041 1761.189 1962.267" fill="#ffb631" stroke-width="0"/>
        <polygon points="1429.914 683.128 1414.26 687.569 1429.914 692.009 1434.354 707.663 1438.794 692.009 1454.448 687.569 1438.794 683.128 1434.354 667.475 1429.914 683.128" fill="#ffb631" stroke-width="0"/>
        <polygon points="1478.671 1475.54 1463.017 1479.98 1478.671 1484.42 1483.111 1500.073 1487.551 1484.42 1503.205 1479.98 1487.551 1475.54 1483.111 1459.886 1478.671 1475.54" fill="#ffb631" stroke-width="0"/>
      </g>
      <g mix-blend-mode="multiply" opacity=".36">
        <path d="m1984.501,1083.692v1066.175h-47.432v-1066.175c0-191.649-139.78-236.468-139.78-236.468-30.569-424.764-326.893-345.629-438.915-562.178,3.205-5.966,6.311-12.178,9.22-18.637.986-2.169,1.923-4.339,2.86-6.558.937,2.219,1.874,4.388,2.86,6.558,108.521,239.968,433.146,144.316,465.786,580.815,0,0,145.401,44.818,145.401,236.468Z" fill="#132c5a" stroke-width="0"/>
      </g>
      <path d="m811.081,2113.772v10.495h-467.883v-10.517c0-24.279,17.066-47.854,48.458-66.935l.014-.009h370.905c31.422,19.087,48.507,42.673,48.507,66.966Z" fill="#005179" stroke-width="0"/>
      <rect x="389.417" y="1479.98" width="373.199" height="562.902" fill="#005179" stroke-width="0"/>
      <g mix-blend-mode="multiply" opacity=".36">
        <rect x="389.417" y="1490.485" width="68.444" height="546.174" fill="#005179" stroke-width="0"/>
      </g>
      <path d="m664.812,1883.645c-9.226,32.155-77.959,49.738-87.725,80.389-9.766-30.651-78.499-48.233-87.724-80.389-9.259-32.156,17.639-44.22,17.639-44.22v-155.989s-26.898-12.041-17.639-44.197c9.225-32.179,77.958-49.761,87.724-80.412,9.766,30.651,78.499,48.233,87.725,80.412,9.259,32.156-17.64,44.197-17.64,44.197v155.989s26.899,12.064,17.64,44.22Z" fill="#ffb631" stroke-width="0"/>
      <path d="m576.017,984.412c-38.198,0-69.274-31.076-69.274-69.274s31.076-69.274,69.274-69.274,69.275,31.076,69.275,69.274-31.077,69.274-69.275,69.274Zm0-122.371c-29.277,0-53.096,23.819-53.096,53.097s23.819,53.097,53.096,53.097,53.097-23.819,53.097-53.097-23.819-53.097-53.097-53.097Z" fill="#ff8007" stroke-width="0"/>
      <path d="m374.611,1424.45s-77.3-44.32-50.691-162.676c24.195-108.091,190.82-171.438,241.086-267.435,4.673-8.923,17.348-8.923,22.021,0,50.266,95.997,216.893,159.344,241.087,267.435,26.608,118.355-50.692,162.676-50.692,162.676h-402.812Z" fill="#005179" stroke-width="0"/>
      <path d="m755.017,1964.033c-6.499-30.651-52.24-48.233-58.38-80.389-6.162-32.156,11.739-44.22,11.739-44.22v-155.989s-17.901-12.041-11.739-44.197c6.14-32.179,51.881-49.761,58.38-80.412v405.206Z" fill="#ffb631" stroke-width="0"/>
      <path d="m397.017,1558.828c6.499,30.651,52.24,48.233,58.38,80.389,6.162,32.155-11.739,44.219-11.739,44.219v155.989s17.901,12.042,11.739,44.197c-6.139,32.179-51.881,49.761-58.38,80.412v-405.206Z" fill="#ffb631" stroke-width="0"/>
      <rect x="374.255" y="1424.45" width="403.524" height="66.035" fill="#ffb631" stroke-width="0"/>
      <g mix-blend-mode="multiply" opacity=".36">
        <rect x="374.255" y="1424.45" width="62.744" height="66.035" fill="#ffb631" stroke-width="0"/>
      </g>
      <rect x="374.255" y="2036.659" width="403.524" height="20.304" fill="#ffb631" stroke-width="0"/>
      <g mix-blend-mode="multiply" opacity=".36">
        <rect x="374.255" y="2036.659" width="91.888" height="20.304" fill="#ffb631" stroke-width="0"/>
      </g>
      <rect x="325.56" y="2116.655" width="500.915" height="33.217" fill="#ffb631" stroke-width="0"/>
      <g mix-blend-mode="multiply" opacity=".36">
        <rect x="325.56" y="2116.655" width="106.097" height="33.217" fill="#ffb631" stroke-width="0"/>
      </g>
      <g>
        <path d="m389.417,1530.757c8.359,0,15.135-6.776,15.135-15.135s-6.777-15.135-15.135-15.135v30.27Z" fill="#ffb631" stroke-width="0"/>
        <path d="m457.862,1515.621c0,8.359-6.776,15.135-15.135,15.135s-15.135-6.776-15.135-15.135,6.777-15.135,15.135-15.135,15.135,6.776,15.135,15.135Z" fill="#ffb631" stroke-width="0"/>
        <path d="m511.171,1515.621c0,8.359-6.776,15.135-15.135,15.135s-15.135-6.776-15.135-15.135,6.777-15.135,15.135-15.135,15.135,6.776,15.135,15.135Z" fill="#ffb631" stroke-width="0"/>
        <path d="m564.481,1515.621c0,8.359-6.776,15.135-15.135,15.135s-15.135-6.776-15.135-15.135,6.777-15.135,15.135-15.135,15.135,6.776,15.135,15.135Z" fill="#ffb631" stroke-width="0"/>
        <path d="m617.79,1515.621c0,8.359-6.776,15.135-15.135,15.135s-15.134-6.776-15.134-15.135,6.776-15.135,15.134-15.135,15.135,6.776,15.135,15.135Z" fill="#ffb631" stroke-width="0"/>
        <path d="m671.1,1515.621c0,8.359-6.777,15.135-15.135,15.135s-15.135-6.776-15.135-15.135,6.776-15.135,15.135-15.135,15.135,6.776,15.135,15.135Z" fill="#ffb631" stroke-width="0"/>
        <path d="m724.409,1515.621c0,8.359-6.776,15.135-15.135,15.135s-15.134-6.776-15.134-15.135,6.776-15.135,15.134-15.135,15.135,6.776,15.135,15.135Z" fill="#ffb631" stroke-width="0"/>
        <path d="m762.584,1530.757c-8.359,0-15.135-6.776-15.135-15.135s6.776-15.135,15.135-15.135v30.27Z" fill="#ffb631" stroke-width="0"/>
      </g>
      <g>
        <path d="m389.417,2026.736c8.359,0,15.135-6.776,15.135-15.135s-6.777-15.135-15.135-15.135v30.27Z" fill="#ffb631" stroke-width="0"/>
        <path d="m457.862,2011.601c0,8.359-6.776,15.135-15.135,15.135s-15.135-6.776-15.135-15.135,6.777-15.135,15.135-15.135,15.135,6.776,15.135,15.135Z" fill="#ffb631" stroke-width="0"/>
        <path d="m511.171,2011.601c0,8.359-6.776,15.135-15.135,15.135s-15.135-6.776-15.135-15.135,6.777-15.135,15.135-15.135,15.135,6.776,15.135,15.135Z" fill="#ffb631" stroke-width="0"/>
        <path d="m564.481,2011.601c0,8.359-6.776,15.135-15.135,15.135s-15.135-6.776-15.135-15.135,6.777-15.135,15.135-15.135,15.135,6.776,15.135,15.135Z" fill="#ffb631" stroke-width="0"/>
        <path d="m617.79,2011.601c0,8.359-6.776,15.135-15.135,15.135s-15.134-6.776-15.134-15.135,6.776-15.135,15.134-15.135,15.135,6.776,15.135,15.135Z" fill="#ffb631" stroke-width="0"/>
        <path d="m671.1,2011.601c0,8.359-6.777,15.135-15.135,15.135s-15.135-6.776-15.135-15.135,6.776-15.135,15.135-15.135,15.135,6.776,15.135,15.135Z" fill="#ffb631" stroke-width="0"/>
        <path d="m724.409,2011.601c0,8.359-6.776,15.135-15.135,15.135s-15.134-6.776-15.134-15.135,6.776-15.135,15.134-15.135,15.135,6.776,15.135,15.135Z" fill="#ffb631" stroke-width="0"/>
        <path d="m762.584,2026.736c-8.359,0-15.135-6.776-15.135-15.135s6.776-15.135,15.135-15.135v30.27Z" fill="#ffb631" stroke-width="0"/>
      </g>
      <path d="m777.779,1437.874h-403.524c-10.402,0-18.835,8.432-18.835,18.835h0c0,10.401,8.433,18.834,18.835,18.834h403.524c10.401,0,18.834-8.433,18.834-18.834h0c0-10.402-8.433-18.835-18.834-18.835Z" fill="#005179" stroke-width="0"/>
      <g mix-blend-mode="multiply" opacity=".36">
        <path d="m423.637,1470.043c3.454,3.397,8.154,5.492,13.362,5.492h-62.734c-5.209,0-9.908-2.095-13.362-5.492-3.397-3.454-5.492-8.154-5.492-13.362,0-10.362,8.437-18.798,18.854-18.798h62.734c-10.418,0-18.854,8.436-18.854,18.798,0,5.209,2.095,9.908,5.492,13.362Z" fill="#005179" stroke-width="0"/>
      </g>
      <g mix-blend-mode="multiply" opacity=".36">
        <path d="m456.647,2056.96s-35.048,19.59-36.123,59.677h-77.342v-2.887c0-20.156,11.777-39.804,33.745-56.79h79.721Z" fill="#005179" stroke-width="0"/>
      </g>
      <g mix-blend-mode="multiply" opacity=".36">
        <path d="m565.016,994.327s-10.15,56.166-50.165,100.16c-35.61,39.151-203.66,180.22-88.61,329.978h-51.637s-77.286-44.333-50.674-162.668c24.176-108.086,190.807-171.443,241.086-267.47Z" fill="#005179" stroke-width="0"/>
      </g>
      <path d="m587.027,994.34h-22.021v-27.481c0-6.081,4.93-11.01,11.01-11.01h0c6.081,0,11.01,4.93,11.01,11.01v27.481Z" fill="#005179" stroke-width="0"/>
      <path d="m1192.488,1436.951c-46.18,27.085,5.965,302.898,17.597,323.147,7.875,13.709,24.85,15.806,33.783,12.334,30.222-11.746,58.971-85.002,62.373-97.907,4.265-16.181-10.096-56.848-34.365-40.819-6.534,4.316-10.914,5.48-10.914,5.48,0,0,10.05-118.036,3.149-158.49-6.9-40.454-40.659-61.907-71.624-43.746Z" fill="#3e95b4" stroke-width="0"/>
      <g mix-blend-mode="multiply" opacity=".36">
        <path d="m1194.512,1697.648c6.31,32.841,12.457,56.946,15.585,62.446,7.873,13.697,24.86,15.8,33.758,12.349,30.252-11.756,58.995-84.988,62.392-97.93,1.78-6.741.323-17.796-3.775-27.178-.539.323-1.078.593-1.618.863-14.128,7.495-27.286,16.825-41.901,23.296-7.496,3.343-15.477,5.878-23.673,6.849-6.795.809-14.56-1.672-21.085-.108-8.898,2.103-15.854,10.678-19.683,19.413Z" fill="#3e95b4" stroke-width="0"/>
      </g>
      <path d="m819.342,2149.872h598.967c15.746-20.223,14.258-100.953,12.442-127.068-1.603-23.058-15.278-52.794-33.667-65.197-12.672-8.736-127.08-74.464-158.573-94.147-36.778-22.972-7.927-253.56-22.379-317.786-11.487-50.96-16.556-75.497-65.682-93.239-70.05-25.345-163.225,1.034-230.957,26.002-58.779,21.679,14.551,265.362,15.63,285.745,2.589,50.367-18.011,67.084-34.081,97.067-.755,1.348-1.456,2.697-2.157,4.098-18.928,37.856-18.659,131.903-9.868,161.832,7.819,26.801-9.06,47.994-31.925,58.294-37.047,16.609-63.418,60.515-37.75,64.398Z" fill="#3e95b4" stroke-width="0"/>
      <g mix-blend-mode="multiply" opacity=".36">
        <path d="m932.75,1798.264c1.241.863,2.535,1.78,3.883,2.643,19.305,12.349,43.626,16.501,65.898,11.216,43.95-10.354,76.737-54.196,121.819-55.813,33.812-1.186,62.878,21.84,92.268,38.719,1.186.701,2.427,1.348,3.613,1.995-5.123-79.703,6.04-206.375-4.098-251.349-11.487-50.96-16.556-75.497-65.682-93.239-70.05-25.345-163.225,1.034-230.957,26.002-58.779,21.679,14.551,265.362,15.63,285.745.701,13.482-.27,24.537-2.373,34.081Z" fill="#3e95b4" stroke-width="0"/>
      </g>
      <path d="m882.805,1449.9c-25.673,20.081,4.554,283.549,13.893,301.814,7.434,14.539,80.954-106.067,80.954-106.067,0,0-3.774-115.697-10.674-156.151-6.9-40.454-57.402-60.534-84.173-39.596Z" fill="#3e95b4" stroke-width="0"/>
      <path d="m1216.462,1239.055c2.405-34.177-15.362-87.32-91.25-103.563-69.262-14.824-138.484,24.211-142.712,163.652-1.21,39.911,17.375,103.303,17.375,103.303,0,0-87.996,25.691-117.07,47.452,65.773-22.919,85.316,41.987,132,129.754,46.685,87.767,96.986,91.523,111.958,85.92,14.972-5.602,148.896-192.185,116.039-225.506-17.464-17.71-71.839-19.189-79.671-33.307-20.26-36.52,44.373-40.36,53.331-167.706Z" fill="#fff" stroke-width="0"/>
      <g mix-blend-mode="multiply" opacity=".63">
        <path d="m1012.722,1463.653c15.477,17.04,30.954,31.115,32.841,55.004,1.186,15.045-47.724-15.531-50.098-17.418-17.58-13.913,30.576,53.279,80.619,69.187,31.925,10.138,76.737,7.064,99.116-36.4,22.38-43.41-17.634,10.192-46.161,11.54-28.473,1.348-8.79.701,19.683-22.38,28.527-23.08,37.317-49.558,40.714-66.545,3.398-16.933-13.535,29.875-42.062,40.067-28.527,10.192-18.982-4.045,6.094-39.366,10.678-15.045,15.261-31.061,16.933-44.489-3.451-1.779-5.986-3.775-7.28-6.094-5.339-9.599-4.799-16.933-.917-24.86-19.791,1.348-72.801,3.505-88.115-10.084-19.036-16.825-50.907-64.549-50.907-64.549,0,0,3.721,52.254,35.375,88.924-1.348-.485-22.811-9.167-35.321-24.267.97,1.995,17.04,33.758,26.316,39.204-2.103-.701-35.969-12.295-43.302-19.575,1.186,1.672,20.33,28.204,52.362,42.009,0,0-8.952,8.844-72.099-8.79-63.147-17.634,2.535,12.781,26.208,38.881Z" fill="#dfeef4" stroke-width="0"/>
      </g>
      <path d="m1108.224,1401.756c-38.215-6.243-73.588-68.892-69.283-112.733,3.775-38.448,34.612-82.505,78.518-76.248,43.905,6.257,78.303,13.976,90.557,21.699,17.026,10.73-23.929,179.675-99.792,167.283Z" fill="#ffa48e" stroke-width="0"/>
      <path d="m1055.95,1243.215s108.748-31.243,155.409,15.042c0,0,8.869-42.896-36.095-61.348-41.909-17.199-104.715,14.065-119.315,46.307Z" fill="#3e95b4" stroke-width="0"/>
      <path d="m896.698,1751.713c7.434,14.539,44.986,34.362,59.387,26.362,7.369-4.094,65.958-53.884,71.322-65.576,27.825-8.071,16.414-107.12-7.753-90.939-24.167,16.181-42.002,24.086-42.002,24.086,0,0-90.293,87.803-80.954,106.067Z" fill="#3e95b4" stroke-width="0"/>
      <g mix-blend-mode="multiply" opacity=".36">
        <path d="m1254.674,1938.592c26.404,11.582,54.226,24.714,61.422,53.138-23.786-28.467-61.464-42.97-98.38-56.955-65.325-24.747-133.864-49.786-217.321-36.795,35.03-15.551,68.107-12.758,98.642-9.018,16.71,2.047,33.501,4.209,51.484,3.497,13.416-.532,36.786-10.031,44.259-2.475,8.845,8.941,12.512,21.407,23.336,29.272,10.923,7.936,23.744,13.717,36.557,19.337Z" fill="#3e95b4" stroke-width="0"/>
      </g>
      <g mix-blend-mode="multiply" opacity=".36">
        <path d="m819.349,2149.847h598.957c15.747-20.223,14.237-100.95,12.457-127.05-1.078-15.207-7.388-33.326-16.932-47.455,14.506,58.888-15.585,125.972-85.419,67.354,15.369,28.042-12.511,47.239-44.111,51.446-168.411,22.487-388.807,18.928-382.929-162.803.539-16.448.701-47.994,1.456-73.339-.593,1.078-1.186,2.157-1.78,3.235-.755,1.348-1.456,2.697-2.157,4.098-18.928,37.857-18.659,131.904-9.868,161.832,7.819,26.801-9.06,47.994-31.925,58.294-37.047,16.609-63.417,60.505-37.748,64.388Z" fill="#3e95b4" stroke-width="0"/>
      </g>
      <path d="m1019.654,1621.56c-6.939,8.244-5.464,64.512-1.585,81.892,2.212,9.909,17.514,12.35,22.149-10.362,6.605-32.363-12.989-80.53-20.564-71.53Z" fill="#0089ac" stroke-width="0"/>
      <g>
        <g>
          <path d="m1353.884,1585.406l-12.112-18.582s-63.067,6.297-96.733,44.912c0,0-37.59-66.695-102.716-81.609l-22.953,27.218,115.187,98.486,119.327-70.426Z" fill="#dfeef4" stroke-width="0"/>
          <g mix-blend-mode="multiply" opacity=".36">
            <polygon points="1142.324 1530.127 1133.557 1551.908 1123.248 1552.748 1142.324 1530.127" fill="#dfeef4" stroke-width="0"/>
          </g>
          <path d="m1233.829,1634.437s-44.386-70.523-113.423-93.349l-57.062,92.369,94.91,98.219,26.609,5.608s62.083-41.385,102.587-38.406l76.72-118.491s-76.623,10.158-113.311,57.638l-17.03-3.589Z" fill="#005179" stroke-width="0"/>
        </g>
        <path d="m1340.221,1617.376s-31.674,4.171-38.157,5.387c-5.818,1.091-7.144,12.624-2.649,12.624l24.859-.833s-18.985,1.886-27.112,2.217c-8.126.331-11.716,13.437-3.435,14.762,8.282,1.325,13.321,1.181,13.321,1.181,0,0-5.042.289-11.004-.042-5.963-.332-11.461,12.398-2.858,13.167,2.123.19,4.227.296,4.227.296,0,0-5.074,10.532,1.987,10.932,7.062.399,11.291.823,14.935-.834,3.644-1.656,6.956-6.625,6.294-9.937,0,0,12.588-7.62,9.606-12.257,0,0,13.675-9.275,9.985-16.563,0,0,12.541-10.931,9.891-18.551-2.65-7.619-5.464-8.387-5.464-8.387l-4.428,6.839Z" fill="#ffa48e" stroke-width="0"/>
        <path d="m1121.532,1618.47c-5.12-3.481-8.811-5.909-8.811-5.909-.71.525,3.01,2.81,8.811,5.909Z" fill="#ff8b62" stroke-width="0"/>
        <g>
          <path d="m1018.069,1703.452s38.206-37.424,44.448-43.537c.844-.798,2.98-.068,4.21-.557,3.418-1.358,5.843-.852,12.767,2.259,6.179,2.728,23.951,10.977,34.264,15.102,6.64,2.675,9.83-6.408,5.47-9.578-5.846-4.309-27.585-16.171-31.752-18.475,4.916,2.312,31.541,15.203,46.084,22.396,7.881,3.912,16.101-4.111,6.804-11.624-5.457-4.377-20.558-14.614-30.412-21.268,12.403,6.666,34.142,17.102,44.711,22.856,3.494,1.938,15.874-7.309,5.843-14.902-11.075-8.338-41.658-25.59-49.104-29.787,6.618,3.496,31.397,16.599,45.158,22.877,9.158,4.257,14.653-7.568,6.206-13.776-11.177-8.21-38.183-24.633-52.435-36.417-7.982-6.635-7.858-18.617-7.858-18.617.076-.015-23.156,2.295-31.297,9.988l-51.36,40.729s-18.839,21.019-1.745,82.331Zm82.728-71.339s3.69,2.428,8.81,5.909c-5.8-3.099-9.521-5.384-8.81-5.909Z" fill="#ffa48e" stroke-width="0"/>
          <g mix-blend-mode="multiply" opacity=".36">
            <path d="m1018.069,1703.452s38.206-37.424,44.448-43.537c0,0-13.333-8.664-14.574-22.358,0,0-4.586,11.79,3.414,22.257l-33.855,28.885s-10.74-46.239,2.21-67.449l-.102.128c-1.941,2.443-17.622,24.503-1.541,82.074Z" fill="#ffa48e" stroke-width="0"/>
          </g>
        </g>
      </g>
      <g mix-blend-mode="multiply" opacity=".36">
        <path d="m977.652,1645.646s-55.754-13.809-74.953,65.042c0,0,11.814-35.299,27.813-39.778,0,0-9.894,14.954-6.694,36.713,0,0,5.927-48.028,53.834-61.977Z" fill="#3e95b4" stroke-width="0"/>
      </g>
      <path d="m1623.234,1843.385s-27.826-149.642-22.379-181.582c5.448-31.939,49.446-51.041,70.582-34.509,20.27,15.855-19.88,350.14-19.88,350.14l-88.444-23.676,60.12-110.373Z" fill="#005179" stroke-width="0"/>
      <path d="m1953.726,2149.872h-472.904c-12.432-15.966-11.257-79.706-9.824-100.324,1.266-18.205,12.063-41.682,26.581-51.475,10.005-6.897,101.096-57.633,125.198-74.332,50.081-34.698-1.102-156.873,17.669-221.319,11.534-39.599,13.071-59.607,51.859-73.615,55.307-20.011,128.871,15.608,182.348,35.321,46.408,17.116-11.489,165.137-12.341,181.231-2.044,39.767,14.221,52.965,26.908,76.638.596,1.064,1.149,2.129,1.703,3.236,14.944,29.888,14.731,104.142,7.791,127.772-6.174,21.16,7.153,37.893,25.206,46.025,29.25,13.114,50.071,47.778,29.804,50.844Z" fill="#3e95b4" stroke-width="0"/>
      <path d="m1953.726,2149.872h-472.904c-12.432-15.966-11.257-79.706-9.824-100.324,1.266-18.205,12.063-41.682,26.581-51.475,10.005-6.897,101.096-57.633,125.198-74.332,50.081-34.698-1.102-156.873,17.669-221.319,11.534-39.599,13.071-59.607,51.859-73.615,55.307-20.011,128.871,15.608,182.348,35.321,46.408,17.116-11.489,165.137-12.341,181.231-2.044,39.767,14.221,52.965,26.908,76.638.596,1.064,1.149,2.129,1.703,3.236,14.944,29.888,14.731,104.142,7.791,127.772-6.174,21.16,7.153,37.893,25.206,46.025,29.25,13.114,50.071,47.778,29.804,50.844Z" fill="#005179" stroke-width="0"/>
      <g mix-blend-mode="multiply" opacity=".36">
        <path d="m1953.738,2149.867h-472.935c-12.425-15.975-11.242-79.677-9.812-100.336.592-8.628,3.353-18.539,7.692-27.562-2.564,42.452,24.209,84.361,73.12,43.29-12.129,22.138,9.861,37.275,34.809,40.627,132.976,17.75,314.271-57.293,279.462-133.864-11.143-24.554-68.584-4.339-103.097,23.666-32.788,26.625-78.987,70.309-111.43,36.831-9.812-10.157,35.105-46.051,21.3-43.043-50.834,10.995-74.993,27.216-118.135,56.356,10.502-20.61,28.893-36.141,48.22-48.861,19.328-12.721,41.802-35.316,43.783-84.756,8.866,41.305,65.364,43.825,107.189-8.283,44.866-55.896,74.549-126.024,67.597-197.369-12.326,36.289-53.579,92.148-94.837,98.254-21.714,3.213-68.314-53.83-80.098-72.369,3.106,39.444,1.972,82.685-1.183,122.129,1.134-14.101-1.035-31.161-3.895-47.826-4.191-37.718.664-80.982-3.843-91.181-6.067-13.729-40.796-66.637-13.189-85.632,48.429-33.32,196.7,14.451,250.196,34.173,46.396,17.109-11.488,165.172-12.326,181.246-2.071,39.789,14.2,52.954,26.871,76.62.641,1.085,1.183,2.169,1.726,3.254,14.939,29.879,14.742,104.133,7.79,127.75-6.163,21.201,7.149,37.916,25.195,46.051,29.287,13.115,50.094,47.777,29.83,50.834Z" fill="#005179" stroke-width="0"/>
      </g>
      <g mix-blend-mode="multiply" opacity=".36">
        <path d="m1628.175,1919.267c-2.564,15.087-7.494,29.534-17.405,41.022-7.051,8.135-16.32,14.397-22.138,23.519-3.599,5.67-5.719,12.277-9.762,17.75-5.966,8.135-15.58,12.77-25.096,16.271-10.946,4.043-22.335,7.001-33.823,8.826-7.692,1.183-17.01,1.233-21.497-5.078-4.437-6.262-1.627-18.785,2.12-25.096.099-.197.247-.394.394-.592,19.476-11.932,99.498-56.701,121.833-72.133,1.923-1.331,3.747-2.81,5.374-4.487Z" fill="#005179" stroke-width="0"/>
      </g>
      <g>
        <path d="m1719.58,1957.481s-11.456,16.297-16.869,19.953c-7.191,4.858-25.632,8.471-31.273,15.066-4.648,5.434-11.503,22.14-19.676,34.719-1.924,2.961,10.433,3.991,10.433,3.991,0,0-.254,1.071-2.384,5.073-.604,1.135,13.946,5.342,18.517-4.148,0,0,7.868,6.157,13.655.38,2.785-2.78,4.362-3.983,4.362-3.983,0,0,6.153,4.259,10.112-.026,1.965-2.128,10.508-9.902,13.735-11.148,3.228-1.245,12.288-3.576,17.477-8.556s6.1-10.207,8.175-12.412c2.076-2.206,19.924-18.601,19.924-18.601l-46.188-20.306Z" fill="#ffa48e" stroke-width="0"/>
        <g mix-blend-mode="multiply" opacity=".36">
          <path d="m1659.231,2030.857l24.125-33.02s-3.861,9.674-6.986,14.086c-3.125,4.412-14.176,19.286-14.176,19.286l-2.963-.352Z" fill="#ffa48e" stroke-width="0"/>
        </g>
        <g mix-blend-mode="multiply" opacity=".36">
          <path d="m1678.328,2032.134l16.793-29.219-22.262,34.249s2.661-.145,5.469-5.03Z" fill="#ffa48e" stroke-width="0"/>
        </g>
        <g mix-blend-mode="multiply" opacity=".36">
          <polygon points="1696.345 2028.53 1712.078 2007.304 1691.983 2032.513 1696.345 2028.53" fill="#ffa48e" stroke-width="0"/>
        </g>
      </g>
      <g>
        <path d="m1539.081,1961.523c5.443-5.443,13.326-15.28,13.326-15.28l34.654,20.139s-8.942,12.979-10.579,15.777c-2.032,3.473-4.211,14.78-11.394,21.087-4.604,4.042-21.942,12.695-24.428,12.695s-3.045-7.2,3.727-10.759c3.745-1.968,4.65-4.659,4.65-4.659,0,0-7.19,3.085-10.601,5.447-3.411,2.362-16.952,17.898-22.725,19.211-5.773,1.312-5.354-2.416-5.354-2.416,0,0-2.886,4.62-8.66,4.147-5.773-.473-.912-6.935-.912-6.935,0,0-4.599,1.476-5.648-1.41-1.05-2.887,6.298-13.384,6.298-13.384,0,0-5.157-.809-3.149-3.936,2.008-3.127,10.538-17.938,14.737-21.612,4.199-3.674,21.953-14.003,26.06-18.109Z" fill="#ffa48e" stroke-width="0"/>
        <g mix-blend-mode="multiply" opacity=".36">
          <path d="m1510.356,2022.762l19.078-25.796s-1.832-.332-2.855,1.275c-1.023,1.607-16.223,24.521-16.223,24.521Z" fill="#ffa48e" stroke-width="0"/>
        </g>
        <g mix-blend-mode="multiply" opacity=".36">
          <path d="m1500.784,2019.974l20.802-28.028s-4.67,3.542-5.104,4.084c-.434.542-15.698,23.943-15.698,23.943Z" fill="#ffa48e" stroke-width="0"/>
        </g>
        <g mix-blend-mode="multiply" opacity=".36">
          <path d="m1501.433,2005.18l14.124-18.951s-7.56,7.054-8.038,8.129-6.086,10.822-6.086,10.822Z" fill="#ffa48e" stroke-width="0"/>
        </g>
      </g>
      <path d="m1814.626,1839.704s17.088-149.698,22.536-181.638c5.447-31.94,45.32-33.002,66.457-16.471,20.27,15.855-5.747,215.657-13.365,229.95-14.2,26.642-131.783,117.916-131.783,117.916,0,0-23.784-37.184-49.57-19.57l105.726-130.187Z" fill="#005179" stroke-width="0"/>
      <path d="m1650.886,1448.408c5.596-66.422,44.461-81.048,78.414-82.472,55.875-2.344,101.829,36.579,98.35,116.062-1.379,31.495-16.462,107.34-16.462,107.34,0,0,69.476,35.075,92.43,52.257-51.93-18.095-67.359,18.359-104.218,87.653-36.859,69.294-70.81,67.107-83.428,67.383-30.22.661-122.525-136.492-96.583-162.799,13.789-13.983,57.149-29.714,62.903-41.088,3.857-7.624-40.803-32.809-31.407-144.336Z" fill="#fff" stroke-width="0"/>
      <g mix-blend-mode="multiply" opacity=".63">
        <path d="m1755.235,1681.073c-2.367,11.883,39.148-12.228,41.17-13.756,15.186-10.946-29.139,42.107-70.161,54.63-26.132,8.037-61.237,5.571-74.796-28.745-13.608-34.267,12.967,8.086,35.352,9.121,22.335,1.085,6.853.542-13.46-17.651-20.314-18.243-24.801-39.148-25.885-52.559-1.085-13.362,7.889,23.617,29.435,31.654,21.596,8.037,15.383-3.205-1.085-31.062-6.163-10.453-8.53-21.497-9.072-31.259,7.692-2.317,13.707-4.931,15.58-8.678,2.86-5.67-21.103-21.053-29.682-74.352,26.428,13.805,82.586,55.813,93.877,46.741,16.172-12.918,44.769-49.059,46.248-50.883-.444,2.465-8.727,42.057-36.289,70.112,1.134-.345,18.736-7.199,30.027-18.933-1.775,2.909-16.714,26.575-24.307,30.717,1.726-.542,29.583-9.664,36.042-15.433-1.085,1.331-18.687,22.286-45.311,33.182,0,0,6.262,6.952,57.786-6.952,51.475-13.904-3.205,10.108-24.357,30.717-13.855,13.411-27.364,24.554-31.112,43.389Z" fill="#dfeef4" stroke-width="0"/>
      </g>
      <path d="m1702.167,1582.119c36.866,6.119,74.257-28.233,83.469-66.702,8.079-33.737,10.498-78.12-31.584-85.927-42.081-7.806-75.895-11.533-89.433-8.643-18.81,4.015-35.636,149.124,37.548,161.272Z" fill="#ffa48e" stroke-width="0"/>
      <path d="m1790.389,1470.162s-79.987-56.084-136.99-28.26c0,0,4.635-41.338,51.498-39.315,47.093,2.033,85.492,40.664,85.492,67.575Z" fill="#005179" stroke-width="0"/>
      <path d="m1615.308,1842.748c-1.476,7.363-71.994,113.023-71.994,113.023l39.487,26.387s48.836-58.828,57.437-84.811c3.905-11.797-28.009-124.512-28.009-124.512,0,0,6.588,52.41,3.08,69.913Z" fill="#005179" stroke-width="0"/>
      <g mix-blend-mode="multiply" opacity=".36">
        <path d="m1627.817,1921.266s9.526-27.254,7.596-47.035c-1.93-19.78-17.107-28.952-17.107-28.952,0,0,18.651,7.721,19.809,14.283,0,0-.775-10.89-7.142-15.674,0,0,12.226,9.884,14.51,16.06,2.283,6.176,0,49.411,0,49.411,0,0-3.234-8.492-4.915-4.632-1.68,3.86-12.751,16.539-12.751,16.539Z" fill="#005179" stroke-width="0"/>
      </g>
      <rect x="230.958" y="2149.849" width="1855.664" height="36.821" fill="#005179" stroke-width="0"/>
    </g>
  </g>
</svg>