<?xml version="1.0" encoding="UTF-8"?>
<svg id="Layer_1" data-name="Layer 1" xmlns="http://www.w3.org/2000/svg" viewBox="0 0 2436 2436">
  <path d="m2335.997,1334.791c55.232,0,100.003-44.759,100.003-99.991s-44.771-99.997-100.003-99.997h-304.526c-7.386,0-14.564.825-21.506,2.351h-21.061c-55.22,0-99.991-44.778-99.991-99.991,0-27.622,11.185-52.617,29.287-70.722,13.889-13.904,31.869-23.698,51.968-27.509h227.429c55.232,0,100.003-44.778,100.003-100.003s-44.771-99.994-100.003-99.994h-91.454c55.232,0,99.991-44.771,99.991-99.994s-44.759-99.997-99.991-99.997h-150.851c-169.373-179.931-409.717-292.312-676.322-292.312-159.798,0-310.162,40.39-441.479,111.477h-280.527c-55.223,0-99.994,44.771-99.994,99.994,0,41.976,25.868,77.882,62.52,92.714h-155.667c-55.226,0-99.997,44.762-99.997,99.994s44.771,99.994,99.997,99.994h122.787c42.204,11.715,73.196,50.397,73.196,96.328,0,55.238-44.771,100.009-99.987,100.009h-13.259c-.493-.006-.986-.04-1.482-.04H140.544c-55.222,0-99.994,44.771-99.994,100s44.771,99.997,99.994,99.997h136.633c-30.953,16.997-51.947,49.895-51.947,87.7,0,55.232,44.771,99.991,100.003,99.991h249.383c55.046.195,99.625,44.887,99.625,99.991,0,51.718-39.252,94.249-89.566,99.455h-208.134c-55.232,0-100.003,44.771-100.003,100.003,0,28.928,12.308,54.982,31.954,73.248H119.005c-55.232,0-99.997,44.771-99.997,99.991s44.765,100.003,99.997,100.003h449.806c-39.209,13.517-67.391,50.719-67.391,94.523,0,55.232,44.768,99.991,99.994,99.991h616.305c20.257,1.316,40.679,2.034,61.253,2.034,20.751,0,41.343-.688,61.747-2.034h36.619c6.241,0,12.202-.597,17.919-1.692h652.161c55.22,0,100.003-44.765,100.003-99.985s-44.783-100.002-100.003-100.002h-270.021c-43.529-10.826-75.781-50.154-75.781-97.031,0-27.595,11.186-52.62,29.281-70.704,18.114-18.096,43.109-29.287,70.722-29.287h175.437c5.87,1.071,11.916,1.662,18.084,1.662h304.532c55.232,0,99.997-44.765,99.997-99.997s-44.765-99.991-99.997-99.991h-152.226c20.684-54.465,36.381-111.371,46.549-170.177h142.004Z" fill="#fceeb6" stroke-width="0"/>
  <path d="m135.349,1901.028c1.623,6.411,3.845,12.777,6.724,19.015,24.209,52.462,96.71,70.595,134.931,52.956,38.224-17.632,71.477-84.562,47.271-137.032-2.876-6.236-6.285-12.057-10.112-17.454l-178.813,82.515Z" fill="#c1eae7" stroke-width="0"/>
  <path d="m327.785,1788.639c6.361,13.776.344,30.106-13.437,36.467l-171.447,79.112c-13.782,6.355-30.106.339-36.467-13.437h0c-6.355-13.782-.339-30.111,13.437-36.467l171.445-79.112c13.784-6.361,30.114-.344,36.47,13.437h0Z" fill="#e2306c" stroke-width="0"/>
  <path d="m419.274,2039.323c-1.626-6.411-3.84-12.777-6.718-19.02-24.209-52.462-96.715-70.59-134.939-52.958-38.216,17.64-71.477,84.57-47.268,137.034,2.879,6.236,6.285,12.057,10.112,17.459l178.813-82.515Z" fill="#c1eae7" stroke-width="0"/>
  <path d="m399.575,2048.415c-1.266-4.999-2.999-9.961-5.246-14.828-18.872-40.902-75.4-55.036-105.195-41.288-29.798,13.753-55.725,65.936-36.856,106.838,2.25,4.862,4.904,9.402,7.885,13.609l139.412-64.331Z" fill="#ffdc78" stroke-width="0"/>
  <path d="m226.839,2151.713c-6.356-13.782-.339-30.106,13.442-36.467l171.442-79.112c13.782-6.363,30.106-.339,36.467,13.437h0c6.355,13.782.344,30.106-13.437,36.467l-171.447,79.112c-13.782,6.356-30.106.339-36.466-13.437h0Z" fill="#e2306c" stroke-width="0"/>
  <g>
    <path d="m307.676,1261.788l-270.358,99.637c-14.492,5.339-21.918,21.436-16.579,35.924l83.525,226.627c5.346,14.503,21.436,21.917,35.924,16.579l270.354-99.637c14.495-5.346,21.925-21.421,16.579-35.931l-83.521-226.626c-5.342-14.488-21.436-21.918-35.924-16.572Zm-71.962,85.164l-84.882,31.282c-7.241,2.669-15.289-1.045-17.962-8.282-1.338-3.64-1.079-7.466.426-10.707,1.498-3.247,4.241-5.924,7.863-7.259l84.878-31.282c7.248-2.669,15.289,1.031,17.965,8.282,2.669,7.252-1.049,15.296-8.29,17.965Z" fill="#c1eae7" stroke-width="0"/>
    <path d="m307.676,1261.788l-270.358,99.637c-14.492,5.339-21.918,21.436-16.579,35.924l28.057,76.126,322.861-118.982-28.057-76.133c-5.342-14.488-21.436-21.918-35.924-16.572Zm-71.962,85.164l-84.882,31.282c-7.241,2.669-15.289-1.045-17.962-8.282-1.338-3.64-1.079-7.466.426-10.707,1.498-3.247,4.241-5.924,7.863-7.259l84.878-31.282c7.248-2.669,15.289,1.031,17.965,8.282,2.669,7.252-1.049,15.296-8.29,17.965Z" fill="#c91b5e" stroke-width="0"/>
    <path d="m307.676,1261.788l-270.358,99.637c-14.492,5.339-21.918,21.436-16.579,35.924l18.711,50.753,322.85-118.989-18.7-50.753c-5.342-14.488-21.436-21.918-35.924-16.572Zm-71.962,85.164l-84.882,31.282c-7.241,2.669-15.289-1.045-17.962-8.282-1.338-3.64-1.079-7.466.426-10.707,1.498-3.247,4.241-5.924,7.863-7.259l84.878-31.282c7.248-2.669,15.289,1.031,17.965,8.282,2.669,7.252-1.049,15.296-8.29,17.965Z" fill="#e2306c" stroke-width="0"/>
    <path d="m140.473,1483.313c2.829,7.674-1.105,16.201-8.782,19.026l-20.138,7.422c-7.674,2.832-16.197-1.098-19.026-8.779h0c-2.836-7.682,1.097-16.201,8.775-19.026l20.138-7.429c7.681-2.825,16.201,1.105,19.033,8.786h0Z" fill="#fff" stroke-width="0"/>
    <path d="m212.395,1456.806c2.832,7.674-1.097,16.201-8.775,19.033l-20.141,7.414c-7.678,2.832-16.205-1.097-19.03-8.779h0c-2.829-7.681,1.101-16.201,8.782-19.026l20.135-7.429c7.681-2.825,16.204,1.105,19.029,8.786h0Z" fill="#fff" stroke-width="0"/>
    <path d="m284.324,1430.299c2.829,7.674-1.101,16.201-8.779,19.026l-20.142,7.422c-7.678,2.832-16.201-1.097-19.029-8.779h0c-2.832-7.681,1.101-16.201,8.779-19.026l20.138-7.429c7.682-2.825,16.201,1.105,19.033,8.786h0Z" fill="#fff" stroke-width="0"/>
    <path d="m356.245,1403.792c2.829,7.674-1.097,16.193-8.779,19.026l-20.138,7.422c-7.678,2.832-16.201-1.105-19.033-8.779h0c-2.825-7.681,1.101-16.201,8.786-19.033l20.138-7.422c7.678-2.832,16.197,1.105,19.026,8.786h0Z" fill="#fff" stroke-width="0"/>
    <path d="m157.438,1529.343c2.829,7.681-1.101,16.201-8.783,19.026l-20.138,7.429c-7.681,2.825-16.201-1.105-19.026-8.779h0c-2.832-7.681,1.101-16.208,8.779-19.033l20.138-7.422c7.678-2.832,16.197,1.097,19.03,8.779h0Z" fill="#fff" stroke-width="0"/>
    <path d="m229.363,1502.836c2.829,7.674-1.098,16.194-8.783,19.033l-20.138,7.422c-7.678,2.825-16.197-1.105-19.026-8.786h0c-2.836-7.674,1.101-16.201,8.779-19.026l20.138-7.422c7.678-2.832,16.197,1.098,19.03,8.779h0Z" fill="#fff" stroke-width="0"/>
    <path d="m301.288,1476.329c2.829,7.682-1.101,16.201-8.783,19.026l-20.134,7.43c-7.682,2.825-16.205-1.105-19.037-8.779h0c-2.825-7.689,1.105-16.209,8.786-19.041l20.141-7.414c7.678-2.832,16.197,1.098,19.026,8.779h0Z" fill="#e2306c" stroke-width="0"/>
    <path d="m373.213,1449.822c2.829,7.674-1.105,16.193-8.783,19.026l-20.138,7.422c-7.678,2.832-16.197-1.098-19.03-8.779h0c-2.832-7.674,1.105-16.201,8.783-19.026l20.138-7.422c7.678-2.832,16.197,1.098,19.03,8.779h0Z" fill="#fff" stroke-width="0"/>
    <path d="m174.406,1575.373c2.829,7.681-1.101,16.201-8.783,19.033l-20.141,7.422c-7.678,2.825-16.194-1.105-19.026-8.779h0c-2.832-7.681,1.097-16.208,8.779-19.033l20.138-7.422c7.678-2.832,16.201,1.105,19.033,8.779h0Z" fill="#fff" stroke-width="0"/>
    <path d="m246.324,1548.873c2.832,7.674-1.097,16.193-8.779,19.026l-20.138,7.422c-7.682,2.825-16.201-1.098-19.03-8.779h0c-2.832-7.681,1.105-16.201,8.779-19.033l20.141-7.422c7.674-2.832,16.197,1.098,19.026,8.786h0Z" fill="#fff" stroke-width="0"/>
    <path d="m318.253,1522.358c2.832,7.682-1.097,16.201-8.779,19.033l-20.142,7.422c-7.678,2.825-16.197-1.105-19.029-8.779h0c-2.832-7.682,1.101-16.201,8.782-19.041l20.134-7.414c7.682-2.832,16.205,1.105,19.033,8.779h0Z" fill="#fff" stroke-width="0"/>
    <path d="m390.182,1495.859c2.829,7.674-1.105,16.193-8.786,19.018l-20.138,7.429c-7.678,2.825-16.197-1.105-19.03-8.779h0c-2.832-7.681,1.101-16.201,8.783-19.041l20.138-7.414c7.678-2.832,16.201,1.098,19.033,8.786h0Z" fill="#fff" stroke-width="0"/>
  </g>
  <path d="m93.71,1358.037c1.779,4.834-.69,10.195-5.524,11.975h0c-4.834,1.779-10.199-.69-11.975-5.524l-8.063-21.873c-1.78-4.835.689-10.195,5.527-11.975h0c4.831-1.78,10.191.689,11.971,5.524l8.063,21.873Z" fill="#fff" stroke-width="0"/>
  <path d="m279.563,1289.541c1.78,4.834-.701,10.195-5.531,11.982h0c-4.831,1.78-10.195-.697-11.975-5.531l-8.06-21.873c-1.779-4.827.693-10.188,5.524-11.975h0c4.831-1.78,10.195.697,11.975,5.531l8.067,21.866Z" fill="#fff" stroke-width="0"/>
  <path d="m2364.789,776.413c8.063,11.084,5.603,26.628-5.491,34.681l-262.703,190.892c-11.092,8.063-26.628,5.606-34.691-5.498l-257.654-354.604c-8.061-11.084-5.6-26.618,5.491-34.681l262.703-190.885c11.092-8.063,26.091-8.185,33.275,1.411l259.07,358.684Z" fill="#ef8d43" stroke-width="0"/>
  <path d="m2374.689,774.966c8.063,11.084,5.603,26.628-5.496,34.691l-262.696,190.883c-11.099,8.063-26.628,5.596-34.691-5.498l-257.658-354.604c-8.058-11.084-5.603-26.618,5.496-34.681l262.701-190.885c11.094-8.058,26.623-5.603,34.686,5.491l257.659,354.604Z" fill="#f2bf6d" stroke-width="0"/>
  <polygon points="2321.251 776.957 2090.21 944.826 1856.639 623.388 2087.682 455.51 2321.251 776.957" fill="#fff" stroke-width="0"/>
  <path d="m1982.169,454.553l-27.507,19.337c-10.475-11.483-27.405-11.393-40.272-2.04-12.061,8.765-15.927,24.619-10.038,37.705.388.874-27.854,20.826-27.854,20.826l13.644,83.828,4.165.903,163.9-120.549-71.011-40.224-5.028.214Zm-41.523,53.431c-6.14,4.457-14.725,3.106-19.184-3.041-4.452-6.125-3.099-14.72,3.036-19.184,6.13-4.452,14.732-3.087,19.184,3.044,4.462,6.135,3.094,14.725-3.036,19.181Z" fill="#a7b4bc" stroke-width="0"/>
  <path d="m1987.197,454.339l-27.991,20.338c-10.474-11.48-28.136-13.494-41.003-4.143-12.867,9.353-16.403,26.762-8.734,40.284l-28.347,20.595,13.185,83.699,167.716-121.87-74.827-38.902Zm-42.737,52.33c-6.135,4.457-14.72,3.099-19.184-3.043-4.452-6.122-3.099-14.72,3.036-19.181,6.13-4.452,14.737-3.089,19.189,3.036,4.457,6.14,3.089,14.73-3.041,19.189Z" fill="#d4d8db" stroke-width="0"/>
  <path d="m1911.765,645.848c-.51.185-1.091.009-1.416-.457-.401-.554-.267-1.331.291-1.729l182.334-129.275c.559-.393,1.331-.267,1.731.286.393.566.26,1.343-.294,1.736l-182.331,129.282c-.102.058-.209.126-.315.156Z" fill="#a7b4bc" stroke-width="0"/>
  <path d="m1923.663,662.752c-.512.185-1.093.01-1.416-.447-.401-.564-.267-1.341.291-1.739l182.334-129.28c.559-.393,1.335-.267,1.731.298.398.564.265,1.331-.294,1.736l-182.334,129.275c-.099.068-.206.126-.313.155Z" fill="#a7b4bc" stroke-width="0"/>
  <path d="m1935.561,679.665c-.507.175-1.093,0-1.418-.457-.398-.564-.265-1.34.294-1.739l182.334-129.282c.559-.391,1.335-.265,1.729.301.401.563.267,1.331-.291,1.739l-182.334,129.272c-.102.068-.206.126-.313.165Z" fill="#a7b4bc" stroke-width="0"/>
  <path d="m1947.459,696.559c-.507.185-1.093.009-1.418-.447-.393-.563-.265-1.34.293-1.739l182.332-129.282c.561-.389,1.338-.253,1.731.301.401.564.267,1.331-.291,1.739l-182.334,129.272c-.102.068-.209.126-.313.156Z" fill="#a7b4bc" stroke-width="0"/>
  <path d="m1959.354,713.462c-.505.185-1.09.01-1.416-.447-.393-.564-.268-1.331.293-1.739l182.332-129.273c.566-.388,1.338-.262,1.736.291.393.564.262,1.331-.299,1.739l-182.331,129.282c-.102.059-.204.117-.316.146Z" fill="#a7b4bc" stroke-width="0"/>
  <path d="m1971.252,730.366c-.505.185-1.085.009-1.416-.447-.395-.564-.267-1.34.299-1.739l182.331-129.272c.554-.398,1.331-.263,1.732.291.393.564.26,1.34-.299,1.739l-182.334,129.282c-.095.058-.201.116-.313.146Z" fill="#a7b4bc" stroke-width="0"/>
  <path d="m2104.105,735.758c-.5.175-1.076.009-1.406-.447-.403-.554-.282-1.331.267-1.739l83.628-61.095c.549-.388,1.326-.272,1.729.282.405.554.289,1.331-.265,1.729l-83.624,61.095c-.107.078-.214.136-.33.175Z" fill="#a7b4bc" stroke-width="0"/>
  <path d="m1622.393,136.875c1.329,3.986-.821,8.296-4.8,9.625l-154.821,264.995-287.878-116.71c-3.983,1.336-8.286-.814-9.625-4.8,0,0,129.623-271.203,159.96-281.366,30.334-10.159,297.165,128.256,297.165,128.256Z" fill="#acdddb" stroke-width="0"/>
  <g>
    <path d="m1655.615,391.659c1.336,3.983-.811,8.289-4.79,9.622l-360.409,120.719c-3.983,1.336-8.289-.811-9.625-4.797l-123.128-367.611c-1.336-3.986.811-8.293,4.786-9.628l360.413-120.72c3.983-1.329,8.292.818,9.628,4.804l123.125,367.611Z" fill="#fff" stroke-width="0"/>
    <path d="m1518.756,86.768l-312.953,104.818c-1.994.669-4.148-.408-4.817-2.402-.674-1.984.407-4.141,2.402-4.804l312.953-104.828c1.984-.662,4.144.411,4.81,2.402.669,1.992-.411,4.142-2.394,4.814Z" fill="#353593" stroke-width="0"/>
    <path d="m1529.422,118.6l-312.959,104.824c-1.994.666-4.144-.404-4.811-2.398-.669-1.992.407-4.144,2.395-4.811l312.959-104.824c1.984-.666,4.142.404,4.811,2.398.669,1.995-.407,4.151-2.395,4.811Z" fill="#353593" stroke-width="0"/>
    <path d="m1540.082,150.441l-312.959,104.821c-1.985.669-4.141-.4-4.804-2.392-.669-1.998.4-4.148,2.395-4.814l312.952-104.822c1.985-.669,4.145.404,4.811,2.392.669,1.998-.411,4.145-2.395,4.814Z" fill="#353593" stroke-width="0"/>
    <path d="m1550.749,182.282l-312.953,104.822c-1.998.659-4.148-.407-4.817-2.402-.669-1.987.4-4.141,2.402-4.81l312.952-104.818c1.985-.662,4.144.404,4.811,2.395.673,1.987-.407,4.144-2.395,4.814Z" fill="#353593" stroke-width="0"/>
    <path d="m1561.408,214.124l-312.953,104.815c-1.991.669-4.148-.404-4.81-2.395-.673-1.994.411-4.141,2.395-4.814l312.952-104.818c1.994-.669,4.155.401,4.818,2.395.662,1.994-.408,4.141-2.402,4.817Z" fill="#353593" stroke-width="0"/>
    <path d="m1572.075,245.955l-312.953,104.825c-1.991.662-4.144-.401-4.817-2.395-.666-1.991.407-4.151,2.402-4.817l312.953-104.825c1.994-.659,4.144.407,4.811,2.406.669,1.991-.401,4.141-2.395,4.807Z" fill="#a3b7b6" stroke-width="0"/>
    <path d="m1582.739,277.793l-312.956,104.822c-1.991.669-4.148-.404-4.81-2.395-.67-1.992.411-4.144,2.398-4.814l312.956-104.817c1.987-.669,4.144.411,4.814,2.398.669,1.988-.411,4.145-2.402,4.807Z" fill="#a3b7b6" stroke-width="0"/>
    <path d="m1593.402,309.635l-312.96,104.821c-1.984.666-4.134-.404-4.81-2.394-.666-1.992.411-4.145,2.405-4.811l312.949-104.822c1.995-.669,4.148.401,4.81,2.395.673,1.992-.4,4.142-2.394,4.811Z" fill="#a3b7b6" stroke-width="0"/>
    <path d="m1604.068,341.473l-312.959,104.824c-1.985.659-4.137-.411-4.811-2.402-.669-1.995.404-4.145,2.399-4.811l312.955-104.822c1.988-.666,4.149.408,4.814,2.399.669,1.987-.411,4.144-2.399,4.811Z" fill="#a3b7b6" stroke-width="0"/>
    <path d="m1614.732,373.311l-312.962,104.825c-1.985.662-4.131-.404-4.804-2.399-.669-1.991.404-4.155,2.402-4.81l312.948-104.825c1.992-.666,4.145.404,4.811,2.399.669,1.987-.404,4.137-2.395,4.81Z" fill="#a3b7b6" stroke-width="0"/>
  </g>
  <path d="m1717.155,419.822c1.339,3.972-.811,8.282-4.79,9.621l-442.703,148.275c-3.982,1.332-8.292-.811-9.621-4.79l-93.558-279.316c-1.329-3.983.818-8.292,4.797-9.632l261.789,46.601,180.914-194.876c3.975-1.329,8.285.818,9.621,4.797l93.55,279.32Z" fill="#c1eae7" stroke-width="0"/>
  <path d="m1338.963,316.008l-78.922,256.92c1.329,3.979,5.639,6.122,9.621,4.79l442.703-148.275c3.979-1.339,6.129-5.649,4.79-9.621l-218.974-157.144-159.218,53.33Z" fill="#d9f4f1" stroke-width="0"/>
  <path d="m1910.997,45.98c-.401-.128-.808-.242-1.208-.363-.394-.141-.78-.293-1.18-.431-66.623-22.2-138.623,13.803-160.833,80.423-7.364,22.096-13.942,65.871,13.272,113.714,18.607,32.701-1.615,63.083-1.615,63.083l116.585,38.861s2.05-36.442,36.551-51.44c50.487-21.944,71.482-60.908,78.854-83.004,22.196-66.626-13.811-138.633-80.427-160.843Z" fill="#ffdc80" stroke-width="0"/>
  <path d="m1905.972,200.75c-6.115-6.501-12.112-7.116-16.074-6.481-12.416,1.995-20.457,17.993-21.934,21.182-1.981,4.245-4.265,9.98-6.688,16.568-8.675.083-23.646-6.347-27.359-9.121,2.009-6.722,3.624-12.682,4.583-17.258.731-3.448,3.899-21.071-4.831-30.112-2.789-2.885-7.965-5.997-16.758-4.455-7.468,1.305-13.279,6.971-15.177,14.791-3.105,12.872,4.831,28.039,21.244,40.669-9.897,31.541-26.42,75.444-26.634,76.013-.918,2.422.311,5.135,2.74,6.049.055.024.11.045.166.059,2.381.794,4.983-.428,5.88-2.792.849-2.254,16.012-42.539,25.909-73.67,4.866,3.413,22.493,9.293,26.965,8.989-10.759,30.844-22.803,72.173-23.473,74.478-.697,2.433.649,4.97,3.016,5.764.062.02.131.037.186.061,2.491.715,5.1-.71,5.811-3.206.18-.58,13.3-45.618,24.301-76.786,20.72-.259,36.159-7.63,41.391-19.802,3.182-7.388,1.925-15.408-3.265-20.94Zm-95.107-12.682c1.015-4.193,3.886-7.084,7.661-7.751,2.74-.476,4.617-.259,5.908.172,1.422.476,2.14,1.211,2.478,1.563,4.197,4.338,3.734,15.322,2.402,21.644-.753,3.572-1.933,8.062-3.403,13.152-16.91-14.18-15.84-25.502-15.046-28.781Zm89.745,29.912c-1.325,3.099-7.268,12.8-29.292,14.008,1.871-4.963,3.617-9.263,5.149-12.572,2.734-5.853,8.959-14.918,14.922-15.871.483-.083,1.491-.241,2.912.235,1.304.432,2.933,1.384,4.831,3.399,2.629,2.802,3.182,6.836,1.477,10.801Z" fill="#fff" stroke-width="0"/>
  <path d="m1830.177,386.084c-3.596,10.794-15.266,16.633-26.061,13.03l-24.246-8.082c-10.802-3.596-16.64-15.267-13.044-26.061h0c3.602-10.795,15.281-16.634,26.075-13.038l24.246,8.089c10.794,3.596,16.633,15.266,13.03,26.061h0Z" fill="#d9f4f1" stroke-width="0"/>
  <path d="m1882.458,347.703c-2.457,7.378-10.422,11.367-17.813,8.904l-105.909-35.3c-7.371-2.453-11.367-10.432-8.903-17.814h0c2.464-7.378,10.435-11.367,17.821-8.906l105.901,35.296c7.385,2.461,11.367,10.439,8.904,17.821h0Z" fill="#d9f4f1" stroke-width="0"/>
  <path d="m1866.998,371.822c-2.457,7.388-10.436,11.371-17.814,8.913l-92.553-30.851c-7.364-2.454-11.36-10.432-8.903-17.814h0c2.464-7.378,10.443-11.367,17.813-8.904l92.547,30.844c7.385,2.46,11.374,10.439,8.91,17.81h0Z" fill="#c1eae7" stroke-width="0"/>
  <g>
    <path d="m918.708,517.884c0,209.726-170.01,379.741-379.723,379.741s-379.732-170.015-379.732-379.741,170.013-379.723,379.732-379.723,379.723,170.009,379.723,379.723Z" fill="#fff" stroke-width="0"/>
    <path d="m548.173,930.824c-228.714,0-414.777-186.072-414.777-414.774S319.459,101.271,548.173,101.271s414.765,186.069,414.765,414.78-186.061,414.774-414.765,414.774Zm0-770.532c-196.165,0-355.755,159.59-355.755,355.758s159.59,355.743,355.755,355.743,355.746-159.587,355.746-355.743-159.587-355.758-355.746-355.758Z" fill="#e2306c" stroke-width="0"/>
    <path d="m547.183,524.242c-4.531,0-8.198-3.678-8.198-8.192v-168.316c0-4.531,3.667-8.201,8.198-8.201s8.198,3.67,8.198,8.201v168.316c0,4.514-3.672,8.192-8.198,8.192Z" fill="#5951d8" stroke-width="0"/>
    <path d="m527.544,511.151c3.109.38,5.85,2.529,6.84,5.716,1.335,4.315-1.089,8.91-5.413,10.241l-115.034,35.564c-4.324,1.332-8.919-1.086-10.253-5.407-1.34-4.326,1.083-8.91,5.413-10.259l115.034-35.553c1.132-.35,2.297-.444,3.413-.304Z" fill="#5951d8" stroke-width="0"/>
    <path d="m410.017,687.099c-.365,0-.724-.129-1.027-.368-.704-.567-.818-1.6-.251-2.301l182.522-227.335c.566-.706,1.6-.814,2.306-.248.707.564.818,1.594.251,2.301l-182.525,227.332c-.321.402-.797.619-1.276.619Z" fill="#e2306c" stroke-width="0"/>
    <path d="m588.066,516.05c0,22.024-17.872,39.885-39.893,39.885s-39.891-17.861-39.891-39.885,17.858-39.9,39.891-39.9,39.893,17.859,39.893,39.9Z" fill="#5951d8" stroke-width="0"/>
    <path d="m573.463,516.05c0,13.955-11.327,25.282-25.29,25.282s-25.3-11.327-25.3-25.282,11.327-25.3,25.3-25.3,25.29,11.328,25.29,25.3Z" fill="#fff" stroke-width="0"/>
    <g>
      <path d="m542.357,283.224v30.315c0,1.597-1.334,2.823-2.875,2.823-1.595,0-2.826-1.226-2.826-2.823v-25.279l-2.058,1.182c-.459.31-.975.409-1.443.409-.975,0-1.9-.508-2.408-1.434-.876-1.29-.414-3.083.926-3.859l6.317-3.748c.05-.053.152-.053.207-.102.102,0,.152-.105.257-.158.102,0,.201-.05.309-.05.044-.05.152-.05.201-.05.108-.05.257-.05.359-.05h.566c.05.05.158.05.201.05.158,0,.213.05.315.099.05,0,.149,0,.201.053.158.105.207.155.307.155.05.053.108.108.207.157.053.053.152.102.21.152.099.056.149.158.199.207.059.05.108.102.158.201.053.059.152.158.21.207l.05.102c0,.056.05.105.05.158.05.099.1.158.1.257.052.102.052.201.102.251,0,.108.056.207.056.259,0,.158,0,.263.102.365v.149Z" fill="#5951d8" stroke-width="0"/>
      <path d="m572.109,313.539c0,1.597-1.238,2.823-2.82,2.823h-18.299c-.768,0-1.592-.3-2.108-.923-1.074-1.176-.975-2.928.158-4.008l15.216-13.771c1.483-1.334,2.149-3.083,2.149-4.934,0-1.641-.566-3.176-1.699-4.466-1.332-1.486-3.135-2.161-4.934-2.161-1.582,0-3.182.566-4.467,1.699l-1.588,1.436c-1.18,1.083-2.928.975-4.008-.201-1.028-1.182-.978-2.934.207-4.008l1.594-1.442c2.312-2.157,5.342-3.182,8.262-3.182,3.352,0,6.732,1.384,9.15,4.058,2.166,2.315,3.188,5.348,3.188,8.268,0,3.343-1.39,6.735-4.07,9.15l-9.704,8.787h10.953c1.583,0,2.82,1.282,2.82,2.876Z" fill="#5951d8" stroke-width="0"/>
    </g>
    <path d="m560.729,739.205c0,6.884-5.6,12.431-12.484,12.431-6.467,0-11.759-4.881-12.378-11.152q0-.047-.05-.099c-.056-.981-.105-1.962-.105-2.931,0-3.451.514-7.147,1.798-10.534,1.284-3.398,3.392-6.632,6.627-8.787,2.157-1.448,4.782-2.312,7.704-2.417,1.6-.047,2.885,1.133,2.984,2.721.052,1.547-1.186,2.832-2.78,2.984-1.95.047-3.486.613-4.826,1.437-1.285.875-2.359,2.061-3.235,3.596-.257.414-.465.882-.666,1.337,1.492-.671,3.183-1.033,4.925-1.033,6.884,0,12.484,5.547,12.484,12.448Zm-5.699,0c0-3.702-3.024-6.796-6.784-6.796s-6.726,3.095-6.726,6.796c0,3.749,2.984,6.72,6.726,6.72s6.784-2.972,6.784-6.72Z" fill="#5951d8" stroke-width="0"/>
    <path d="m312.035,506.86c0-6.884,5.6-12.437,12.483-12.437,6.475,0,11.768,4.887,12.387,11.141q0,.064.05.111c.05.969.105,1.956.105,2.926,0,3.445-.514,7.147-1.798,10.545-1.29,3.386-3.393,6.621-6.633,8.787-2.151,1.43-4.776,2.301-7.702,2.4-1.594.052-2.884-1.133-2.984-2.715-.05-1.536,1.183-2.82,2.774-2.984,1.959-.053,3.495-.619,4.835-1.436,1.284-.87,2.359-2.05,3.235-3.597.257-.402.464-.87.665-1.337-1.489.665-3.182,1.034-4.934,1.034-6.884,0-12.483-5.553-12.483-12.437Zm5.708,0c0,3.702,3.028,6.784,6.776,6.784s6.735-3.083,6.735-6.784c0-3.749-2.984-6.732-6.735-6.732s-6.776,2.984-6.776,6.732Z" fill="#5951d8" stroke-width="0"/>
    <path d="m777.385,508.559c2.517,2.452,3.737,5.751,3.737,8.986s-1.22,6.522-3.737,9.038c-2.47,2.464-5.751,3.749-9.05,3.749-3.235,0-6.522-1.285-8.986-3.749-1.133-1.133-1.133-2.972,0-4.105,1.121-1.133,2.984-1.133,4.099,0,1.337,1.337,3.089,2.002,4.887,2.002s3.55-.665,4.934-2.002c1.384-1.384,2.061-3.135,2.061-4.934s-.677-3.55-2.061-4.881c-1.337-1.384-3.083-2.003-4.887-2.056-.817.053-1.582-.309-2.102-.928q-.047,0-.047-.053c-1.186-1.133-1.186-2.931-.099-4.099l5.232-5.354h-8.332c-1.582,0-2.867-1.279-2.867-2.931,0-1.583,1.285-2.867,2.867-2.867h15.169c1.647,0,2.919,1.284,2.919,2.867,0,.52-.152.981-.356,1.384-.146.268-.298.52-.514.73l-6.469,6.674c1.337.613,2.569,1.448,3.602,2.529Z" fill="#5951d8" stroke-width="0"/>
    <path d="m306.182,373.157c-1.932,3.065-5.984,3.99-9.05,2.058l-14.793-9.313c-3.065-1.933-3.985-5.979-2.058-9.041l1.459-2.318c1.927-3.065,5.979-3.982,9.041-2.05l14.796,9.313c3.065,1.924,3.99,5.971,2.058,9.041l-1.454,2.31Z" fill="#5951d8" stroke-width="0"/>
    <path d="m402.911,275.969c-3.089,1.889-7.129.92-9.018-2.172l-9.123-14.912c-1.895-3.092-.92-7.123,2.163-9.013l2.335-1.427c3.089-1.895,7.129-.926,9.018,2.169l9.123,14.909c1.895,3.089.92,7.129-2.163,9.018l-2.335,1.428Z" fill="#5951d8" stroke-width="0"/>
    <path d="m791.176,373.157c1.938,3.065,5.991,3.99,9.05,2.058l14.802-9.313c3.059-1.933,3.976-5.979,2.05-9.041l-1.46-2.318c-1.926-3.065-5.979-3.982-9.038-2.05l-14.796,9.313c-3.059,1.924-3.982,5.971-2.056,9.041l1.448,2.31Z" fill="#5951d8" stroke-width="0"/>
    <path d="m694.456,275.969c3.083,1.889,7.123.92,9.009-2.172l9.126-14.912c1.898-3.092.917-7.123-2.166-9.013l-2.33-1.427c-3.095-1.895-7.123-.926-9.009,2.169l-9.138,14.909c-1.886,3.089-.917,7.129,2.166,9.018l2.341,1.428Z" fill="#5951d8" stroke-width="0"/>
    <path d="m306.182,663.131c-1.932-3.053-5.984-3.988-9.05-2.05l-14.793,9.313c-3.065,1.927-3.985,5.979-2.058,9.039l1.459,2.318c1.927,3.065,5.979,3.987,9.041,2.061l14.796-9.325c3.065-1.927,3.99-5.967,2.058-9.038l-1.454-2.318Z" fill="#5951d8" stroke-width="0"/>
    <path d="m402.911,760.324c-3.089-1.892-7.129-.923-9.018,2.178l-9.123,14.913c-1.895,3.083-.92,7.123,2.163,9.009l2.335,1.425c3.089,1.898,7.129.928,9.018-2.166l9.123-14.913c1.895-3.083.92-7.123-2.163-9.015l-2.335-1.43Z" fill="#5951d8" stroke-width="0"/>
    <path d="m791.176,663.131c1.938-3.053,5.991-3.988,9.05-2.05l14.802,9.313c3.059,1.927,3.976,5.979,2.05,9.039l-1.46,2.318c-1.926,3.065-5.979,3.987-9.038,2.061l-14.796-9.325c-3.059-1.927-3.982-5.967-2.056-9.038l1.448-2.318Z" fill="#5951d8" stroke-width="0"/>
    <path d="m694.456,760.324c3.083-1.892,7.123-.923,9.009,2.178l9.126,14.913c1.898,3.083.917,7.123-2.166,9.009l-2.33,1.425c-3.095,1.898-7.123.928-9.009-2.166l-9.138-14.913c-1.886-3.083-.917-7.123,2.166-9.015l2.341-1.43Z" fill="#5951d8" stroke-width="0"/>
    <path d="m555.38,244.725c0,3.617-2.948,6.557-6.56,6.557h-3.279c-3.62,0-6.557-2.94-6.557-6.557v-50.004c0-3.626,2.937-6.557,6.557-6.557h3.279c3.611,0,6.56,2.931,6.56,6.557v50.004Z" fill="#5951d8" stroke-width="0"/>
    <path d="m555.38,841.058c0,3.626-2.948,6.563-6.56,6.563h-3.279c-3.62,0-6.557-2.937-6.557-6.563v-50.004c0-3.62,2.937-6.557,6.557-6.557h3.279c3.611,0,6.56,2.937,6.56,6.557v50.004Z" fill="#5951d8" stroke-width="0"/>
    <path d="m820.353,526.081c-3.626,0-6.557-2.937-6.557-6.545v-3.287c0-3.626,2.931-6.557,6.557-6.557h50.004c3.608,0,6.557,2.931,6.557,6.557v3.287c0,3.608-2.949,6.545-6.557,6.545h-50.004Z" fill="#5951d8" stroke-width="0"/>
    <path d="m224.015,526.081c-3.623,0-6.563-2.937-6.563-6.545v-3.287c0-3.626,2.94-6.557,6.563-6.557h49.998c3.626,0,6.557,2.931,6.557,6.557v3.287c0,3.608-2.931,6.545-6.557,6.545h-49.998Z" fill="#5951d8" stroke-width="0"/>
  </g>
  <path d="m2423.991,1604.152c4.04,11.926-6.54,34.923-18.425,38.982l-255.367,55.435c-11.906,4.052-24.822-2.305-28.853-14.204l-129.236-408.173c-9.149-26.579,6.453-43.937,18.345-47.981l413.536,375.941Z" fill="#3e3ead" stroke-width="0"/>
  <path d="m2422.124,1599.28c4.055,11.878-2.315,24.784-14.197,28.856l-245.007,52.171c-11.892,4.058-24.808-2.312-28.846-14.203l-132.014-412.018c-4.038-11.899,2.315-24.798,14.19-28.856l221.91-37.277c11.885-4.045,24.781,2.319,28.846,14.204l155.118,397.123Z" fill="#5951d8" stroke-width="0"/>
  <path d="m2374.29,1547.35c3.199,9.38-1.804,19.643-11.205,22.873l-193.975,41.914c-9.379,3.216-19.643-1.801-22.869-11.195l-105.518-326.082c-3.24-9.415,1.774-19.65,11.177-22.859l175.693-30.064c9.393-3.223,19.643,1.78,22.876,11.174l123.822,314.24Z" fill="#cafeff" stroke-width="0"/>
  <path d="m2363.055,1570.23l-193.944,41.873c-9.366,3.258-19.626-1.753-22.869-11.16l-9.287-28.801,228.916-45.945,8.362,21.147c3.244,9.393-1.746,19.649-11.177,22.886Z" fill="#353593" stroke-width="0"/>
  <path d="m2304.396,1624.899c-1.843,11.74-13.738,19.643-26.579,17.634-12.796-2.009-21.716-13.169-19.87-24.923,1.84-11.753,13.745-19.649,26.548-17.641,12.844,2.002,21.734,13.176,19.901,24.93Z" fill="#d6d6d6" stroke-width="0"/>
  <path d="m2299.254,1624.085c-1.433,9.117-10.694,15.308-20.689,13.741-9.991-1.574-16.899-10.27-15.467-19.415,1.439-9.152,10.691-15.294,20.657-13.734,9.993,1.566,16.93,10.256,15.498,19.408Z" fill="#efe4e8" stroke-width="0"/>
  <path d="m1449.498,1249.339c57.138,12.8,108.184,33.433,123.121,64.37,14.936,30.937,17.378,82.985,13.907,101.215-3.47,18.229-68.796,17.9-89.696,8.108-20.901-9.791-42.859-33.105-67.621-36.608-24.761-3.503-15.713-145.15,20.289-137.084Z" fill="#ffa77b" stroke-width="0"/>
  <rect x="1815.163" y="906.444" width="14.557" height="542.245" fill="#e5bd4e" stroke-width="0"/>
  <g>
    <path d="m1829.72,985.082v-78.639h-14.557v82.292c4.793-1.325,9.631-2.571,14.557-3.653Z" fill="#e29539" stroke-width="0"/>
    <path d="m1815.163,1360.784v87.906h14.557v-85.497c-4.906-.675-9.761-1.473-14.557-2.409Z" fill="#e29539" stroke-width="0"/>
  </g>
  <polygon points="1641.486 696.933 1830.932 868.838 1830.932 904.018 1548.286 855.495 1564.056 748.744 1641.486 696.933" fill="#e5bd4e" stroke-width="0"/>
  <path d="m1711.293,856.102c33.767,0,65.591-3.931,93.651-10.845l-163.459-148.324-77.43,51.81-10.606,71.792c37.46,21.715,94.255,35.567,157.843,35.567Z" fill="#f4cd6c" stroke-width="0"/>
  <polygon points="1943.749 1464.055 1822.441 1424.428 1701.133 1464.055 1701.133 1477.803 1943.749 1477.803 1943.749 1464.055" fill="#e5bd4e" stroke-width="0"/>
  <path d="m1088.529,999.851c53.376,110.39,141.539,272.232,156.095,275.871,14.557,3.64,198.124-28.403,198.124-28.403l32.753,134.651s-225.633,110.39-315.4,83.702c-89.768-26.687-154.061-189.24-154.061-189.24l82.489-276.581Z" fill="#ead6b7" stroke-width="0"/>
  <path d="m1209.837,1357.709c-89.767-26.689-112.816-191.666-112.816-191.666l2.404-143.924c-3.758-7.6-7.404-15.048-10.894-22.268l-82.49,276.581s64.294,162.553,154.061,189.24c89.767,26.689,315.4-83.702,315.4-83.702l-18.859-77.532c-73.924,30.468-188.749,70.53-246.805,53.271Z" fill="#d8c0a0" stroke-width="0"/>
  <path d="m1301.256,2334.538c0-307.495-16.074-566.809-16.074-566.809-40.031-16.984-36.391-65.508-36.391-65.508h105.235l-32.754,663.554h-36.847c-10.007-25.778,16.831-31.237,16.831-31.237Z" fill="#7a3e26" stroke-width="0"/>
  <path d="m1967.313,2334.538c8.061-307.495,30.933-566.809,30.933-566.809,40.476-16.984,38.109-65.508,38.109-65.508h-105.235l15.358,663.554h36.847c10.684-25.778-16.013-31.237-16.013-31.237Z" fill="#7a3e26" stroke-width="0"/>
  <g>
    <path d="m713.659,1870.243s17.027,410.248-18.167,495.533h30.96s-15.081-427.701,92.702-479.165l-.23-16.367h-105.265Z" fill="#261e20" stroke-width="0"/>
    <g>
      <path d="m652.533,1127.313c34.915,0,65.59,28.562,68.513,63.794.457,5.5.134,10.808-.739,15.9-9.602-15.537-24.403-25.742-40.226-25.742-33.185,0-42.356,19.104-43.624,37.296-1.102,15.809-17.629,21.514-27.228,9.289-8.149-10.377-13.484-23.047-14.621-36.743-2.924-35.232,23.01-63.794,57.925-63.794Z" fill="#2d2426" stroke-width="0"/>
      <polygon points="591.121 1197.816 618.536 1197.816 621.576 1234.452 594.161 1234.452 591.121 1197.816" fill="#2d2426" stroke-width="0"/>
    </g>
    <path d="m621.946,1127.313c31.778,0,59.908,28.562,62.832,63.794.457,5.5.203,10.808-.554,15.9-8.854-15.537-22.402-25.742-36.803-25.742-30.204,0-38.407,19.104-39.425,37.296-.885,15.809-15.883,21.514-24.712,9.289-7.494-10.377-12.445-23.047-13.581-36.743-2.924-35.232,20.467-63.794,52.243-63.794Z" fill="#443639" stroke-width="0"/>
    <g>
      <path d="m395.659,1127.313c34.915,0,65.59,28.562,68.514,63.794.456,5.5.133,10.808-.74,15.9-9.602-15.537-24.403-25.742-40.226-25.742-33.185,0-42.355,19.104-43.624,37.296-1.103,15.809-17.629,21.514-27.228,9.289-8.149-10.377-13.485-23.047-14.621-36.743-2.924-35.232,23.011-63.794,57.925-63.794Z" fill="#2d2426" stroke-width="0"/>
      <polygon points="334.247 1197.816 361.662 1197.816 364.702 1234.452 337.287 1234.452 334.247 1197.816" fill="#2d2426" stroke-width="0"/>
    </g>
    <path d="m371.269,1155.46h335.954c38.777,46.661,98.363,396.617,123.535,699.913h-335.954c-28.076-338.291-86.575-655.439-123.534-699.913Z" fill="#2d2426" stroke-width="0"/>
    <path d="m394.317,1155.46h313.325c36.892,46.661,97.93,396.617,126.142,699.913h-313.325c-31.467-338.291-90.978-655.439-126.141-699.913Z" fill="#443639" stroke-width="0"/>
    <path d="m457.697,1176.836l251.778.002c6.508,0,12.997,4.482,16.604,11.907,32.351,66.604,76.982,325.105,98.576,558.572,1.162,12.558-5.937,22.739-15.738,22.739h-254.726c-9.734-.001-18.47-10.099-19.613-22.571-21.672-236.493-60.512-456.861-90.805-540.099-5.416-14.879,1.6-30.55,13.924-30.55Z" fill="#e0a74c" stroke-width="0"/>
    <path d="m365.072,1127.313c31.778,0,59.908,28.562,62.832,63.794.457,5.5.203,10.808-.554,15.9-8.855-15.537-22.402-25.742-36.803-25.742-30.204,0-38.407,19.104-39.425,37.296-.885,15.809-15.884,21.514-24.712,9.289-7.494-10.377-12.445-23.047-13.581-36.743-2.924-35.232,20.467-63.794,52.243-63.794Z" fill="#443639" stroke-width="0"/>
    <path d="m520.81,1800.481h523.139c8.034,0,14.557,6.523,14.557,14.557v40.941H506.253v-40.941c0-8.034,6.523-14.557,14.557-14.557Z" fill="#e0a74c" stroke-width="0"/>
    <path d="m495.305,1870.243s17.027,410.248-18.167,495.533h30.96s-15.081-427.701,92.702-479.165l-.23-16.367h-105.265Z" fill="#2d2426" stroke-width="0"/>
    <path d="m1067.721,1870.242c0,113.115-9.11,410.812,25.141,495.534h-30.959s9.061-427.701-99.447-479.166v-16.367h105.265Z" fill="#443639" stroke-width="0"/>
    <path d="m851.706,1870.242s-11.253,410.249,25.142,495.534h-30.959s9.061-427.701-99.447-479.166v-16.367h105.264Z" fill="#443639" stroke-width="0"/>
    <rect x="495.379" y="1846.882" width="572.528" height="40.941" fill="#443639" stroke-width="0"/>
    <path d="m824.655,1747.316c-21.593-233.467-66.224-491.967-98.576-558.57-3.606-7.426-10.095-11.908-16.604-11.908h-139.15c-10.345,105.809-44.321,186.054-85.956,198.077,19.171,102.854,37.598,234.952,50.208,372.57,1.143,12.472,9.879,22.571,19.613,22.571h254.726c9.801,0,16.9-10.181,15.738-22.739Z" fill="#e0822d" stroke-width="0"/>
    <path d="m579.666,1770.055c-9.734,0-18.47-10.099-19.613-22.571-21.672-236.494-60.512-456.861-90.806-540.099-5.415-14.878,1.602-30.548,13.924-30.549h-25.474c-12.324,0-19.34,15.671-13.924,30.549,30.293,83.238,69.133,303.605,90.805,540.099,1.143,12.472,9.879,22.571,19.613,22.571h254.726s0,0,0,0h-229.252Z" fill="#e0822d" stroke-width="0"/>
    <rect x="495.379" y="1846.882" width="356.327" height="40.941" fill="#2d2426" stroke-width="0"/>
    <path d="m850.742,1919.223c.452-30.242.965-48.981.965-48.981h-105.264v16.368c33.718,15.992,56.076,68.322,70.889,132.85,7.707-55.693,19.701-93.646,33.41-100.237Z" fill="#2d2426" stroke-width="0"/>
  </g>
  <path d="m1297.785,1704.042c-25.474-27.295-251.605-150.345-251.605-150.345h-216.534l-10.419,99.396c5.459,101.898,70.965,143.75,70.965,143.75h181.961s-26.252,224.965,164.808,547.036l15.334-4.791s70.965-607.751,45.49-635.046Z" fill="#563a44" stroke-width="0"/>
  <path d="m1188.609,1947.87c0-121.25,15.77-228.041,39.704-290.69-75.088-45.235-182.133-103.484-182.133-103.484h-216.534l-10.42,99.396c5.459,101.898,70.965,143.75,70.965,143.75h181.961s-26.252,224.965,164.808,547.036l15.334-4.792s2.227-19.082,5.742-50.543c-39.742-35.2-69.429-174.307-69.429-340.674Z" fill="#51333e" stroke-width="0"/>
  <path d="m1097.628,1691.305c-25.474-27.294-267.982-137.608-267.982-137.608l-226.954,99.396c5.459,101.898,70.965,147.389,70.965,147.389l181.961,3.64s14.557,191.06,90.981,544.064l14.557,1.82s161.946-631.406,136.471-658.701Z" fill="#6b4853" stroke-width="0"/>
  <path d="m987.541,1747.713c-116.071,0-210.165-35.031-210.165-78.244,0-34.298,59.305-63.421,141.802-73.987-49.359-23.511-89.531-41.785-89.531-41.785l-226.954,99.396c5.459,101.898,70.965,147.389,70.965,147.389l181.961,3.64s14.557,191.06,90.981,544.064l14.557,1.82s119.19-464.717,136.973-614.006c-32.128,7.418-70.004,11.713-110.589,11.713Z" fill="#51333e" stroke-width="0"/>
  <path d="m991.483,2365.776h-78.85s26.58-34.487,41.122-39.822c14.542-5.335,37.727,39.822,37.727,39.822Z" fill="#ead6b7" stroke-width="0"/>
  <path d="m1337.817,2365.776h-122.52s4.421-36.915,16.525-39.822c21.08-5.063,105.996,39.822,105.996,39.822Z" fill="#ead6b7" stroke-width="0"/>
  <path d="m610.577,1703.435c-84.915-138.291-3.639-561.654,27.901-629.587,31.539-67.932,112.816-177.109,189.24-186.814,76.424-9.705,238.833,35.653,269.303,128.587,24.262,73.998-118.881,316.613-50.841,538.076-99.581,5.382-242.748,7.812-435.603,149.739Z" fill="#ead6b7" stroke-width="0"/>
  <path d="m1097.021,1015.621c-30.469-92.934-192.879-138.291-269.303-128.587-55.129,7.001-112.776,65.761-152.464,123.465,37.718,39.744,110.893,73.374,198.179,86.329,92.812,13.776,177.142.548,223.356-30.384,3.588-21.076,4.312-38.379.232-50.823Z" fill="#dbc09e" stroke-width="0"/>
  <path d="m746.442,1240.951c0-151.136,45.999-283.195,114.549-354.929-12.197-.556-23.454-.235-33.274,1.013-76.424,9.705-157.701,118.882-189.24,186.814-31.54,67.931-112.816,491.296-27.901,629.587,89.783-66.074,168.785-101.893,237.645-121.873-61.436-74.203-101.78-199.057-101.78-340.612Z" fill="#dbc09e" stroke-width="0"/>
  <path d="m671.232,1118.125c0-53.606,12.187-103.627,33.233-146.041-28.535,33.907-52.091,71.835-65.987,101.764-29.642,63.842-103.197,441.586-41.463,601.628-1.031-11.838-1.601-23.849-1.601-36.031,0-134.869,64.878-250.695,157.627-301.267-.252-1.846-.431-3.741-.67-5.595-49.527-50.834-81.139-128.017-81.139-214.458Z" fill="#ceb191" stroke-width="0"/>
  <path d="m942.961,1309.186c-59.441-143.143-46.097-257.172-46.097-257.172l-86.128-18.196c26.741,114.281,63.54,215.513,132.226,275.368Z" fill="#dbc09e" stroke-width="0"/>
  <path d="m856.137,1093.067c26.831,93.844,64.638,179.418,83.184,187.005,13.887,5.681,219.567-21.836,219.567-21.836l32.752,134.652s-243.437,112.314-333.204,85.626c-89.768-26.687-156.433-150.073-179.928-211.786-86.368-226.865,156.397-247.921,177.628-173.66Z" fill="#efdbc2" stroke-width="0"/>
  <path d="m926.06,1402.359c-87.829-24.934-144.474-140.586-164.546-197.869-34.295-97.875-1.488-185.183,42.792-237.802-45.58-51.941-208.91,105.601-130.649,301.253,24.524,61.312,95.011,183.885,184.779,210.574,89.768,26.687,333.205-85.627,333.205-85.627l-9.479-38.966c-81.451,28.609-200.999,64.081-256.103,48.437Z" fill="#dbc09e" stroke-width="0"/>
  <g>
    <path d="m1602.77,1476.746c-11.799-54.275-28.318-83.773-36.577-84.953-8.26-1.18-80.234,3.54-80.234,3.54l56.636,81.413h60.175Z" fill="#e5dcc1" stroke-width="0"/>
    <path d="m1612.209,1249.025c-33.037,57.815-57.815,198.224-57.815,198.224l-313.855-12.979s17.699-82.593,123.89-139.229c0,0,146.308-14.159,171.086-22.418,24.778-8.26,76.694-23.599,76.694-23.599Z" fill="#f9f2d7" stroke-width="0"/>
  </g>
  <path d="m1403.959,1354.103c-39.98-24.187-74.426-55.553-81.589-61.47-7.163-5.917-36.515,16.99-29.923,32.322,6.591,15.333,81.411,37.856,99.629,44.918,18.218,7.061,28.555-5.683,11.883-15.77Z" fill="#ffa77b" stroke-width="0"/>
  <path d="m1158.888,1258.236c57.759-9.626,112.816-9.704,138.29,13.344,25.475,23.048,38.332,29.114,41.972,47.31,3.639,18.196-48.037,83.702-71.085,82.489-23.048-1.213-52.162-14.557-76.424-8.492-24.261,6.066-69.145-128.586-32.752-134.652Z" fill="#ffa77b" stroke-width="0"/>
  <g>
    <path d="m1097.77,1461.408c27.138-56.636,60.175-84.953,67.254-88.493,7.08-3.54,197.045,15.34,231.262,10.619,34.217-4.72,97.932-4.72,107.371-3.539,9.439,1.18,51.916,73.154,51.916,73.154v23.597h-449.544l-8.259-15.338Z" fill="#efe6c7" stroke-width="0"/>
    <path d="m1102.544,1451.87c-1.606,3.092-3.201,6.256-4.774,9.537l8.26,15.339h449.544v-23.597s-6.096-10.33-14.179-23.221l-438.85,21.943Z" fill="#d8ccaf" stroke-width="0"/>
    <path d="m1414.066,1476.746h141.508v-23.597s-42.477-71.974-51.916-73.155c-2.237-.279-7.592-.489-14.813-.589-39.655,6.644-70.856,46.905-74.779,97.341Z" fill="#e5dcc1" stroke-width="0"/>
    <path d="m1562.843,1468.705c0-14.739-3.801-26.687-8.492-26.687s-8.492,11.948-8.492,26.687,3.802,26.688,8.492,26.688,8.492-11.948,8.492-26.688Z" fill="#a58e7c" stroke-width="0"/>
    <rect x="1085.011" y="1460.214" width="352.399" height="16.376" rx="8.104" ry="8.104" fill="#3e9bb5" stroke-width="0"/>
    <rect x="1399.198" y="1460.214" width="226.239" height="16.376" rx="6.494" ry="6.494" fill="#2b7789" stroke-width="0"/>
  </g>
  <path d="m2064.263,1588.398h-796.012c7.384,30.392,41.969,79.16,35.239,109.552h725.534c-6.73-30.392,27.855-79.161,35.238-109.552Z" fill="#683421" stroke-width="0"/>
  <path d="m1758.148,1619.734h293.962c5.261-11.433,9.938-22.219,12.153-31.335h-306.115v31.335Z" fill="#5e2e1d" stroke-width="0"/>
  <path d="m1860.887,1588.398h-887.56c8.233,30.392,46.795,79.16,39.291,109.552h808.978c-7.504-30.392,31.058-79.161,39.291-109.552Z" fill="#7a3e26" stroke-width="0"/>
  <path d="m988.12,1622.159h857.972c6.371-12.334,12.15-23.999,14.794-33.76h-887.56c2.644,9.761,8.424,21.426,14.794,33.76Z" fill="#5e2e1d" stroke-width="0"/>
  <path d="m1208.624,1472.951v23.364l25.082,51.768c0,26.82,8.299,48.561,18.536,48.561h828.032c10.237,0,18.536-21.741,18.536-48.561l25.082-51.768v-23.364h-915.267Z" fill="#7a3e26" stroke-width="0"/>
  <path d="m1752.083,1529.966v20.622h346.678c.016-.835.049-1.66.049-2.505l8.778-18.117h-355.505Z" fill="#683421" stroke-width="0"/>
  <rect x="1776.345" y="1472.951" width="347.547" height="21.835" fill="#9e5430" stroke-width="0"/>
  <path d="m2028.164,1672.691h-218.157c-17.831,0-17.831,45.908,0,45.908h218.157c17.832,0,17.832-45.908,0-45.908Z" fill="#7a3e26" stroke-width="0"/>
  <path d="m1777.254,2334.538c0-307.495,16.074-566.809,16.074-566.809,40.031-16.984,36.392-65.508,36.392-65.508h-105.235l32.753,663.554h36.847c10.008-25.778-16.832-31.237-16.832-31.237Z" fill="#9e5430" stroke-width="0"/>
  <path d="m1820.636,1672.691h-807.059c-19.882,0-19.882,45.908,0,45.908h807.059c19.882,0,19.882-45.908,0-45.908Z" fill="#9e5430" stroke-width="0"/>
  <path d="m1067.527,2334.538c-8.061-307.495-30.933-566.809-30.933-566.809-40.477-16.984-38.109-65.508-38.109-65.508h105.235l-15.358,663.554h-36.847c-10.684-25.778,16.013-31.237,16.013-31.237Z" fill="#9e5430" stroke-width="0"/>
  <path d="m999.975,924.64c-66.719-40.031-135.864-36.393-135.864-36.393,0,0-6.065,135.865,134.651,201.371,16.935-50.803,16.315-116.313,1.213-164.978Z" fill="#ea875c" stroke-width="0"/>
  <path d="m871.388,887.035c55.802-33.965,121.308-151.634,121.308-151.634l110.39,112.816-90.981,175.896c-79.145-12.64-127.795-56.543-140.717-137.078Z" fill="#ea875c" stroke-width="0"/>
  <path d="m1246.255,840.313c-20.586,45.921-74.024,182.586-81.302,186.225-7.278,3.639-19.409,3.639-19.409,3.639,0,0-10.918,24.262-20.622,26.687-9.705,2.426-27.901,0-27.901,0,0,0-13.344,8.492-26.688,7.279-13.343-1.212-33.965-15.77-33.965-19.409s-1.213-15.77-1.213-15.77c0,0-19.409-6.065-24.262-10.918-4.852-4.853-9.705-19.409-9.705-19.409,0,0-23.048-3.639-24.261-12.131-1.214-8.492,0-19.409,0-19.409,0,0-19.409-8.491-19.409-20.623s2.426-19.409,2.426-19.409c0,0-18.196-9.705-18.196-24.261s29.114-49.736,29.114-49.736c0,0-9.705-19.409-7.279-36.393,2.425-16.983,20.622-42.458,20.622-42.458l7.279-44.883s-3.639-67.933,6.066-81.276c9.705-13.344,31.54-10.918,31.54-10.918,0,0,4.853-43.671,15.77-50.949,10.918-7.279,36.393,7.278,36.393,7.278,0,0,18.195-27.901,29.113-27.901s30.327,4.853,30.327,4.853c0,0,20.622-8.492,29.114-8.492s35.179,21.835,35.179,21.835c0,0,32.753-8.492,40.032-4.852,7.279,3.639,8.492,21.835,8.492,21.835,0,0,122.521,16.983,132.226,87.341,9.704,70.359-15.77,122.521-53.376,117.669-37.606-4.853-31.692-35.18-31.692-35.18,0,0-22.871-.625-54.411,69.734Z" fill="#8c4526" stroke-width="0"/>
  <path d="m1018.171,908.87c0-46.501,33.509-117.114,43.884-161.344,2.213-75.699,41.678-142.592,101.813-184.79-9.654,2.118-23.176,7.685-23.176,7.685,0,0-19.409-4.853-30.327-4.853s-29.113,27.902-29.113,27.902c0,0-25.475-14.557-36.393-7.279-10.918,7.279-15.77,50.95-15.77,50.95,0,0-21.835-2.427-31.54,10.916-9.705,13.344-6.066,81.277-6.066,81.277l-7.278,44.884s-18.197,25.474-20.622,42.458c-2.427,16.983,7.278,36.393,7.278,36.393,0,0-29.114,35.178-29.114,49.736s18.196,24.262,18.196,24.262c0,0-2.426,7.278-2.426,19.408s19.409,20.623,19.409,20.623c0,0-1.214,10.918,0,19.409,1.213,8.491,24.261,12.131,24.261,12.131,0,0,4.853,14.556,9.705,19.409s24.261,10.918,24.261,10.918c0,0,1.213,12.131,1.213,15.77s20.622,18.196,33.967,19.409c5.003.455,10.006-.455,14.306-1.769-32.805-4.968-66.469-86.188-66.469-153.504Z" fill="#75321a" stroke-width="0"/>
  <path d="m1077.126,868.838c10.468-68.046,44.157-120.094,59.927-129.798,15.77-9.705,122.521,35.178,127.374,49.736,4.851,14.557-43.638,117.096-53.343,135.292-9.705,18.196-48.772-8.748-58.14-11.558-18.853-5.656-78.243-27.901-75.817-43.671Z" fill="#ffa77b" stroke-width="0"/>
  <path d="m1813.95,880.969s-144.22-89.84-233.382-143.274l-16.511,11.048-2.86,19.356,252.753,112.87Z" fill="#e5bd4e" stroke-width="0"/>
  <path d="m1784.836,890.674c0,20.768,16.836,37.606,37.605,37.606s37.605-16.837,37.605-37.606-16.837-37.605-37.605-37.605-37.605,16.836-37.605,37.605Z" fill="#e5bd4e" stroke-width="0"/>
  <path d="m1801.364,890.674c0,11.64,9.436,21.077,21.077,21.077s21.077-9.436,21.077-21.077-9.436-21.077-21.077-21.077-21.077,9.436-21.077,21.077Z" fill="#d37733" stroke-width="0"/>
  <path d="m1809.552,890.674c0,7.118,5.771,12.889,12.89,12.889s12.889-5.771,12.889-12.889-5.771-12.889-12.889-12.889-12.89,5.77-12.89,12.889Z" fill="#e5bd4e" stroke-width="0"/>
  <path d="m906.841,1472.951v23.364l27.967,51.768c0,26.82,9.253,48.561,20.668,48.561h923.264c11.414,0,20.667-21.741,20.667-48.561l27.967-51.768v-23.364h-1020.532Z" fill="#9e5430" stroke-width="0"/>
  <rect x="906.841" y="1472.951" width="1020.532" height="21.835" fill="#c66a46" stroke-width="0"/>
  <path d="m1082.464,1720.419c0-14.069-11.406-25.475-25.474-25.475s-25.475,11.406-25.475,25.475,11.406,25.475,25.475,25.475,25.474-11.406,25.474-25.475Z" fill="#7a3e26" stroke-width="0"/>
  <path d="m1795.753,1720.419c0-14.069-11.406-25.475-25.474-25.475s-25.475,11.406-25.475,25.475,11.406,25.475,25.475,25.475,25.474-11.406,25.474-25.475Z" fill="#7a3e26" stroke-width="0"/>
  <path d="m925.019,1529.966l9.788,18.117c0,.846.036,1.67.054,2.505h964.491c.018-.835.054-1.66.054-2.505l9.787-18.116h-984.174Z" fill="#7a3e26" stroke-width="0"/>
  <path d="m1317.801,756.326c0-13.204,3.813-25.276,10.112-34.625-16.434,11.02-27.391,28.76-28.182,48.972.608-.099.936-.093.936-.093,0,0-5.914,30.326,31.692,35.178,3.808.492,7.477.335,11.012-.303-15.048-8.312-25.569-27.167-25.569-49.129Z" fill="#75321a" stroke-width="0"/>
  <polygon points="1202.384 833.03 1180.876 885.973 1223.94 910.235 1267.61 868.384 1202.384 833.03" fill="#ead6b7" stroke-width="0"/>
  <polygon points="1206.206 842.297 1189.355 883.778 1223.095 902.788 1257.311 869.996 1206.206 842.297" fill="#ffa77b" stroke-width="0"/>
  <polygon points="1093.686 840.862 1153.733 867.55 1187.247 824.844 1119.464 787.183 1093.686 840.862" fill="#ead6b7" stroke-width="0"/>
  <polygon points="1202.652 833.122 1163.035 811.649 1166.242 825.015 1201.828 845.063 1202.652 833.122" fill="#ead6b7" stroke-width="0"/>
  <polygon points="1123.802 790.058 1014.964 723.247 1018.171 736.613 1122.978 801.999 1123.802 790.058" fill="#ead6b7" stroke-width="0"/>
  <polygon points="1103.919 839.729 1150.831 860.58 1177.015 827.215 1124.058 797.792 1103.919 839.729" fill="#ffa77b" stroke-width="0"/>
  <path d="m1043.949,761.936c0-23.867-12.627-43.216-28.204-43.216s-28.204,19.349-28.204,43.216,12.627,43.217,28.204,43.217,28.204-19.349,28.204-43.217Z" fill="#ea875c" stroke-width="0"/>
  <path d="m1030.302,767.87c0-15.085-7.523-27.314-16.801-27.314s-16.802,12.229-16.802,27.314,7.523,27.314,16.802,27.314,16.801-12.229,16.801-27.314Z" fill="#cc4f46" stroke-width="0"/>
  <ellipse cx="1011.984" cy="783.488" rx="12.252" ry="14.122" fill="#ea875c" stroke-width="0"/>
</svg>