<?xml version="1.0" encoding="UTF-8"?>
<svg xmlns="http://www.w3.org/2000/svg" xmlns:xlink="http://www.w3.org/1999/xlink" viewBox="0 0 2436 2436">
  <defs>
    <clipPath id="clippath">
      <rect x="0" y="-2878.402" width="2435.338" height="2446.94" fill="none" stroke-width="0"/>
    </clipPath>
  </defs>
  <g isolation="isolate">
    <g id="Layer_1" data-name="Layer 1">
      <path d="m2446.372,1264.4c0,95.15-10.9,187.75-31.52,276.64v.01c-4.51,19.46-9.49,38.75-14.93,57.85v.01c-6.36,22.34-13.34,44.41-20.93,66.21-3.97,11.45-8.12,22.82-12.44,34.1-1.64,4.33-3.32,8.65-5.01,12.95-.21.52-.42,1.03-.62,1.55-6.57,16.56-13.49,32.95-20.76,49.14-11.08,24.72-22.96,49-35.61,72.8-3.39,6.4-6.85,12.77-10.36,19.1-3.71,6.69-7.479,13.35-11.32,19.96-.04.08-.08.16-.14.24-18.68,32.25-38.8,63.56-60.28,93.85-17.06,24.08-34.98,47.5-53.7,70.24-24,29.13-49.31,57.13-75.87,83.91-16.56,16.71-33.61,32.94-51.12,48.67-87.53,78.68-186.52,144.87-294.16,195.75-157.89,74.67-334.39,116.43-520.64,116.43-141.51,0-277.39-24.1-403.76-68.44-142.45-49.96-272.82-125.63-385.53-221.44-26.55-22.56-52.12-46.24-76.63-70.97-5.96-6.01-11.85-12.07-17.68-18.2-5.55-5.84-11.05-11.73-16.48-17.67-29.06-31.77-56.45-65.08-82.04-99.8-1.13-1.52-2.25-3.05-3.36-4.58-14.97-20.49-29.31-41.47-42.99-62.91-3.47-5.42-6.9-10.88-10.28-16.37-37.27-60.46-69.41-124.41-95.82-191.26-1.62-4.13-3.23-8.26-4.81-12.41-.07-.18-.14-.36-.2-.54-4.01-10.49-7.88-21.04-11.59-31.67-.17-.45-.32-.9-.48-1.35-2.79-8-5.51-16.04-8.13-24.12-.21-.65-.42-1.3-.63-1.94-9.94-30.72-18.7-61.98-26.21-93.72-.18-.72-.35-1.45-.51-2.18-1.82-7.73-3.57-15.5-5.23-23.29-17.72-82.72-27.04-168.55-27.04-256.55C7.562,590.94,553.502,44.99,1226.962,44.99s1219.41,545.95,1219.41,1219.41Z" fill="#fff2e1" stroke-width="0"/>
      <g clip-path="url(#clippath)">
        <g>
          <path d="m1481.338-630.146c6.268-208.529-41.743-499.737-27.199-590.53,0,0-197.667-55.706-323.249-44.329-125.718,11.417-213.457,44.293-227.149,50.096-23.304,9.924-159.921,1288.206-146.658,1347.819,16.111,72.454,764.68,68.748,703.55-33.345,0,0,18.577-658.66,20.705-729.711Z" fill="#0b8a85" stroke-width="0"/>
          <path d="m766.202-1152.392s-78.153,1397.707-78.153,1437.952,148.688,24.113,168.807,28.134c20.117,4.017,113.307-1511.156,113.307-1543.581,0-10.727-203.961,36.766-203.961,77.494Z" fill="#254a63" stroke-width="0"/>
          <path d="m1470.942-1223.967s-81.438-27.857-141.432-30.006c-12.067-.432-47.122,870.85-47.122,991.599,0,28.454-16.111,539.382-20.128,551.454-4.016,12.059,285.78-28.187,301.881-52.335,16.112-24.162-48.927-1335.941-93.199-1460.712Z" fill="#254a63" stroke-width="0"/>
        </g>
      </g>
      <g>
        <polygon points="219.292 1718.356 389.108 1711.683 329.591 1192.003 237.846 1195.608 219.292 1718.356" fill="#fcd2a4" stroke-width="0"/>
        <polygon points="230.288 1408.548 353.835 1403.693 350.031 1370.476 231.474 1375.134 230.288 1408.548" fill="#fcd2a4" stroke-width="0"/>
        <polygon points="237.062 1217.699 332.106 1213.964 329.591 1192.003 237.846 1195.608 237.062 1217.699" fill="#fcd2a4" stroke-width="0"/>
        <polygon points="242.673 1177.634 323.368 1174.462 309.619 1046.465 246.336 1048.951 242.673 1177.634" fill="#fcd2a4" stroke-width="0"/>
        <polygon points="255.835 1063.549 301.294 1061.763 300.001 1046.842 255.954 1048.574 255.835 1063.549" fill="#fcd2a4" stroke-width="0"/>
        <polygon points="261.752 1042.556 293.748 1041.299 289.125 978.927 261.467 980.014 261.752 1042.556" fill="#fcd2a4" stroke-width="0"/>
        <polygon points="261.545 997.046 290.384 995.912 289.125 978.927 261.467 980.014 261.545 997.046" fill="#fcd2a4" stroke-width="0"/>
        <polygon points="247.584 1050.512 308.498 1048.119 338.649 1014.913 214.92 1019.775 247.584 1050.512" fill="#f2b981" stroke-width="0"/>
        <path d="m242.308,1197.138l82.953-3.26c9.315-.366,16.008-7.028,14.95-14.88h0c-1.058-7.852-9.116-13.934-17.998-13.586l-79.099,3.109c-8.882.349-16.438,7.045-16.877,14.956h0c-.439,7.91,6.757,14.027,16.072,13.661Z" fill="#f2b981" stroke-width="0"/>
        <path d="m236.97,1386.73l108.49-4.263c12.183-.479,21.201-7.233,20.142-15.085h0c-1.059-7.852-11.442-13.843-23.192-13.381l-104.635,4.111c-11.75.462-21.631,7.25-22.07,15.161h0c-.439,7.911,9.082,13.936,21.264,13.457Z" fill="#f2b981" stroke-width="0"/>
        <polygon points="267.741 899.388 304.676 982.603 246.303 984.896 267.741 899.388" fill="#f2b981" stroke-width="0"/>
        <path d="m275.148,1307.172c-.053-1.125.747-2.249,1.428-2.993,2.106-2.299,6.698-4.846,13.275-5.106.431-.016.857-.022,1.282-.018,8.865.08,14.934,4.539,15.216,7.572l3.435,36.836-32.809,1.29-1.827-37.58Z" fill="#f3af04" stroke-width="0"/>
        <path d="m276.21,1127.091c-.055-1.139.51-2.007.993-2.536.982-1.073,2.491-1.726,4.144-1.791l.344-.005c2.975.027,5.634,2.026,5.806,4.364l2.084,28.191-11.978.47-1.393-28.693Z" fill="#f3af04" stroke-width="0"/>
      </g>
      <g>
        <path d="m2378.992,1665.12c7.59-21.8,14.57-43.87,20.93-66.21v-.01l-5.15-44.96-17.21-150.25-1.55-13.53-.97-8.45-1.28-11.23-1.85-16.18-16.08-140.34-2.37-20.78h-.01l-.13-1.18-91.75,3.61-.04,1.18-.74,20.91-3.59,100.95v.01l-1.42,40.2-.58,16.27-.4,11.3-.79,22.12-4.35,122.67-6.42,180.95-.22,6.19,51.17-2.01,10.36-.41,29.11-1.15,27.26-1.07c.2-.52.41-1.03.62-1.55,1.69-4.3,3.37-8.62,5.01-12.95l12.44-34.1Z" fill="#fcd2a4" stroke-width="0"/>
        <polygon points="2254.016 1408.548 2377.563 1403.693 2373.759 1370.476 2255.202 1375.134 2254.016 1408.548" fill="#fcd2a4" stroke-width="0"/>
        <polygon points="2260.79 1217.699 2355.834 1213.964 2353.319 1192.003 2261.574 1195.608 2260.79 1217.699" fill="#fcd2a4" stroke-width="0"/>
        <polygon points="2266.401 1177.634 2347.096 1174.462 2333.347 1046.465 2270.064 1048.951 2266.401 1177.634" fill="#fcd2a4" stroke-width="0"/>
        <polygon points="2279.564 1063.549 2325.022 1061.763 2323.729 1046.842 2279.682 1048.574 2279.564 1063.549" fill="#fcd2a4" stroke-width="0"/>
        <polygon points="2285.48 1042.556 2317.476 1041.299 2312.853 978.927 2285.196 980.014 2285.48 1042.556" fill="#fcd2a4" stroke-width="0"/>
        <polygon points="2285.273 997.046 2314.112 995.912 2312.853 978.927 2285.196 980.014 2285.273 997.046" fill="#fcd2a4" stroke-width="0"/>
        <polygon points="2271.312 1050.512 2332.226 1048.119 2362.377 1014.913 2238.648 1019.775 2271.312 1050.512" fill="#f2b981" stroke-width="0"/>
        <path d="m2266.036,1197.138l82.953-3.26c9.315-.366,16.008-7.028,14.95-14.88h0c-1.059-7.852-9.116-13.934-17.999-13.586l-79.098,3.109c-8.882.349-16.439,7.045-16.877,14.956h0c-.439,7.91,6.756,14.027,16.071,13.661Z" fill="#f2b981" stroke-width="0"/>
        <path d="m2260.698,1386.73l108.49-4.263c12.183-.479,21.201-7.233,20.142-15.085h0c-1.058-7.852-11.442-13.843-23.192-13.381l-104.634,4.111c-11.75.462-21.631,7.25-22.07,15.161h0c-.439,7.911,9.082,13.936,21.264,13.457Z" fill="#f2b981" stroke-width="0"/>
        <polygon points="2291.469 899.388 2328.404 982.603 2270.031 984.896 2291.469 899.388" fill="#f2b981" stroke-width="0"/>
        <path d="m2298.876,1307.172c-.053-1.125.747-2.249,1.428-2.993,2.106-2.299,6.698-4.846,13.275-5.106.431-.016.857-.022,1.282-.018,8.865.08,14.934,4.539,15.216,7.572l3.435,36.836-32.809,1.29-1.827-37.58Z" fill="#f3af04" stroke-width="0"/>
        <path d="m2299.938,1127.091c-.056-1.139.509-2.007.993-2.536.982-1.073,2.492-1.726,4.144-1.791l.344-.005c2.975.027,5.634,2.026,5.806,4.364l2.084,28.191-11.978.47-1.393-28.693Z" fill="#f3af04" stroke-width="0"/>
      </g>
      <g>
        <rect x="567.901" y="1712.171" width="379.688" height="481.761" fill="#f9e0b4" stroke-width="0"/>
        <path d="m781.26,2035.456h-52.817c-2.119,0-3.836,2.119-3.836,0v-217.858c0-16.704,13.541-30.245,30.245-30.245h0c16.704,0,30.245,13.541,30.245,30.245v217.858c0,2.119-1.718,0-3.836,0Z" fill="#f3af04" stroke-width="0"/>
        <path d="m855.353,1667.553h-200.771c-41.287-52.139-21.454-91.371,12.23-112.559,33.616-21.142,74.537-46.865,88.113-84.621.016-.038.031-.076.046-.115.008.039.023.077.038.115,13.577,37.756,54.499,63.479,88.115,84.621,33.675,21.188,53.508,60.42,12.23,112.559Z" fill="#f9e0b4" stroke-width="0"/>
        <g>
          <path d="m830.902,1608.92c-.09-3.14-.34-6.25-.73-9.32-2.86-22.22-13.02-36.73-21.06-45.03-3.64-3.75-7.43-7.66-11.26-11.78-16.7-17.95-34.03-39.78-41.39-68.68v-.01c0-.01-.01-.02-.01-.03-.14-.55-.28-1.1-.41-1.66-.18-.71-.34-1.43-.5-2.16l-.34-2.71-.05-.39-.1.4-.66,2.7c-.16.74-.33,1.48-.51,2.21-.13.55-.26,1.08-.4,1.62v.01c-9.05,35.52-33.16,60.38-52.69,80.51-1.51,1.56-3.09,3.33-4.69,5.34-6.89,8.66-14.02,21.62-16.34,39.66-.96,7.46-1.02,15.16-.17,23.06,1.49,13.94,5.79,28.51,12.88,43.54.21.45.42.9.64,1.35.04.08.08.17.12.25l.15.31h123.17l.15-.31c.04-.08.08-.17.12-.25.22-.45.43-.9.64-1.35,3.8-8.05,6.8-15.97,8.98-23.74,3.28-11.56,4.76-22.77,4.46-33.54Zm-5.62,33.53c-2.21,7.76-5.24,15.69-9.06,23.75-.13.26-.25.53-.38.79h-121.76c-.13-.26-.25-.53-.38-.79-7.09-14.93-11.41-29.4-12.95-43.23-.89-7.96-.85-15.72.12-23.23,2.37-18.39,9.8-31.42,16.81-39.96,1.34-1.64,2.67-3.11,3.94-4.43,19.48-20.08,43.53-44.88,52.78-80.34.19-.74.38-1.49.56-2.24.18.75.37,1.5.56,2.24,7.46,28.57,24.52,50.22,41.06,68.07,4,4.31,7.96,8.39,11.75,12.3,7.9,8.15,17.9,22.45,20.73,44.36.39,3.02.63,6.08.72,9.18.31,10.76-1.2,21.97-4.5,33.53Z" fill="#fcd2a4" stroke-width="0"/>
          <rect x="754.405" y="1470.373" width="1.121" height="197.661" fill="#fcd2a4" stroke-width="0"/>
        </g>
        <g>
          <circle cx="754.965" cy="1464.873" r="2.674" fill="#f9e0b4" stroke-width="0"/>
          <path d="m757.639,1456.08c0,1.477-1.197,2.675-2.674,2.675s-2.674-1.198-2.674-2.675,1.197-2.674,2.674-2.674,2.674,1.197,2.674,2.674Z" fill="#f9e0b4" stroke-width="0"/>
          <rect x="753.884" y="1448.786" width="2.162" height="23.734" fill="#f9e0b4" stroke-width="0"/>
          <path d="m769.012,1427.27c.837,1.887,1.298,3.979,1.298,6.172,0,8.473-6.869,15.343-15.348,15.343s-15.343-6.87-15.343-15.343c0-2.193.461-4.285,1.298-6.172.981,7.588,6.896,13.423,14.045,13.423s13.069-5.835,14.05-13.423Z" fill="#f9e0b4" stroke-width="0"/>
        </g>
        <rect x="652.417" y="1666.2" width="205.095" height="33.565" fill="#f9e0b4" stroke-width="0"/>
        <rect x="629.433" y="1699.217" width="251.062" height="12.953" rx="1.574" ry="1.574" fill="#f9e0b4" stroke-width="0"/>
      </g>
      <g>
        <path d="m567.902,1712.17v481.76h-130.23c-26.55-22.56-52.12-46.24-76.63-70.97-5.96-6.01-11.85-12.07-17.68-18.2-5.55-5.84-11.05-11.73-16.48-17.67-29.06-31.77-56.45-65.08-82.04-99.8-1.13-1.52-2.25-3.05-3.36-4.58-14.97-20.49-29.31-41.47-42.99-62.91-3.47-5.42-6.9-10.88-10.28-16.37v-191.26h379.69Z" fill="#f9e0b4" stroke-width="0"/>
        <path d="m401.573,2035.456h-52.818c-2.119,0-3.836,2.119-3.836,0v-217.858c0-16.704,13.541-30.245,30.245-30.245h0c16.704,0,30.245,13.541,30.245,30.245v217.858c0,2.119-1.718,0-3.836,0Z" fill="#f3af04" stroke-width="0"/>
        <path d="m475.665,1667.553h-200.771c-41.287-52.139-21.454-91.371,12.23-112.559,33.616-21.142,74.537-46.865,88.113-84.621.016-.038.032-.076.046-.115.008.039.023.077.038.115,13.577,37.756,54.499,63.479,88.115,84.621,33.675,21.188,53.508,60.42,12.23,112.559Z" fill="#f9e0b4" stroke-width="0"/>
        <g>
          <path d="m450.482,1599.6c-2.86-22.22-13.02-36.73-21.06-45.03-19.49-20.1-43.6-44.95-52.65-80.46v-.01c0-.01-.01-.02-.01-.03-.14-.55-.28-1.1-.41-1.66-.18-.71-.34-1.43-.5-2.16l-.34-2.71-.05-.39-.1.4-.66,2.7c-.16.74-.33,1.48-.51,2.21-.13.54-.26,1.08-.4,1.61,0,.01-.01.02-.01.03v.01c-2.22,8.72-5.34,16.79-9.09,24.31v.02c-11.54,23.12-28.85,40.97-43.59,56.16-8.02,8.27-18.17,22.78-21.03,45-2.66,20.64,1.61,43.05,12.71,66.6.21.45.42.9.64,1.35.04.08.08.17.12.25l.15.31h123.17l.15-.31c.04-.08.08-.17.12-.25.22-.45.43-.9.64-1.35,11.1-23.55,15.37-45.96,12.71-66.6Zm-13.94,66.6c-.13.26-.25.53-.38.79h-121.76c-.13-.26-.25-.53-.38-.79-11.17-23.53-15.49-45.89-12.84-66.46,2.82-21.91,12.83-36.21,20.75-44.39,14.45-14.89,31.42-32.38,42.99-54.89,4.03-7.83,7.4-16.27,9.79-25.42.2-.75.39-1.51.57-2.27.18.74.36,1.47.55,2.2,9.24,35.48,33.3,60.29,52.82,80.41,7.89,8.15,17.9,22.45,20.72,44.36,2.65,20.57-1.67,42.93-12.83,66.46Z" fill="#fcd2a4" stroke-width="0"/>
          <rect x="374.716" y="1470.373" width="1.121" height="197.661" fill="#fcd2a4" stroke-width="0"/>
        </g>
        <g>
          <circle cx="375.277" cy="1464.873" r="2.674" fill="#f9e0b4" stroke-width="0"/>
          <path d="m377.951,1456.08c0,1.477-1.197,2.675-2.674,2.675s-2.674-1.198-2.674-2.675,1.197-2.674,2.674-2.674,2.674,1.197,2.674,2.674Z" fill="#f9e0b4" stroke-width="0"/>
          <rect x="374.196" y="1448.786" width="2.162" height="23.734" fill="#f9e0b4" stroke-width="0"/>
          <path d="m389.325,1427.27c.836,1.887,1.298,3.979,1.298,6.172,0,8.473-6.87,15.343-15.349,15.343s-15.343-6.87-15.343-15.343c0-2.193.462-4.285,1.298-6.172.981,7.588,6.896,13.423,14.045,13.423s13.069-5.835,14.051-13.423Z" fill="#f9e0b4" stroke-width="0"/>
        </g>
        <rect x="272.729" y="1666.2" width="205.095" height="33.565" fill="#f9e0b4" stroke-width="0"/>
        <rect x="249.745" y="1699.217" width="251.062" height="12.953" rx="1.574" ry="1.574" fill="#f9e0b4" stroke-width="0"/>
      </g>
      <g>
        <path d="m188.212,1712.17v191.26c-37.27-60.46-69.41-124.41-95.82-191.26h95.82Z" fill="#f9e0b4" stroke-width="0"/>
        <path d="m97.022,1666.2c-.34.45-.69.9-1.05,1.35h-20.18c-.17-.45-.32-.9-.48-1.35-2.79-8-5.51-16.04-8.13-24.12-.21-.65-.42-1.3-.63-1.94-9.94-30.72-18.7-61.98-26.21-93.72-.18-.72-.35-1.45-.51-2.18-1.82-7.73-3.57-15.5-5.23-23.29,15.55,12.91,33.18,24,49.14,34.04,33.39,21.01,53.17,59.74,13.28,111.21Z" fill="#f9e0b4" stroke-width="0"/>
        <path d="m70.792,1599.6c-2.86-22.22-13.01-36.73-21.06-45.03-3.2-3.31-6.53-6.74-9.9-10.33.16.73.33,1.46.51,2.18,2.93,3.1,5.82,6.08,8.62,8.96,7.89,8.15,17.9,22.45,20.72,44.36,1.65,12.82.6,26.34-3.13,40.4.21.64.42,1.29.63,1.94,4.13-14.8,5.35-29.01,3.61-42.48Z" fill="#fcd2a4" stroke-width="0"/>
        <path d="m98.132,1666.2v33.56h-10.55c-.07-.18-.14-.36-.2-.54-4.01-10.49-7.88-21.04-11.59-31.67-.17-.45-.32-.9-.48-1.35h22.82Z" fill="#f9e0b4" stroke-width="0"/>
        <path d="m121.122,1700.79v9.81c0,.87-.71,1.57-1.58,1.57h-27.15c-1.62-4.13-3.23-8.26-4.81-12.41-.07-.18-.14-.36-.2-.54h32.16c.87,0,1.58.7,1.58,1.57Z" fill="#f9e0b4" stroke-width="0"/>
      </g>
      <g>
        <path d="m2361.542,1712.17c-.21.52-.42,1.03-.62,1.55-6.57,16.56-13.49,32.95-20.76,49.14-11.08,24.72-22.96,49-35.61,72.8-3.39,6.4-6.85,12.77-10.36,19.1v-142.59h67.35Z" fill="#f9e0b4" stroke-width="0"/>
        <path d="m2418.022,1821.88c-4.14-1.93-5.48-7.48.74-6.05,6.21,1.43,3.39,7.99-.74,6.05Z" fill="#f9e0b4" stroke-width="0"/>
        <path d="m2421.622,1790.68c-5.72.42-5.89-8.28.76-8.92,6.64-.63,4.96,8.51-.76,8.92Z" fill="#f9e0b4" stroke-width="0"/>
        <path d="m2414.852,1541.05c-4.51,19.46-9.49,38.75-14.93,57.85v.01c-6.36,22.34-13.34,44.41-20.93,66.21-38.78-50.93-19.05-89.27,14.11-110.13.55-.35,1.11-.7,1.67-1.05,6.52-4.1,13.3-8.38,20.08-12.89Z" fill="#f9e0b4" stroke-width="0"/>
        <path d="m2366.553,1699.22c-1.64,4.33-3.32,8.65-5.01,12.95h-4.24c-.87,0-1.58-.7-1.58-1.57v-9.81c0-.87.71-1.57,1.58-1.57h9.25Z" fill="#f9e0b4" stroke-width="0"/>
      </g>
      <g>
        <path d="m2304.553,1712.17v123.49c-3.39,6.4-6.85,12.77-10.36,19.1-3.71,6.69-7.479,13.35-11.32,19.96-.04.08-.08.16-.14.24-18.68,32.25-38.8,63.56-60.28,93.85-17.06,24.08-34.98,47.5-53.7,70.24-24,29.13-49.31,57.13-75.87,83.91-16.56,16.71-33.61,32.94-51.12,48.67h-116.9v-459.46h379.69Z" fill="#f9e0b4" stroke-width="0"/>
        <path d="m2138.224,2035.456h-52.817c-2.119,0-3.836,2.119-3.836,0v-217.858c0-16.704,13.541-30.245,30.245-30.245h0c16.704,0,30.245,13.541,30.245,30.245v217.858c0,2.119-1.718,0-3.836,0Z" fill="#f3af04" stroke-width="0"/>
        <path d="m2212.317,1667.553h-200.772c-41.287-52.139-21.453-91.371,12.23-112.559,33.615-21.142,74.537-46.865,88.113-84.621.016-.038.031-.076.046-.115.008.039.023.077.038.115,13.577,37.756,54.499,63.479,88.115,84.621,33.675,21.188,53.508,60.42,12.23,112.559Z" fill="#f9e0b4" stroke-width="0"/>
        <g>
          <path d="m2187.133,1599.6c-.08-.64-.17-1.27-.27-1.89-3.17-21.16-12.97-35.08-20.79-43.14-1.71-1.77-3.46-3.57-5.23-5.41-9.34-9.72-19.3-20.58-27.93-33.15-8.34-12.17-15.43-25.96-19.49-41.9v-.01c0-.01-.01-.02-.01-.03-.14-.53-.27-1.07-.4-1.61-.18-.73-.35-1.47-.51-2.21l-.34-2.71-.05-.39-.1.4-.66,2.7c-.16.73-.32,1.45-.5,2.16-.13.58-.28,1.14-.42,1.71v.01c-3.46,13.54-9.1,25.53-15.84,36.3-10.94,17.47-24.76,31.72-36.84,44.17-8.01,8.27-18.17,22.78-21.03,45-1.82,14.11-.4,29.04,4.23,44.6,2.14,7.21,4.97,14.55,8.48,22,.21.45.42.9.64,1.35.04.08.08.17.12.25l.15.31h123.17l.16-.31c.04-.08.08-.17.12-.25.22-.45.43-.9.64-1.35,11.09-23.55,15.36-45.96,12.7-66.6Zm-13.94,66.6c-.13.26-.25.53-.38.79h-121.76c-.13-.26-.25-.53-.38-.79-3.62-7.64-6.53-15.16-8.71-22.54-4.53-15.33-5.92-30.03-4.13-43.92,2.82-21.91,12.83-36.21,20.76-44.39,12.17-12.55,26.14-26.95,37.16-44.65,6.6-10.6,12.15-22.4,15.62-35.69.19-.74.38-1.49.56-2.24.18.75.37,1.5.56,2.24,4.05,15.53,10.94,29.01,19.04,40.95,8.82,13.01,19.08,24.18,28.69,34.17,1.72,1.79,3.42,3.54,5.08,5.25,7.79,8.04,17.64,22.08,20.6,43.51.05.28.08.57.12.85,2.65,20.57-1.66,42.93-12.83,66.46Z" fill="#fcd2a4" stroke-width="0"/>
          <rect x="2111.368" y="1470.373" width="1.121" height="197.661" fill="#fcd2a4" stroke-width="0"/>
        </g>
        <g>
          <circle cx="2111.929" cy="1464.873" r="2.674" fill="#f9e0b4" stroke-width="0"/>
          <path d="m2114.603,1456.08c0,1.477-1.197,2.675-2.674,2.675s-2.674-1.198-2.674-2.675,1.197-2.674,2.674-2.674,2.674,1.197,2.674,2.674Z" fill="#f9e0b4" stroke-width="0"/>
          <rect x="2110.848" y="1448.786" width="2.162" height="23.734" fill="#f9e0b4" stroke-width="0"/>
          <path d="m2125.976,1427.27c.837,1.887,1.298,3.979,1.298,6.172,0,8.473-6.869,15.343-15.348,15.343s-15.343-6.87-15.343-15.343c0-2.193.461-4.285,1.298-6.172.981,7.588,6.897,13.423,14.046,13.423s13.069-5.835,14.05-13.423Z" fill="#f9e0b4" stroke-width="0"/>
        </g>
        <rect x="2009.381" y="1666.2" width="205.095" height="33.565" fill="#f9e0b4" stroke-width="0"/>
        <rect x="1986.397" y="1699.217" width="251.062" height="12.953" rx="1.574" ry="1.574" fill="#f9e0b4" stroke-width="0"/>
      </g>
      <g>
        <rect x="1555.534" y="1712.171" width="379.688" height="459.458" fill="#f9e0b4" stroke-width="0"/>
        <path d="m1768.894,2035.456h-52.817c-2.119,0-3.836,2.119-3.836,0v-217.858c0-16.704,13.541-30.245,30.245-30.245h0c16.704,0,30.245,13.541,30.245,30.245v217.858c0,2.119-1.718,0-3.836,0Z" fill="#f3af04" stroke-width="0"/>
        <path d="m1842.987,1667.553h-200.772c-41.287-52.139-21.453-91.371,12.23-112.559,33.615-21.142,74.537-46.865,88.113-84.621.016-.038.031-.076.046-.115.008.039.023.077.038.115,13.577,37.756,54.499,63.479,88.115,84.621,33.675,21.188,53.508,60.42,12.23,112.559Z" fill="#f9e0b4" stroke-width="0"/>
        <g>
          <path d="m1684.542,1666.99v.56h7.93v-.56h-7.93Zm0,0v.56h7.93v-.56h-7.93Zm0,0v.56h7.93v-.56h-7.93Zm0,0v.56h7.93v-.56h-7.93Zm0,0v.56h7.93v-.56h-7.93Zm0,0v.56h7.93v-.56h-7.93Zm133.26-67.39c-2.86-22.22-13.01-36.73-21.06-45.03-5.79-5.96-11.98-12.34-18.06-19.3-10.02-11.46-19.75-24.48-26.89-39.75-3.14-6.69-5.76-13.8-7.7-21.41v-.01c0-.01-.01-.02-.01-.03-.14-.53-.27-1.07-.4-1.61-.18-.73-.35-1.47-.51-2.21l-.34-2.71-.05-.39-.1.4-.66,2.7c-.16.73-.32,1.45-.5,2.16-.13.58-.28,1.14-.42,1.71v.01c-1.95,7.63-4.59,14.77-7.73,21.47-10.21,21.8-25.71,39.01-39.8,53.67-1.74,1.82-3.46,3.59-5.15,5.33-8.01,8.27-18.17,22.78-21.03,45-.39,3.07-.64,6.18-.73,9.32-.21,7.56.46,15.34,2.01,23.31,2.13,11,5.95,22.35,11.43,33.97.21.45.42.9.64,1.35.04.08.08.17.12.25l.15.31h123.17l.16-.31c.04-.08.08-.17.12-.25.22-.45.43-.9.64-1.35,11.09-23.55,15.36-45.96,12.7-66.6Zm-13.94,66.6c-.13.26-.25.53-.38.79h-121.76c-.13-.26-.25-.53-.38-.79-5.66-11.93-9.56-23.55-11.69-34.79-1.45-7.69-2.08-15.19-1.87-22.49.09-3.1.33-6.16.72-9.18,2.82-21.91,12.83-36.21,20.76-44.39,1.41-1.45,2.84-2.93,4.29-4.43,14.46-15.01,30.58-32.7,41.07-55.31,2.98-6.45,5.51-13.3,7.42-20.6.19-.74.38-1.49.56-2.24.18.75.37,1.5.56,2.24,1.9,7.27,4.42,14.1,7.39,20.52,7.21,15.58,17.1,28.83,27.3,40.48,6.1,6.98,12.31,13.39,18.12,19.37,7.89,8.15,17.9,22.45,20.72,44.36,2.65,20.57-1.66,42.93-12.83,66.46Zm-119.32.79v.56h7.93v-.56h-7.93Zm0,0v.56h7.93v-.56h-7.93Zm0,0v.56h7.93v-.56h-7.93Zm0,0v.56h7.93v-.56h-7.93Zm0,0v.56h7.93v-.56h-7.93Z" fill="#fcd2a4" stroke-width="0"/>
          <rect x="1742.038" y="1470.373" width="1.121" height="197.661" fill="#fcd2a4" stroke-width="0"/>
        </g>
        <g>
          <circle cx="1742.598" cy="1464.873" r="2.674" fill="#f9e0b4" stroke-width="0"/>
          <path d="m1745.272,1456.08c0,1.477-1.197,2.675-2.674,2.675s-2.674-1.198-2.674-2.675,1.197-2.674,2.674-2.674,2.674,1.197,2.674,2.674Z" fill="#f9e0b4" stroke-width="0"/>
          <rect x="1741.518" y="1448.786" width="2.162" height="23.734" fill="#f9e0b4" stroke-width="0"/>
          <path d="m1756.646,1427.27c.837,1.887,1.298,3.979,1.298,6.172,0,8.473-6.869,15.343-15.348,15.343s-15.343-6.87-15.343-15.343c0-2.193.461-4.285,1.298-6.172.981,7.588,6.897,13.423,14.046,13.423s13.069-5.835,14.05-13.423Z" fill="#f9e0b4" stroke-width="0"/>
        </g>
        <rect x="1640.051" y="1666.2" width="205.095" height="33.565" fill="#f9e0b4" stroke-width="0"/>
        <rect x="1617.067" y="1699.217" width="251.062" height="12.953" rx="1.574" ry="1.574" fill="#f9e0b4" stroke-width="0"/>
      </g>
      <rect x="802.139" y="1608.924" width="882.404" height="539.411" fill="#f9e0b4" stroke-width="0"/>
      <path d="m1245.592,1706.293c55.002,0,99.591,44.588,99.591,99.591v350.539c0,34.513-44.588,62.491-99.59,62.491h0c-55.004,0-99.591-27.978-99.591-62.491v-350.539c0-55.002,44.588-99.591,99.591-99.591h0Z" fill="#f3af04" stroke-width="0"/>
      <path d="m1451.895,1516.067h-417.842c-85.926-108.511-44.65-190.16,25.453-234.255,69.96-44,155.125-97.535,183.38-176.112.033-.079.064-.158.095-.237.017.079.049.158.08.237,28.256,78.577,113.422,132.111,183.382,176.112,70.086,44.095,111.361,125.744,25.452,234.255Z" fill="#f9e0b4" stroke-width="0"/>
      <g>
        <path d="m1399.482,1374.63c-1.43-11.1-3.73-21.28-6.64-30.57-9.21-29.41-24.46-50.01-37.18-63.12-40.58-41.85-90.75-93.57-109.6-167.5-.29-1.12-.57-2.26-.84-3.4-.37-1.52-.72-3.05-1.06-4.59l-.7-5.66-.1-.8-.2.82-1.38,5.64c-.34,1.54-.69,3.07-1.06,4.59-.27,1.14-.55,2.28-.84,3.4-17.38,68.18-61.4,117.47-100.01,157.59-3.27,3.39-6.49,6.71-9.65,9.97-15.06,15.53-33.76,41.67-41.62,80.62,0,.01.01.02,0,.03-.85,4.19-1.57,8.49-2.15,12.98-.45,3.48-.8,6.97-1.05,10.5-.58,7.71-.69,15.52-.35,23.45.01.01,0,.01,0,.01.22,5.36.66,10.77,1.3,16.22,1.15,9.84,2.97,19.81,5.47,29.93v.05q-.01.01,0,.02c4.67,19.03,11.7,38.54,21.08,58.44.44.94.89,1.88,1.34,2.82.08.17.16.33.24.5l.32.66h256.34l.32-.66c.08-.17.16-.33.24-.5.45-.94.9-1.88,1.34-2.82,6.67-14.15,12.15-28.11,16.45-41.84,10.57-33.8,13.93-66.21,9.99-96.78Zm-12.5,96.96v.01c-4.32,13.66-9.83,27.55-16.53,41.65-.25.55-.52,1.1-.78,1.65h-253.4c-.26-.55-.53-1.1-.78-1.65-10.87-22.88-18.62-45.23-23.22-66.92q-.01-.01,0-.02v-.06c-1.56-7.24-2.75-14.36-3.58-21.45-.55-4.53-.94-9.03-1.18-13.5-.49-8.75-.43-17.37.2-25.85.25-3.53.6-7.04,1.05-10.52.24-1.85.5-3.65.79-5.45v-.02c6.77-42.51,26.58-70.58,42.41-86.9,3.91-4.03,7.91-8.15,11.96-12.37,37.95-39.59,80.49-88.16,97.88-154.85.41-1.54.79-3.1,1.17-4.66.37,1.55.76,3.09,1.16,4.62,19.24,73.84,69.31,125.46,109.91,167.32,12.48,12.87,27.49,33.13,36.56,62.09,2.88,9.18,5.16,19.24,6.57,30.22,3.93,30.5.5,62.86-10.19,96.66Z" fill="#fcd2a4" stroke-width="0"/>
        <rect x="1241.802" y="1105.7" width="2.333" height="411.368" fill="#fcd2a4" stroke-width="0"/>
      </g>
      <g>
        <path d="m1248.534,1094.253c0,3.073-2.491,5.565-5.566,5.565s-5.565-2.492-5.565-5.565,2.492-5.565,5.565-5.565,5.566,2.492,5.566,5.565Z" fill="#f9e0b4" stroke-width="0"/>
        <path d="m1248.534,1075.952c0,3.075-2.491,5.566-5.566,5.566s-5.565-2.491-5.565-5.566,2.492-5.565,5.565-5.565,5.566,2.491,5.566,5.565Z" fill="#f9e0b4" stroke-width="0"/>
        <rect x="1240.719" y="1060.772" width="4.499" height="49.395" fill="#f9e0b4" stroke-width="0"/>
        <path d="m1272.204,1015.995c1.741,3.928,2.701,8.281,2.701,12.846,0,17.634-14.297,31.932-31.942,31.932s-31.932-14.297-31.932-31.932c0-4.565.961-8.918,2.702-12.846,2.043,15.793,14.353,27.935,29.23,27.935s27.2-12.142,29.242-27.935Z" fill="#f9e0b4" stroke-width="0"/>
      </g>
      <rect x="1029.548" y="1513.25" width="426.842" height="69.855" fill="#f9e0b4" stroke-width="0"/>
      <path d="m1458.075,1584.791h-430.213v-73.227h430.213v73.227Zm-426.842-3.372h423.47v-66.483h-423.47v66.483Z" fill="#e2f49d" stroke-width="0"/>
      <path d="m984.991,1581.966h515.952c1.809,0,3.277,1.468,3.277,3.277v20.405c0,1.808-1.468,3.276-3.276,3.276h-515.954c-1.808,0-3.276-1.468-3.276-3.276v-20.406c0-1.808,1.468-3.276,3.276-3.276Z" fill="#f9e0b4" stroke-width="0"/>
      <path d="m2092.883,2122.96c-16.56,16.71-33.61,32.94-51.12,48.67-87.53,78.68-186.52,144.87-294.16,195.75-157.89,74.67-334.39,116.43-520.64,116.43-141.51,0-277.39-24.1-403.76-68.44-142.45-49.96-272.82-125.63-385.53-221.44-26.55-22.56-52.12-46.24-76.63-70.97h1731.84Z" fill="#f9cca0" stroke-width="0"/>
      <g>
        <path d="m210.35,1663.001c9.893,1.32,10.083,15.869-2.88,11.428-12.964-4.44-7.014-12.748,2.88-11.428Z" fill="#fffefd" stroke-width="0"/>
        <path d="m267.676,1672.021c10.014,4.324,4.569,13.2-3.292,9.612-7.862-3.588-6.722-13.937,3.292-9.612Z" fill="#fffefd" stroke-width="0"/>
        <path d="m177.236,1648.541c5.942,3.033-.38,9.843-5.43,7.116-5.05-2.727-.513-10.149,5.43-7.116Z" fill="#fffefd" stroke-width="0"/>
        <path d="m216.513,1702.454c3.778,7.715,16.877,3.213,9.257-4.534-7.62-7.746-13.036-3.181-9.257,4.534Z" fill="#fffefd" stroke-width="0"/>
        <path d="m235.506,1649.45c4.474,4.548-1.424,8.56-3.873,4.705-2.45-3.855-.601-9.254,3.873-4.705Z" fill="#fffefd" stroke-width="0"/>
        <path d="m155.878,1675.327c4.474,4.548-1.424,8.56-3.873,4.705-2.45-3.855-.601-9.253,3.873-4.705Z" fill="#fffefd" stroke-width="0"/>
      </g>
      <g>
        <path d="m2421.622,1790.68c-5.72.42-5.89-8.28.76-8.92,6.64-.63,4.96,8.51-.76,8.92Z" fill="#fffefd" stroke-width="0"/>
        <path d="m2418.022,1821.88c-4.14-1.93-5.48-7.48.74-6.05,6.21,1.43,3.39,7.99-.74,6.05Z" fill="#fffefd" stroke-width="0"/>
      </g>
      <g>
        <path d="m934.921,2248.77c9.053-4.203,17.03,7.966,3.712,11.186-13.319,3.221-12.765-6.983-3.712-11.186Z" fill="#fffefd" stroke-width="0"/>
        <path d="m988.115,2225.576c10.77-1.733,10.946,8.678,2.388,9.876-8.558,1.198-13.158-8.144-2.388-9.876Z" fill="#fffefd" stroke-width="0"/>
        <path d="m899.222,2254.367c6.642-.635,4.969,8.506-.756,8.919-5.724.414-5.886-8.284.756-8.919Z" fill="#fffefd" stroke-width="0"/>
        <path d="m961.316,2278.733c7.332,4.476,15.96-6.359,5.372-8.798-10.589-2.439-12.704,4.322-5.372,8.798Z" fill="#fffefd" stroke-width="0"/>
        <path d="m948.855,2223.825c6.218,1.432,3.399,7.984-.738,6.049-4.137-1.935-5.479-7.481.738-6.049Z" fill="#fffefd" stroke-width="0"/>
        <path d="m895.601,2288.433c6.217,1.433,3.398,7.985-.739,6.05-4.137-1.935-5.478-7.482.739-6.05Z" fill="#fffefd" stroke-width="0"/>
      </g>
      <path d="m140.012,1771.044c10.77-1.733,10.946,8.678,2.388,9.876s-13.158-8.144-2.388-9.876Z" fill="#fffefd" stroke-width="0"/>
      <path d="m1416.346,810.57c-12.312,14.962-28.461,27.14-47.729,34.855-61.189,24.502-130.646-5.236-155.148-66.425-24.502-61.19,5.236-130.646,66.426-155.148,19.267-7.715,39.358-10.048,58.594-7.719-61.189,24.502-93.357,87.889-71.858,141.579,21.499,53.691,88.525,77.359,149.715,52.857Z" fill="#fff" stroke-width="0"/>
      <rect x="1051.531" y="1711.223" width="559.71" height="366.938" transform="translate(1819.688 4158.318) rotate(-157.078)" fill="#f6f6f7" stroke-width="0"/>
      <g>
        <polygon points="1243.962 1874.003 1265.981 1851.852 1297.011 1855.401 1280.638 1808.709 1227.589 1827.312 1243.962 1874.003" fill="#002a84" stroke-width="0"/>
        <polygon points="1132.152 1826.722 1132.707 1795.494 1108.544 1775.703 1153.449 1754.924 1177.057 1805.943 1132.152 1826.722" fill="#002a84" stroke-width="0"/>
        <polygon points="1246.915 1716.53 1257.259 1702.088 1272.099 1699.633 1255.563 1722.723 1246.915 1716.53" fill="#2b73b5" stroke-width="0"/>
        <path d="m1169.432,1745.078c-12.57,29.724,1.337,64.01,31.061,76.58,29.725,12.57,64.01-1.336,76.58-31.061,12.569-29.724-1.337-64.01-31.062-76.581-29.724-12.569-64.01,1.337-76.58,31.062Z" fill="#f6b53e" stroke-width="0"/>
        <polygon points="1254.662 1720.871 1261.58 1704.509 1255.927 1690.571 1244.866 1716.729 1254.662 1720.871" fill="#56abdd" stroke-width="0"/>
        <polygon points="1235.07 1712.586 1241.989 1696.224 1255.927 1690.571 1244.866 1716.729 1235.07 1712.586" fill="#2b73b5" stroke-width="0"/>
        <polygon points="1239.992 1713.873 1241.967 1696.219 1232.581 1684.466 1229.423 1712.69 1239.992 1713.873" fill="#56abdd" stroke-width="0"/>
        <polygon points="1218.853 1711.508 1220.828 1693.854 1232.581 1684.466 1229.423 1712.69 1218.853 1711.508" fill="#2b73b5" stroke-width="0"/>
        <polygon points="1223.938 1711.341 1220.806 1693.855 1208.461 1685.261 1213.469 1713.216 1223.938 1711.341" fill="#56abdd" stroke-width="0"/>
        <polygon points="1203 1715.091 1199.868 1697.605 1208.461 1685.261 1213.469 1713.216 1203 1715.091" fill="#2b73b5" stroke-width="0"/>
        <polygon points="1207.827 1713.483 1199.847 1697.612 1185.567 1692.888 1198.325 1718.261 1207.827 1713.483" fill="#56abdd" stroke-width="0"/>
        <polygon points="1188.823 1723.038 1180.843 1707.167 1185.567 1692.888 1198.325 1718.261 1188.823 1723.038" fill="#2b73b5" stroke-width="0"/>
        <polygon points="1192.993 1720.124 1180.824 1707.18 1165.79 1706.716 1185.244 1727.408 1192.993 1720.124" fill="#56abdd" stroke-width="0"/>
        <polygon points="1177.495 1734.693 1165.326 1721.75 1165.79 1706.716 1185.244 1727.408 1177.495 1734.693" fill="#2b73b5" stroke-width="0"/>
        <polygon points="1180.662 1730.711 1165.313 1721.768 1150.769 1725.603 1175.307 1739.901 1180.662 1730.711" fill="#56abdd" stroke-width="0"/>
        <polygon points="1169.953 1749.09 1154.604 1740.146 1150.769 1725.603 1175.307 1739.901 1169.953 1749.09" fill="#2b73b5" stroke-width="0"/>
        <polygon points="1171.855 1744.371 1154.596 1740.167 1141.745 1747.983 1169.338 1754.704 1171.855 1744.371" fill="#56abdd" stroke-width="0"/>
        <polygon points="1166.821 1765.038 1149.561 1760.834 1141.745 1747.983 1169.338 1754.704 1166.821 1765.038" fill="#2b73b5" stroke-width="0"/>
        <polygon points="1167.302 1759.974 1149.559 1760.856 1139.465 1772.007 1167.831 1770.596 1167.302 1759.974" fill="#56abdd" stroke-width="0"/>
        <polygon points="1168.359 1781.218 1150.617 1782.101 1139.465 1772.007 1167.831 1770.596 1168.359 1781.218" fill="#2b73b5" stroke-width="0"/>
        <polygon points="1167.378 1776.226 1150.62 1782.123 1144.119 1795.686 1170.908 1786.258 1167.378 1776.226" fill="#56abdd" stroke-width="0"/>
        <polygon points="1174.439 1796.291 1157.682 1802.188 1144.119 1795.686 1170.908 1786.258 1174.439 1796.291" fill="#2b73b5" stroke-width="0"/>
        <polygon points="1172.077 1791.784 1157.692 1802.207 1155.32 1817.06 1178.318 1800.397 1172.077 1791.784" fill="#56abdd" stroke-width="0"/>
        <polygon points="1184.558 1809.009 1170.173 1819.432 1155.32 1817.06 1178.318 1800.397 1184.558 1809.009" fill="#2b73b5" stroke-width="0"/>
        <polygon points="1181.011 1805.361 1170.189 1819.448 1172.143 1834.362 1189.445 1811.841 1181.011 1805.361" fill="#56abdd" stroke-width="0"/>
        <polygon points="1197.879 1818.32 1187.056 1832.408 1172.143 1834.362 1189.445 1811.841 1197.879 1818.32" fill="#2b73b5" stroke-width="0"/>
        <polygon points="1193.441 1815.833 1187.076 1832.419 1193.194 1846.159 1203.371 1819.644 1193.441 1815.833" fill="#56abdd" stroke-width="0"/>
        <polygon points="1213.3 1823.455 1206.934 1840.041 1193.194 1846.159 1203.371 1819.644 1213.3 1823.455" fill="#2b73b5" stroke-width="0"/>
        <polygon points="1208.336 1822.334 1206.956 1840.045 1216.733 1851.475 1218.94 1823.161 1208.336 1822.334" fill="#56abdd" stroke-width="0"/>
        <polygon points="1229.543 1823.987 1228.163 1841.699 1216.733 1851.475 1218.94 1823.161 1229.543 1823.987" fill="#2b73b5" stroke-width="0"/>
        <polygon points="1224.467 1824.326 1228.185 1841.697 1240.812 1849.871 1234.867 1822.1 1224.467 1824.326" fill="#56abdd" stroke-width="0"/>
        <polygon points="1245.267 1819.873 1248.985 1837.245 1240.812 1849.871 1234.867 1822.1 1245.267 1819.873" fill="#2b73b5" stroke-width="0"/>
        <polygon points="1240.497 1821.643 1249.006 1837.237 1263.437 1841.479 1249.833 1816.549 1240.497 1821.643" fill="#56abdd" stroke-width="0"/>
        <polygon points="1259.169 1811.454 1267.678 1827.048 1263.437 1841.479 1249.833 1816.549 1259.169 1811.454" fill="#2b73b5" stroke-width="0"/>
        <polygon points="1255.1 1814.508 1267.696 1827.035 1282.737 1826.993 1262.6 1806.967 1255.1 1814.508" fill="#56abdd" stroke-width="0"/>
        <polygon points="1270.099 1799.426 1282.696 1811.953 1282.737 1826.993 1262.6 1806.967 1270.099 1799.426" fill="#2b73b5" stroke-width="0"/>
        <polygon points="1267.068 1803.511 1282.709 1811.935 1297.115 1807.612 1272.11 1794.147 1267.068 1803.511" fill="#56abdd" stroke-width="0"/>
        <polygon points="1277.153 1784.783 1292.794 1793.206 1297.115 1807.612 1272.11 1794.147 1277.153 1784.783" fill="#2b73b5" stroke-width="0"/>
        <polygon points="1275.41 1789.563 1292.801 1793.185 1305.382 1784.941 1277.578 1779.151 1275.41 1789.563" fill="#56abdd" stroke-width="0"/>
        <polygon points="1279.747 1768.738 1297.138 1772.361 1305.382 1784.941 1277.578 1779.151 1279.747 1768.738" fill="#2b73b5" stroke-width="0"/>
        <polygon points="1279.437 1773.817 1297.14 1772.338 1306.853 1760.854 1278.551 1763.219 1279.437 1773.817" fill="#56abdd" stroke-width="0"/>
        <polygon points="1277.666 1752.62 1295.37 1751.141 1306.853 1760.854 1278.551 1763.219 1277.666 1752.62" fill="#2b73b5" stroke-width="0"/>
        <polygon points="1278.814 1757.576 1295.364 1751.119 1301.407 1737.346 1274.949 1747.668 1278.814 1757.576" fill="#56abdd" stroke-width="0"/>
        <polygon points="1271.083 1737.76 1287.632 1731.303 1301.407 1737.346 1274.949 1747.668 1271.083 1737.76" fill="#2b73b5" stroke-width="0"/>
        <polygon points="1273.594 1742.185 1287.621 1731.283 1289.493 1716.36 1267.068 1733.786 1273.594 1742.185" fill="#56abdd" stroke-width="0"/>
        <polygon points="1260.542 1725.389 1274.569 1714.488 1289.493 1716.36 1267.068 1733.786 1260.542 1725.389" fill="#2b73b5" stroke-width="0"/>
        <polygon points="1264.209 1728.915 1274.553 1714.473 1272.099 1699.633 1255.563 1722.723 1264.209 1728.915" fill="#56abdd" stroke-width="0"/>
        <path d="m1169.18,1744.972c-12.57,29.724,1.336,64.01,31.061,76.58,29.724,12.57,64.01-1.336,76.58-31.061,12.57-29.725-1.336-64.01-31.061-76.58-29.725-12.569-64.01,1.337-76.58,31.062Z" fill="#f6b53e" stroke-width="0"/>
        <path d="m1177.828,1748.629c-10.609,25.088,1.128,54.025,26.216,64.634,25.087,10.609,54.025-1.128,64.633-26.215,10.609-25.088-1.128-54.025-26.215-64.633-25.087-10.609-54.025,1.128-64.633,26.215Z" fill="#f09600" stroke-width="0"/>
        <polygon points="1234.893 1739.607 1220.715 1755.962 1200.78 1747.532 1211.952 1766.069 1197.774 1782.424 1218.858 1777.527 1230.031 1796.065 1231.888 1774.5 1252.971 1769.602 1233.036 1761.172 1234.893 1739.607" fill="#f6b53e" stroke-width="0"/>
      </g>
      <rect x="1365.619" y="1799.568" width="264.023" height="24.929" transform="translate(2171.247 4064.277) rotate(-157.078)" fill="#eceef0" stroke-width="0"/>
      <rect x="1347.886" y="1841.502" width="264.023" height="24.93" transform="translate(2120.849 4137.926) rotate(-157.078)" fill="#eceef0" stroke-width="0"/>
      <rect x="1330.153" y="1883.435" width="264.023" height="24.929" transform="translate(2070.452 4211.574) rotate(-157.078)" fill="#eceef0" stroke-width="0"/>
      <rect x="1310.748" y="1929.324" width="264.023" height="24.93" transform="translate(2015.3 4292.172) rotate(-157.078)" fill="#eceef0" stroke-width="0"/>
      <rect x="1069.252" y="1932.532" width="494.291" height="24.93" transform="translate(1771.301 4249.12) rotate(-157.078)" fill="#eceef0" stroke-width="0"/>
      <rect x="1051.976" y="1973.385" width="494.291" height="24.929" transform="translate(1722.206 4320.869) rotate(-157.078)" fill="#eceef0" stroke-width="0"/>
      <rect x="1034.701" y="2014.238" width="494.291" height="24.929" transform="translate(1673.108 4392.62) rotate(-157.078)" fill="#eceef0" stroke-width="0"/>
      <path d="m326.882,2087.09c-29.06-31.77-56.45-65.08-82.04-99.8,7.81-31.28,17.31-64.8,28.85-100.23l17.52-17.02s0-.01.01-.01l53.7-52.15,31.4-30.5,9.21-8.95,33.62-32.65,148.75,5.75,234.24,9.07,53.36,2.06-3.85,77.84-2.29,46.29-6.14,124.08-4.83,97.46v.01l-.72,14.62-1.26,25.38-2.25,45.59-10.96,221.44c-142.45-49.96-272.82-125.63-385.53-221.44-26.55-22.56-52.12-46.24-76.63-70.97-5.96-6.01-11.85-12.07-17.68-18.2l-16.48-17.67Z" fill="#61046e" stroke-width="0"/>
      <g opacity=".28">
        <path d="m875.332,1842.01l-4.17,39.51-13.54,128.37c-4.73.3-9.53.62-14.4.98-13.24.95-26.97,2.11-41.08,3.45-5.62.52-11.31,1.08-17.05,1.67-19.6,1.99-39.84,4.29-60.49,6.83-51,6.27-104.45,14.01-156.7,22.24-10.38,1.63-20.71,3.29-30.97,4.95-42.68,6.93-84.03,14.07-122,20.87-32.21,5.76-61.98,11.27-88.05,16.21-29.06-31.77-56.45-65.08-82.04-99.8-1.13-1.52-2.25-3.05-3.36-4.58,7.91-32.94,18.44-67.2,32.21-95.65,3.07-6.35,9.06-12,17.52-17.02,0,0,0-.01.01-.01,12.79-7.59,31.21-13.74,53.7-18.7,17.86-3.93,38.29-7.11,60.49-9.64,25.68-2.93,53.74-5.02,82.95-6.43,25.89-1.25,52.68-1.98,79.54-2.31,54.34-.67,108.92.28,156.7,1.79,21.81.69,42.19,1.49,60.49,2.3,5.91.27,11.6.53,17.05.79,20.18.98,37.06,1.93,49.51,2.67,15.11.9,23.68,1.51,23.68,1.51Z" fill="#21201f" stroke-width="0"/>
      </g>
      <path d="m2281.142,1873.42l1.59,1.54c-18.68,32.25-38.8,63.56-60.28,93.85-17.06,24.08-34.98,47.5-53.7,70.24-24,29.13-49.31,57.13-75.87,83.91-16.56,16.71-33.61,32.94-51.12,48.67-87.53,78.68-186.52,144.87-294.16,195.75l-11.07-195.75-2.76-48.67-4.95-87.5-1.77-31.41v-.02l-11.35-200.48v-.01l-1.42-25.12-.04-.8-.85-14.96,22.43-.87s0,.01.01,0l28.36-1.1h.021l160.65-6.21,10.36-.4,149.87-5.8,64.64-2.5,131.38,127.62c.01,0,.02.01.03.02Z" fill="#7a2e18" stroke-width="0"/>
      <g mix-blend-mode="multiply" opacity=".18">
        <path d="m2281.142,1873.42c.59.43,1.17.86,1.73,1.3-.04.08-.08.16-.14.24-18.68,32.25-38.8,63.56-60.28,93.85-17.06,24.08-34.98,47.5-53.7,70.24-8.8-.92-17.83-1.81-27.07-2.67h-.01c-.16-.01-.31-.02-.46-.04h-.01c-3.29-.3-6.6-.59-9.95-.88-16.01-1.39-32.61-2.64-49.68-3.68-46.14-2.85-95.71-4.24-146.35-2.99-3.45.08-6.9.17-10.36.28-35.31,1.12-71.06,3.54-106.44,7.68l-21.9-3.02s4.48-9.23,11.22-22.81c.18-.36.37-.73.55-1.11,18.57-37.36,53.28-105.63,60.35-108.37,3.59-1.39,27.21-17.83,56.22-38.36,3.39-2.4,6.85-4.85,10.36-7.35,48.25-34.22,105.96-75.68,112.65-79.02,1.85-.92,9.05.41,19.91,3.44,8.49,2.37,19.22,5.78,31.39,9.97,12.19,4.19,25.8,9.17,40.04,14.66h.01c52.57,20.3,113.57,47.61,141.89,68.62.01,0,.02.01.03.02Z" fill="#520063" stroke-width="0"/>
      </g>
      <path d="m1319.864,1263.753c-11.516-13.091-44.107,3.303-83.714,1.138-39.607-2.165-34.591-1.254-61.488,1.029-73.028,6.199-91.268,33.095-151.449,32.038,0,0-61.173,158.538,16.735,134.974,106.709-32.273,110.783,40.866,151.65,54.801,40.868,13.934,109.197-13.141,109.197-13.141,17.514,6.182,33.145-1.703,40.765-17.72,7.626-16.018-115.101-141.904-115.101-141.904,101.126,10.59,104.92-38.126,93.405-51.216Z" fill="#ffc68f" stroke-width="0"/>
      <path d="m1319.864,1263.753c-11.516-13.091-44.107,3.303-83.714,1.138-39.607-2.165-34.591-1.254-61.488,1.029-73.028,6.199-91.268,33.095-151.449,32.038,0,0-61.173,158.538,16.735,134.974,106.709-32.273,110.783,40.866,151.65,54.801,40.868,13.934,109.197-13.141,109.197-13.141,17.514,6.182,33.145-1.703,40.765-17.72,7.626-16.018-115.101-141.904-115.101-141.904,101.126,10.59,104.92-38.126,93.405-51.216Z" fill="#ea8c68" stroke-width="0"/>
      <path d="m1372.552,1350.002s-28.125-20.492-60.113-36.484c-31.985-15.995-129.239-13.157-148.233,9.968-6.15,19.684,22.981,23.793,41.308,22.578,37.396-2.478,23.711-1.276,23.711-1.276,0,0,48.282,73.27,109.843,119.411,17.977,13.472,55.741,5.859,74.434,5.341,0,0,464.605,73.087,574.152-25.513,109.543-98.597,15.273-231.219,15.273-231.219-179.936,2.956-630.374,137.194-630.374,137.194Z" fill="#ffc68f" stroke-width="0"/>
      <g mix-blend-mode="multiply" opacity=".5">
        <path d="m1903.663,1222.491c-48.696,7.326-103.571,18.156-159.174,30.536,25.894,189.289-88.401,238.702-88.401,238.702l1.96,1.958c97.169,4.54,202.288,2.166,272.121-19.806l-19.804-244.273-6.702-7.117Z" fill="#ffc68f" stroke-width="0"/>
      </g>
      <g>
        <path d="m1162.265,1417.509s10.374-7.508,14.295-16.205c-8.313,7.732-14.295,16.205-14.295,16.205Z" fill="#ffc68f" stroke-width="0"/>
        <path d="m1192.236,1446.029s37.887-35.74,18.595-52.971c-10.589-9.457-24.16-1.159-34.271,8.246-3.921,8.697-14.295,16.205-14.295,16.205,0,0,5.982-8.473,14.295-16.205,2.37-5.255,2.387-10.942-3.668-15.666-16.077-12.547-40.05,10.976-40.05,10.976,0,0,15.048-22.046,3.265-28.406-11.783-6.359-38.652,20.588-38.652,20.588,0,0-12.523-7.357-26.019-1.739-3.287,1.372,12.354,20.108,13.953,21.914,3.861,4.38,7.899,7.924,10.994,13.043,3.91,6.464,7.194,13.809,13.612,18.227,4.699,3.235,12.19,4.45,15.48,9.39,1.338,2.01,1.669,4.038,3.418,5.882,2.089,2.2,4.856,4.012,7.481,5.503,4.791,2.722,10.233,4.514,14.181,8.361,2.941,2.861,4.811,6.649,7.584,9.673,3.518,3.841,8.491,6.321,13.677,6.824,5.718.555,11.838-1.151,17.046,1.279,1.765.825,3.342,2.101,5.234,2.57,2.646.657,5.391-.37,7.894-1.438,15.716-6.7,30.358-12.221,41.099-25.913,8.144-10.378,18.784-28.604,8.271-40.885-15.447-18.042-59.125,24.541-59.125,24.541Z" fill="#ffc68f" stroke-width="0"/>
      </g>
      <g>
        <polygon points="682.611 697.33 657.993 777.377 817.26 834.942 867.452 663.116 742.083 587.342 682.611 697.33" fill="#ea8c68" stroke-width="0"/>
        <g mix-blend-mode="multiply" opacity=".5">
          <path d="m720.872,633.309s50.961,120.534,110.934,148.411l35.645-118.604-125.369-75.774-21.211,45.967Z" fill="#ea8c68" stroke-width="0"/>
        </g>
        <path d="m1092.988,442.275l-37.492-54.919-136.095-16.296s-119.154,51.72-132.99,202.107c-13.839,150.383,78.192,216.202,141.467,215.467,82.932-.962,119.527-103.064,119.527-103.064,9.704,6.385,48.999.737,51.858-11.697,2.857-12.431-27.989-35.169-19.543-63.557,8.444-28.388,36.13-88.391,13.267-168.039Z" fill="#ea8c68" stroke-width="0"/>
        <path d="m830.027,339.623l-185.331,53.888c-45.086,79.374,45.768,253.582,37.914,303.82l114.167-81.395,29.554-123.595,33.045,68.635s20.34-78.024,83.988-128.725c63.647-50.698-113.337-92.628-113.337-92.628Z" fill="#fff" stroke-width="0"/>
        <g mix-blend-mode="multiply" opacity=".31">
          <g opacity=".2">
            <path d="m668.065,619.846c22.429-32.629-28.88-165.99,52.02-229.735l7.567-20.785-82.972,24.176c-30.958,54.392,2.102,153.302,23.385,226.344Z" fill="#fe965c" stroke-width="0"/>
          </g>
        </g>
        <path d="m777.321,467.237c-29.272,9.049-46.67,39.285-41.367,92.218,5.307,52.937,34.884,68.969,60.823,56.481,25.939-12.484,45.154-73.865,45.154-73.865-6.67-52.279-35.334-83.882-64.61-74.833Z" fill="#ea8c68" stroke-width="0"/>
        <path d="m919.864,781.697c-106.268-6.938-39.479-299.944-39.479-299.944l-29.861,21.629s-53.562,59.659-55.893,169.814c-2.524,119.05,56.41,245.786,162.543,184.326,50.803-29.419,65.565-126.234,65.565-126.234,0,0-34.273,54.887-102.875,50.409Z" fill="#fff" stroke-width="0"/>
        <path d="m799.428,502.436c-8.303-4.081-18.078-2.699-26.2,3.693-1.407,1.11-1.652,3.137-.543,4.545,1.086,1.407,3.137,1.641,4.546.543,6.108-4.803,13.3-5.915,19.33-2.971,9.182,4.533,14.32,17.69,14.088,36.105-.011,1.783,1.409,3.254,3.202,3.28h.039c1.769,0,3.216-1.433,3.241-3.202.348-28.77-10.951-38.661-17.704-41.993Z" fill="#e5825c" stroke-width="0"/>
        <path d="m806.052,555.934c-1.795-.4-3.448.788-3.822,2.518-.271,1.305-2.97,12.759-15.495,11.48-4.494-.439-10.214-7.839-11.623-19.007-.89-6.986-1.562-30.553,26.718-40.869,1.679-.619,2.543-2.48,1.936-4.159-.632-1.69-2.53-2.518-4.157-1.936-26.046,9.504-33.057,30.913-30.927,47.777,1.705,13.456,9.027,23.811,17.407,24.652.878.077,1.718.116,2.532.116,13.093,0,18.774-10.743,19.963-16.774.349-1.757-.788-3.447-2.532-3.797Z" fill="#e5825c" stroke-width="0"/>
        <path d="m961.532,731.288l22.349-40.059-70.956-31.376s-10.496,52.473,48.608,71.435Z" fill="#fff" stroke-width="0"/>
        <g mix-blend-mode="multiply" opacity=".5">
          <path d="m966.262,584.446c-10.867-4.106-21.683-2.14-24.148,4.393-2.471,6.532,4.342,15.157,15.211,19.263,10.867,4.105,21.682,2.138,24.147-4.394,2.47-6.532-4.341-15.159-15.211-19.263Z" fill="#ea8c68" stroke-width="0"/>
        </g>
        <g mix-blend-mode="multiply" opacity=".5">
          <path d="m766.911,511.969c-31.679,21.161,2.243,84.633,28.497,80.556l16.875-19.877s-21.216.651-15.015-11.875c6.202-12.524,17.465-13.541,22.345-3.406l4.194-9.369c1.088-26.956-25.22-57.185-56.896-36.029Z" fill="#ea8c68" stroke-width="0"/>
        </g>
        <path d="m903.724,201.626c-245.731-22.61-266.947,194.186-266.947,194.186l458.57,59.911s6.586-235.859-191.623-254.097Z" fill="#a7664b" stroke-width="0"/>
        <path d="m828.365,200.629c-97.198,45.359-126.358,200.876-126.358,200.876l-65.23-5.694s-10.909-148.203,191.587-195.182Z" fill="#915039" stroke-width="0"/>
      </g>
      <path d="m326.882,2087.09c-29.06-31.77-56.45-65.08-82.04-99.8-1.13-1.52-2.25-3.05-3.36-4.58-14.97-20.49-29.31-41.47-42.99-62.91,4.34-24.65,9.01-50.09,13.76-75.18.46-2.45.93-4.91,1.39-7.35,1.4-7.35,2.8-14.65,4.2-21.89,1.63-8.44,3.25-16.78,4.87-24.99,5.14-26.18,10.14-50.92,14.64-72.74.38-1.85.76-3.68,1.13-5.48,4.12-19.83,7.78-37.02,10.71-50.36,2.09-9.5,4.18-18.94,6.28-28.3,4.96-22.12,9.93-43.85,14.93-65.19,13.39-57.16,26.91-111.5,40.51-162.94,1.94-7.32,3.87-14.58,5.81-21.78,1.07-4,2.15-7.98,3.23-11.94,1.54-5.69,3.09-11.34,4.64-16.96,5.6-20.32,11.21-40.15,16.82-59.48,82.45-283.86,165.81-460.34,235.97-513.48h.05c2.41,0,90.66.36,164.62,26.02.03.01.06.02.09.03l6.87,2.49c44.87,16.77,83.14,43.43,91.51,85.77.64,3.24,1.11,6.57,1.39,10,3.66,45.15,17.96,191.87,31.8,360.34,3.43,41.63,6.82,84.59,10.02,127.68v.01c3.08,41.6,5.99,83.32,8.57,124.08,1.95,30.97,3.73,61.38,5.25,90.76.5,9.49.96,18.87,1.4,28.12v.02c.88,19.06,1.64,45.07,2.26,75.11.99,48.08,1.62,106.49,1.77,163.23.31,98.32-.75,191.7-3.53,217.75-.1.93-.55,1.82-1.33,2.67-.1.11-.2.21-.31.32-1.4,1.37-3.64,2.62-6.63,3.76-.46.17-.94.34-1.43.52-1.24.43-2.6.85-4.06,1.24-.87.24-1.77.47-2.71.7-.32.09-.64.16-.98.23-.97.23-1.98.45-3.02.67-.35.08-.7.15-1.06.21-.7.14-1.41.28-2.14.42h-.03c-10.01,1.85-22.75,3.31-37.36,4.44-10.81.83-22.64,1.49-35.15,1.99-.36.02-.73.03-1.1.04-.89.04-1.78.08-2.68.11-37.6,1.42-80.92,1.52-120.91,1.08-2.06-.02-4.11-.05-6.15-.07-3.13-.04-6.25-.08-9.33-.13-3.08-.04-6.14-.09-9.16-.14-.73-.02-1.45-.03-2.16-.04-1.69-.03-3.37-.06-5.03-.09-2.01-.03-4-.07-5.97-.11-3.61-.07-7.16-.14-10.64-.22-2.26-.05-4.5-.1-6.69-.15-7.34-.16-14.32-.34-20.87-.52-3.42-.08-6.72-.18-9.89-.27-.62-.02-1.23-.04-1.84-.05-2.51-.07-4.94-.15-7.27-.22-1.08-.03-2.14-.07-3.18-.1-1.65-.05-3.24-.1-4.77-.15-.09-.01-.19-.01-.29-.01-.67-.02-1.33-.04-1.98-.06-.07-.01-.14-.01-.2-.01-.72-.03-1.42-.05-2.11-.07-1.07-.03-2.11-.06-3.12-.1-1.26-.04-2.47-.08-3.62-.13-.63-.02-1.25-.04-1.86-.06-.87-.03-1.71-.06-2.5-.09-1.74-.06-3.31-.12-4.69-.17-.1-.01-.2-.01-.29-.01-1.32-.05-2.46-.09-3.42-.13-.1-.01-.2-.01-.3-.01-2.19-.08-3.35-.13-3.35-.13l-3.59-19.12-7.35-39.18-35.78-190.69-86.22,211.56-15.13,37.12c-16.1,1.07-35.66-.35-56.44-3.24l-16.48-17.67Z" fill="#7253ec" stroke-width="0"/>
      <g opacity=".12">
        <g opacity=".06">
          <path d="m803.275,1403.336c-.349-16.909-.768-24.767-1.122-28.065,0,0,.07,0,0-.068.917-1.615,3.089-14.104,7.718-68.479-82.225,40.552-74.649-217.639-126.426-270.959-245.705-269.977-262.614,244.86-128.676,513.436,38.867,77.876,254.401,106.432,344.209,87.842-3.577-75.636-9.052-159.546-15.225-242.967-40.764,5.191-80.406,10.734-80.477,9.26Z" fill="#01435e" stroke-width="0"/>
        </g>
      </g>
      <path d="m748.461,1284.101s-13.452-83.699-27.588-194.306c-17.289-135.292-169.226-234.327-233.831-159.329-149.845,173.942-25.467,582.064,67.708,618.708,151.978,59.771,521.062-95.293,521.062-95.293,25.348-104.802-20.619-197.899-20.619-197.899-92.016-7.667-306.732,28.118-306.732,28.118Z" fill="#7253ec" stroke-width="0"/>
      <path d="m1001.126,1253.501c28.325,50.982,30.213,228.483,30.213,228.483l60.425-26.434s9.943-125.329-36.572-199.568l-54.066-2.481Z" fill="#8f7df4" stroke-width="0"/>
      <path d="m785.013,788.638c-87.474-54.516-156.486-70.412-171.824-57.35-15.337,13.059-35.785,50.432-35.785,50.432,0,0,182.407,128.422,260.433,133.533,3.903-51.123,34.652-72.097-52.824-126.615Z" fill="#8f7df4" stroke-width="0"/>
      <g>
        <polygon points="1826.258 587.342 1700.879 663.116 1751.078 834.942 1910.345 777.377 1885.721 697.33 1826.258 587.342" fill="#ffc68f" stroke-width="0"/>
        <g mix-blend-mode="multiply" opacity=".5">
          <path d="m1700.879,663.116l35.653,118.604c59.97-27.877,110.931-148.411,110.931-148.411l-21.205-45.967-125.379,75.774Z" fill="#ffc68f" stroke-width="0"/>
        </g>
        <path d="m1648.934,371.059l-136.092,16.296-37.495,54.919c-22.863,79.648,4.826,139.651,13.27,168.039,8.442,28.389-22.403,51.127-19.543,63.557,2.856,12.435,42.15,18.082,51.857,11.697,0,0,36.589,102.101,119.524,103.064,63.276.735,155.306-65.084,141.468-215.467-13.834-150.387-132.99-202.107-132.99-202.107Z" fill="#ffc68f" stroke-width="0"/>
        <path d="m1923.639,393.511l-185.331-53.888s-176.985,41.93-113.336,92.628c63.647,50.701,83.988,128.725,83.988,128.725l33.041-68.635,29.557,123.595,114.163,81.395c-7.85-50.238,83.004-224.446,37.918-303.82Z" fill="#602807" stroke-width="0"/>
        <path d="m1791.016,467.237c-29.275-9.049-57.937,22.555-64.613,74.833,0,0,19.218,61.381,45.155,73.865,25.939,12.488,55.516-3.544,60.819-56.481,5.307-52.933-12.085-83.169-41.361-92.218Z" fill="#ffc68f" stroke-width="0"/>
        <path d="m1768.91,502.436c-6.753,3.332-18.052,13.222-17.702,41.993.025,1.769,1.471,3.202,3.24,3.202h.039c1.796-.027,3.216-1.498,3.202-3.28-.232-18.415,4.908-31.572,14.088-36.105,6.018-2.944,13.211-1.846,19.331,2.971,1.409,1.098,3.463.864,4.546-.543,1.111-1.407.866-3.435-.542-4.545-8.123-6.392-17.897-7.774-26.201-3.693Z" fill="#e5825c" stroke-width="0"/>
        <path d="m1768.717,503.96c-1.627-.568-3.538.246-4.159,1.936-.606,1.679.259,3.539,1.937,4.159,28.293,10.317,27.608,33.896,26.73,40.869-1.407,11.168-7.129,18.569-11.621,19.007-12.411,1.266-15.226-10.174-15.497-11.48-.361-1.73-1.924-2.918-3.821-2.518-1.744.349-2.88,2.04-2.53,3.797,1.187,6.031,6.869,16.786,19.949,16.786.826,0,1.666-.051,2.544-.127,8.38-.84,15.702-11.196,17.406-24.652,2.132-16.865-4.881-38.274-30.939-47.777Z" fill="#e5825c" stroke-width="0"/>
        <path d="m1584.454,691.229l22.35,40.059c59.105-18.962,48.604-71.435,48.604-71.435l-70.954,31.376Z" fill="#fff" stroke-width="0"/>
        <g mix-blend-mode="multiply" opacity=".5">
          <path d="m1602.071,584.446c-10.867,4.104-17.674,12.731-15.205,19.263,2.467,6.532,13.277,8.499,24.144,4.394,10.869-4.106,17.68-12.731,15.211-19.263-2.466-6.533-13.279-8.499-24.15-4.393Z" fill="#ffc68f" stroke-width="0"/>
        </g>
        <g mix-blend-mode="multiply" opacity=".5">
          <path d="m1801.425,511.969c-31.678-21.157-57.985,9.073-56.894,36.029l4.19,9.369c4.88-10.135,16.143-9.118,22.345,3.406,6.206,12.526-15.011,11.875-15.011,11.875l16.87,19.877c26.26,4.077,60.179-59.395,28.499-80.556Z" fill="#ffc68f" stroke-width="0"/>
        </g>
        <path d="m1664.613,201.626c-234.196,25.119-199.069,254.097-199.069,254.097l466.014-59.911s-26.562-219.967-266.945-194.186Z" fill="#fd6d36" stroke-width="0"/>
        <path d="m1893.497,644.088c2.784-65.555.378-156.231-21.642-240.643l53.407-6.834c31.385,61.442-12.466,174.961-31.765,247.477Z" fill="#491c05" stroke-width="0"/>
        <g opacity=".37">
          <path d="m1931.59,395.789l-6.328.823-53.407,6.834c-2.341-9.175-4.934-18.287-7.846-27.272-23.285-72.959-63.087-138.387-129.211-174.835,175.594,19.173,196.793,194.451,196.793,194.451Z" fill="#c9362f" stroke-width="0"/>
        </g>
      </g>
      <path d="m2340.162,1762.86c-11.08,24.72-22.96,49-35.61,72.8-3.39,6.4-6.85,12.77-10.36,19.1-3.71,6.69-7.479,13.35-11.32,19.96-.04.08-.08.16-.14.24-18.68,32.25-38.8,63.56-60.28,93.85-4.38-.07-8.77-.25-13.16-.54l-67.23-98.66-7.07-10.37-4.21,118.64s-18.92,3.58-49.21,8.39c-36.62,5.81-89.86,13.42-146.35,18.65-3.44.32-6.89.63-10.36.93-39.35,3.41-79.87,5.56-117.12,5.07-12.07-.16-23.79-.59-35.01-1.36-10.6-.71-20.76-1.72-30.36-3.05-.56-.08-1.12-.15-1.61-.22-2.6-.35-5.12-.77-7.58-1.19-.93-.15-1.85-.3-2.77-.46-.69-.11-1.38-.23-2.06-.36-.43-.08-.87-.16-1.3-.25-4.99-.92-9.79-1.98-14.35-3.18-.16-.04-.31-.08-.46-.12v-.01c-.06-.01-.11-.02-.17-.04-2.18-.56-4.35-1.19-6.46-1.82-2.03-.56-4.07-1.26-6.11-1.97-1.96-.63-3.85-1.33-5.75-2.1-.7-64.83-1.12-124.96-1.33-180.74,0-5.96-.07-11.85-.07-17.68-.01-3.34-.02-6.67-.03-9.98-.05-25.68-.05-50.41-.01-74.22.01-4.16.02-8.3.03-12.41v-.54c.03-10.55.07-20.92.12-31.11,0-.19,0-.38.01-.56v-1.35c.09-18.79.22-36.97.38-54.57.18-21.05.42-41.27.7-60.71,0-.55.01-1.1.02-1.65.1-6.99.2-13.88.32-20.67.18-11.47.39-22.65.61-33.56v-.01c.23-11.45.47-22.58.73-33.42v-.01c1.97-81.25,4.82-146.07,8.29-199.27,12.62-193.95,33.41-233.56,49.13-351.72.2-1.51.4-3.03.6-4.57,15.96-122.86,261.2-124.32,264.54-124.33h.03c41.19,31.23,90.09,107.7,138.43,224.17.79,1.9,1.58,3.82,2.38,5.75,1.07,2.6,2.14,5.23,3.21,7.88,1.96,4.83,3.92,9.73,5.87,14.7.6,1.53,1.2,3.06,1.8,4.6,4.41,11.31,8.81,22.94,13.19,34.91.63,1.71,1.26,3.42,1.88,5.14,8.99,24.77,17.91,50.9,26.69,78.37.99,3.1,1.98,6.22,2.97,9.35,1.12,3.54,2.23,7.11,3.34,10.69,1.05,3.38,2.1,6.78,3.14,10.2,1.47,4.82,2.94,9.69,4.41,14.59,1.8,6.02,3.59,12.11,5.38,18.25.88,3.01,1.75,6.04,2.62,9.08.63,2.18,1.26,4.37,1.88,6.57.4,1.4.79,2.8,1.19,4.2,3.57,12.62,7.11,25.48,10.61,38.56.5,1.87,1,3.75,1.5,5.63,1,3.76,1.99,7.53,2.98,11.32.49,1.9.99,3.8,1.48,5.71.5,1.9.99,3.82,1.48,5.73.99,3.83,1.97,7.67,2.95,11.54v.01c.82,3.22,1.63,6.45,2.44,9.69,2.43,9.74,4.84,19.59,7.22,29.55,1.32,5.5,2.64,11.04,3.94,16.62.31,1.32.62,2.65.93,3.98v.14c.59,2.52,1.17,5.05,1.76,7.59,1.62,7.07,3.24,14.19,4.84,21.36,6.34,28.41,12.48,57.64,18.38,87.73,0,.07.07.21.07.28,13.42,68,25.7,140.27,36.5,216.57.13.87.25,1.74.38,2.62,2.23,15.85,4.4,31.87,6.5,48.07Z" fill="#f77a26" stroke-width="0"/>
      <g mix-blend-mode="multiply" opacity=".23">
        <path d="m2271.737,1378.639v-.14c-34.94-150.071-75.004-275.311-115.486-372.621-95.206,7.295-287.517,28.275-296.215,78.299-11.576,66.652,194.836,248.789,128.812,454.079-33.815,105.379-236.02,198.341-296.495,258.119-.494.422-.984.912-1.403,1.333.558,5.263,1.052,10.734,1.472,16.347,6.243,78.79,1.332,180.733,1.332,180.733,1.896.773,3.788,1.474,5.753,2.106,2.035.701,4.071,1.403,6.104,1.964,2.106.63,4.282,1.264,6.457,1.823,6.592,1.824,13.678,3.229,21.116,4.421,2.456.42,4.981.842,7.576,1.192.49.07,1.052.14,1.614.211,68.477,9.05,163.825-1.264,246.616-17.471,26.101-148.739,177.506-414.296,307.794-493.438,0-.07-.069-.209-.069-.279-12.279-41.186-19.927-79.985-24.979-116.679Z" fill="#c9362f" stroke-width="0"/>
      </g>
      <g>
        <path d="m1921.075,1215.937l36.761,239.424s191.553,104.269,222.06,39.45c30.505-64.823-6.516-240.831-7.839-251.312-1.319-10.48-250.981-27.562-250.981-27.562Z" fill="#ffc68f" stroke-width="0"/>
        <g mix-blend-mode="multiply" opacity=".5">
          <path d="m1921.075,1215.937l30.165,196.457c97.899-86.218,237.781-52.319,237.781-52.319l-16.965-116.576-250.981-27.562Z" fill="#ffc68f" stroke-width="0"/>
        </g>
        <path d="m2050.204,1387.733c-112.697-.773-236.127,115.94-300.417,173.443-55.942,50.074-135.455,122.036-187.907,145.465-14.275,3.18-83.046,10.334-143.423-1.796-6.856-1.379-12.897,4.696-11.87,11.619,4.548,30.659,64.303,36.61,64.303,36.61-35.607,11.632-66.442,29.452-83.401,41.588-17.041,12.107-53.043,42.054-51.048,55.177,2.163,13.184,22.592,5.653,38.106-5.58,13.552-9.936,35.44-19.218,37.873-20.246-3.478,3.206-73.26,65.376-69.939,81.695,3.313,15.279,30.314-1.34,49.634-21.03-14.825,15.99-28.082,32.341-26.885,38.598,1.466,8.985,18.498,16.268,43.197-.5-8.236,11.424-10.589,22.178,5.084,22.584,8.481.239,134.219-5.2,213.514-129.653,44.419-29.537,171.554-58.643,350.412-140.35,138.068-63.074,195.593-113.098,202.458-180.546,4.199-41.831-16.968-106.386-129.692-107.077Z" fill="#ffc68f" stroke-width="0"/>
        <path d="m2006.953,914.927c-67.794-12.871-144.825,13.065-174.75,95.439-29.925,82.375,63.716,176.582,63.716,176.582-18.967,32.244,26.154,143.128,20.799,159.786-14.817,46.105,273.023-26.936,292.288-73.353,19.263-46.419-101.145-339.295-202.052-358.454Z" fill="#f77a26" stroke-width="0"/>
      </g>
      <path d="m1982.005,731.288c-15.333-13.062-84.35,2.834-171.825,57.35-87.473,54.518-68.38,71.571-64.479,122.693,78.029-5.112,272.092-129.611,272.092-129.611,0,0-20.451-37.373-35.788-50.432Z" fill="#ef5425" stroke-width="0"/>
      <path d="m421.146,1140.214c-.051-2.13-1.536-4.016-3.936-3.783-2.132.052-3.823,1.808-3.785,3.938,4.159,193.564,59.865,348.841,149.003,415.381.696.516,1.509.762,2.311.762,1.174,0,2.337-.544,3.099-1.55,1.266-1.717.916-4.132-.788-5.411-87.253-65.106-141.797-218.135-145.903-409.337Z" fill="#533dd3" stroke-width="0"/>
      <path d="m724.714,1051.348c-.194-2.119-2.041-3.731-4.198-3.5-2.117.195-3.693,2.068-3.499,4.198,9.788,108.778,25.529,218.202,27.44,231.321l-61.684,110.392c-1.047,1.858-.375,4.209,1.485,5.256.594.334,1.24.49,1.886.49,1.356,0,2.66-.71,3.37-1.975l62.962-112.692-.192-1.303c-.168-1.151-17.214-117.029-27.569-232.187Z" fill="#533dd3" stroke-width="0"/>
      <path d="m824.259,1270.092c-1.111-.143-9.982.219-76.367,10.188-2.116.323-3.563,2.284-3.253,4.39.297,1.924,1.936,3.292,3.822,3.292.181,0,.375-.013.569-.038,66.837-10.047,74.391-10.136,74.378-10.163,2.143.181,4.029-1.29,4.26-3.409.233-2.116-1.29-4.028-3.409-4.26Z" fill="#533dd3" stroke-width="0"/>
      <path d="m899.452,2093.15c-.1.93-.55,1.82-1.33,2.67-.1.11-.2.21-.31.32-1.4,1.37-3.64,2.62-6.63,3.76-.46.17-.93.35-1.43.52-1.24.43-2.6.85-4.06,1.24-.87.24-1.77.48-2.71.7-.32.09-.64.16-.98.23-.97.23-1.98.46-3.02.67-.35.08-.7.15-1.06.21-.7.15-1.41.28-2.14.42h-.03c-10,1.86-22.74,3.32-37.36,4.45-10.8.83-22.63,1.48-35.15,1.98-.36.02-.73.04-1.1.05-.89.04-1.78.07-2.68.1-37.6,1.42-80.92,1.52-120.91,1.08-2.06-.02-4.11-.05-6.15-.07-3.13-.04-6.25-.08-9.33-.13-3.09-.05-6.14-.09-9.16-.14-.73-.02-1.45-.03-2.16-.04-1.69-.03-3.37-.06-5.03-.09-2.01-.04-4-.07-5.97-.11-3.61-.07-7.16-.14-10.64-.22-2.26-.05-4.5-.1-6.69-.15-7.34-.16-14.32-.34-20.87-.52-3.42-.09-6.72-.18-9.89-.27-.62-.02-1.23-.04-1.84-.05-2.51-.08-4.94-.15-7.27-.22-1.08-.03-2.14-.07-3.18-.1-1.64-.05-3.23-.1-4.77-.15-.09-.01-.19-.01-.29-.01-.67-.02-1.33-.05-1.98-.06-.07-.01-.14-.01-.2-.01-.72-.03-1.42-.05-2.11-.07-1.07-.04-2.11-.07-3.12-.1-1.26-.05-2.46-.09-3.62-.13-.63-.02-1.25-.04-1.86-.06-.87-.04-1.7-.06-2.5-.09-1.74-.07-3.31-.12-4.69-.17-.1-.01-.2-.01-.29-.01-1.32-.05-2.46-.1-3.42-.13-.1-.01-.2-.01-.3-.01-1.6-.07-2.65-.11-3.1-.13h-.25l-3.59-19.12-7.35-39.18-35.78-190.69-86.22,211.56-15.13,37.12c-16.1,1.07-35.66-.35-56.44-3.24-5.55-5.84-11.05-11.73-16.48-17.67-29.06-31.77-56.45-65.08-82.04-99.8-1.13-1.52-2.25-3.05-3.36-4.58-14.97-20.49-29.31-41.47-42.99-62.91,4.34-24.65,9.01-50.09,13.76-75.18.46-2.45.93-4.91,1.39-7.35,1.4-7.35,2.8-14.65,4.2-21.89,1.63-8.44,3.26-16.78,4.87-24.99,5.15-26.18,10.16-50.92,14.67-72.74.38-1.85.76-3.68,1.13-5.48,4.12-19.83,7.8-37.02,10.74-50.36,2.96,3.85,6.31,7.91,10.05,12.17,2.39,2.73,4.94,5.54,7.66,8.42,1.84,1.96,3.76,3.96,5.77,6,3.44,3.52,7.11,7.13,10.98,10.82.19.17.38.36.57.54,4.27,4.05,8.78,8.19,13.53,12.41,1.11.99,2.24,1.98,3.38,2.97,23.22,20.31,51.71,42.1,84.34,63.29,30.88,20.07,65.48,39.6,102.83,56.83,25.34,11.71,51.96,22.35,79.54,31.39,49.67,16.27,102.48,27.34,156.7,29.98,20,.99,40.2.82,60.49-.66,5.68-.41,11.36-.93,17.05-1.56,15.7-1.7,31.46-4.22,47.22-7.62,7.27-1.57,14.53-3.32,21.8-5.27,7.76-2.08,15.53-4.38,23.28-6.92,2.78-.93,5.63-.62,8.54.8.31,98.32-.75,191.7-3.53,217.75Z" fill="#5d3ae3" stroke-width="0"/>
      <path d="m1916.711,1355.193c-3.159,0-6.033-1.744-7.501-4.552-.637-1.233-62.872-124.021-70.199-344.48-.08-2.255.728-4.412,2.276-6.064,1.479-1.579,3.463-2.513,5.612-2.651.263-.028.462-.028.561-.028,4.594,0,8.302,3.594,8.448,8.185h0c7.238,217.336,67.693,336.036,68.303,337.21,2.149,4.165.529,9.278-3.597,11.424-1.296.647-2.587.957-3.903.957Zm-.461-8.24h.01-.01Zm-68.27-341.101s0,0,0,0Z" fill="#ef5425" stroke-width="0"/>
    </g>
  </g>
</svg>